<?xml version="1.0" standalone="no"?>
<!DOCTYPE svg PUBLIC "-//W3C//DTD SVG 20010904//EN"
 "http://www.w3.org/TR/2001/REC-SVG-20010904/DTD/svg10.dtd">
<svg version="1.0" xmlns="http://www.w3.org/2000/svg"
 width="260.000000pt" height="260.000000pt" viewBox="0 0 260.000000 260.000000"
 preserveAspectRatio="xMidYMid meet">
<metadata>
Created by potrace 1.11, written by Peter Selinger 2001-2013
</metadata>
<g transform="translate(0.000000,260.000000) scale(0.100000,-0.100000)"
fill="#000000" stroke="none">
<path d="M35 1968 c14 -18 38 -49 53 -68 108 -139 455 -575 458 -575 3 0 45
51 94 114 l90 113 -27 38 c-16 20 -91 121 -168 223 l-140 186 -193 0 -193 1
26 -32z"/>
<path d="M940 1779 c-96 -122 -182 -230 -190 -239 -8 -10 -33 -42 -55 -70 -22
-29 -50 -64 -61 -79 -19 -23 -162 -204 -516 -653 l-108 -138 192 1 193 0 125
161 c69 88 130 165 135 172 6 6 85 106 175 221 91 116 171 217 177 225 7 8 75
93 151 189 75 96 142 176 147 177 6 2 66 -69 135 -158 69 -89 130 -166 135
-172 6 -6 23 -28 39 -48 16 -21 32 -38 37 -38 8 0 171 202 177 220 2 5 -72
108 -164 230 l-167 220 -191 0 -191 0 -175 -221z"/>
<path d="M2180 1953 c-30 -41 -147 -189 -183 -233 -6 -8 -37 -47 -67 -85 -30
-38 -62 -79 -72 -90 -9 -11 -69 -88 -135 -171 -65 -83 -185 -236 -268 -341
l-150 -190 -64 81 c-35 45 -113 143 -173 219 l-109 137 -89 -114 c-50 -63 -90
-118 -90 -121 0 -3 75 -105 167 -225 l167 -220 191 0 191 0 320 406 c175 223
324 411 330 417 5 7 95 120 199 252 103 132 204 259 223 283 l34 42 -193 0
-194 -1 -35 -46z"/>
<path d="M1972 1164 c-53 -66 -89 -120 -85 -127 4 -6 58 -79 121 -162 63 -82
135 -178 161 -212 l46 -62 193 -1 193 0 -77 98 c-82 102 -174 219 -350 442
-59 74 -107 136 -108 137 -2 2 -44 -49 -94 -113z"/>
</g>
</svg>
