<?xml version="1.0" encoding="utf-8"?>
<!-- Generator: Adobe Illustrator 19.0.0, SVG Export Plug-In . SVG Version: 6.00 Build 0)  -->
<svg version="1.1" id="Layer_1" xmlns="http://www.w3.org/2000/svg" xmlns:xlink="http://www.w3.org/1999/xlink" x="0px" y="0px"
	 viewBox="-215 347.7 180 98.3" style="enable-background:new -215 347.7 180 98.3;" xml:space="preserve">
<path style="fill:#E0D7D4;" d="M-109,420.4c3-1.8,5.9-3.7,8.6-6.3c2.2,2.6,5.1,4.6,8.5,6.3v26.3H-109
	C-109,440.9-109,426.2-109,420.4"/>
<path style="fill:#E0D7D4;" d="M-71.9,347.8c20.4,0,36.9,16.5,36.9,36.9c0,17.9-12.8,32.9-29.7,36.2c-2.3,0.5-4.8,0.7-7.3,0.7
	c-0.7,0-1.5,0-2.2-0.1v-17c0.1,0,0.3,0,0.4,0c2.7,0.3,5.4,0,7.9-0.8c8.1-2.6,14-10.2,14-19.1c0-11.1-9-20.1-20.1-20.1
	c-7.2,0-13.5,3.8-17.1,9.5c-1.6-6-4.5-11.5-8.4-16.2C-90.8,351.7-81.8,347.8-71.9,347.8"/>
<path style="fill:#EAE4E4;" d="M-117.7,442h1.5v-0.6c0-0.3-0.1-0.5-0.2-0.6c-0.1-0.1-0.3-0.2-0.6-0.2c-0.3,0-0.5,0.1-0.6,0.2
	c-0.1,0.1-0.1,0.4-0.1,0.7L-117.7,442L-117.7,442z M-117.7,443.1L-117.7,443.1v0.9c0,0.3,0.1,0.6,0.2,0.7c0.1,0.2,0.3,0.2,0.6,0.2
	c0.5,0,0.7-0.3,0.7-0.8v-0.3h1.5c0,1.5-0.7,2.2-2.1,2.2c-0.8,0-1.5-0.2-1.9-0.6c-0.4-0.4-0.6-1-0.6-1.9v-1.7c0-1.5,0.7-2.3,2.2-2.3
	c0.8,0,1.3,0.2,1.7,0.5c0.4,0.3,0.6,1,0.6,2.1v0.9H-117.7L-117.7,443.1z M-122.2,445.8v-8.1h1.5v8.1H-122.2z M-126.7,441.8v1.9
	c0,0.8,0.2,1.1,0.7,1.1c0.4,0,0.7-0.4,0.7-1.1v-2.1c0-0.4-0.1-0.7-0.2-0.8c-0.1-0.1-0.3-0.2-0.5-0.2
	C-126.4,440.6-126.7,441-126.7,441.8z M-128.2,445.8v-8.1h1.5v2.6c0.2-0.5,0.7-0.8,1.3-0.8c0.5,0,0.9,0.1,1.2,0.5
	c0.3,0.3,0.4,0.9,0.4,1.7v2.2c0,1.4-0.5,2.1-1.5,2.1c-0.7,0-1.1-0.3-1.5-0.8v0.7L-128.2,445.8L-128.2,445.8z M-131.4,437.7h1.5v1.3
	h-1.5V437.7z M-131.4,439.7h1.5v6.1h-1.5V439.7z M-137.1,443.8h1.5c0,0.1,0,0.3,0,0.4c0,0.5,0.2,0.7,0.6,0.7c0.4,0,0.7-0.2,0.7-0.5
	c0-0.2-0.1-0.4-0.2-0.5c-0.2-0.1-0.4-0.3-0.6-0.4l-0.9-0.6c-0.8-0.5-1.1-1.1-1.1-1.9c0-1,0.7-1.5,2.2-1.5c0.7,0,1.3,0.2,1.6,0.5
	c0.3,0.3,0.5,0.8,0.5,1.5h-1.5c0-0.4-0.1-0.7-0.2-0.8c-0.1-0.1-0.3-0.2-0.5-0.2c-0.4,0-0.6,0.2-0.6,0.5c0,0.2,0.1,0.3,0.2,0.4
	c0.1,0.1,0.3,0.2,0.5,0.4l1.1,0.7c0.7,0.4,1.1,1,1.1,1.6c0,1.2-0.7,1.8-2.2,1.8c-1.5,0-2.2-0.6-2.2-1.9
	C-137.1,443.9-137.1,443.8-137.1,443.8z M-142.3,443.8h1.5c0,0.1,0,0.3,0,0.4c0,0.5,0.2,0.7,0.6,0.7c0.4,0,0.7-0.2,0.7-0.5
	c0-0.2-0.1-0.4-0.2-0.5c-0.2-0.1-0.4-0.3-0.6-0.4l-0.9-0.6c-0.8-0.5-1.1-1.1-1.1-1.9c0-1,0.7-1.5,2.2-1.5c0.7,0,1.3,0.2,1.6,0.5
	c0.3,0.3,0.5,0.8,0.5,1.5h-1.5c0-0.4-0.1-0.7-0.2-0.8c-0.1-0.1-0.3-0.2-0.5-0.2c-0.4,0-0.6,0.2-0.6,0.5c0,0.2,0.1,0.3,0.2,0.4
	c0.1,0.1,0.3,0.2,0.5,0.4l1.1,0.7c0.7,0.4,1.1,1,1.1,1.6c0,1.2-0.7,1.8-2.2,1.8c-1.5,0-2.2-0.6-2.2-1.9
	C-142.3,443.9-142.3,443.8-142.3,443.8z M-146.4,441.6v2.2c0,0.4,0.1,0.7,0.2,0.8c0.1,0.1,0.3,0.2,0.6,0.2c0.3,0,0.5-0.1,0.6-0.2
	c0.1-0.1,0.1-0.4,0.1-0.8v-2.3c0-0.6-0.3-1-0.8-1c-0.3,0-0.5,0.1-0.6,0.2C-146.3,441-146.4,441.3-146.4,441.6z M-147.9,443.2v-0.7
	c0-1.2,0.2-2,0.6-2.4c0.4-0.4,1-0.5,1.8-0.5c0.8,0,1.4,0.2,1.8,0.6c0.4,0.4,0.5,1.1,0.5,2.2v0.7c0,1.2-0.2,2-0.5,2.3
	s-0.9,0.6-1.8,0.6c-0.9,0-1.5-0.2-1.9-0.6C-147.8,445-147.9,444.2-147.9,443.2z M-152.6,438.9v2.4h0.8c0.4,0,0.7-0.1,0.9-0.3
	c0.2-0.2,0.3-0.5,0.3-1c0-0.4-0.1-0.7-0.3-0.8c-0.2-0.2-0.5-0.2-1-0.2L-152.6,438.9L-152.6,438.9z M-154.3,437.7h3.3
	c0.7,0,1.2,0.2,1.6,0.6c0.4,0.4,0.5,1,0.5,1.7c0,1.6-0.9,2.4-2.6,2.4h-1.1v3.4h-1.6L-154.3,437.7L-154.3,437.7z M-162.9,443.8h1.5
	c0,0.1,0,0.3,0,0.4c0,0.5,0.2,0.7,0.6,0.7c0.4,0,0.7-0.2,0.7-0.5c0-0.2-0.1-0.4-0.2-0.5c-0.2-0.1-0.4-0.3-0.6-0.4l-0.9-0.6
	c-0.8-0.5-1.1-1.1-1.1-1.9c0-1,0.7-1.5,2.2-1.5c0.7,0,1.3,0.2,1.6,0.5c0.3,0.3,0.5,0.8,0.5,1.5h-1.5c0-0.4-0.1-0.7-0.2-0.8
	c-0.1-0.1-0.3-0.2-0.5-0.2c-0.4,0-0.6,0.2-0.6,0.5c0,0.2,0.1,0.3,0.2,0.4c0.1,0.1,0.3,0.2,0.5,0.4l1.1,0.7c0.7,0.4,1.1,1,1.1,1.6
	c0,1.2-0.7,1.8-2.2,1.8c-1.5,0-2.2-0.6-2.2-1.9C-162.9,443.9-162.9,443.8-162.9,443.8z M-167.2,442.5L-167.2,442.5l1.4,0v0l-0.7-3.3
	h0L-167.2,442.5z M-169.7,445.8l2.1-8.1h2.2l2,8.1h-1.8l-0.4-2.1h-1.9l-0.4,2.1H-169.7z M-176.5,442h1.5v-0.6c0-0.3-0.1-0.5-0.2-0.6
	c-0.1-0.1-0.3-0.2-0.6-0.2c-0.3,0-0.5,0.1-0.6,0.2c-0.1,0.1-0.1,0.4-0.1,0.7V442z M-176.5,443.1L-176.5,443.1v0.9
	c0,0.3,0.1,0.6,0.2,0.7c0.1,0.2,0.3,0.2,0.6,0.2c0.5,0,0.7-0.3,0.7-0.8v-0.3h1.5c0,1.5-0.7,2.2-2.1,2.2c-0.8,0-1.5-0.2-1.9-0.6
	c-0.4-0.4-0.6-1-0.6-1.9v-1.7c0-1.5,0.7-2.3,2.2-2.3c0.8,0,1.3,0.2,1.7,0.5c0.4,0.3,0.6,1,0.6,2.1v0.9H-176.5L-176.5,443.1z
	 M-181,445.8v-8.1h1.5v8.1H-181z M-184.3,437.7h1.5v1.3h-1.5V437.7z M-184.3,439.7h1.5v6.1h-1.5V439.7z M-188.7,441.7v2.1
	c0,0.7,0.2,1.1,0.6,1.1c0.5,0,0.7-0.4,0.7-1.2v-1.9c0-0.8-0.2-1.1-0.7-1.1c-0.4,0-0.6,0.3-0.6,0.8L-188.7,441.7L-188.7,441.7z
	 M-190.2,446.5h1.5c0,0.2,0.2,0.3,0.5,0.3h0.1c0.5,0,0.7-0.3,0.7-1v-0.8c-0.3,0.6-0.8,0.8-1.4,0.8c-1,0-1.5-0.7-1.5-2.1v-2.2
	c0-0.8,0.1-1.3,0.4-1.6c0.3-0.3,0.7-0.5,1.2-0.5c0.6,0,1.1,0.3,1.3,0.9v-0.7h1.6v5.9c0,0.7-0.2,1.3-0.5,1.7
	c-0.4,0.4-0.9,0.6-1.6,0.6c-0.8,0-1.4-0.1-1.7-0.3C-190,447.3-190.1,446.9-190.2,446.5z M-195,442.5L-195,442.5l1.4,0v0l-0.7-3.3h0
	L-195,442.5z M-197.4,445.8l2.1-8.1h2.2l2,8.1h-1.8l-0.4-2.1h-1.9l-0.4,2.1H-197.4z M-205.3,443.8h1.5c0,0.1,0,0.3,0,0.4
	c0,0.5,0.2,0.7,0.6,0.7c0.4,0,0.7-0.2,0.7-0.5c0-0.2-0.1-0.4-0.2-0.5c-0.2-0.1-0.4-0.3-0.6-0.4l-0.9-0.6c-0.8-0.5-1.1-1.1-1.1-1.9
	c0-1,0.7-1.5,2.2-1.5c0.7,0,1.3,0.2,1.6,0.5c0.3,0.3,0.5,0.8,0.5,1.5h-1.5c0-0.4-0.1-0.7-0.2-0.8c-0.1-0.1-0.3-0.2-0.5-0.2
	c-0.4,0-0.6,0.2-0.6,0.5c0,0.2,0.1,0.3,0.2,0.4c0.1,0.1,0.3,0.2,0.5,0.4l1.1,0.7c0.7,0.4,1.1,1,1.1,1.6c0,1.2-0.7,1.8-2.2,1.8
	c-1.5,0-2.2-0.6-2.2-1.9C-205.4,443.9-205.3,443.8-205.3,443.8z M-209.7,442.5L-209.7,442.5l1.4,0v0l-0.7-3.3h0L-209.7,442.5z
	 M-212.1,445.8l2.1-8.1h2.2l2,8.1h-1.8l-0.4-2.1h-1.9l-0.4,2.1H-212.1z"/>
<path style="fill:#E0D7D4;" d="M-159.3,413.4c-0.9,0.8-1.8,1.5-2.8,2.1c-3.3,2.2-7.2,3.7-11.4,4.8c-4.8,1.2-9.9,1.7-15,1.7
	c-3.2,0-6.5-0.2-9.7-0.6c-2.8-0.3-5.6-0.8-8.3-1.5c-2.2-0.6-4.4-1.2-6.3-2.2l-1.3-0.6l5.5-15.2l2.3,1.1c1.3,0.6,2.8,1.1,4.2,1.5
	c1.8,0.5,3.8,1,5.7,1.3c2,0.3,5.5,0.5,7.5,0.5c2.4,0,6.3-0.3,8.4-1.1c1.7-0.6,3.1-1.5,4.1-2.7c1-1.2,1.4-2.5,1.4-3.9
	c0-5.4-6.5-8.5-11.4-8.5h-14.2v-14.3h13.6c8.1-0.3,12-5.4,8.5-9.7c-0.7-0.9-1.8-1.5-3-2c-1.7-0.6-5-0.8-6.9-0.8
	c-4.5,0-11.5,1.4-15.5,3.2l-2.3,1l-5.1-14.5l1.3-0.6c2-1,4.3-1.7,6.6-2.3c2.8-0.8,5.8-1.3,8.8-1.8c3.3-0.5,6.6-0.7,10-0.7
	c4.2,0,8.5,0.4,12.5,1.5c3.4,0.9,6.6,2.2,9.3,4c1.4,0.9,2.6,2,3.7,3.2c-7.1,7.5-11.5,17.6-11.5,28.6
	C-170.6,395.9-166.3,405.9-159.3,413.4"/>
<g>
	<g>
		<g>
			<path style="fill:#EAE4E4;" d="M-87.1,397.8c-1.9-2.2-3.3-4.8-4.1-7.7c-1-3.4-0.8-5.8-1.1-9.3c-1.9-18.6-17.7-33-36.7-33
				c-1.9,0-3.8,0.1-5.6,0.4c-17.9,2.6-31.6,18-31.6,36.6c0,20.5,16.6,37,37,37c11.6,0,22-5.3,28.8-13.7c3.4,4.1,7.7,7.5,12.5,9.8
				c2.9,1.4,6,2.4,9.2,3v-17.5C-82.2,402.4-84.6,400.5-87.1,397.8z M-129.1,404.8c-11.1,0-20.1-9-20.1-20.1s9-20.1,20.1-20.1
				c11.1,0,20.1,9,20.1,20.1S-118,404.8-129.1,404.8z"/>
		</g>
	</g>
</g>
</svg>
