<?xml version="1.0" encoding="utf-8"?>
<!-- Generator: Adobe Illustrator 19.0.0, SVG Export Plug-In . SVG Version: 6.00 Build 0)  -->
<svg version="1.1" xmlns="http://www.w3.org/2000/svg" xmlns:xlink="http://www.w3.org/1999/xlink" x="0px" y="0px"
	 viewBox="0 0 465 286.4" style="enable-background:new 0 0 465 286.4;" xml:space="preserve">
<style type="text/css">
	.st0{fill:#916B53;}
	.st1{opacity:0.2;fill:#FFFFFF;}
	.st2{fill:#5C4435;}
	.st3{fill:#4A2722;}
	.st4{fill:#5C302A;}
	.st5{opacity:0.4;fill:#916B53;}
	.st6{fill:#FFC44F;}
	.st7{fill:#E6A016;}
	.st8{fill:#FFFFFF;}
	.st9{fill:#70CDFF;}
	.st10{fill:#A3785D;}
</style>
<g id="Background">
</g>
<g id="Objects">
	<g>
		<path class="st0" d="M244.1,0C137.8,0,82.1,78,82.1,78s55.6,78,161.9,78C350.4,156,406,78,406,78S350.4,0,244.1,0z"/>
		<path class="st1" d="M244.1,42.4C137.8,42.4,82.1,78,82.1,78s55.6,35.6,161.9,35.6C350.4,113.6,406,78,406,78
			S350.4,42.4,244.1,42.4z"/>
		<rect x="93.8" y="79.6" class="st2" width="303.7" height="9.6"/>
		<g>
			<polygon class="st2" points="265.9,201.4 258.5,201.4 313.1,86.1 320.5,86.1 			"/>
			<polygon class="st2" points="188.7,201.4 196.1,201.4 141.5,86.1 134.1,86.1 			"/>
			<g>
				<path class="st3" d="M127.9,218.2c0.5-1.1,1.6-1.7,2.8-1.7H184l6.8-11.7c0.6-1,1.6-1.6,2.8-1.6h93.7c1.2,0,2.3,0.7,2.9,1.8
					c0.5,1.1,0.4,2.4-0.4,3.4l-47.4,59c-0.6,0.8-1.5,1.2-2.5,1.2h-75.8c-1,0-2-0.5-2.6-1.3l-33.3-45.7
					C127.4,220.5,127.3,219.3,127.9,218.2z"/>
				<path class="st4" d="M361.7,207.2c-0.7-1.4-2.2-2.3-3.7-2.3h-70l-9-15.4c-0.8-1.3-2.1-2.1-3.6-2.1H152.1c-1.6,0-3.1,0.9-3.8,2.4
					c-0.7,1.5-0.5,3.2,0.5,4.4l62.4,77.6c0.8,1,2,1.6,3.3,1.6h99.7c1.3,0,2.6-0.6,3.4-1.7l43.9-60.1
					C362.3,210.3,362.5,208.6,361.7,207.2z"/>
				<path class="st0" d="M335.2,277.5c0,4.9-4,8.9-8.9,8.9H207.8c-4.9,0-8.9-4-8.9-8.9l0,0c0-4.9,4-8.9,8.9-8.9h118.4
					C331.2,268.6,335.2,272.6,335.2,277.5L335.2,277.5z"/>
				<path class="st0" d="M300,195c0,6.2-5,11.3-11.3,11.3H148.7c-6.2,0-11.3-5-11.3-11.3l0,0c0-6.2,5-11.3,11.3-11.3h140.1
					C295,183.7,300,188.8,300,195L300,195z"/>
				<polygon class="st5" points="191.9,247.9 335,247.9 351.7,224.9 173.4,224.9 				"/>
				<g>
					<g>
						<circle class="st6" cx="221.1" cy="236.4" r="18.3"/>
						<circle class="st7" cx="221.1" cy="236.4" r="14.4"/>
						<circle class="st8" cx="221.1" cy="236.4" r="12.3"/>
						<g>
							<circle class="st9" cx="221.1" cy="236.4" r="10.6"/>
							<path class="st1" d="M221.1,225.7c-5.9,0-10.6,4.8-10.6,10.6h21.3C231.8,230.5,227,225.7,221.1,225.7z"/>
							<circle class="st8" cx="217.3" cy="231.8" r="2.8"/>
						</g>
					</g>
					<g>
						<circle class="st6" cx="268.2" cy="236.4" r="18.3"/>
						<circle class="st7" cx="268.2" cy="236.4" r="14.4"/>
						<circle class="st8" cx="268.2" cy="236.4" r="12.3"/>
						<g>
							<circle class="st9" cx="268.2" cy="236.4" r="10.6"/>
							<path class="st1" d="M268.2,225.7c-5.9,0-10.6,4.8-10.6,10.6h21.3C278.9,230.5,274.1,225.7,268.2,225.7z"/>
							<circle class="st8" cx="264.4" cy="231.8" r="2.8"/>
						</g>
					</g>
				</g>
			</g>
		</g>
		<path class="st0" d="M14,137.5c0,0,41.9-31.7-7.4-76.9c0,0,43.5-19.7,7.4-59.2c0,0,62.7,2.1,111.9,52c0,0,0.1,28-4.1,39.3
			C121.8,92.8,59.7,140.5,14,137.5z"/>
		<path class="st4" d="M107.6,77c0,0-41.1-13.1-101-16.4c0,0,50.9-4.1,105.2,11.5L107.6,77z"/>
		<path class="st4" d="M120.7,53.7c0,0-36.9-45.7-106.7-52.3c0,0,68.2,2.5,111.9,48.5L120.7,53.7z"/>
		<path class="st4" d="M120.7,85.2c0,0-36.9,45.7-106.7,52.3c0,0,68.2-2.5,111.9-48.5L120.7,85.2z"/>
		<ellipse transform="matrix(0.9695 -0.2453 0.2453 0.9695 -14.5968 34.6901)" class="st4" cx="132" cy="75.9" rx="29.1" ry="30"/>
		<g>
			<g>
				<path class="st4" d="M145.9,103.7c0.9,3.7-1.2,7.4-4.8,8.3l0,0c-3.6,0.9-7.2-1.3-8.1-5l-14.8-58.7c-0.9-3.7,1.2-7.4,4.8-8.3l0,0
					c3.6-0.9,7.2,1.3,8.1,5L145.9,103.7z"/>
				<path class="st4" d="M158.8,62.1c3.6-0.9,7.2,1.3,8.1,5l0,0c0.9,3.7-1.2,7.4-4.8,8.3l-56.9,14.4c-3.6,0.9-7.2-1.3-8.1-5l0,0
					c-0.9-3.7,1.2-7.4,4.8-8.3L158.8,62.1z"/>
			</g>
			<g>
				<path class="st4" d="M160.7,85.7c3.2,2,4.2,6.2,2.4,9.4l0,0c-1.9,3.2-5.9,4.3-9.1,2.3l-50.7-31.3c-3.2-2-4.2-6.2-2.4-9.4l0,0
					c1.9-3.2,5.9-4.3,9.1-2.3L160.7,85.7z"/>
				<path class="st4" d="M141.1,46.6c1.9-3.2,5.9-4.3,9.1-2.3l0,0c3.2,2,4.2,6.2,2.4,9.4l-29.8,51.7c-1.9,3.2-5.9,4.3-9.1,2.3l0,0
					c-3.2-2-4.2-6.2-2.4-9.4L141.1,46.6z"/>
			</g>
		</g>
		<ellipse transform="matrix(0.9695 -0.2453 0.2453 0.9695 -14.5967 34.6899)" class="st0" cx="132" cy="75.9" rx="19.4" ry="20"/>
		
			<ellipse transform="matrix(0.9695 -0.2453 0.2453 0.9695 -14.5967 34.6898)" class="st4" cx="132" cy="75.9" rx="10.2" ry="10.5"/>
		<g>
			<path class="st0" d="M161,248.1c1.5-0.4,2.3-1.9,2-3.4c-0.4-1.5-1.9-2.4-3.3-2.1l-0.4,0.1c-0.6-1.2-1.4-2.3-2.3-3.2l0.2-0.4
				c0.8-1.3,0.3-3.1-1-3.9c-1.3-0.8-3-0.4-3.8,0.9l-0.2,0.4c-1.2-0.4-2.5-0.6-3.8-0.6l-0.1-0.4c-0.4-1.5-1.9-2.4-3.3-2.1
				c-1.5,0.4-2.3,1.9-2,3.4l0.1,0.4c-1.2,0.6-2.2,1.4-3.1,2.3l-0.4-0.2c-1.3-0.8-3-0.4-3.8,0.9c-0.8,1.3-0.3,3.1,1,3.9l0.4,0.2
				c-0.4,1.2-0.6,2.6-0.5,3.9l-0.4,0.1c-1.5,0.4-2.3,1.9-2,3.4c0.4,1.5,1.9,2.4,3.3,2.1l0.4-0.1c0.6,1.2,1.4,2.3,2.3,3.2l-0.2,0.4
				c-0.8,1.3-0.3,3.1,1,3.9c1.3,0.8,3,0.4,3.8-0.9l0.2-0.4c1.2,0.4,2.5,0.6,3.8,0.6l0.1,0.4c0.4,1.5,1.9,2.4,3.3,2.1
				c1.5-0.4,2.3-1.9,2-3.4l-0.1-0.4c1.2-0.6,2.2-1.4,3.1-2.3l0.4,0.2c1.3,0.8,3,0.4,3.8-0.9c0.8-1.3,0.3-3.1-1-3.9l-0.4-0.2
				c0.4-1.2,0.6-2.6,0.5-3.9L161,248.1z"/>
			<circle class="st4" cx="148.6" cy="248.3" r="6.7"/>
		</g>
		<g>
			<polygon class="st2" points="412.3,74.1 412.3,81.9 458.3,78 			"/>
			<path class="st0" d="M383.4,50.8v54.3C400.4,91.6,421.7,78,421.7,78S400.4,64.3,383.4,50.8z"/>
			<path class="st10" d="M383.4,66.3v23.3c16.9-5.8,38.3-11.6,38.3-11.6S400.4,72.1,383.4,66.3z"/>
		</g>
	</g>
</g>
</svg>
