<svg id="Layer_1" data-name="Layer 1" xmlns="http://www.w3.org/2000/svg" viewBox="0 0 77.66 77.66"><defs><style>.cls-1{fill:#877978;}.cls-2{fill:#f2d03f;}.cls-3{fill:#e8e3e3;stroke:#877978;stroke-miterlimit:10;}.cls-4{fill:#a99e9f;}</style></defs><title>clock-bg</title><path class="cls-1" d="M52.59,86.41A2.59,2.59,0,0,1,50,89h0a2.59,2.59,0,0,1-2.59-2.59V13.93A2.59,2.59,0,0,1,50,11.34h0a2.59,2.59,0,0,1,2.59,2.59V86.41Z" transform="translate(-11.17 -11.34)"/><path class="cls-1" d="M66.26,82.65A2.59,2.59,0,0,1,64.86,86h0a2.59,2.59,0,0,1-3.39-1.4l-27.73-67a2.59,2.59,0,0,1,1.4-3.39h0a2.59,2.59,0,0,1,3.39,1.4Z" transform="translate(-11.17 -11.34)"/><path class="cls-1" d="M77.46,74a2.59,2.59,0,0,1,0,3.67h0a2.59,2.59,0,0,1-3.67,0L22.54,26.38a2.59,2.59,0,0,1,0-3.67h0a2.59,2.59,0,0,1,3.67,0Z" transform="translate(-11.17 -11.34)"/><path class="cls-1" d="M84.47,61.64A2.59,2.59,0,0,1,85.88,65h0a2.59,2.59,0,0,1-3.39,1.4l-67-27.73a2.59,2.59,0,0,1-1.4-3.39h0a2.59,2.59,0,0,1,3.39-1.4Z" transform="translate(-11.17 -11.34)"/><path class="cls-1" d="M86.24,47.57a2.59,2.59,0,0,1,2.59,2.59h0a2.59,2.59,0,0,1-2.59,2.59H13.76a2.59,2.59,0,0,1-2.59-2.59h0a2.59,2.59,0,0,1,2.59-2.59H86.24Z" transform="translate(-11.17 -11.34)"/><path class="cls-1" d="M82.48,33.9a2.59,2.59,0,0,1,3.39,1.4h0a2.59,2.59,0,0,1-1.4,3.39l-67,27.73A2.59,2.59,0,0,1,14.12,65h0a2.59,2.59,0,0,1,1.4-3.39Z" transform="translate(-11.17 -11.34)"/><path class="cls-1" d="M73.79,22.71a2.59,2.59,0,0,1,3.67,0h0a2.59,2.59,0,0,1,0,3.67L26.21,77.63a2.59,2.59,0,0,1-3.67,0h0a2.59,2.59,0,0,1,0-3.67Z" transform="translate(-11.17 -11.34)"/><path class="cls-1" d="M61.47,15.7a2.59,2.59,0,0,1,3.39-1.4h0a2.59,2.59,0,0,1,1.4,3.39l-27.73,67A2.59,2.59,0,0,1,35.14,86h0a2.59,2.59,0,0,1-1.4-3.39Z" transform="translate(-11.17 -11.34)"/><circle class="cls-1" cx="38.83" cy="38.83" r="34.96"/><path class="cls-2" d="M50,18.69A31.48,31.48,0,1,0,81.48,50.17,31.48,31.48,0,0,0,50,18.69Zm0,59.18a27.7,27.7,0,1,1,27.7-27.7A27.7,27.7,0,0,1,50,77.87Z" transform="translate(-11.17 -11.34)"/><circle class="cls-3" cx="38.83" cy="38.83" r="28.22"/><circle class="cls-1" cx="38.83" cy="38.83" r="2.82"/><rect class="cls-4" x="38.36" y="13.25" width="0.94" height="4.38"/><rect class="cls-4" x="38.36" y="59.69" width="0.94" height="4.38"/><rect class="cls-4" x="72.75" y="47.81" width="0.94" height="4.38" transform="translate(112.05 -34.56) rotate(90)"/><rect class="cls-4" x="26.31" y="47.81" width="0.94" height="4.38" transform="translate(65.61 11.88) rotate(90)"/><rect class="cls-4" x="37.92" y="27.7" width="0.94" height="4.38" transform="translate(-20.97 11.86) rotate(-30)"/><rect class="cls-4" x="61.14" y="67.92" width="0.94" height="4.38" transform="translate(-37.97 28.86) rotate(-30)"/><rect class="cls-4" x="29.42" y="36.2" width="0.94" height="4.38" transform="translate(-29.47 33.74) rotate(-60)"/><rect class="cls-4" x="69.64" y="59.42" width="0.94" height="4.38" transform="translate(-29.47 80.18) rotate(-60)"/><rect class="cls-4" x="61.14" y="27.7" width="0.94" height="4.38" transform="translate(12.03 -38.14) rotate(30)"/><rect class="cls-4" x="37.92" y="67.92" width="0.94" height="4.38" transform="translate(29.03 -21.14) rotate(30)"/><rect class="cls-4" x="69.64" y="36.2" width="0.94" height="4.38" transform="translate(57.13 -52.86) rotate(60)"/><rect class="cls-4" x="29.42" y="59.42" width="0.94" height="4.38" transform="translate(57.13 -6.42) rotate(60)"/></svg>