<svg id="Layer_1" data-name="Layer 1" xmlns="http://www.w3.org/2000/svg" viewBox="0 0 77.66 77.66"><defs><style>.cls-1{fill:#877978;}.cls-2{fill:#f2d03f;}.cls-3{fill:#e8e3e3;stroke:#877978;stroke-miterlimit:10;}</style></defs><title>clock-bg</title><path class="cls-1" d="M52.58,86.41A2.59,2.59,0,0,1,50,89h0a2.59,2.59,0,0,1-2.59-2.59V13.93A2.59,2.59,0,0,1,50,11.34h0a2.59,2.59,0,0,1,2.59,2.59V86.41Z" transform="translate(-11.16 -11.34)"/><path class="cls-1" d="M66.25,82.65A2.59,2.59,0,0,1,64.85,86h0a2.59,2.59,0,0,1-3.39-1.4l-27.73-67a2.59,2.59,0,0,1,1.4-3.39h0a2.59,2.59,0,0,1,3.39,1.4Z" transform="translate(-11.16 -11.34)"/><path class="cls-1" d="M77.45,74a2.59,2.59,0,0,1,0,3.67h0a2.59,2.59,0,0,1-3.67,0L22.53,26.38a2.59,2.59,0,0,1,0-3.67h0a2.59,2.59,0,0,1,3.67,0Z" transform="translate(-11.16 -11.34)"/><path class="cls-1" d="M84.46,61.64A2.59,2.59,0,0,1,85.86,65h0a2.59,2.59,0,0,1-3.39,1.4l-67-27.73a2.59,2.59,0,0,1-1.4-3.39h0a2.59,2.59,0,0,1,3.39-1.4Z" transform="translate(-11.16 -11.34)"/><path class="cls-1" d="M86.23,47.57a2.59,2.59,0,0,1,2.59,2.59h0a2.59,2.59,0,0,1-2.59,2.59H13.75a2.59,2.59,0,0,1-2.59-2.59h0a2.59,2.59,0,0,1,2.59-2.59H86.23Z" transform="translate(-11.16 -11.34)"/><path class="cls-1" d="M82.47,33.9a2.59,2.59,0,0,1,3.39,1.4h0a2.59,2.59,0,0,1-1.4,3.39l-67,27.73A2.59,2.59,0,0,1,14.11,65h0a2.59,2.59,0,0,1,1.4-3.39Z" transform="translate(-11.16 -11.34)"/><path class="cls-1" d="M73.78,22.71a2.59,2.59,0,0,1,3.67,0h0a2.59,2.59,0,0,1,0,3.67L26.2,77.63a2.59,2.59,0,0,1-3.67,0h0a2.59,2.59,0,0,1,0-3.67Z" transform="translate(-11.16 -11.34)"/><path class="cls-1" d="M61.46,15.7a2.59,2.59,0,0,1,3.39-1.4h0a2.59,2.59,0,0,1,1.4,3.39l-27.73,67A2.59,2.59,0,0,1,35.13,86h0a2.59,2.59,0,0,1-1.4-3.39Z" transform="translate(-11.16 -11.34)"/><circle class="cls-1" cx="38.83" cy="38.83" r="34.96"/><path class="cls-2" d="M50,18.69A31.48,31.48,0,1,0,81.47,50.17,31.48,31.48,0,0,0,50,18.69Zm0,59.18a27.7,27.7,0,1,1,27.7-27.7A27.7,27.7,0,0,1,50,77.87Z" transform="translate(-11.16 -11.34)"/><circle class="cls-3" cx="38.83" cy="38.83" r="28.22"/><circle class="cls-1" cx="38.83" cy="38.83" r="2.82"/></svg>