<?xml version="1.0" encoding="utf-8"?>
<!-- Generator: Adobe Illustrator 19.0.0, SVG Export Plug-In . SVG Version: 6.00 Build 0)  -->
<svg version="1.1" id="Layer_1" xmlns="http://www.w3.org/2000/svg" xmlns:xlink="http://www.w3.org/1999/xlink" x="0px" y="0px"
	 viewBox="0 0 235.8 96.5" style="enable-background:new 0 0 235.8 96.5;" xml:space="preserve">
<g>
	<path style="fill:#F8F8F8;" d="M12.8,60.8v-4.1H4.4V44.8h7.4v-4H4.4V30.5h8v-4H0.2v34.3H12.8L12.8,60.8z M43.3,60.8l-6.3-18.2
		l5.6-16.1h-4.4l-3.6,12l-3.7-12h-4.4l5.6,16.1l-6.3,18.2h4.5l4.2-13.2l4.2,13.2H43.3L43.3,60.8z M69.9,59.3v-4.5
		c-1.6,1.7-3.1,2.5-4.6,2.5c-3.7,0-4.8-4.7-4.8-14c0-9,1-13.4,5.1-13.4c1.4,0,2.8,0.7,4.3,2.1v-4.4c-1.7-1.1-3.3-1.6-5-1.6
		c-6,0-8.9,6-8.9,18.1c0,11.5,3.2,17.4,9.1,17.4C67.1,61.3,68.6,60.7,69.9,59.3L69.9,59.3z M97.8,60.8v-4.1h-8.4V44.8h7.4v-4h-7.4
		V30.5h8v-4H85.1v34.3H97.8L97.8,60.8z M126.3,60.8v-4.1h-8.4V26.5h-4.3v34.3H126.3L126.3,60.8z M150.3,53.6c0-4.3-2.7-8.5-5.4-14.3
		c-1.3-2.6-2-4.6-2-6.2c0-2,1.3-3.3,3.2-3.3c1.1,0,2.2,0.5,3.3,1.3v-4.2c-1.3-0.7-2.5-1.1-3.7-1.1c-4.1,0-7,3-7,7.4
		c0,3.2,1.6,6.6,3.9,11.2c1.9,3.8,3.6,6.6,3.6,9c0,2.3-1.4,3.7-3.4,3.7c-1.4,0-2.6-0.7-4-1.9v4.7c1.5,0.9,2.9,1.3,4.2,1.3
		C147,61.4,150.3,58.2,150.3,53.6L150.3,53.6z M170.7,60.8V26.5h-4.2v34.3H170.7L170.7,60.8z M205,43.7c0-11.8-3.3-17.7-9.3-17.7
		c-5.9,0-9.3,6-9.3,17.7c0,11.7,3.4,17.8,9.3,17.8C201.7,61.4,205,55.4,205,43.7L205,43.7z M200.6,43.7c0,9.1-1.8,13.8-4.9,13.8
		c-3.2,0-4.8-4.6-4.8-13.8c0-9.2,1.7-13.8,4.8-13.8C198.8,29.8,200.6,34.5,200.6,43.7L200.6,43.7z M235.8,60.8l-2.2-9.2
		c-1.1-4.6-2.2-7.4-4.6-8.7c2.7-1.5,4-3.9,4-7.3c0-5.6-3.3-9.1-8.5-9.1h-4.1v34.3h4.2V45.1c0.2,0,0.4-0.1,0.6-0.1
		c1.9,0,3.1,2.5,4.3,7.6l1.9,8.2H235.8L235.8,60.8z M228.7,36.2c0,3.2-1.3,4.9-3.7,4.9h-0.4V30.4h0.2
		C227.3,30.4,228.7,32.3,228.7,36.2L228.7,36.2z"/>
	<line style="fill:none;stroke:#F7F7F7;stroke-width:0.9998;stroke-miterlimit:22.9256;" x1="0" y1="69.2" x2="235.5" y2="69.2"/>
	<path style="fill-rule:evenodd;clip-rule:evenodd;fill:#FBFBFB;" d="M164.8,2.7c6.9-3.8,14.4-3.5,16.6,0.6
		c2.2,4.1-1.6,10.5-8.5,14.3c-6.9,3.8-14.4,3.5-16.6-0.6C154.1,12.9,157.9,6.5,164.8,2.7L164.8,2.7z"/>
	<path style="fill:#F7F7F7;" d="M28.8,96.1V77.9h-4.1v7.2h-4.2v-7.2h-4.1v18.1h4.1v-7.7h4.2v7.7H28.8L28.8,96.1z M48.3,87
		c0-5.8-2.8-9.4-6.9-9.4c-4.1,0-6.9,3.6-6.9,9.4c0,5.8,2.9,9.4,6.9,9.4C45.5,96.4,48.3,92.8,48.3,87L48.3,87z M44.2,87
		c0,3.9-1,5.9-2.7,5.9c-1.7,0-2.7-2-2.7-5.9c0-3.9,1-5.9,2.7-5.9C43.2,81.1,44.2,83.1,44.2,87L44.2,87z M64.2,81.2v-3.3H52.7v3.3
		h3.7v14.9h4.1V81.2H64.2L64.2,81.2z M79.6,96.1v-3.2h-6.3v-4.5H79v-3.1h-5.7v-4.1h6.2v-3.2H69.3v18.1H79.6L79.6,96.1z M96,96.1
		v-3.3h-6.2V77.9h-4.1v18.1H96L96,96.1z"/>
	<path style="fill:#F7F7F7;" d="M115.6,90.8c0-2.3-0.8-3.7-2.6-4.5c1.5-1,2.2-2.1,2.2-3.8c0-2.9-1.8-4.5-5.2-4.5h-2.2v18.1h3
		C113.6,96.1,115.6,94.1,115.6,90.8L115.6,90.8z M113,82.7c0,1.9-0.9,2.9-2.7,2.9H110v-5.4h0.4C112.1,80.1,113,81,113,82.7L113,82.7
		z M113.3,90.8c0,2.2-1,3.2-2.9,3.2H110v-6.4h0.3C112.3,87.6,113.3,88.7,113.3,90.8L113.3,90.8z M130.8,96.1V94h-4.5v-6.3h3.9v-2.1
		h-3.9v-5.4h4.2V78h-6.4v18.1H130.8L130.8,96.1z M148.1,87.1c0-6.2-1.8-9.4-4.9-9.4c-3.1,0-4.9,3.2-4.9,9.4c0,6.2,1.8,9.4,4.9,9.4
		C146.4,96.4,148.1,93.2,148.1,87.1L148.1,87.1z M145.8,87.1c0,4.8-0.9,7.3-2.6,7.3c-1.7,0-2.5-2.4-2.5-7.3c0-4.9,0.9-7.3,2.5-7.3
		C144.8,79.8,145.8,82.2,145.8,87.1L145.8,87.1z M164.6,95.4v-9h-3.8v2.1h1.6v5.7c-0.5,0.1-0.8,0.2-1.1,0.2c-2.2,0-3.5-2.4-3.5-7.2
		c0-4.9,1.3-7.4,3.5-7.4c1.1,0,2.2,0.6,3.2,1.7V79c-1-0.8-2.1-1.3-3.3-1.3c-3.6,0-5.8,3.3-5.8,9.5c0,6,2.4,9.3,6.1,9.3
		C162.6,96.5,163.6,96.1,164.6,95.4L164.6,95.4z M181.2,96.1l-1.1-4.8c-0.6-2.4-1.2-3.9-2.4-4.6c1.4-0.8,2.1-2,2.1-3.9
		c0-3-1.8-4.8-4.5-4.8h-2.2v18.1h2.2v-8.3c0.1,0,0.2-0.1,0.3-0.1c1,0,1.6,1.3,2.3,4l1,4.3H181.2L181.2,96.1z M177.4,83.1
		c0,1.7-0.7,2.6-1.9,2.6h-0.2v-5.6h0.1C176.7,80.1,177.4,81.1,177.4,83.1L177.4,83.1z M196.4,96.1L193,78h-2.4l-3.4,18.1h2.3l0.7-4
		h3.3l0.7,4H196.4L196.4,96.1z M193.1,90h-2.6l1-5.8c0.1-0.8,0.2-1.8,0.3-2.8c0.1,1.4,0.3,2.3,0.3,2.8L193.1,90L193.1,90z M212.5,87
		c0-6-2-9-6.1-9h-2.6v18.1h2.6C210.5,96.1,212.5,93.1,212.5,87L212.5,87z M210.2,87.1c0,4.7-1.1,6.9-3.8,6.9H206V80.1h0.4
		C209.1,80.1,210.2,82.3,210.2,87.1L210.2,87.1z"/>
</g>
</svg>
