<?xml version="1.0" encoding="utf-8"?>
<!-- Generator: Adobe Illustrator 19.0.0, SVG Export Plug-In . SVG Version: 6.00 Build 0)  -->
<svg version="1.1" id="Layer_1" xmlns="http://www.w3.org/2000/svg" xmlns:xlink="http://www.w3.org/1999/xlink" x="0px" y="0px"
	 viewBox="-187 348.5 235.8 96.5" style="enable-background:new -187 348.5 235.8 96.5;" xml:space="preserve">
<style type="text/css">
	.st0{fill:#E0D7D4;}
	.st1{fill:#E0D7D4;stroke:#F7F7F7;stroke-width:0.9998;stroke-miterlimit:22.9256;}
</style>
<g>
	<path class="st0" d="M-174.2,409.3v-4.1h-8.4v-11.9h7.4v-4h-7.4V379h8v-4h-12.2v34.3H-174.2L-174.2,409.3z M-143.7,409.3l-6.3-18.2
		l5.6-16.1h-4.4l-3.6,12l-3.7-12h-4.4l5.6,16.1l-6.3,18.2h4.5l4.2-13.2l4.2,13.2H-143.7L-143.7,409.3z M-117.1,407.8v-4.5
		c-1.6,1.7-3.1,2.5-4.6,2.5c-3.7,0-4.8-4.7-4.8-14c0-9,1-13.4,5.1-13.4c1.4,0,2.8,0.7,4.3,2.1v-4.4c-1.7-1.1-3.3-1.6-5-1.6
		c-6,0-8.9,6-8.9,18.1c0,11.5,3.2,17.4,9.1,17.4C-119.9,409.8-118.4,409.2-117.1,407.8L-117.1,407.8z M-89.2,409.3v-4.1h-8.4v-11.9
		h7.4v-4h-7.4V379h8v-4h-12.3v34.3H-89.2L-89.2,409.3z M-60.7,409.3v-4.1h-8.4V375h-4.3v34.3H-60.7L-60.7,409.3z M-36.7,402.1
		c0-4.3-2.7-8.5-5.4-14.3c-1.3-2.6-2-4.6-2-6.2c0-2,1.3-3.3,3.2-3.3c1.1,0,2.2,0.5,3.3,1.3v-4.2c-1.3-0.7-2.5-1.1-3.7-1.1
		c-4.1,0-7,3-7,7.4c0,3.2,1.6,6.6,3.9,11.2c1.9,3.8,3.6,6.6,3.6,9c0,2.3-1.4,3.7-3.4,3.7c-1.4,0-2.6-0.7-4-1.9v4.7
		c1.5,0.9,2.9,1.3,4.2,1.3C-40,409.9-36.7,406.7-36.7,402.1L-36.7,402.1z M-16.3,409.3V375h-4.2v34.3H-16.3L-16.3,409.3z M18,392.2
		c0-11.8-3.3-17.7-9.3-17.7c-5.9,0-9.3,6-9.3,17.7c0,11.7,3.4,17.8,9.3,17.8C14.7,409.9,18,403.9,18,392.2L18,392.2z M13.6,392.2
		c0,9.1-1.8,13.8-4.9,13.8c-3.2,0-4.8-4.6-4.8-13.8c0-9.2,1.7-13.8,4.8-13.8C11.8,378.3,13.6,383,13.6,392.2L13.6,392.2z
		 M48.8,409.3l-2.2-9.2c-1.1-4.6-2.2-7.4-4.6-8.7c2.7-1.5,4-3.9,4-7.3c0-5.6-3.3-9.1-8.5-9.1h-4.1v34.3h4.2v-15.7
		c0.2,0,0.4-0.1,0.6-0.1c1.9,0,3.1,2.5,4.3,7.6l1.9,8.2H48.8L48.8,409.3z M41.7,384.7c0,3.2-1.3,4.9-3.7,4.9h-0.4v-10.7h0.2
		C40.3,378.9,41.7,380.8,41.7,384.7L41.7,384.7z"/>
	<line class="st1" x1="-187" y1="417.7" x2="48.5" y2="417.7"/>
	<path class="st0" d="M-22.2,351.2c6.9-3.8,14.4-3.5,16.6,0.6c2.2,4.1-1.6,10.5-8.5,14.3c-6.9,3.8-14.4,3.5-16.6-0.6
		C-32.9,361.4-29.1,355-22.2,351.2L-22.2,351.2z"/>
	<path class="st0" d="M-158.2,444.6v-18.2h-4.1v7.2h-4.2v-7.2h-4.1v18.1h4.1v-7.7h4.2v7.7h4.1V444.6z M-138.7,435.5
		c0-5.8-2.8-9.4-6.9-9.4c-4.1,0-6.9,3.6-6.9,9.4s2.9,9.4,6.9,9.4C-141.5,444.9-138.7,441.3-138.7,435.5L-138.7,435.5z M-142.8,435.5
		c0,3.9-1,5.9-2.7,5.9s-2.7-2-2.7-5.9s1-5.9,2.7-5.9S-142.8,431.6-142.8,435.5L-142.8,435.5z M-122.8,429.7v-3.3h-11.5v3.3h3.7v14.9
		h4.1v-14.9H-122.8L-122.8,429.7z M-107.4,444.6v-3.2h-6.3v-4.5h5.7v-3.1h-5.7v-4.1h6.2v-3.2h-10.2v18.1H-107.4L-107.4,444.6z
		 M-91,444.6v-3.3h-6.2v-14.9h-4.1v18.1H-91V444.6z"/>
	<path class="st0" d="M-71.4,439.3c0-2.3-0.8-3.7-2.6-4.5c1.5-1,2.2-2.1,2.2-3.8c0-2.9-1.8-4.5-5.2-4.5h-2.2v18.1h3
		C-73.4,444.6-71.4,442.6-71.4,439.3L-71.4,439.3z M-74,431.2c0,1.9-0.9,2.9-2.7,2.9H-77v-5.4h0.4C-74.9,428.6-74,429.5-74,431.2
		L-74,431.2z M-73.7,439.3c0,2.2-1,3.2-2.9,3.2H-77v-6.4h0.3C-74.7,436.1-73.7,437.2-73.7,439.3L-73.7,439.3z M-56.2,444.6v-2.1
		h-4.5v-6.3h3.9v-2.1h-3.9v-5.4h4.2v-2.2h-6.4v18.1H-56.2L-56.2,444.6z M-38.9,435.6c0-6.2-1.8-9.4-4.9-9.4c-3.1,0-4.9,3.2-4.9,9.4
		c0,6.2,1.8,9.4,4.9,9.4C-40.6,444.9-38.9,441.7-38.9,435.6L-38.9,435.6z M-41.2,435.6c0,4.8-0.9,7.3-2.6,7.3
		c-1.7,0-2.5-2.4-2.5-7.3s0.9-7.3,2.5-7.3S-41.2,430.7-41.2,435.6L-41.2,435.6z M-22.4,443.9v-9h-3.8v2.1h1.6v5.7
		c-0.5,0.1-0.8,0.2-1.1,0.2c-2.2,0-3.5-2.4-3.5-7.2c0-4.9,1.3-7.4,3.5-7.4c1.1,0,2.2,0.6,3.2,1.7v-2.5c-1-0.8-2.1-1.3-3.3-1.3
		c-3.6,0-5.8,3.3-5.8,9.5c0,6,2.4,9.3,6.1,9.3C-24.4,445-23.4,444.6-22.4,443.9L-22.4,443.9z M-5.8,444.6l-1.1-4.8
		c-0.6-2.4-1.2-3.9-2.4-4.6c1.4-0.8,2.1-2,2.1-3.9c0-3-1.8-4.8-4.5-4.8h-2.2v18.1h2.2v-8.3c0.1,0,0.2-0.1,0.3-0.1c1,0,1.6,1.3,2.3,4
		l1,4.3h2.3V444.6z M-9.6,431.6c0,1.7-0.7,2.6-1.9,2.6h-0.2v-5.6h0.1C-10.3,428.6-9.6,429.6-9.6,431.6L-9.6,431.6z M9.4,444.6
		L6,426.5H3.6l-3.4,18.1h2.3l0.7-4h3.3l0.7,4H9.4L9.4,444.6z M6.1,438.5H3.5l1-5.8c0.1-0.8,0.2-1.8,0.3-2.8c0.1,1.4,0.3,2.3,0.3,2.8
		L6.1,438.5L6.1,438.5z M25.5,435.5c0-6-2-9-6.1-9h-2.6v18.1h2.6C23.5,444.6,25.5,441.6,25.5,435.5L25.5,435.5z M23.2,435.6
		c0,4.7-1.1,6.9-3.8,6.9H19v-13.9h0.4C22.1,428.6,23.2,430.8,23.2,435.6L23.2,435.6z"/>
</g>
</svg>
