<?xml version="1.0" encoding="utf-8"?>
<!-- Generator: Adobe Illustrator 19.0.0, SVG Export Plug-In . SVG Version: 6.00 Build 0)  -->
<svg version="1.1" id="Layer_1" xmlns="http://www.w3.org/2000/svg" xmlns:xlink="http://www.w3.org/1999/xlink" x="0px" y="0px"
	 viewBox="0 0 466.7 195" style="enable-background:new 0 0 466.7 195;" xml:space="preserve">
<g>
	<path style="fill:#E0D7D4;" d="M461.1,71.2c0-5.7-4.6-10.3-10.3-10.3h-119c-21.7,0-39.4,16.7-39.4,38.4c0,21.7,17.6,38.4,39.4,38.4
		h95.6c9.3,0,16.9,8.5,16.9,17.8c0,9.3-7.6,17.8-16.9,17.8h-119c-5.7,0-10.3,4.6-10.3,10.3c0,5.7,4.6,10.3,10.3,10.3h119
		c21.7,0,39.4-16.7,39.4-38.4c0-21.7-17.7-38.4-39.4-38.4h-95.6c-9.3,0-16.9-8.5-16.9-17.8c0-9.3,7.6-17.8,16.9-17.8h119
		C456.5,81.6,461.1,76.9,461.1,71.2"/>
	<path style="fill:#E0D7D4;" d="M251.2,15c0-8.3-6.7-15-15-15c-8.3,0-15,6.7-15,15c0,8.3,6.7,15,15,15C244.5,30,251.2,23.3,251.2,15
		"/>
	<path style="opacity:0.8;fill:#E0D7D4;" d="M203.4,15c0-8.3-6.7-15-15-15c-8.3,0-15,6.7-15,15c0,8.3,6.7,15,15,15
		C196.7,30,203.4,23.3,203.4,15"/>
	<path style="opacity:0.6;fill:#E0D7D4;" d="M155.6,15c0-8.3-6.7-15-15-15c-8.3,0-15,6.7-15,15c0,8.3,6.7,15,15,15
		C148.9,30,155.6,23.3,155.6,15"/>
	<path style="opacity:0.4;fill:#E0D7D4;" d="M107.8,15c0-8.3-6.7-15-15-15c-8.3,0-15,6.7-15,15c0,8.3,6.7,15,15,15
		C101.1,30,107.8,23.3,107.8,15"/>
	<path style="opacity:0.2;fill:#E0D7D4;" d="M60,15c0-8.3-6.7-15-15-15c-8.3,0-15,6.7-15,15c0,8.3,6.7,15,15,15
		C53.3,30,60,23.3,60,15"/>
	<g>
		<path style="fill:#E0D7D4;" d="M169.6,60.9c-0.3,0-0.6,0.1-0.9,0.1v-0.1H67.5C27.3,60.9,0,87.3,0,127.5v56.2
			c0,6.2,5,11.2,11.2,11.2c6.2,0,11.2-5,11.2-11.2v-56.2c0-27.9,16.9-45.9,45-45.9h101.2v-0.1c0.3,0,0.6,0.1,0.9,0.1
			c5.7,0,10.3-4.6,10.3-10.3C179.9,65.5,175.3,60.9,169.6,60.9"/>
		<path style="fill:#E0D7D4;" d="M33.7,127.5c0,5.7,4.6,10.3,10.3,10.3h103.1c5.7,0,10.3-4.6,10.3-10.3c0-5.7-4.6-10.3-10.3-10.3H44
			C38.4,117.2,33.7,121.8,33.7,127.5"/>
	</g>
	<path style="fill:#E0D7D4;" d="M224.9,71.2v112.5c0,6.2,5,11.3,11.2,11.3c6.2,0,11.3-5,11.3-11.3V71.2c0-6.2-5-11.2-11.3-11.2
		C230,60,224.9,65,224.9,71.2"/>
</g>
</svg>
