<svg id="Layer_1" data-name="Layer 1" xmlns="http://www.w3.org/2000/svg" viewBox="0 0 90.71 98.75"><defs><style>.cls-1{fill:#ff4f4f;}.cls-2{fill:#ffdf5c;}.cls-3{fill:#5c302a;}.cls-4{fill:#824239;}.cls-5{fill:#a1826d;}.cls-6{fill:#8f7361;}.cls-10,.cls-7{fill:#fff;}.cls-7{opacity:0.2;}.cls-8{fill:#ffc44f;}.cls-9{fill:#e6a016;}.cls-11{fill:#70cdff;}</style></defs><title>icon-rocket</title><path class="cls-1" d="M57.37,80.67a7.9,7.9,0,0,0-14.33,0c-3.64,8.12,7.16,18.7,7.16,18.7S61,88.79,57.37,80.67Z" transform="translate(-4.64 -0.63)"/><path class="cls-2" d="M54.65,80.68a4.9,4.9,0,0,0-8.9,0c-2.26,5,4.45,11.61,4.45,11.61S56.91,85.73,54.65,80.68Z" transform="translate(-4.64 -0.63)"/><path class="cls-3" d="M33.85,58.47s-14.68,0-17.41-15.53c0,0-22.62,18.55-5.23,36.61-1-4.17,8-21.68,26.95-11.22Z" transform="translate(-4.64 -0.63)"/><path class="cls-4" d="M25.18,65.67a0.74,0.74,0,0,1-.74.74h0a0.74,0.74,0,0,1-.74-0.74v-11a0.74,0.74,0,0,1,.74-0.74h0a0.74,0.74,0,0,1,.74.74v11Z" transform="translate(-4.64 -0.63)"/><path class="cls-4" d="M10.41,74S1.45,60.85,14.74,48c0,0-9.26,11.35-2.19,22.81Z" transform="translate(-4.64 -0.63)"/><path class="cls-3" d="M66.15,58.47s14.68,0,17.41-15.53c0,0,22.62,18.55,5.23,36.61,1-4.17-8-21.68-26.95-11.22Z" transform="translate(-4.64 -0.63)"/><path class="cls-4" d="M74.82,65.67a0.74,0.74,0,0,0,.74.74h0a0.74,0.74,0,0,0,.74-0.74v-11a0.74,0.74,0,0,0-.74-0.74h0a0.74,0.74,0,0,0-.74.74v11Z" transform="translate(-4.64 -0.63)"/><path class="cls-4" d="M89.59,74s9-13.13-4.33-25.94c0,0,9.26,11.35,2.19,22.81Z" transform="translate(-4.64 -0.63)"/><path class="cls-5" d="M62.8,75.53a3,3,0,0,1-3,3H40.58a3,3,0,0,1-3-3h0a3,3,0,0,1,3-3H59.83a3,3,0,0,1,3,3h0Z" transform="translate(-4.64 -0.63)"/><polygon class="cls-5" points="45.56 0 44.08 13.01 45.56 10.43 47.04 13.01 45.56 0"/><path class="cls-5" d="M70.82,41.86C66.68,26.43,50.2,12.29,50.2,12.29S33.72,26.43,29.58,41.86,36,71.66,36.25,72.5H64.16C64.42,71.66,75,57.28,70.82,41.86Z" transform="translate(-4.64 -0.63)"/><path class="cls-6" d="M61.71,41.86C59.4,26.43,50.2,12.29,50.2,12.29S41,26.43,38.7,41.86s3.57,29.8,3.72,30.64H58C58.14,71.66,64,57.28,61.71,41.86Z" transform="translate(-4.64 -0.63)"/><path class="cls-5" d="M59.43,41.86C57.58,26.43,50.2,12.29,50.2,12.29S42.83,26.43,41,41.86s2.87,29.8,3,30.64H56.45C56.57,71.66,61.29,57.28,59.43,41.86Z" transform="translate(-4.64 -0.63)"/><path class="cls-3" d="M69,72.56a2.37,2.37,0,0,1-2.37,2.37h-33a2.37,2.37,0,0,1-2.37-2.37h0a2.37,2.37,0,0,1,2.37-2.37h33A2.37,2.37,0,0,1,69,72.56h0Z" transform="translate(-4.64 -0.63)"/><circle class="cls-5" cx="30.44" cy="71.93" r="0.99"/><circle class="cls-5" cx="35.48" cy="71.93" r="0.99"/><circle class="cls-5" cx="40.52" cy="71.93" r="0.99"/><circle class="cls-5" cx="45.56" cy="71.93" r="0.99"/><circle class="cls-5" cx="50.6" cy="71.93" r="0.99"/><circle class="cls-5" cx="55.64" cy="71.93" r="0.99"/><circle class="cls-5" cx="60.68" cy="71.93" r="0.99"/><path class="cls-3" d="M59.41,20.59a89.35,89.35,0,0,0-9.21-9.54A89.35,89.35,0,0,0,41,20.59H59.41Z" transform="translate(-4.64 -0.63)"/><path class="cls-3" d="M73.6,50.49A1.62,1.62,0,0,1,72,52.11H28.43a1.62,1.62,0,0,1-1.62-1.62h0a1.62,1.62,0,0,1,1.62-1.62H72a1.62,1.62,0,0,1,1.62,1.62h0Z" transform="translate(-4.64 -0.63)"/><path class="cls-7" d="M50.2,11.05h0V0.63L48.88,12.25A94.43,94.43,0,0,0,41,20.59H42c-4.79,5.52-10.3,13.22-12.47,21.27a28.49,28.49,0,0,0-1,7H28.43a1.62,1.62,0,0,0,0,3.24h0.32c0.7,7.94,4.18,14.68,6.14,18.08H33.73a2.37,2.37,0,0,0,0,4.73h3.94a3,3,0,0,0,2.91,3.59H50.2V11.05Z" transform="translate(-4.64 -0.63)"/><circle class="cls-3" cx="45.56" cy="34.32" r="10.64"/><circle class="cls-8" cx="45.56" cy="34.32" r="6.47"/><path class="cls-8" d="M51.68,41.46a1.48,1.48,0,0,1-1.48,1.48h0a1.48,1.48,0,0,1-1.48-1.48v-13a1.48,1.48,0,0,1,1.48-1.48h0a1.48,1.48,0,0,1,1.48,1.48v13Z" transform="translate(-4.64 -0.63)"/><path class="cls-8" d="M56.72,33.46a1.48,1.48,0,0,1,1.48,1.48h0a1.48,1.48,0,0,1-1.48,1.48h-13a1.48,1.48,0,0,1-1.48-1.48h0a1.48,1.48,0,0,1,1.48-1.48h13Z" transform="translate(-4.64 -0.63)"/><path class="cls-8" d="M55.86,38.51a1.48,1.48,0,0,1,0,2.09h0a1.48,1.48,0,0,1-2.09,0l-9.22-9.22a1.48,1.48,0,0,1,0-2.09h0a1.48,1.48,0,0,1,2.09,0Z" transform="translate(-4.64 -0.63)"/><path class="cls-8" d="M53.77,29.29a1.48,1.48,0,0,1,2.09,0h0a1.48,1.48,0,0,1,0,2.09L46.64,40.6a1.48,1.48,0,0,1-2.09,0h0a1.48,1.48,0,0,1,0-2.09Z" transform="translate(-4.64 -0.63)"/><circle class="cls-9" cx="45.56" cy="34.32" r="5.1"/><circle class="cls-10" cx="45.56" cy="34.32" r="4.36"/><circle class="cls-11" cx="45.56" cy="34.32" r="3.77"/><path class="cls-7" d="M50.2,31.17a3.77,3.77,0,0,0-3.77,3.77H54A3.77,3.77,0,0,0,50.2,31.17Z" transform="translate(-4.64 -0.63)"/><circle class="cls-10" cx="44.22" cy="32.69" r="1.01"/></svg>