<svg id="Layer_1" data-name="Layer 1" xmlns="http://www.w3.org/2000/svg" viewBox="0 0 99.74 96.79"><defs><style>.cls-1{fill:#5c302a;}.cls-2{fill:#734b33;}.cls-3{fill:#ffc44f;}.cls-4{fill:none;stroke:#5c302a;stroke-miterlimit:10;stroke-width:0.97px;opacity:0.4;}.cls-5,.cls-8{fill:#fff;}.cls-5{opacity:0.2;}.cls-6{fill:#4d2823;}.cls-7{fill:#e6a016;}.cls-9{fill:#53bd5a;}.cls-10{fill:#19afb5;}.cls-11{fill:#cf3434;}.cls-12{fill:#a1826d;}</style></defs><title>icon-sp</title><rect class="cls-1" x="44.87" y="17.37" width="6.54" height="15.93"/><circle class="cls-2" cx="48.14" cy="13.46" r="13.46"/><circle class="cls-1" cx="48.14" cy="13.46" r="11.52"/><circle class="cls-3" cx="48.14" cy="13.46" r="8.53"/><line class="cls-4" x1="42.97" y1="4.92" x2="42.97" y2="22.44"/><line class="cls-4" x1="46.35" y1="4.92" x2="46.35" y2="22.44"/><line class="cls-4" x1="49.74" y1="4.92" x2="49.74" y2="22.44"/><line class="cls-4" x1="53.12" y1="4.92" x2="53.12" y2="22.44"/><line class="cls-4" x1="39.28" y1="18.76" x2="56.8" y2="18.76"/><line class="cls-4" x1="39.28" y1="15.38" x2="56.8" y2="15.38"/><line class="cls-4" x1="39.28" y1="11.99" x2="56.8" y2="11.99"/><line class="cls-4" x1="39.28" y1="8.61" x2="56.8" y2="8.61"/><path class="cls-5" d="M48.27,1.61H48.17v33.3h3.37V28.12A13.46,13.46,0,0,0,48.27,1.61Z" transform="translate(-0.13 -1.61)"/><rect class="cls-6" x="9.63" y="50.52" width="77.01" height="9.76"/><rect class="cls-1" x="36.62" y="73.16" width="23.03" height="21.89"/><rect class="cls-6" x="33.93" y="84.93" width="28.41" height="10.12"/><circle class="cls-2" cx="48.14" cy="54.68" r="24.18"/><circle class="cls-1" cx="48.14" cy="54.68" r="22.24"/><path class="cls-2" d="M66.7,92.93H29.83a5.47,5.47,0,0,0-5.47,5.47h47.8A5.47,5.47,0,0,0,66.7,92.93Z" transform="translate(-0.13 -1.61)"/><path class="cls-5" d="M34.06,86.54v6.39H29.83a5.47,5.47,0,0,0-5.47,5.47h23.9V32.11A24.19,24.19,0,0,0,36.75,77.56v9H34.06Z" transform="translate(-0.13 -1.61)"/><circle class="cls-3" cx="48.14" cy="54.68" r="18.47"/><circle class="cls-7" cx="48.14" cy="54.68" r="16.6"/><circle class="cls-8" cx="48.14" cy="54.68" r="14.21"/><circle class="cls-9" cx="48.14" cy="54.68" r="12.29"/><path class="cls-5" d="M48.27,44A12.29,12.29,0,0,0,36,56.29H60.55A12.29,12.29,0,0,0,48.27,44Z" transform="translate(-0.13 -1.61)"/><circle class="cls-8" cx="43.76" cy="49.39" r="3.29"/><path class="cls-2" d="M3.38,49V62a6.38,6.38,0,0,0,12.76,0V49H3.38Z" transform="translate(-0.13 -1.61)"/><path class="cls-10" d="M16.66,25.16a11.8,11.8,0,0,0-5.39-2.61L9.76,21,8.26,22.55a11.8,11.8,0,0,0-5.39,2.61C0.25,27.38,1.13,31.5,2,34.58s3.17,11.5,3.17,11.5a12.69,12.69,0,0,0,4.6.62,12.69,12.69,0,0,0,4.6-.62s2.3-8.42,3.17-11.5S19.27,27.38,16.66,25.16Z" transform="translate(-0.13 -1.61)"/><circle class="cls-8" cx="6.2" cy="27.31" r="2.59"/><path class="cls-1" d="M19.4,46.42a3.17,3.17,0,0,1-3.17,3.17H3.3A3.17,3.17,0,0,1,.13,46.42h0A3.17,3.17,0,0,1,3.3,43.26H16.23a3.17,3.17,0,0,1,3.17,3.17h0Z" transform="translate(-0.13 -1.61)"/><circle class="cls-3" cx="9.63" cy="52.71" r="3.24"/><circle class="cls-3" cx="9.63" cy="59.95" r="1.54"/><path class="cls-5" d="M9.76,21h0L8.26,22.55a11.8,11.8,0,0,0-5.39,2.61C0.25,27.38,1.13,31.5,2,34.58c0.54,1.93,1.65,5.94,2.4,8.67H3.3a3.17,3.17,0,0,0,0,6.34H3.38V62a6.38,6.38,0,0,0,6.38,6.38V21Z" transform="translate(-0.13 -1.61)"/><path class="cls-11" d="M84.9,26.15a4.38,4.38,0,0,0-2-1l-0.56-.56-0.56.56a4.38,4.38,0,0,0-2,1c-1,.82-0.65,2.35-0.32,3.5s1.18,4.27,1.18,4.27a6.48,6.48,0,0,0,3.41,0s0.85-3.13,1.18-4.27S85.87,27,84.9,26.15Z" transform="translate(-0.13 -1.61)"/><circle class="cls-8" cx="80.94" cy="25.93" r="0.96"/><path class="cls-5" d="M82.34,24.62l-0.56.56a4.38,4.38,0,0,0-2,1c-1,.82-0.65,2.35-0.32,3.5s1.18,4.27,1.18,4.27a4.71,4.71,0,0,0,1.71.23V24.62Z" transform="translate(-0.13 -1.61)"/><path class="cls-11" d="M93.51,26.15a4.38,4.38,0,0,0-2-1l-0.56-.56-0.56.56a4.38,4.38,0,0,0-2,1c-1,.82-0.65,2.35-0.32,3.5s1.18,4.27,1.18,4.27a6.47,6.47,0,0,0,3.41,0s0.85-3.13,1.18-4.27S94.48,27,93.51,26.15Z" transform="translate(-0.13 -1.61)"/><circle class="cls-8" cx="89.54" cy="25.93" r="0.96"/><path class="cls-5" d="M90.94,24.62l-0.56.56a4.38,4.38,0,0,0-2,1c-1,.82-0.65,2.35-0.32,3.5s1.18,4.27,1.18,4.27a4.71,4.71,0,0,0,1.71.23V24.62Z" transform="translate(-0.13 -1.61)"/><rect class="cls-2" x="78.36" y="31.61" width="16.31" height="5.32"/><path class="cls-2" d="M80.26,49V62A6.38,6.38,0,0,0,93,62V49H80.26Z" transform="translate(-0.13 -1.61)"/><circle class="cls-3" cx="86.51" cy="52.71" r="3.24"/><circle class="cls-3" cx="86.51" cy="59.95" r="1.54"/><rect class="cls-1" x="73.28" y="35.13" width="26.46" height="13.03" rx="2.4" ry="2.4"/><circle class="cls-12" cx="78.36" cy="41.77" r="2.99"/><path class="cls-3" d="M79.21,43.21a0.72,0.72,0,0,1-.72.72h0a0.72,0.72,0,0,1-.72-0.72V39.94a0.72,0.72,0,0,1,.72-0.72h0a0.72,0.72,0,0,1,.72.72v3.27Z" transform="translate(-0.13 -1.61)"/><circle class="cls-12" cx="86.51" cy="41.77" r="2.99"/><path class="cls-3" d="M87.37,43.21a0.72,0.72,0,0,1-.72.72h0a0.72,0.72,0,0,1-.72-0.72V39.94a0.72,0.72,0,0,1,.72-0.72h0a0.72,0.72,0,0,1,.72.72v3.27Z" transform="translate(-0.13 -1.61)"/><circle class="cls-12" cx="94.67" cy="41.77" r="2.99"/><path class="cls-3" d="M95.52,43.21a0.72,0.72,0,0,1-.72.72h0a0.72,0.72,0,0,1-.72-0.72V39.94a0.72,0.72,0,0,1,.72-0.72h0a0.72,0.72,0,0,1,.72.72v3.27Z" transform="translate(-0.13 -1.61)"/><path class="cls-5" d="M86.64,33.22H78.49v3.52H75.82a2.4,2.4,0,0,0-2.4,2.4v8.23a2.4,2.4,0,0,0,2.4,2.4h4.45V62a6.38,6.38,0,0,0,6.38,6.38V33.22Z" transform="translate(-0.13 -1.61)"/></svg>