<svg id="Layer_1" data-name="Layer 1" xmlns="http://www.w3.org/2000/svg" viewBox="0 0 98.84 97.84"><defs><style>.cls-1{fill:#52302a;}.cls-2{fill:#381e1a;}.cls-3{fill:#d49e17;}.cls-4{fill:#ffe263;}.cls-5{fill:#ebc152;}.cls-6{fill:#803728;}.cls-10,.cls-7,.cls-9{fill:#fff;}.cls-8{fill:#70cdff;}.cls-9{opacity:0.2;}.cls-10{opacity:0.1;}</style></defs><title>icon-hat</title><path class="cls-1" d="M85.18,1.59A1.69,1.69,0,0,0,84,1.08H16a1.69,1.69,0,0,0-1.69,1.73l2.2,90.13a1.69,1.69,0,0,0,1.69,1.65H81.78a1.69,1.69,0,0,0,1.69-1.65l2.2-90.13A1.69,1.69,0,0,0,85.18,1.59Z" transform="translate(-0.58 -1.08)"/><path class="cls-2" d="M16,71.61l0.52,21.34a1.69,1.69,0,0,0,1.69,1.65H81.78a1.69,1.69,0,0,0,1.69-1.65L84,71.61H16Z" transform="translate(-0.58 -1.08)"/><rect class="cls-3" x="12.79" y="66.21" width="73.27" height="11.12" rx="1.69" ry="1.69"/><path class="cls-1" d="M99.42,94a4.91,4.91,0,0,1-4.91,4.91h-89A4.91,4.91,0,0,1,.58,94h0A4.91,4.91,0,0,1,5.49,89.1h89A4.91,4.91,0,0,1,99.42,94h0Z" transform="translate(-0.58 -1.08)"/><circle class="cls-4" cx="65.5" cy="70.53" r="14.08"/><circle class="cls-5" cx="65.5" cy="70.53" r="12.68"/><circle class="cls-6" cx="65.5" cy="70.53" r="9.75"/><circle class="cls-7" cx="65.5" cy="70.53" r="7.66"/><circle class="cls-8" cx="65.5" cy="70.53" r="6.38"/><path class="cls-9" d="M72.45,71.54a6.37,6.37,0,0,0-12.75,0H72.45Z" transform="translate(-0.58 -1.08)"/><circle class="cls-4" cx="33.35" cy="70.53" r="14.08"/><circle class="cls-5" cx="33.35" cy="70.53" r="12.68"/><circle class="cls-6" cx="33.35" cy="70.53" r="9"/><path class="cls-6" d="M35.31,82.18A1.34,1.34,0,0,1,34,83.52h0a1.34,1.34,0,0,1-1.34-1.34V61.72A1.34,1.34,0,0,1,34,60.39h0a1.34,1.34,0,0,1,1.34,1.34V82.18Z" transform="translate(-0.58 -1.08)"/><path class="cls-6" d="M39.13,80.89a1.34,1.34,0,0,1-.72,1.75h0a1.34,1.34,0,0,1-1.75-.72L28.82,63a1.34,1.34,0,0,1,.72-1.75h0A1.34,1.34,0,0,1,31.3,62Z" transform="translate(-0.58 -1.08)"/><path class="cls-6" d="M42.15,78.24a1.34,1.34,0,0,1,0,1.89h0a1.34,1.34,0,0,1-1.89,0L25.8,65.67a1.34,1.34,0,0,1,0-1.89h0a1.34,1.34,0,0,1,1.89,0Z" transform="translate(-0.58 -1.08)"/><path class="cls-6" d="M43.94,74.63a1.34,1.34,0,0,1,.72,1.75h0a1.34,1.34,0,0,1-1.75.72L24,69.28a1.34,1.34,0,0,1-.72-1.75h0A1.34,1.34,0,0,1,25,66.8Z" transform="translate(-0.58 -1.08)"/><path class="cls-6" d="M44.2,70.61A1.34,1.34,0,0,1,45.54,72h0a1.34,1.34,0,0,1-1.34,1.34H23.75A1.34,1.34,0,0,1,22.41,72h0a1.34,1.34,0,0,1,1.34-1.34H44.2Z" transform="translate(-0.58 -1.08)"/><path class="cls-6" d="M42.91,66.8a1.34,1.34,0,0,1,1.75.72h0a1.34,1.34,0,0,1-.72,1.75L25,77.1a1.34,1.34,0,0,1-1.75-.72h0A1.34,1.34,0,0,1,24,74.63Z" transform="translate(-0.58 -1.08)"/><path class="cls-6" d="M40.26,63.77a1.34,1.34,0,0,1,1.89,0h0a1.34,1.34,0,0,1,0,1.89L27.69,80.13a1.34,1.34,0,0,1-1.89,0h0a1.34,1.34,0,0,1,0-1.89Z" transform="translate(-0.58 -1.08)"/><path class="cls-6" d="M36.65,62a1.34,1.34,0,0,1,1.75-.72h0A1.34,1.34,0,0,1,39.13,63L31.3,81.91a1.34,1.34,0,0,1-1.75.72h0a1.34,1.34,0,0,1-.72-1.75Z" transform="translate(-0.58 -1.08)"/><circle class="cls-7" cx="33.35" cy="70.53" r="7.66"/><circle class="cls-8" cx="33.35" cy="70.53" r="6.38"/><path class="cls-9" d="M40.3,71.54a6.37,6.37,0,0,0-12.75,0H40.3Z" transform="translate(-0.58 -1.08)"/><path class="cls-10" d="M50,1.08H16a1.69,1.69,0,0,0-1.69,1.73l1.57,64.49H15.05A1.69,1.69,0,0,0,13.37,69v7.75a1.69,1.69,0,0,0,1.69,1.69h1.13L16.44,89.1h-11a4.91,4.91,0,0,0,0,9.83H50V1.08Z" transform="translate(-0.58 -1.08)"/><circle class="cls-7" cx="63.73" cy="69" r="2.58"/><circle class="cls-7" cx="31.44" cy="69" r="2.58"/></svg>