<svg id="Layer_1" data-name="Layer 1" xmlns="http://www.w3.org/2000/svg" viewBox="0 0 84.28 99.5"><defs><style>.cls-1{fill:#301e1c;}.cls-2{fill:#916b53;}.cls-3,.cls-4{fill:#5c302a;}.cls-4{opacity:0.4;}.cls-5{fill:#915e3e;}.cls-6{fill:#d91c48;}.cls-11,.cls-7,.cls-8{fill:#fff;}.cls-7{opacity:0.2;}.cls-9{fill:#ffc44f;}.cls-10{fill:#635755;}.cls-11{opacity:0.1;}</style></defs><title>icon-fono</title><polygon class="cls-1" points="67.26 58.08 66.2 61.02 65.54 57.84 67.26 58.08"/><rect class="cls-1" x="39.35" y="52.89" width="26.61" height="2.37"/><path class="cls-2" d="M43.6,63.1s-7.41-15.24-2.82-23.57,45-33,45-33l1.84,40s-30.43-5.76-36.61-2.71-1.82,19.41-1.82,19.41Z" transform="translate(-8.56 -0.17)"/><path class="cls-3" d="M53,62.3V58.13a5.44,5.44,0,0,0-5.44-5.44h-5a5.44,5.44,0,0,0-5.44,5.44V62.3H53Z" transform="translate(-8.56 -0.17)"/><path class="cls-4" d="M86.54,13S59.07,29.49,50.43,35.86C47.52,38,46,39.11,44.85,40.71a56.42,56.42,0,0,1,7.43-5.47C56.23,32.85,86.45,14,86.45,14Z" transform="translate(-8.56 -0.17)"/><path class="cls-4" d="M87.67,34.86S63.48,37.21,55.52,39c0,0,24-2.16,31.62-3Z" transform="translate(-8.56 -0.17)"/><path class="cls-3" d="M92.84,49.25a3.17,3.17,0,0,1-3,3.34h0a3.17,3.17,0,0,1-3.34-3L84,3.52a3.17,3.17,0,0,1,3-3.34h0a3.17,3.17,0,0,1,3.34,3Z" transform="translate(-8.56 -0.17)"/><circle class="cls-5" cx="74.75" cy="53.93" r="4.67" transform="translate(-10.4 105.05) rotate(-69.62)"/><path class="cls-5" d="M74.11,58.72a1.07,1.07,0,0,1-1.37.63h0A1.07,1.07,0,0,1,72.11,58l3.28-8.83a1.07,1.07,0,0,1,1.37-.63h0a1.07,1.07,0,0,1,.63,1.37Z" transform="translate(-8.56 -0.17)"/><path class="cls-5" d="M79.54,54.57a1.07,1.07,0,0,1,.63,1.37h0a1.07,1.07,0,0,1-1.37.63L70,53.29a1.07,1.07,0,0,1-.63-1.37h0a1.07,1.07,0,0,1,1.37-.63Z" transform="translate(-8.56 -0.17)"/><path class="cls-5" d="M77.68,57.77a1.07,1.07,0,0,1-.53,1.42h0a1.07,1.07,0,0,1-1.42-.53l-3.92-8.56a1.07,1.07,0,0,1,.53-1.42h0a1.07,1.07,0,0,1,1.42.53Z" transform="translate(-8.56 -0.17)"/><path class="cls-5" d="M78.59,51a1.07,1.07,0,0,1,1.42.53h0a1.07,1.07,0,0,1-.53,1.42l-8.56,3.92a1.07,1.07,0,0,1-1.42-.53h0A1.07,1.07,0,0,1,70,54.92Z" transform="translate(-8.56 -0.17)"/><circle class="cls-3" cx="74.75" cy="53.93" r="2.38" transform="translate(-10.4 105.05) rotate(-69.62)"/><path class="cls-6" d="M19.54,53.18a5.25,5.25,0,0,1-.69-0.55,5.25,5.25,0,0,1-.69.55c-2.93.15-3.56,2.47-2.68,6,0.48,1.94,1.11,5.14,1.11,5.14h4.52s0.63-3.21,1.11-5.14C23.1,55.65,22.46,53.33,19.54,53.18Z" transform="translate(-8.56 -0.17)"/><path class="cls-7" d="M18.85,52.63a5.25,5.25,0,0,1-.69.55c-2.93.15-3.56,2.47-2.68,6,0.48,1.94,1.11,5.14,1.11,5.14h2.26V52.63Z" transform="translate(-8.56 -0.17)"/><circle class="cls-8" cx="8.74" cy="55.38" r="0.92"/><rect class="cls-1" x="7.3" y="63.69" width="5.98" height="3.11"/><path class="cls-3" d="M22.49,63.8a0.61,0.61,0,0,1-.61.61H15.82a0.61,0.61,0,0,1-.61-0.61h0a0.61,0.61,0,0,1,.61-0.61h6.07a0.61,0.61,0,0,1,.61.61h0Z" transform="translate(-8.56 -0.17)"/><path class="cls-6" d="M29.63,53.18a5.25,5.25,0,0,1-.69-0.55,5.25,5.25,0,0,1-.69.55c-2.93.15-3.56,2.47-2.68,6,0.48,1.94,1.11,5.14,1.11,5.14h4.52s0.63-3.21,1.11-5.14C33.2,55.65,32.56,53.33,29.63,53.18Z" transform="translate(-8.56 -0.17)"/><path class="cls-7" d="M28.95,52.63a5.25,5.25,0,0,1-.69.55c-2.93.15-3.56,2.47-2.68,6,0.48,1.94,1.11,5.14,1.11,5.14h2.26V52.63Z" transform="translate(-8.56 -0.17)"/><circle class="cls-8" cx="18.84" cy="55.38" r="0.92"/><rect class="cls-1" x="17.4" y="63.69" width="5.98" height="3.11"/><path class="cls-3" d="M32.59,63.8a0.61,0.61,0,0,1-.61.61H25.91a0.61,0.61,0,0,1-.61-0.61h0a0.61,0.61,0,0,1,.61-0.61H32a0.61,0.61,0,0,1,.61.61h0Z" transform="translate(-8.56 -0.17)"/><rect class="cls-1" x="9.18" y="85.88" width="17.51" height="13.62" rx="5.09" ry="5.09"/><rect class="cls-1" x="56.05" y="85.88" width="17.51" height="13.62" rx="5.09" ry="5.09"/><rect class="cls-3" y="66.03" width="82.74" height="26.66" rx="5.09" ry="5.09"/><rect class="cls-2" x="0.12" y="72.72" width="82.5" height="13.28"/><circle class="cls-9" cx="14.31" cy="79.87" r="4.17"/><path class="cls-3" d="M23.94,79.37a1.06,1.06,0,0,1-1.06,1.06h0a1.06,1.06,0,0,1-1.06-1.06V75.92a1.06,1.06,0,0,1,1.06-1.06h0a1.06,1.06,0,0,1,1.06,1.06v3.45Z" transform="translate(-8.56 -0.17)"/><circle class="cls-9" cx="27.22" cy="79.87" r="4.17"/><path class="cls-3" d="M36.85,79.37a1.06,1.06,0,0,1-1.06,1.06h0a1.06,1.06,0,0,1-1.06-1.06V75.92a1.06,1.06,0,0,1,1.06-1.06h0a1.06,1.06,0,0,1,1.06,1.06v3.45Z" transform="translate(-8.56 -0.17)"/><circle class="cls-1" cx="49.83" cy="79.87" r="2.88"/><circle class="cls-1" cx="58.93" cy="79.87" r="2.88"/><circle class="cls-1" cx="68.02" cy="79.87" r="2.88"/><path class="cls-10" d="M60.5,66.17V58.61a1,1,0,0,0-2,0v7.56h2Z" transform="translate(-8.56 -0.17)"/><rect class="cls-1" x="27.14" y="61.11" width="47.56" height="4.93"/><circle class="cls-9" cx="35.33" cy="52.61" r="5"/><path class="cls-9" d="M45,57.82A1.14,1.14,0,0,1,43.9,59h0a1.14,1.14,0,0,1-1.14-1.14V47.74A1.14,1.14,0,0,1,43.9,46.6h0A1.14,1.14,0,0,1,45,47.74V57.82Z" transform="translate(-8.56 -0.17)"/><path class="cls-9" d="M48.93,51.64a1.14,1.14,0,0,1,1.14,1.14h0a1.14,1.14,0,0,1-1.14,1.14H38.86a1.14,1.14,0,0,1-1.14-1.14h0a1.14,1.14,0,0,1,1.14-1.14H48.93Z" transform="translate(-8.56 -0.17)"/><path class="cls-9" d="M48.26,55.54a1.14,1.14,0,0,1,0,1.62h0a1.14,1.14,0,0,1-1.62,0L39.53,50a1.14,1.14,0,0,1,0-1.62h0a1.14,1.14,0,0,1,1.62,0Z" transform="translate(-8.56 -0.17)"/><path class="cls-9" d="M46.65,48.41a1.14,1.14,0,0,1,1.62,0h0a1.14,1.14,0,0,1,0,1.62l-7.12,7.12a1.14,1.14,0,0,1-1.62,0h0a1.14,1.14,0,0,1,0-1.62Z" transform="translate(-8.56 -0.17)"/><circle class="cls-5" cx="35.33" cy="52.61" r="3.33"/><circle class="cls-3" cx="35.33" cy="52.61" r="1.75"/><path class="cls-11" d="M8.56,71.29V87.78a5.09,5.09,0,0,0,5.09,5.09h4.1v1.72a5.09,5.09,0,0,0,5.09,5.09h7.33a5.09,5.09,0,0,0,5.09-5.09V92.86H50.13V66.21H13.65A5.09,5.09,0,0,0,8.56,71.29Z" transform="translate(-8.56 -0.17)"/></svg>