<?xml version="1.0" encoding="utf-8"?>
<!-- Generator: Adobe Illustrator 19.0.0, SVG Export Plug-In . SVG Version: 6.00 Build 0)  -->
<svg version="1.1" id="Layer_1" xmlns="http://www.w3.org/2000/svg" xmlns:xlink="http://www.w3.org/1999/xlink" x="0px" y="0px"
	 viewBox="0 0 315.4 75.2" style="enable-background:new 0 0 315.4 75.2;" xml:space="preserve">
<g id="XMLID_1_">
	<g>
		<path id="XMLID_90_" style="fill:#E0D7D4;" d="M40.6,29.8c-0.2,0.2-0.2,0.4-0.2,0.4l-0.2,0.8c0,0-0.1,0.2,0,0.4
			c0.1,0.2,0.3,0.2,0.3,0.2l0.3,0.1c0,0,0.6,0.1,0.9,0.4c0.3,0.3,0.2,1.1,0.2,1.1l-1.1,5.2l-3.9-7.5c0,0-0.1-0.3-0.5-0.8
			c-0.4-0.4-1.1-0.4-1.1-0.4h-7.4c0,0-0.3,0-0.5,0.1c-0.2,0.1-0.3,0.4-0.3,0.4L26.9,31c0,0-0.1,0.2,0.1,0.5c0.1,0.3,1,0.4,1,0.4
			s1.5,0.2,2.1,0.9c0.6,0.7,0.4,1.7,0.4,1.7l-1.6,7.8c0,0-0.2,0.8-0.6,1.1c-0.4,0.4-1,0.4-1,0.4s-0.4,0-0.6,0.1
			c-0.2,0.1-0.3,0.4-0.3,0.4l-0.1,0.5c0,0-0.1,0.2,0.1,0.4c0.1,0.2,0.5,0.2,0.5,0.2l8.1,0.1c0,0,0.2,0,0.4-0.1
			c0.1-0.1,0.2-0.4,0.2-0.4l0.1-0.7c0,0,0.1-0.2-0.1-0.4c-0.1-0.2-0.2-0.1-0.6-0.2c-0.4-0.1-0.6-0.2-1-0.5c-0.5-0.4-0.3-1.1-0.3-1.1
			l0.7-3.9c0,0,0.1-0.3,0.3-0.3c0.3,0,0.4,0.3,0.4,0.3l3.9,6.9c0,0,0.1,0.2,0.3,0.4c0.2,0.2,0.7,0.2,0.7,0.2l6.5-0.1
			c0,0,0.3,0,0.5-0.1C46.9,45.3,47,45,47,45l0.1-0.6c0,0,0.1-0.3,0-0.5c-0.1-0.3-0.7-0.4-1.3-0.6c-0.5-0.1-1.1-0.5-1.3-0.8
			c-0.1-0.2,0-0.7,0-0.7l2.2-8.9c0,0,0.1-0.4,0.4-0.8c0.3-0.3,1.3-0.5,1.3-0.5s0.2,0,0.4-0.2c0.1-0.1,0.1-0.3,0.1-0.3l0.2-1
			c0,0,0.1-0.2-0.1-0.4c-0.1-0.1-0.5-0.2-0.5-0.2h-7.4C41.1,29.6,40.9,29.6,40.6,29.8z"/>
		<path id="XMLID_89_" style="fill:#E0D7D4;" d="M64.2,11L64.2,11c-1.5-1.5-3.6-2.5-6-2.5c-4.7,0-8.5,3.8-8.5,8.5c0,2.4,1,4.5,2.5,6
			c3.7,3.7,6,8.9,6,14.5h0c0,2.4-0.4,4.7-1.1,6.8c-0.1,0.2-0.1,0.5-0.2,0.8c0,1.3,1,2.4,2.3,2.4c0.6,0,1.1-0.2,1.5-0.5c0,0,0,0,0,0
			c0.8-0.6,1.7-0.9,2.8-0.9c2.4,0.1,4.4,2.1,4.3,4.5S65.8,55,63.3,55c-2.4-0.1-4.4-2.1-4.3-4.5c0,0,0,0,0,0l0,0c0-1.3-1-2.3-2.3-2.3
			c-0.8,0-1.5,0.3-1.9,0.9c-3.7,5.5-10,9.2-17.2,9.2c-2.3,0-4.5-0.4-6.5-1.1c-0.2-0.1-0.4-0.1-0.6-0.1c-1.3,0-2.4,1-2.4,2.3
			c0,0.6,0.2,1.1,0.5,1.5c0,0,0,0,0,0c0.6,0.8,1,1.7,0.9,2.8c0,2.4-2,4.4-4.4,4.4c-2.4,0-4.4-2-4.4-4.4c0-2.4,2-4.4,4.4-4.4
			c0,0,0,0,0,0l0,0c1.3,0,2.3-1.1,2.3-2.3c0-0.7-0.3-1.4-0.9-1.8c-5.8-3.7-9.6-10.1-9.6-17.5c0-2.8,0.6-5.5,1.6-7.9
			c0-0.1,0.1-0.3,0.1-0.4c0.1-1.3-0.9-2.4-2.2-2.5c-0.6,0-1.1,0.1-1.5,0.4c0,0,0,0,0,0c-0.8,0.6-1.8,0.9-2.8,0.8
			c-2.4-0.2-4.3-2.3-4.1-4.7c0.2-2.4,2.3-4.3,4.7-4.1c2.4,0.2,4.3,2.3,4.1,4.7c0,0,0,0,0,0l0,0c0,1.3,0.9,2.3,2.2,2.4
			c0.7,0,1.4-0.3,1.9-0.8c3.8-5.2,9.9-8.6,16.8-8.6v0c4.7,0,8.5-3.8,8.5-8.5c0-4.7-3.8-8.5-8.5-8.5C16.8,0,0,16.8,0,37.6
			c0,20.8,16.8,37.6,37.6,37.6s37.6-16.8,37.6-37.6C75.2,27.2,71,17.8,64.2,11z"/>
	</g>
	<g>
		<g>
			<path id="XMLID_172_" style="fill:#E0D7D4;" d="M91.2,65.3h5.6v1h-6.7V54.2h1.1V65.3z"/>
			<path id="XMLID_171_" style="fill:#E0D7D4;" d="M102.3,60.2c0-3.2,0.6-6.2,4.5-6.2c4,0,4.5,3.1,4.5,6.2c0,3.2-0.6,6.2-4.5,6.2
				C102.9,66.5,102.3,63.4,102.3,60.2z M110.2,60.2c0-2.9-0.4-5.2-3.4-5.2c-2.9,0-3.4,2.3-3.4,5.2c0,2.9,0.4,5.2,3.4,5.2
				C109.8,65.5,110.2,63.2,110.2,60.2z"/>
			<path id="XMLID_170_" style="fill:#E0D7D4;" d="M121.4,55.2v11.1h-1.1V55.2H117v-1h7.8v1H121.4z"/>
			<path id="XMLID_169_" style="fill:#E0D7D4;" d="M135.1,55.2v11.1H134V55.2h-3.4v-1h7.8v1H135.1z"/>
			<path id="XMLID_168_" style="fill:#E0D7D4;" d="M151.4,60.5h-5.4v4.8h5.9v1H145V54.2h7.1v1h-5.9v4.3h5.4V60.5z"/>
			<path id="XMLID_167_" style="fill:#E0D7D4;" d="M159.9,66.3h-1.1V54.2h3.8c3,0,4,1.3,4,3.4c0,1.6-0.6,2.8-2.2,3.2l2.9,5.5H166
				l-2.7-5.3c-0.2,0-0.4,0-0.5,0h-2.8V66.3z M159.9,60h3c2.2,0,2.5-1.1,2.5-2.4s-0.3-2.4-2.5-2.4h-3V60z"/>
			<path id="XMLID_166_" style="fill:#E0D7D4;" d="M177.6,61.3v5h-1.1v-5l-4.4-7.1h1.2l3.7,6.2l3.7-6.2h1.2L177.6,61.3z"/>
			<path id="XMLID_165_" style="fill:#E0D7D4;" d="M196.2,57.4c0,1.7,1,1.9,2.9,2.1c2.4,0.3,3.9,0.9,3.9,3.3c0,1.7-0.9,3.7-4.5,3.7
				c-1.1,0-2.6-0.3-3.4-0.6v-1.1c0.8,0.3,1.7,0.7,3.4,0.7c2.5,0,3.3-1.2,3.3-2.6c0-1.7-0.7-2.1-2.7-2.3c-2.9-0.4-4-1-4-3.1
				c0-1.4,0.7-3.4,4.1-3.4c1.5,0,2.5,0.3,3.2,0.6v1.1c-1.1-0.5-2-0.6-3.2-0.6C196.8,55,196.2,56.1,196.2,57.4z"/>
			<path id="XMLID_164_" style="fill:#E0D7D4;" d="M209.5,60.2c0-3.2,0.6-6.2,4.5-6.2c4,0,4.5,3.1,4.5,6.2c0,3.2-0.6,6.2-4.5,6.2
				C210,66.5,209.5,63.4,209.5,60.2z M217.4,60.2c0-2.9-0.4-5.2-3.4-5.2c-2.9,0-3.4,2.3-3.4,5.2c0,2.9,0.4,5.2,3.4,5.2
				C216.9,65.5,217.4,63.2,217.4,60.2z"/>
			<path id="XMLID_163_" style="fill:#E0D7D4;" d="M226.5,65.3h5.6v1h-6.7V54.2h1.1V65.3z"/>
			<path id="XMLID_162_" style="fill:#E0D7D4;" d="M246,62.3v-8.2h1.1v8.3c0,3.5-2.8,4-4.3,4c-1.5,0-4.3-0.5-4.3-4v-8.3h1.1v8.2
				c0,2.9,2.1,3.1,3.2,3.1C243.9,65.5,246,65.3,246,62.3z"/>
			<path id="XMLID_161_" style="fill:#E0D7D4;" d="M258,55.2v11.1h-1.1V55.2h-3.4v-1h7.8v1H258z"/>
			<path id="XMLID_160_" style="fill:#E0D7D4;" d="M268.1,66.3V54.2h1.1v12.2H268.1z"/>
			<path id="XMLID_159_" style="fill:#E0D7D4;" d="M276.4,60.2c0-3.2,0.6-6.2,4.5-6.2s4.5,3.1,4.5,6.2c0,3.2-0.6,6.2-4.5,6.2
				S276.4,63.4,276.4,60.2z M284.3,60.2c0-2.9-0.4-5.2-3.4-5.2s-3.4,2.3-3.4,5.2c0,2.9,0.4,5.2,3.4,5.2S284.3,63.2,284.3,60.2z"/>
			<path id="XMLID_158_" style="fill:#E0D7D4;" d="M299.9,66.3l-6.5-9.9l0,9.9h-1.1V54.2h0.8l6.5,9.9l0-9.9h1.1v12.2H299.9z"/>
			<path id="XMLID_157_" style="fill:#E0D7D4;" d="M308.6,57.4c0,1.7,1,1.9,2.9,2.1c2.4,0.3,3.9,0.9,3.9,3.3c0,1.7-0.9,3.7-4.5,3.7
				c-1.1,0-2.6-0.3-3.4-0.6v-1.1c0.8,0.3,1.7,0.7,3.4,0.7c2.5,0,3.3-1.2,3.3-2.6c0-1.7-0.7-2.1-2.7-2.3c-2.9-0.4-4-1-4-3.1
				c0-1.4,0.7-3.4,4.1-3.4c1.5,0,2.5,0.3,3.2,0.6v1.1c-1.1-0.5-2-0.6-3.2-0.6C309.1,55,308.6,56.1,308.6,57.4z"/>
		</g>
		<g>
			<g>
				<rect id="XMLID_68_" x="90.1" y="45.7" style="fill:#E0D7D4;" width="75" height="0.9"/>
			</g>
			<g>
				<rect id="XMLID_67_" x="165.2" y="45.7" style="fill:#E0D7D4;" width="75" height="0.9"/>
			</g>
			<g>
				<rect id="XMLID_66_" x="240.2" y="45.7" style="fill:#E0D7D4;" width="75" height="0.9"/>
			</g>
		</g>
		<g>
			<path id="XMLID_156_" style="fill:#E0D7D4;" d="M135.2,35.7c-1.7,0-3.4-0.2-4.9-0.6c-1.5-0.4-2.9-1.1-4.1-2.1
				c-1.1-1-2.1-2.2-2.7-3.6c-0.7-1.4-1-3.2-1-5.1c0-1.9,0.3-3.7,1-5.1c0.7-1.5,1.6-2.7,2.7-3.6c1.1-1,2.5-1.7,4-2.2
				c1.5-0.5,3.2-0.7,4.9-0.7c1.7,0,3.4,0.2,4.9,0.7c1.5,0.5,2.9,1.2,4,2.2c1.1,1,2.1,2.2,2.7,3.6c0.7,1.5,1,3.2,1,5.1
				c0,1.9-0.3,3.7-1,5.1c-0.7,1.5-1.6,2.7-2.7,3.6c-1.1,1-2.5,1.7-4.1,2.1C138.5,35.5,136.9,35.7,135.2,35.7z M135.2,16.9
				c-1,0-1.9,0.2-2.8,0.5c-0.9,0.3-1.7,0.8-2.4,1.4c-0.7,0.6-1.3,1.4-1.7,2.3c-0.4,0.9-0.6,1.9-0.6,3.1c0,1.1,0.2,2.2,0.6,3.1
				c0.4,0.9,1,1.7,1.7,2.3c0.7,0.6,1.5,1.1,2.4,1.4c0.9,0.3,1.8,0.5,2.8,0.5c1,0,1.9-0.2,2.8-0.5c0.9-0.3,1.7-0.8,2.4-1.4
				c0.7-0.6,1.3-1.4,1.7-2.3c0.4-0.9,0.6-1.9,0.6-3.1c0-1.1-0.2-2.2-0.6-3.1c-0.4-0.9-1-1.7-1.7-2.3c-0.7-0.6-1.5-1.1-2.4-1.4
				C137.1,17.1,136.1,16.9,135.2,16.9z"/>
			<path id="XMLID_155_" style="fill:#E0D7D4;" d="M184.4,35.7c-1.7,0-3.4-0.2-4.9-0.6c-1.5-0.4-2.9-1.1-4.1-2.1
				c-1.1-1-2.1-2.2-2.7-3.6c-0.7-1.4-1-3.2-1-5.1c0-1.9,0.3-3.7,1-5.1c0.7-1.5,1.6-2.7,2.7-3.6c1.1-1,2.5-1.7,4-2.2
				c1.5-0.5,3.2-0.7,4.9-0.7c1.7,0,3.4,0.2,4.9,0.7c1.5,0.5,2.9,1.2,4,2.2c1.1,1,2.1,2.2,2.7,3.6c0.7,1.5,1,3.2,1,5.1
				c0,1.9-0.3,3.7-1,5.1c-0.7,1.5-1.6,2.7-2.7,3.6c-1.1,1-2.5,1.7-4.1,2.1C187.7,35.5,186.1,35.7,184.4,35.7z M184.4,16.9
				c-1,0-1.9,0.2-2.8,0.5c-0.9,0.3-1.7,0.8-2.4,1.4c-0.7,0.6-1.3,1.4-1.7,2.3c-0.4,0.9-0.6,1.9-0.6,3.1c0,1.1,0.2,2.2,0.6,3.1
				c0.4,0.9,1,1.7,1.7,2.3c0.7,0.6,1.5,1.1,2.4,1.4c0.9,0.3,1.9,0.5,2.8,0.5c1,0,1.9-0.2,2.8-0.5c0.9-0.3,1.7-0.8,2.4-1.4
				c0.7-0.6,1.3-1.4,1.7-2.3c0.4-0.9,0.6-1.9,0.6-3.1c0-1.1-0.2-2.2-0.6-3.1c-0.4-0.9-1-1.7-1.7-2.3c-0.7-0.6-1.5-1.1-2.4-1.4
				C186.3,17.1,185.3,16.9,184.4,16.9z"/>
			<polygon id="XMLID_61_" style="fill:#E0D7D4;" points="113.8,38.2 95.6,17.3 95.6,38.2 90.1,38.2 90.1,8.8 95.9,8.8 113.3,29 
				113.3,8.8 118.8,8.8 118.8,38.2 			"/>
			<polygon id="XMLID_60_" style="fill:#E0D7D4;" points="162.1,35.5 157.3,35.5 147.5,12.9 152.9,12.9 159.7,28.6 166.5,12.9 
				172,12.9 			"/>
			<polygon id="XMLID_59_" style="fill:#E0D7D4;" points="258.5,35.6 258.5,17.2 250.6,17.2 250.6,12.9 271.6,12.9 271.6,17.2 
				263.6,17.2 263.6,35.6 			"/>
			<rect id="XMLID_58_" x="275.4" y="12.9" style="fill:#E0D7D4;" width="5.2" height="22.7"/>
			<path id="XMLID_154_" style="fill:#E0D7D4;" d="M248,35.5l-2.4-5.5h-9.9l-2.3,5.5h-5.1l10-22.7h4.8l10,22.7H248z M243.8,25.7
				l-3.1-7.3l-3.1,7.3H243.8z"/>
			<path id="XMLID_55_" style="fill:#E0D7D4;" d="M301,38.4c-2.2,0-4.3-0.3-6.3-0.9c-2-0.6-3.8-1.5-5.3-2.8
				c-1.5-1.2-2.8-2.8-3.7-4.7c-0.9-1.9-1.4-4.1-1.4-6.5c0-2.5,0.5-4.7,1.4-6.5c0.9-1.9,2.1-3.5,3.7-4.7c1.5-1.3,3.3-2.2,5.3-2.9
				c2-0.6,4.1-1,6.3-1c4.4,0,8.5,1.5,11.2,2.6c0.3,0.1,2.1,0.9,2.1,0.9l-2.8,4.7l-0.4-0.2c-2.8-1.6-5.9-2.7-8.7-3
				c-0.5-0.1-1-0.1-1.4-0.1l-0.2,0l-0.2,0c-1.3,0-2.6,0.3-3.8,0.7c-1.3,0.4-2.5,1.1-3.5,2c-1,0.9-1.8,1.9-2.4,3.2
				c-0.6,1.2-0.9,2.7-0.9,4.3c0,1.6,0.3,3,0.9,4.3c0.6,1.2,1.4,2.3,2.4,3.2c1,0.9,2.2,1.5,3.5,2c1.3,0.4,2.7,0.7,4.2,0.7
				c4.7,0,8.7-2.2,11.2-4l0.4-0.3l2.5,4.3l-0.4,0.2c-3.1,2-7.9,4.4-12.8,4.7C301.6,38.4,301.3,38.4,301,38.4z"/>
			<polygon id="XMLID_54_" style="fill:#E0D7D4;" points="220.5,12.9 213.1,26.3 205.7,12.9 200.7,12.9 200.7,35.5 205.2,35.5 
				205.2,21.5 213.1,35.6 221,21.5 221,35.5 225.5,35.5 225.5,12.9 			"/>
		</g>
	</g>
</g>
</svg>
