<?xml version="1.0" encoding="utf-8"?>
<!-- Generator: Adobe Illustrator 19.0.0, SVG Export Plug-In . SVG Version: 6.00 Build 0)  -->
<svg version="1.1" xmlns="http://www.w3.org/2000/svg" xmlns:xlink="http://www.w3.org/1999/xlink" x="0px" y="0px"
	 viewBox="0 0 779.9 119.3" style="enable-background:new 0 0 779.9 119.3;" xml:space="preserve">
<g id="Layer_1">
	<g id="XMLID_2_">
		<g id="XMLID_233_">
			<path id="XMLID_245_" style="fill:#E0D7D4;" d="M67.1,17.3l-5.8,12.2c-8.9-5.4-17.8-7.6-24.1-7.6c-8.1,0-13.4,3.1-13.4,8.6
				c0,18,44.4,8.3,44.3,37.9c0,14.7-12.9,23.7-31,23.7c-12.9,0-25.1-5.3-33.6-13l6-12c8.5,7.7,19,12,27.8,12c9.6,0,15.4-3.6,15.4-10
				c0-18.3-44.4-8.1-44.4-37.3c0-14.1,12.1-22.9,29.9-22.9C49,8.8,59.5,12.3,67.1,17.3z"/>
			<path id="XMLID_241_" style="fill:#E0D7D4;" d="M136.7,65.5H89.5c2.1,9.6,9.5,15.6,19.4,15.6c6.8,0,13-2.6,17.6-7.3l7.2,7.6
				c-6.1,6.7-15,10.6-25.8,10.6c-19.3,0-31.9-12.8-31.9-31.6c0-18.9,13-31.7,31.6-31.8C129.4,28.7,138.3,43,136.7,65.5z M124.9,55.7
				c-0.5-10.1-7.2-16.2-17.4-16.2c-9.9,0-16.8,6.2-18.3,16.2H124.9z"/>
			<path id="XMLID_239_" style="fill:#E0D7D4;" d="M164.1,91.6l-24.2-62.5H154l17.4,49.2l17.1-49.2H202L178,91.6H164.1z"/>
			<path id="XMLID_236_" style="fill:#E0D7D4;" d="M265.2,65.5H218c2.1,9.6,9.5,15.6,19.4,15.6c6.8,0,13-2.6,17.6-7.3l7.2,7.6
				c-6.1,6.7-15,10.6-25.8,10.6c-19.3,0-31.9-12.8-31.9-31.6c0-18.9,13-31.7,31.6-31.8C257.9,28.7,266.8,43,265.2,65.5z M253.4,55.7
				c-0.5-10.1-7.2-16.2-17.4-16.2c-9.9,0-16.8,6.2-18.3,16.2H253.4z"/>
			<path id="XMLID_234_" style="fill:#E0D7D4;" d="M336.9,52.8v38.9h-13.5V56.5c0-9.4-5.6-15.1-15-15.1c-10.3,0.1-16.8,7.3-17.7,17
				v33.2h-13.5V29.2h13.5v12c4.5-8.7,12.4-12.4,23-12.4C328.2,28.7,336.9,37.8,336.9,52.8z"/>
		</g>
		<g id="XMLID_132_">
			<path id="XMLID_229_" style="fill:#E0D7D4;" d="M391,9.6c17,0,27.6,7.7,27.6,20.5c0,9.3-5.5,16.2-14.4,18.3
				c11,1.9,17.6,9.7,17.6,20.8c0,14.1-11.4,22.5-29.9,22.5h-36.5V9.6H391z M369.2,43.6h21.1c8.8,0,14.1-4.1,14.1-11
				s-5.3-10.7-14.1-10.7h-21.1V43.6z M369.2,79.4h21.1c10.8,0,17.3-4.2,17.3-12c0-7.3-6.5-11.6-17.3-11.6h-21.1V79.4z"/>
			<path id="XMLID_227_" style="fill:#E0D7D4;" d="M448.9,41.7c4.2-8.5,11.7-12.9,21.6-12.9v12.9c-12.6-0.7-20.5,6.7-21.6,17.4v32.6
				h-13.5V29.3h13.5V41.7z"/>
			<path id="XMLID_224_" style="fill:#E0D7D4;" d="M497.3,11.4c0,4.7-3.4,8.1-7.9,8.1c-4.5,0-7.9-3.4-7.9-8.1c0-4.8,3.4-8.2,7.9-8.2
				C493.9,3.2,497.3,6.6,497.3,11.4z M482.8,91.7V29.3h13.4v62.5H482.8z"/>
			<path id="XMLID_221_" style="fill:#E0D7D4;" d="M573.1,91.7h-13.5V81c-4.5,7.3-12,11.3-22,11.3c-18,0-29.9-13-29.9-32
				c0-18.8,12.1-31.6,29.7-31.6c10.1,0,17.6,4.1,22.2,11.4V4.6h13.5V91.7z M559.6,60.7c0-12.1-7.9-20.5-19.1-20.5
				s-19.1,8.6-19.3,20.5c0.1,11.9,7.9,20.3,19.3,20.3C551.7,81,559.6,72.6,559.6,60.7z"/>
			<path id="XMLID_218_" style="fill:#E0D7D4;" d="M645.8,85.6c0,18-12.8,29.2-32.4,29.2c-9.7,0-18.3-3.1-25.9-8.2l5.8-9.7
				c5.9,4.3,12,6.8,19.6,6.8c11.9,0,19.6-6.9,19.6-17.7v-7.9c-4.2,6.8-11.3,10.6-20.7,10.6c-16.9,0-28.2-12.2-28.2-30.2
				c0-17.6,11.2-29.6,27.7-29.7c9.6-0.1,16.8,3.8,21.1,10.6V29.3h13.4V85.6z M632.4,58.9c0-11.3-7.4-19.1-18-19.1
				c-10.7,0-18.1,8-18.2,19.1c0.1,11.3,7.4,19.3,18.2,19.3C625,78.1,632.4,70.1,632.4,58.9z"/>
			<path id="XMLID_215_" style="fill:#E0D7D4;" d="M718.2,65.7H671c2.1,9.6,9.5,15.6,19.4,15.6c6.8,0,13-2.6,17.6-7.3l7.2,7.6
				c-6.1,6.7-15,10.6-25.8,10.6c-19.3,0-31.9-12.8-31.9-31.6c0-18.9,13-31.7,31.6-31.8C710.9,28.8,719.8,43.1,718.2,65.7z
				 M706.4,55.8c-0.5-10.1-7.2-16.2-17.4-16.2c-9.9,0-16.8,6.2-18.3,16.2H706.4z"/>
			<path id="XMLID_213_" style="fill:#E0D7D4;" d="M775.3,35l-4.9,10c-5.5-3.4-12.4-5.5-18-5.5c-5.3,0-9.2,1.8-9.2,6.2
				c0,11.5,33.2,5.3,33.1,27.9c0,12.8-11.4,18.5-23.9,18.5c-9.2,0-18.9-3.1-25.1-8.7l4.8-9.6c5.4,4.8,14.1,7.7,20.9,7.7
				c5.8,0,10.2-2,10.2-6.7c0-12.8-32.9-5.6-32.8-28.2c0-12.7,11-18.1,23-18.1C761.3,28.7,769.6,31,775.3,35z"/>
		</g>
	</g>
</g>
<g id="guides" style="display:none;">
</g>
</svg>
