<svg id="Layer_1" data-name="Layer 1" xmlns="http://www.w3.org/2000/svg" viewBox="0 0 652.66 525.41"><defs><style>.cls-1{fill:#baa393;}</style></defs><title>levi9</title><path class="cls-1" d="M411.18,424.13a3.08,3.08,0,0,0-.82-2.12,2.66,2.66,0,0,0-2-.77,2.72,2.72,0,0,0-2.44,1.55,8.62,8.62,0,0,0-.91,4.35,7.94,7.94,0,0,0,.9,4.24,2.87,2.87,0,0,0,2.63,1.41,2.53,2.53,0,0,0,2-.77,3.62,3.62,0,0,0,.75-2.29l5.36,0a6.76,6.76,0,0,1-2.36,5.11,8.61,8.61,0,0,1-5.84,1.89,8.74,8.74,0,0,1-6.63-2.51,9.56,9.56,0,0,1-2.41-6.89,9.89,9.89,0,0,1,2.41-6.95,8,8,0,0,1,6.23-2.68,9.58,9.58,0,0,1,6,1.71,6.12,6.12,0,0,1,2.39,4.74h-5.23Zm10,3.07a12.67,12.67,0,0,0-1-4.93,12.85,12.85,0,0,0-2.78-4.17,12.65,12.65,0,0,0-4.2-2.84,12.8,12.8,0,0,0-4.94-.94,13.12,13.12,0,0,0-4.94.92,12.05,12.05,0,0,0-4.11,2.78,13.34,13.34,0,0,0-2.85,4.25,12.7,12.7,0,0,0,0,9.84,13.38,13.38,0,0,0,2.8,4.16,13,13,0,0,0,4.19,2.83,12.33,12.33,0,0,0,4.91,1,12.47,12.47,0,0,0,4.92-1,13.6,13.6,0,0,0,4.26-2.86,11.79,11.79,0,0,0,2.77-4.1,12.88,12.88,0,0,0,.94-4.94M408.27,411a16.48,16.48,0,0,1,6.3,1.22,15.74,15.74,0,0,1,5.28,3.51,16.56,16.56,0,0,1,3.47,17.69,15.48,15.48,0,0,1-3.47,5.12,17.24,17.24,0,0,1-5.39,3.59,15.8,15.8,0,0,1-6.19,1.26,15.62,15.62,0,0,1-6.12-1.24,16.71,16.71,0,0,1-5.25-3.57,16.18,16.18,0,0,1-3.55-5.25,15.55,15.55,0,0,1-1.24-6.12,15.94,15.94,0,0,1,1.25-6.24,16.56,16.56,0,0,1,3.59-5.37,15,15,0,0,1,5.12-3.44,16.58,16.58,0,0,1,6.2-1.19" transform="translate(-98.86 -138.5)"/><path class="cls-1" d="M210.88,517.59q0,19.59,12.68,31.65t34,12.06H359.29V481.16q0-21-9.23-32t-28.94-13.45a70,70,0,0,0-7.92-.63H252.92q-18.76,0-30.39,11.5T210.88,476.8v40.78ZM313.62,663.91H198.34V651.86H313.14c8.1,0,14.24-.56,18.39-1.7s8.43-3.51,12.87-7.17q14.9-11.91,14.9-33.37V573.32H258.09q-14.4,0-23.71-2.82a51.46,51.46,0,0,1-17.73-9.8q-17.82-15.09-17.81-42.44V476.14q0-23,15.55-38.56Q228.49,423,252.5,423h61.44q27.23,0,42.3,15.53t15.09,42.56V608.92a59.1,59.1,0,0,1-5.59,25.87A51.93,51.93,0,0,1,350.1,654a49,49,0,0,1-16,7.6,80.58,80.58,0,0,1-20.49,2.27" transform="translate(-98.86 -138.5)"/><path class="cls-1" d="M99.22,144.17v-1.9h38.24v1.9H99.22Z" transform="translate(-98.86 -138.5)"/><path class="cls-1" d="M135.56,184V172.9h1.9v24.24h-1.9v-11.2H99.22V184h36.34Z" transform="translate(-98.86 -138.5)"/><path class="cls-1" d="M123.9,264.73a8.52,8.52,0,0,1,1.67-.15h3.21a9.78,9.78,0,0,1,3.66.62,8.63,8.63,0,0,1,2.86,2,7.76,7.76,0,0,1,1.7,2.79,13.42,13.42,0,0,1,.46,4v15.46h-1.9V273.85a7.8,7.8,0,0,0-1.75-5.48,6.45,6.45,0,0,0-5-1.89h-3a6.14,6.14,0,0,0-6,4.31,18.47,18.47,0,0,0-.21,3.47v5.83a11,11,0,0,1-1,4.92,7.3,7.3,0,0,1-2.91,3.16,8.7,8.7,0,0,1-4.43,1.09h-3.78a9.61,9.61,0,0,1-3.65-.6,7.4,7.4,0,0,1-2.72-2,7.82,7.82,0,0,1-1.57-2.7,14.48,14.48,0,0,1-.39-3.88V264.63h1.9V280a14.85,14.85,0,0,0,.21,2.76,4.75,4.75,0,0,0,.69,1.76,5.78,5.78,0,0,0,2.13,2.13,6.73,6.73,0,0,0,3.21.67h3.75q6.52,0,6.52-7.27v-5.78q0-1.1.05-1.64a13.48,13.48,0,0,1,1-4.06,6.42,6.42,0,0,1,2-2.53A7.92,7.92,0,0,1,123.9,264.73Z" transform="translate(-98.86 -138.5)"/><path class="cls-1" d="M99.38,327.18a8.19,8.19,0,0,1,2.75-5.07,8.37,8.37,0,0,1,5.52-1.78h21.14a9.43,9.43,0,0,1,4.1.85,7.36,7.36,0,0,1,2.91,2.45,9.38,9.38,0,0,1,1.52,3.92,8.85,8.85,0,0,1,.15,1.69v15.61h-1.9V329.06a12.59,12.59,0,0,0-.1-1.31,6.56,6.56,0,0,0-2.17-4.17,6.89,6.89,0,0,0-4.51-1.4H119.1V344.8l-2-.05V322.22H107.9a6.63,6.63,0,0,0-4.94,1.86,6.76,6.76,0,0,0-1.84,5v15.69h-1.9v-15.9A8.52,8.52,0,0,1,99.38,327.18Z" transform="translate(-98.86 -138.5)"/><path class="cls-1" d="M99.22,378.51v-1.9h38.24v17.85a11.51,11.51,0,0,1-1,5,6.92,6.92,0,0,1-2.94,3.13,9.49,9.49,0,0,1-4.64,1.07h-5.16a8.77,8.77,0,0,1-4.35-1,7,7,0,0,1-2.84-3,9.53,9.53,0,0,1-1-4.43V381.93L99.22,403.45v-3.26L114.63,380l0.64-.8a0.66,0.66,0,0,1,.46-0.26l0.54-.13a1,1,0,0,1,.83.48,2.24,2.24,0,0,1,.32,1.27v14.66a6.92,6.92,0,0,0,1.3,4.52,5.91,5.91,0,0,0,3.84,2,7.2,7.2,0,0,0,1,.1H129a6.19,6.19,0,0,0,4.82-1.87,7.86,7.86,0,0,0,1.71-5.47V378.51H99.22Z" transform="translate(-98.86 -138.5)"/><path class="cls-1" d="M100.74,445.38l36.72-14.46V433l-35.88,14,35.88,14v2.06l-36.72-14.41-0.68-.32-0.58-.27a1.61,1.61,0,0,1-.62-1.1,1,1,0,0,1,.15-0.57,2,2,0,0,1,.49-0.47A7.73,7.73,0,0,1,100.74,445.38Z" transform="translate(-98.86 -138.5)"/><path class="cls-1" d="M99.23,493.56v-1.9h38.24v1.9H99.23Z" transform="translate(-98.86 -138.5)"/><path class="cls-1" d="M101.22,528.71a7.89,7.89,0,0,1,2.86-2,11.06,11.06,0,0,1,3.92-.58h21.24a7.94,7.94,0,0,1,6.42,2.75,7.66,7.66,0,0,1,1.39,2.51,11.89,11.89,0,0,1,.41,3.48v15.9h-1.9V534.9a10.8,10.8,0,0,0-.28-2.92,5.63,5.63,0,0,0-1.13-1.91,6.23,6.23,0,0,0-4.78-2.05H108.1a8.16,8.16,0,0,0-3.89.82,6.11,6.11,0,0,0-2.48,2.6,10,10,0,0,0-.62,4.11v15.1h-1.9v-15.1a16,16,0,0,1,.39-4.15A7.27,7.27,0,0,1,101.22,528.71Z" transform="translate(-98.86 -138.5)"/><path class="cls-1" d="M99.37,588.21a8.2,8.2,0,0,1,2.75-5.07,8.37,8.37,0,0,1,5.52-1.79h21.14a9.43,9.43,0,0,1,4.1.85,7.38,7.38,0,0,1,2.91,2.45,9.38,9.38,0,0,1,1.52,3.92,8.88,8.88,0,0,1,.15,1.7v15.61h-1.9V590.08a12.44,12.44,0,0,0-.1-1.31,6.55,6.55,0,0,0-2.17-4.17,6.89,6.89,0,0,0-4.51-1.4h-9.68v22.63l-2-.05V583.25H107.9a6.63,6.63,0,0,0-4.94,1.86,6.77,6.77,0,0,0-1.84,5v15.69h-1.9v-15.9A8.52,8.52,0,0,1,99.37,588.21Z" transform="translate(-98.86 -138.5)"/><path class="cls-1" d="M123.9,636.28a8.52,8.52,0,0,1,1.67-.15h3.21a9.74,9.74,0,0,1,3.66.62,8.62,8.62,0,0,1,2.86,2,7.76,7.76,0,0,1,1.7,2.79,13.41,13.41,0,0,1,.46,4v15.46h-1.9V645.4a7.79,7.79,0,0,0-1.75-5.48,6.45,6.45,0,0,0-5-1.89h-3a6.14,6.14,0,0,0-6,4.32,18.46,18.46,0,0,0-.21,3.47v5.83a11,11,0,0,1-1,4.92,7.3,7.3,0,0,1-2.92,3.16,8.69,8.69,0,0,1-4.43,1.09h-3.78a9.62,9.62,0,0,1-3.65-.6,7.41,7.41,0,0,1-2.72-2,7.84,7.84,0,0,1-1.57-2.7,14.49,14.49,0,0,1-.39-3.88V636.18h1.9v15.41a14.86,14.86,0,0,0,.21,2.76,4.72,4.72,0,0,0,.69,1.76,5.77,5.77,0,0,0,2.13,2.13,6.71,6.71,0,0,0,3.21.67h3.75q6.52,0,6.52-7.27v-5.78c0-.74,0-1.28.05-1.64a13.48,13.48,0,0,1,1-4.06,6.42,6.42,0,0,1,2-2.53A7.91,7.91,0,0,1,123.9,636.28Z" transform="translate(-98.86 -138.5)"/><path class="cls-1" d="M615,372.59L533.66,197.27H546l77.3,167.55L700.6,197.27h12.29L631.22,372.59a54.85,54.85,0,0,1-2.59,5.34,6.36,6.36,0,0,1-10.7,0c-0.43-.65-0.77-1.22-1.07-1.76s-0.87-1.75-1.85-3.58" transform="translate(-98.86 -138.5)"/><path class="cls-1" d="M236.85,376.48q-18.34-6.31-26.31-18.85t-7.92-34.54V138.5h12V323q0,15.56,5.35,25.33t17.51,14.38q12.18,4.64,32.3,4.62h88.76V379.4H270.12q-14.94,0-21.41-.55a52.12,52.12,0,0,1-11.86-2.37" transform="translate(-98.86 -138.5)"/><rect class="cls-1" x="638.48" y="58.77" width="10.59" height="183.58"/><path class="cls-1" d="M425.46,369a39.56,39.56,0,0,1-39.52-39.52V318.38l0.19-.1,137.7-60.71v-2.07h0V241.18a43.56,43.56,0,0,0-43.51-43.51H418.6a43.56,43.56,0,0,0-43.51,43.51v88.35a50.43,50.43,0,0,0,50.37,50.37h98.67V369H425.46ZM418.6,208.52h61.75A32.69,32.69,0,0,1,513,241.18v9.24l-127.06,56V241.18A32.69,32.69,0,0,1,418.6,208.52Z" transform="translate(-98.86 -138.5)"/><circle class="cls-1" cx="643.63" cy="31.23" r="9.03"/></svg>