<?xml version="1.0" encoding="utf-8"?>
<!-- Generator: Adobe Illustrator 19.0.0, SVG Export Plug-In . SVG Version: 6.00 Build 0)  -->
<svg version="1.1" id="Layer_1" xmlns="http://www.w3.org/2000/svg" xmlns:xlink="http://www.w3.org/1999/xlink" x="0px" y="0px"
	 viewBox="0 0 230.5 44.9" style="enable-background:new 0 0 230.5 44.9;" xml:space="preserve">
<g>
	<path style="fill:#E0D7D4;" d="M0,0.2h7.9v15.5c1.6-1.3,3.1-2.4,4.7-3c1.6-0.7,3.2-1,4.8-1c3.2,0,5.8,1.1,8,3.3
		c1.9,1.9,2.8,4.7,2.8,8.3v21.1h-7.9v-14c0-3.7-0.2-6.2-0.5-7.5c-0.4-1.3-1-2.3-1.8-2.9c-0.8-0.6-1.9-1-3.1-1c-1.6,0-3,0.5-4.2,1.6
		s-2,2.5-2.4,4.4c-0.2,1-0.4,3.1-0.4,6.6v12.8H0V0.2z"/>
	<path style="fill:#E0D7D4;" d="M55.5,27.4c-1-1.8-2.5-3.2-4.3-4.3c-1.9-1.1-3.8-1.6-5.9-1.6c-2.9,0-5.5,1-7.7,3
		c-2.6,2.3-3.8,5.2-3.8,8.7c0,3.3,1.1,6,3.4,8.3c2.3,2.3,5,3.4,8.2,3.4c2.2,0,4.2-0.5,6-1.5c1.8-1,3.2-2.5,4.3-4.3
		c1-1.8,1.6-3.8,1.6-5.9C57.1,31.1,56.6,29.2,55.5,27.4z M48.6,36.7c-0.9,0.9-2,1.4-3.3,1.4c-1.3,0-2.4-0.5-3.3-1.4
		c-0.9-0.9-1.3-2.1-1.3-3.5c0-1.4,0.4-2.6,1.3-3.5c0.9-0.9,2-1.4,3.3-1.4c1.3,0,2.4,0.4,3.3,1.3c0.9,0.9,1.3,2.1,1.3,3.5
		C49.9,34.7,49.5,35.8,48.6,36.7z"/>
	<path style="fill:#E0D7D4;" d="M82.4,27.4c-1-1.8-2.5-3.2-4.3-4.3c-1.9-1.1-3.8-1.6-5.9-1.6c-2.9,0-5.5,1-7.7,3
		c-2.6,2.3-3.8,5.2-3.8,8.7c0,3.3,1.1,6,3.4,8.3c2.3,2.3,5,3.4,8.2,3.4c2.2,0,4.2-0.5,6-1.5c1.8-1,3.2-2.5,4.3-4.3
		c1-1.8,1.6-3.8,1.6-5.9C84,31.1,83.4,29.2,82.4,27.4z M75.5,36.7c-0.9,0.9-2,1.4-3.3,1.4c-1.3,0-2.4-0.5-3.3-1.4
		c-0.9-0.9-1.3-2.1-1.3-3.5c0-1.4,0.4-2.6,1.3-3.5c0.9-0.9,2-1.4,3.3-1.4c1.3,0,2.4,0.4,3.3,1.3c0.9,0.9,1.3,2.1,1.3,3.5
		C76.8,34.7,76.4,35.8,75.5,36.7z"/>
	<path style="fill:#E0D7D4;" d="M88.1,0.7h9v44.2h-9V0.7z"/>
	<path style="fill:#E0D7D4;" d="M123.7,27.4c-1-1.8-2.5-3.2-4.3-4.3c-1.9-1.1-3.8-1.6-5.9-1.6c-2.9,0-5.5,1-7.7,3
		c-2.6,2.3-3.8,5.2-3.8,8.7c0,3.3,1.1,6,3.4,8.3c2.3,2.3,5,3.4,8.2,3.4c2.2,0,4.2-0.5,6-1.5c1.8-1,3.2-2.5,4.3-4.3
		c1-1.8,1.6-3.8,1.6-5.9C125.2,31.1,124.7,29.2,123.7,27.4z M116.8,36.7c-0.9,0.9-2,1.4-3.3,1.4c-1.3,0-2.4-0.5-3.3-1.4
		c-0.9-0.9-1.3-2.1-1.3-3.5c0-1.4,0.4-2.6,1.3-3.5c0.9-0.9,2-1.4,3.3-1.4c1.3,0,2.4,0.4,3.3,1.3c0.9,0.9,1.3,2.1,1.3,3.5
		C118.1,34.7,117.6,35.8,116.8,36.7z"/>
	<path style="fill:#E0D7D4;" d="M150.6,27.4c-1-1.8-2.5-3.2-4.3-4.3c-1.9-1.1-3.8-1.6-5.9-1.6c-2.9,0-5.5,1-7.7,3
		c-2.6,2.3-3.8,5.2-3.8,8.7c0,3.3,1.1,6,3.4,8.3c2.3,2.3,5,3.4,8.2,3.4c2.2,0,4.2-0.5,6-1.5c1.8-1,3.2-2.5,4.3-4.3
		c1-1.8,1.6-3.8,1.6-5.9C152.1,31.1,151.6,29.2,150.6,27.4z M143.6,36.7c-0.9,0.9-2,1.4-3.3,1.4c-1.3,0-2.4-0.5-3.3-1.4
		c-0.9-0.9-1.3-2.1-1.3-3.5c0-1.4,0.4-2.6,1.3-3.5c0.9-0.9,2-1.4,3.3-1.4c1.3,0,2.4,0.4,3.3,1.3c0.9,0.9,1.3,2.1,1.3,3.5
		C145,34.7,144.5,35.8,143.6,36.7z"/>
	<path style="fill:#E0D7D4;" d="M148.5,0h9.4l9.3,26.2L176.5,0h9.4l-15.7,44.4h-6L148.5,0z"/>
	<path style="fill:#E0D7D4;" d="M202,27.4c-1-1.8-2.5-3.2-4.3-4.3c-1.9-1.1-3.8-1.6-5.9-1.6c-2.9,0-5.5,1-7.7,3
		c-2.6,2.3-3.8,5.2-3.8,8.7c0,3.3,1.1,6,3.4,8.3c2.3,2.3,5,3.4,8.2,3.4c2.2,0,4.2-0.5,6-1.5c1.8-1,3.2-2.5,4.3-4.3
		c1-1.8,1.6-3.8,1.6-5.9C203.6,31.1,203.1,29.2,202,27.4z M195.1,36.7c-0.9,0.9-2,1.4-3.3,1.4c-1.3,0-2.4-0.5-3.3-1.4
		c-0.9-0.9-1.3-2.1-1.3-3.5c0-1.4,0.4-2.6,1.3-3.5c0.9-0.9,2-1.4,3.3-1.4c1.3,0,2.4,0.4,3.3,1.3c0.9,0.9,1.3,2.1,1.3,3.5
		C196.4,34.7,196,35.8,195.1,36.7z"/>
	<path style="fill:#E0D7D4;" d="M228.9,27.4c-1-1.8-2.5-3.2-4.3-4.3c-1.9-1.1-3.8-1.6-5.9-1.6c-2.9,0-5.5,1-7.7,3
		c-2.6,2.3-3.8,5.2-3.8,8.7c0,3.3,1.1,6,3.4,8.3c2.3,2.3,5,3.4,8.2,3.4c2.2,0,4.2-0.5,6-1.5c1.8-1,3.2-2.5,4.3-4.3
		c1-1.8,1.6-3.8,1.6-5.9C230.5,31.1,230,29.2,228.9,27.4z M222,36.7c-0.9,0.9-2,1.4-3.3,1.4c-1.3,0-2.4-0.5-3.3-1.4
		c-0.9-0.9-1.3-2.1-1.3-3.5c0-1.4,0.4-2.6,1.3-3.5c0.9-0.9,2-1.4,3.3-1.4c1.3,0,2.4,0.4,3.3,1.3c0.9,0.9,1.3,2.1,1.3,3.5
		C223.3,34.7,222.9,35.8,222,36.7z"/>
</g>
</svg>
