<?xml version="1.0" encoding="utf-8"?>
<!-- Generator: Adobe Illustrator 19.0.0, SVG Export Plug-In . SVG Version: 6.00 Build 0)  -->
<svg version="1.1" id="Layer_1" xmlns="http://www.w3.org/2000/svg" xmlns:xlink="http://www.w3.org/1999/xlink" x="0px" y="0px"
	 viewBox="0 0 289.7 61.7" style="enable-background:new 0 0 289.7 61.7;" xml:space="preserve">
<g id="XMLID_17_">
	<path id="XMLID_29_" style="fill:#E0D7D4;" d="M181.4,29.8c0,10.7-6.2,18.8-17.7,18.8h-16.9V11.1h16.1
		C174.2,11.1,181.4,16.6,181.4,29.8z M171.4,29.9c0-9.2-5-10.6-9.3-10.6h-5.3v21h4.9C168.2,40.3,171.4,35.9,171.4,29.9z"/>
	<path id="XMLID_28_" style="fill:#E0D7D4;" d="M254.3,35.8c0,9.4-7.5,13.3-16.1,13.3c-10.3,0-16.2-4.2-16.2-13.3V11.1h10.3V36
		c0,3.5,2.2,5,5.9,5c3.7,0,5.8-1.5,5.8-5.2V11.1h10.3V35.8z"/>
	<path id="XMLID_27_" style="fill:#E0D7D4;" d="M275.8,49.1c-9.9,0-13.7-2.2-13.7-2.2l2.7-8.4c0,0,4.3,2.2,10.9,2.2
		c2.9,0,3.4-1.9,3.4-3c0-4.9-16.7-3.4-16.7-15.6c0-6.9,4.4-11,10.5-11c10,0,14.9,0.4,14.9,0.4l-2,8c0,0-5.6-0.4-10.2-0.4
		c-2.2,0-2.8,1.3-2.8,2.6c0,4.8,16.8,2.3,16.8,15.5C289.7,44.6,284.3,49.1,275.8,49.1z"/>
	<polygon id="XMLID_26_" style="fill:#E0D7D4;" points="0,11.1 9.7,11.1 25.6,34 25.7,34 25.7,11.1 35.5,11.1 35.5,48.6 25.7,48.6 
		9.8,25.6 9.7,25.6 9.7,48.6 0,48.6 	"/>
	<polygon id="XMLID_25_" style="fill:#E0D7D4;" points="196.2,19.3 196.2,25.6 211,25.6 211,33.8 196.2,33.8 196.2,40.3 213.5,40.3 
		214.2,48.5 186.5,48.5 186.5,11.1 214.2,11.1 213.5,19.3 	"/>
	<path id="XMLID_22_" style="fill:#E0D7D4;" d="M72.7,0c-17-0.7-31.4,12.6-32,29.7c-0.7,17,12.6,31.4,29.7,32
		c17,0.7,31.4-12.6,32-29.7C103,15,89.8,0.7,72.7,0 M70.7,52.4C58.8,52,49.5,41.9,50,30C50.4,18.1,60.5,8.9,72.4,9.3
		c11.9,0.5,21.2,10.5,20.7,22.4C92.6,43.6,82.6,52.9,70.7,52.4"/>
	<path id="XMLID_21_" style="fill:#E0D7D4;" d="M83,25.5c-0.2,3.9-3.5,7-7.4,6.8c-3.9-0.2-7-3.5-6.8-7.4c0.2-3.9,3.4-7,7.4-6.8
		C80.1,18.2,83.2,21.5,83,25.5"/>
	<path id="XMLID_18_" style="fill:#E0D7D4;" d="M137.3,38.7c-1.4-3.1-2.3-4.6-3.7-5.5c1.4-0.7,2.5-1.5,3.4-2.8c1.4-2,2.1-5,2.1-7.6
		c0-4.1-1.3-7-3.8-8.9c-2.5-1.9-5.7-2.8-9.4-2.8h-18.3v37.4h10.3V35h0l2.6,0.1v0c1,0,4.5,0.1,6.2,3.6c1.9,4.1,4.7,9.8,4.7,9.8H142
		C142,48.5,138.7,41.8,137.3,38.7z M117.9,28.5V18.2h4h1.8h0.5c1.5,0,2.2,0.6,3,1.3c0.8,0.7,1.7,2,1.7,3.9c0,1.8-0.6,3.4-1.6,4.2
		c-0.7,0.6-1.5,0.9-3,0.9h-0.5c-0.2,0-1.6,0-1.8,0H117.9z"/>
</g>
</svg>
