<?xml version="1.0" encoding="UTF-8" standalone="no"?>
<!-- Created with Inkscape (http://www.inkscape.org/) -->

<svg
   xmlns:dc="http://purl.org/dc/elements/1.1/"
   xmlns:cc="http://creativecommons.org/ns#"
   xmlns:rdf="http://www.w3.org/1999/02/22-rdf-syntax-ns#"
   xmlns:svg="http://www.w3.org/2000/svg"
   xmlns="http://www.w3.org/2000/svg"
   xmlns:sodipodi="http://sodipodi.sourceforge.net/DTD/sodipodi-0.dtd"
   xmlns:inkscape="http://www.inkscape.org/namespaces/inkscape"
   id="svg3355"
   version="1.1"
   inkscape:version="0.91 r"
   xml:space="preserve"
   width="255"
   height="78.75"
   viewBox="0 0 255 78.75"
   sodipodi:docname="logo-triglav.svg"><metadata
     id="metadata3361"><rdf:RDF><cc:Work
         rdf:about=""><dc:format>image/svg+xml</dc:format><dc:type
           rdf:resource="http://purl.org/dc/dcmitype/StillImage" /><dc:title></dc:title></cc:Work></rdf:RDF></metadata><defs
     id="defs3359" /><sodipodi:namedview
     pagecolor="#ffffff"
     bordercolor="#666666"
     borderopacity="1"
     objecttolerance="10"
     gridtolerance="10"
     guidetolerance="10"
     inkscape:pageopacity="0"
     inkscape:pageshadow="2"
     inkscape:window-width="1366"
     inkscape:window-height="712"
     id="namedview3357"
     showgrid="false"
     inkscape:zoom="3.3303343"
     inkscape:cx="124.68323"
     inkscape:cy="49.429984"
     inkscape:window-x="0"
     inkscape:window-y="30"
     inkscape:window-maximized="1"
     inkscape:current-layer="g3365" /><g
     id="g3363"
     inkscape:groupmode="layer"
     inkscape:label="ink_ext_XXXXXX"
     transform="matrix(1.25,0,0,-1.25,0,78.75)"><g
       id="g3365"
       transform="scale(0.1,0.1)"><path
         d="m 9.12891,626.332 0,-626.207 626.20709,0 0,626.207 -626.20709,0 z M 322.23,141.883 c -93.683,0 -170.113,75.191 -171.343,170.113 l 0,171.34 56.703,0 285.984,0 0,-56.699 -285.984,0 0,-114.641 c 1.23,-62.867 51.773,-113.41 114.64,-113.41 62.868,0 113.407,50.543 114.641,113.41 l 56.703,0 c 0,-94.922 -76.429,-170.113 -171.344,-170.113 z m 0,141.758 c 16.024,0 28.352,12.328 28.352,28.355 l 57.934,0 c -1.231,-46.844 -39.442,-85.058 -86.286,-85.058 -46.843,0 -85.054,38.214 -85.054,85.058 l 0,86.289 256.398,0 0,-57.937 -199.695,0 0,-28.352 c 0,-16.027 12.324,-28.355 28.351,-28.355"
         style="fill:#aeaba8;fill-opacity:1;fill-rule:evenodd;stroke:none"
         id="path3367"
         inkscape:connector-curvature="0" /><path
         d="m 1100.06,157.91 71.4961,0 0,235.441 -71.4961,0 0,-235.441 z"
         style="fill:#aeaba8;fill-opacity:1;fill-rule:evenodd;stroke:none"
         id="path3369"
         inkscape:connector-curvature="0" /><path
         d="m 1135.8,503.063 c -23.41,0 -44.37,-18.493 -44.37,-41.915 0,-24.652 20.96,-43.14 44.37,-43.14 24.66,0 44.38,19.719 44.38,43.14 0,23.422 -19.72,41.915 -44.38,41.915"
         style="fill:#aeaba8;fill-opacity:1;fill-rule:evenodd;stroke:none"
         id="path3371"
         inkscape:connector-curvature="0" /><path
         d="m 1206.07,262.688 c 0,-70.266 30.82,-110.942 87.52,-110.942 29.59,0 53,14.793 65.33,38.211 l 0,0 c -1.23,-12.324 -2.46,-22.187 -2.46,-34.516 l 0,-7.394 c 0,-34.516 -18.5,-50.5392 -60.41,-50.5392 -20.95,0 -50.53,7.3942 -73.96,18.4882 l -2.46,-67.7968 c 20.96,-6.164 46.84,-11.0937 73.96,-11.0937 106.01,0 134.36,54.2383 134.36,115.8715 l 0,237.91 c -25.88,3.699 -54.24,7.398 -89.99,7.398 -86.28,0 -131.89,-59.172 -131.89,-135.597 z m 150.39,18.488 c 0,-40.676 -17.26,-69.028 -41.91,-69.028 -20.96,0 -32.05,18.489 -32.05,57.934 0,53.008 20.95,70.266 49.3,70.266 9.86,0 17.26,-1.235 24.66,-2.469 l 0,-56.703"
         style="fill:#aeaba8;fill-opacity:1;fill-rule:evenodd;stroke:none"
         id="path3373"
         inkscape:connector-curvature="0" /><path
         d="m 1779.27,314.461 c 0,56.703 -23.42,83.824 -106.01,83.824 -28.35,0 -56.71,-4.933 -81.36,-12.328 l 0,-65.336 c 20.96,12.328 51.78,19.727 71.5,19.727 34.51,0 43.14,-9.864 43.14,-29.586 l 0,-7.395 c -72.73,0 -133.13,-24.656 -133.13,-86.293 0,-36.976 23.42,-64.097 69.03,-64.097 32.05,0 60.4,16.027 70.26,39.445 l 0,-1.231 c -1.23,-9.863 -1.23,-22.187 -1.23,-33.281 l 69.03,0 c -1.23,20.953 -1.23,43.141 -1.23,55.469 0,30.82 0,65.332 0,101.082 z m -72.73,-62.867 c 0,-22.192 -17.25,-44.375 -41.91,-44.375 -13.56,0 -22.19,8.629 -22.19,20.953 0,19.723 19.72,30.816 64.1,30.816 l 0,-7.394"
         style="fill:#aeaba8;fill-opacity:1;fill-rule:evenodd;stroke:none"
         id="path3375"
         inkscape:connector-curvature="0" /><path
         d="m 853.52,482.105 -72.727,-19.722 0,-69.031 -35.75,0 0,-55.473 35.75,0 0,-109.707 c 0,-57.934 18.488,-75.195 72.727,-75.195 17.257,0 35.746,2.464 50.539,7.398 l 0,59.168 c -7.395,-3.695 -17.258,-4.93 -25.887,-4.93 -18.488,0 -24.652,7.395 -24.652,32.047 l 0,91.219 50.539,0 0,55.473 -50.539,0 0,88.753"
         style="fill:#aeaba8;fill-opacity:1;fill-rule:evenodd;stroke:none"
         id="path3377"
         inkscape:connector-curvature="0" /><path
         d="m 1006.37,355.137 -1.23,0 c 2.47,13.562 2.47,29.586 2.47,38.215 l -67.805,0 0,-235.442 72.735,0 0,99.848 c 0,59.168 23.42,80.121 61.63,71.492 l 0,70.266 c -35.75,1.23 -56.7,-19.723 -67.8,-44.379"
         style="fill:#aeaba8;fill-opacity:1;fill-rule:evenodd;stroke:none"
         id="path3379"
         inkscape:connector-curvature="0" /><path
         d="m 1469.87,157.91 71.4922,0 0,346.383 -71.4922,0 0,-346.383 z"
         style="fill:#aeaba8;fill-opacity:1;fill-rule:evenodd;stroke:none"
         id="path3381"
         inkscape:connector-curvature="0" /><path
         d="m 1956.78,393.352 -28.35,-83.825 c -6.17,-18.488 -9.87,-33.281 -13.57,-57.933 l -1.23,0 c -6.16,25.886 -9.86,43.144 -16.02,60.402 l -27.12,81.356 -80.13,0 83.83,-235.442 76.42,0 83.83,235.442 -77.66,0"
         style="fill:#aeaba8;fill-opacity:1;fill-rule:evenodd;stroke:none"
         id="path3383"
         inkscape:connector-curvature="0" /></g></g></svg>