<?xml version="1.0" encoding="utf-8"?>
<!-- Generator: Adobe Illustrator 19.0.0, SVG Export Plug-In . SVG Version: 6.00 Build 0)  -->
<svg version="1.1" id="Layer_1" xmlns="http://www.w3.org/2000/svg" xmlns:xlink="http://www.w3.org/1999/xlink" x="0px" y="0px"
	 viewBox="0 0 657.2 322.1" style="enable-background:new 0 0 657.2 322.1;" xml:space="preserve">
<path style="fill:#E0D7D4;" d="M226.8,34.5C201.6,12.6,167.1,0,132.2,0C97.2,0,64.1,13.6,39,38.2C13.8,63,0,95.7,0,130.5
	c0,56.8,35.6,104.7,89.2,121.4l27.3-43c-38.2-7-66.2-39.3-66.2-79.2c0-45.2,37.2-82,82.9-82c41.8,0,85,29.9,85,80
	c0,23.4-11.1,44-21.6,61.5l-0.2,0.3l-0.2,0.2l-89.5,132.4H153c8.6,0,16.4-4.3,20.9-11.6l49.1-78.9c3-5,6.1-10,9-14.9
	c17.9-29.1,36.4-59.2,36.4-90.3C268.4,80.4,245.7,51.1,226.8,34.5"/>
<path style="fill:#E0D7D4;" d="M134.3,91.1c-19.4,0-35.1,15.7-35.1,35.1s15.7,35.1,35.1,35.1c19.4,0,35.1-15.7,35.1-35.1
	S153.6,91.1,134.3,91.1"/>
<rect x="324.4" y="42.3" style="fill:#E0D7D4;" width="26.6" height="105.4"/>
<path style="fill:#E0D7D4;" d="M428.5,95.3c-0.2-0.7-1.5-5.9-5.4-9.6c-3-2.8-7.2-4.6-12.6-4.6c-6.8,0-10.9,2.8-13.5,5.4
	c-2,2.2-3.9,5.2-4.6,8.9H428.5z M453,111.2h-61.5c0,4.4,1.7,10.3,5,14c4.1,4.4,9.6,5.2,13.7,5.2c3.9,0,7.9-0.7,10.7-2.4
	c0.4-0.2,3.5-2.2,5.7-6.8l25.1,2.6c-3.7,11.6-11.1,17.7-15.9,20.7c-7.9,4.8-16.8,6.1-26,6.1c-12.4,0-23.3-2.2-32.9-11.8
	c-7.2-7.2-12.4-18.1-12.4-31.8c0-11.8,4.2-24,12.6-32.5c10-10,22.3-11.8,31.6-11.8s22.5,1.7,32.7,12.4c9.8,10.3,11.6,23.3,11.6,33.4
	V111.2z"/>
<polygon style="fill:#E0D7D4;" points="485.2,65.4 506,109.5 526.9,65.4 556.1,65.4 514.3,147.7 497.7,147.7 456,65.4 "/>
<path style="fill:#E0D7D4;" d="M591.5,65.4v61.8c0,11.3-9.2,20.5-20.5,20.5h-6.1V65.4H591.5z"/>
<path style="fill:#E0D7D4;" d="M323.6,168.9h26.6v9.8c8.1-10.3,17.7-12,25.5-12c7.2,0,16.6,1.3,23.6,8.3c7.8,7.8,8.3,17.5,8.3,24.2
	v52.1H381V209c0-5.4-0.2-12.2-4.4-16.4c-2-2-5.4-3.7-10.2-3.7c-5.5,0-9,2.2-11.1,4.4c-4.4,4.4-5.2,10.3-5.2,15.7v42.3h-26.6V168.9z"
	/>
<path style="fill:#E0D7D4;" d="M453,168.9v61.8c0,11.3-9.2,20.5-20.5,20.5h-6.1v-82.3H453z"/>
<path style="fill:#E0D7D4;" d="M471.9,168.9h26.6v9.8c8.1-10.3,17.7-12,25.5-12c7.2,0,16.6,1.3,23.6,8.3c7.8,7.8,8.3,17.5,8.3,24.2
	v52.1h-26.6V209c0-5.4-0.2-12.2-4.4-16.4c-2-2-5.4-3.7-10.2-3.7c-5.5,0-9,2.2-11.1,4.4c-4.4,4.4-5.2,10.3-5.2,15.7v42.3h-26.6V168.9
	z"/>
<path style="fill:#E0D7D4;" d="M632.7,198.8c-0.2-0.7-1.5-5.9-5.4-9.6c-3-2.8-7.2-4.6-12.6-4.6c-6.8,0-10.9,2.8-13.5,5.4
	c-2,2.2-3.9,5.2-4.6,8.9H632.7z M657.2,214.7h-61.5c0,4.4,1.7,10.3,5,14c4.1,4.4,9.6,5.2,13.7,5.2c3.9,0,7.9-0.7,10.7-2.4
	c0.4-0.2,3.5-2.2,5.7-6.8l25.1,2.6c-3.7,11.6-11.1,17.7-15.9,20.7c-7.9,4.8-16.8,6.1-26,6.1c-12.4,0-23.3-2.2-32.9-11.8
	c-7.2-7.2-12.4-18.1-12.4-31.8c0-11.8,4.2-24,12.6-32.5c10-10,22.3-11.8,31.6-11.8c9.2,0,22.5,1.7,32.7,12.4
	c9.8,10.3,11.6,23.3,11.6,33.4V214.7z"/>
</svg>
