<?xml version="1.0" encoding="UTF-8" standalone="no"?>
<!-- Created with Inkscape (http://www.inkscape.org/) -->

<svg
   xmlns:dc="http://purl.org/dc/elements/1.1/"
   xmlns:cc="http://creativecommons.org/ns#"
   xmlns:rdf="http://www.w3.org/1999/02/22-rdf-syntax-ns#"
   xmlns:svg="http://www.w3.org/2000/svg"
   xmlns="http://www.w3.org/2000/svg"
   xmlns:xlink="http://www.w3.org/1999/xlink"
   xmlns:sodipodi="http://sodipodi.sourceforge.net/DTD/sodipodi-0.dtd"
   xmlns:inkscape="http://www.inkscape.org/namespaces/inkscape"
   id="svg4155"
   version="1.1"
   inkscape:version="0.91 r"
   xml:space="preserve"
   width="320.98624"
   height="139.77251"
   viewBox="0 0 320.98624 139.77251"
   sodipodi:docname="logo-zajecarsko.svg"><metadata
     id="metadata4161"><rdf:RDF><cc:Work
         rdf:about=""><dc:format>image/svg+xml</dc:format><dc:type
           rdf:resource="http://purl.org/dc/dcmitype/StillImage" /><dc:title></dc:title></cc:Work></rdf:RDF></metadata><defs
     id="defs4159"><linearGradient
       x1="0"
       y1="0"
       x2="1"
       y2="0"
       gradientUnits="userSpaceOnUse"
       gradientTransform="matrix(0.0136719,0,0,-0.0136719,340.58984,168.78125)"
       spreadMethod="pad"
       id="linearGradient4179"><stop
         style="stop-opacity:1;stop-color:#d08831"
         offset="0"
         id="stop4181" /><stop
         style="stop-opacity:1;stop-color:#fdca5a"
         offset="0.245399"
         id="stop4183" /><stop
         style="stop-opacity:1;stop-color:#d08831"
         offset="0.5"
         id="stop4185" /><stop
         style="stop-opacity:1;stop-color:#d08831"
         offset="0.51971472"
         id="stop4187" /><stop
         style="stop-opacity:1;stop-color:#fdca5a"
         offset="0.75"
         id="stop4189" /><stop
         style="stop-opacity:1;stop-color:#d08831"
         offset="1"
         id="stop4191" /></linearGradient><linearGradient
       x1="0"
       y1="0"
       x2="1"
       y2="0"
       gradientUnits="userSpaceOnUse"
       gradientTransform="matrix(0.2089844,0,0,-0.2089844,232.01562,179.10205)"
       spreadMethod="pad"
       id="linearGradient4207"><stop
         style="stop-opacity:1;stop-color:#d08831"
         offset="0"
         id="stop4209" /><stop
         style="stop-opacity:1;stop-color:#fdca5a"
         offset="0.245399"
         id="stop4211" /><stop
         style="stop-opacity:1;stop-color:#d08831"
         offset="0.5"
         id="stop4213" /><stop
         style="stop-opacity:1;stop-color:#d08831"
         offset="0.51971472"
         id="stop4215" /><stop
         style="stop-opacity:1;stop-color:#fdca5a"
         offset="0.75"
         id="stop4217" /><stop
         style="stop-opacity:1;stop-color:#d08831"
         offset="1"
         id="stop4219" /></linearGradient><linearGradient
       x1="0"
       y1="0"
       x2="1"
       y2="0"
       gradientUnits="userSpaceOnUse"
       gradientTransform="matrix(256.78906,0,0,-256.78906,84.205078,141.72998)"
       spreadMethod="pad"
       id="linearGradient4235"
       xlink:href="#linearGradient4355"><stop
         style="stop-opacity:1;stop-color:#d08831"
         offset="0"
         id="stop4237" /><stop
         style="stop-opacity:1;stop-color:#fdca5a"
         offset="0.245399"
         id="stop4239" /><stop
         style="stop-opacity:1;stop-color:#d08831"
         offset="0.5"
         id="stop4241" /><stop
         style="stop-opacity:1;stop-color:#d08831"
         offset="0.51971472"
         id="stop4243" /><stop
         style="stop-opacity:1;stop-color:#fdca5a"
         offset="0.75"
         id="stop4245" /><stop
         style="stop-opacity:1;stop-color:#d08831"
         offset="1"
         id="stop4247" /></linearGradient><clipPath
       clipPathUnits="userSpaceOnUse"
       id="clipPath4255"><path
         d="m 0,283.46 425.2,0 L 425.2,0 0,0 0,283.46 Z"
         id="path4257"
         inkscape:connector-curvature="0" /></clipPath><linearGradient
       x1="0"
       y1="0"
       x2="1"
       y2="0"
       gradientUnits="userSpaceOnUse"
       gradientTransform="matrix(-24.283445,-50.172329,-50.172329,24.283445,225.22656,187.43457)"
       spreadMethod="pad"
       id="linearGradient4355"><stop
         style="stop-opacity:1;stop-color:#d08831"
         offset="0"
         id="stop4357" /><stop
         style="stop-opacity:1;stop-color:#fdca5a"
         offset="0.245399"
         id="stop4359" /><stop
         style="stop-opacity:1;stop-color:#d08831"
         offset="0.5"
         id="stop4361" /><stop
         style="stop-opacity:1;stop-color:#d08831"
         offset="0.51971472"
         id="stop4363" /><stop
         style="stop-opacity:1;stop-color:#fdca5a"
         offset="0.75"
         id="stop4365" /><stop
         style="stop-opacity:1;stop-color:#d08831"
         offset="1"
         id="stop4367" /></linearGradient></defs><sodipodi:namedview
     pagecolor="#ffffff"
     bordercolor="#666666"
     borderopacity="1"
     objecttolerance="10"
     gridtolerance="10"
     guidetolerance="10"
     inkscape:pageopacity="0"
     inkscape:pageshadow="2"
     inkscape:window-width="1366"
     inkscape:window-height="712"
     id="namedview4157"
     showgrid="false"
     inkscape:zoom="1.5212022"
     inkscape:cx="90.82355"
     inkscape:cy="34.035298"
     inkscape:window-x="0"
     inkscape:window-y="30"
     inkscape:window-maximized="1"
     inkscape:current-layer="g4223"
     fit-margin-top="0"
     fit-margin-left="0"
     fit-margin-right="0"
     fit-margin-bottom="0" /><g
     id="g4163"
     inkscape:groupmode="layer"
     inkscape:label="ZP_logo na beloj pozadini"
     transform="matrix(1.25,0,0,-1.25,-105.25625,247.04875)"><g
       id="g4167"><g
         id="g4169"><g
           id="g4175"><g
             id="g4177"><path
               d="m 340.594,168.801 c -0.002,0.011 -0.004,0.019 -0.004,0.019 l 0,0 0.004,-0.019 z m 0.009,-0.059 0,0.02 -0.009,0.039 c 0.004,-0.017 0.008,-0.04 0.009,-0.059"
               style="fill:url(#linearGradient4179);stroke:none"
               id="path4193"
               inkscape:connector-curvature="0" /></g></g></g></g><g
       id="g4195"><g
         id="g4197"><g
           id="g4203"><g
             id="g4205"><path
               d="m 232.059,179.107 c -0.014,0.001 -0.029,0.003 -0.043,0.003 l 0,0 0.043,-0.003 z m 0.056,-0.007 0.109,-0.005 -0.165,0.012 c 0.02,-0.003 0.039,-0.006 0.056,-0.007"
               style="fill:url(#linearGradient4207);stroke:none"
               id="path4221"
               inkscape:connector-curvature="0" /></g></g></g></g><g
       id="g4223"><g
         id="g4225"
         style="fill:#aba4a1;fill-opacity:0.50694442"><g
           id="g4231"
           style="fill:#aba4a1;fill-opacity:0.50694442"><g
             id="g4233"
             style="fill:#aba4a1;fill-opacity:0.50694442"><path
               d="m 290.602,193.375 c -0.77,-0.586 -1.202,-1.504 -1.202,-2.472 l 0,0 c 0,-0.36 0.065,-0.723 0.182,-1.078 l 0,0 c 0.012,-0.04 0.109,-0.304 0.109,-1.025 l 0,0 c -0.005,0 -0.197,-2.124 -0.197,-2.124 l 0,0 -0.734,-3.642 c 0.006,0.004 -1.145,-4.248 -2.047,-7.578 l 0,0 c -0.365,0.444 -0.738,0.894 -1.09,1.217 l 0,0 c 0.014,-0.008 -0.027,0.014 -0.037,0.022 l 0,0 0.002,0.007 c 0,0 -0.26,0.183 -0.446,0.322 l 0,0 c -0.093,0.072 -0.212,0.167 -0.212,0.167 l 0,0 -0.006,-0.009 c -0.381,0.278 -1.125,0.819 -1.125,0.819 l 0,0 c 0,0 -0.202,-0.018 -0.305,-0.024 l 0,0 c -1.306,0.637 -2.753,1.027 -4.461,1.085 l 0,0 c -0.048,0.002 -0.49,0.002 -0.49,0.002 l 0,0 c -4.48,0.015 -8.765,-2.136 -12.777,-6.182 l 0,0 c -1.927,3.078 -3.596,4.302 -4.25,4.671 l 0,0 c -1.132,0.651 -2.357,0.989 -3.672,1.033 l 0,0 -0.219,0.011 c -1.654,0 -3.26,-0.528 -4.837,-1.304 l 0,0 c -0.745,1.036 -1.44,1.734 -1.952,2.137 l 0,0 -0.228,0.175 -0.516,0.357 -0.059,0.015 c -0.756,0.41 -1.574,0.655 -2.429,0.722 l 0,0 c -0.11,0.006 -0.37,0.028 -0.37,0.028 l 0,0 c -2.75,0.086 -5.855,-1.132 -9.542,-3.725 l 0,0 c -0.005,-0.006 -0.01,-0.012 -0.015,-0.012 l 0,0 c -1.472,1.31 -3.366,2.037 -5.562,2.11 l 0,0 -0.402,0.02 c -1.264,0.004 -2.405,-0.389 -3.46,-0.96 l 0,0 c -1.08,0.557 -2.298,0.919 -3.753,0.96 l 0,0 c -0.008,-0.003 -0.162,0 -0.162,0 l 0,0 c -2.961,0.007 -5.789,-1.087 -8.52,-3.12 l 0,0 c -0.173,0.228 -0.443,0.592 -0.443,0.592 l 0,0 c -0.532,0.698 -1.278,1.162 -2.105,1.32 l 0,0 c -3.146,0.575 -5.269,0.874 -6.502,0.925 l 0,0 0.328,-0.044 -0.604,0.052 c -1.943,0.05 -3.57,-0.394 -4.777,-1.319 l 0,0 c -0.587,-0.462 -1.104,-1.14 -1.611,-1.961 l 0,0 c -1.232,1.731 -2.41,2.62 -2.681,2.81 l 0,0 c -1.257,0.793 -2.581,1.197 -4.072,1.251 l 0,0 c -2.538,0.079 -5.13,-0.882 -8.184,-3.024 l 0,0 c -0.007,-0.003 -0.447,-0.36 -0.944,-0.758 l 0,0 c -1.648,2.105 -4.254,3.229 -7.772,3.329 l 0,0 c -0.035,0 -0.535,0.01 -0.535,0.01 l 0,0 c -3.903,0.003 -7.614,-1.82 -11.104,-5.244 l 0,0 c -0.023,0.044 -0.073,0.128 -0.073,0.128 l 0,0 c 0,0 -0.441,0.578 -0.889,1.163 l 0,0 c 1.029,0.45 2.018,1.067 2.958,1.873 l 0,0 c 2.417,2.024 3.9,4.711 4.389,7.969 l 0,0 c 0.077,0.494 0.114,0.988 0.114,1.486 l 0,0 c 0,0.827 -0.105,1.66 -0.314,2.473 l 0,0 0.062,-0.56 c 0,0 -0.09,0.716 -0.096,0.753 l 0,0 c -0.003,-0.021 -0.044,0.12 -0.079,0.26 l 0,0 c -0.065,0.226 -0.221,0.74 -0.221,0.74 l 0,0 -0.026,-0.032 -0.051,0.097 0.148,-0.322 -1.097,1.993 c -2.068,3.383 -3.903,4.415 -4.608,4.684 l 0,0 c -0.81,0.348 -1.694,0.568 -2.589,0.612 l 0,0 c -0.141,0 -0.284,0.002 -0.284,0.002 l 0,0 c -2.377,0.009 -4.692,-0.909 -6.867,-2.729 l 0,0 c -2.481,-2.046 -3.985,-4.743 -4.479,-8.009 l 0,0 c 0,-0.001 -0.124,-1.668 -0.124,-1.668 l 0,0 0.28,-2.129 -0.002,0.002 c 0,-0.011 0.082,-0.514 0.082,-0.514 l 0,0 c 0.026,-0.061 0.059,-0.154 0.088,-0.241 l 0,0 c 0.007,-0.006 0.968,-1.938 0.968,-1.938 l 0,0 c 0.351,-0.628 0.756,-1.198 1.17,-1.755 l 0,0 c -1.17,-0.423 -2.366,-1.036 -3.607,-1.791 l 0,0 c -1.58,1.682 -3.682,2.654 -6.203,2.727 l 0,0 c -0.046,0 -0.312,0.002 -0.312,0.002 l 0,0 c -1.27,0 -2.411,-0.389 -3.463,-0.953 l 0,0 c -1.082,0.551 -2.301,0.919 -3.747,0.958 l 0,0 c -0.024,0 -0.35,0.012 -0.35,0.012 l 0,0 c -3.05,0 -6.048,-1.314 -8.966,-3.658 l 0,0 c 0.114,0.933 0.212,1.861 0.212,2.726 l 0,0 c 0,2.542 -0.481,4.787 -1.451,6.698 l 0,0 -0.253,0.496 -0.156,0.256 c 0.01,-0.01 -0.246,0.395 -0.246,0.395 l 0,0 c -2.293,3.843 -4.465,5.362 -5.074,5.736 l 0,0 c -2.022,1.344 -4.581,2.094 -7.566,2.179 l 0,0 c -0.063,0 -0.296,0.011 -0.296,0.011 l 0,0 -0.322,0 c -3.422,0.001 -6.646,-1.058 -9.59,-3.153 l 0,0 c -3.417,-2.422 -5.443,-5.604 -6.018,-9.436 l 0,0 c 0,-0.004 -0.104,-1.367 -0.104,-1.367 l 0,0 c 0.007,-1.972 0.662,-4.069 1.955,-6.234 l 0,0 c 0.326,-0.621 1.371,-2.327 2.598,-3.702 l 0,0 c -0.51,-0.053 -0.971,-0.206 -1.519,-0.191 l 0,0 0.19,-0.015 -0.393,0.028 c -0.041,0.003 -0.611,0.024 -0.611,0.024 l 0,0 c -1.433,0.051 -2.725,-0.658 -3.475,-1.935 l 0,0 c -0.461,-0.785 -0.727,-1.825 -0.835,-3.263 l 0,0 -0.135,-2.891 c 0,-1.586 0.13,-3.059 0.376,-4.357 l 0,0 c 0,-0.01 0.254,-1.123 0.254,-1.123 l 0,0 c 0.01,-0.032 0.574,-1.173 0.574,-1.173 l 0,0 1.91,-2.561 c 0.96,-1.276 2.64,-1.734 4.004,-1.089 l 0,0 c 0.635,0.297 1.229,0.464 1.788,0.563 l 0,0 c -0.007,-0.032 -0.012,-0.141 -0.012,-0.141 l 0,0 c -0.336,-2.214 -1.166,-4.073 -2.468,-5.534 l 0,0 c -1.142,-1.276 -2.413,-1.876 -3.982,-1.878 l 0,0 c -0.26,0.009 -0.573,0.096 -0.946,0.307 l 0,0 c -0.022,0.059 -0.061,0.172 -0.061,0.172 l 0,0 c -0.004,0.004 -0.738,1.641 -0.738,1.641 l 0,0 -0.039,0.005 -1.847,2.425 c 0,0 -0.059,-0.044 -0.061,-0.044 l 0,0 c -0.179,0.229 -0.3,0.386 -0.361,0.465 l 0,0 c -0.123,0.086 -1.255,0.871 -1.255,0.871 l 0,0 -1.189,0.248 c -1.224,0.003 -2.709,-0.492 -3.509,-2.85 l 0,0 c -1.17,-3.472 -1.746,-6.493 -1.768,-9.237 l 0,0 c 0,-1.342 0.165,-2.438 0.512,-3.535 l 0,0 0.027,-0.089 0.059,-0.218 0.065,-0.167 c -0.048,0.14 0.281,-0.616 0.281,-0.616 l 0,0 c 0.572,-1.204 1.659,-3.022 3.373,-4.598 l 0,0 c 0.147,-0.133 0.923,-0.827 0.923,-0.827 l 0,0 c 1.775,-1.161 4.203,-1.681 7.704,-1.673 l 0,0 c 4.806,-0.012 9.52,1.76 14.016,5.254 l 0,0 c 2.483,1.941 4.531,4.248 6.119,6.88 l 0,0 c 0.314,-0.376 0.635,-0.771 0.922,-1.038 l 0,0 c 0.005,-0.007 0.392,-0.354 0.392,-0.354 l 0,0 -0.009,0.004 c 0,-0.004 0.275,-0.225 0.275,-0.225 l 0,0 c 0.09,-0.06 0.419,-0.267 0.419,-0.267 l 0,0 0.227,-0.133 c 0,0 0.202,-0.051 0.277,-0.067 l 0,0 c 1.115,-0.609 2.309,-0.956 3.586,-0.953 l 0,0 c 2.47,0.005 4.966,1.059 7.44,3.036 l 0,0 c 0.414,-0.464 0.859,-0.891 1.318,-1.272 l 0,0 c 0.083,-0.065 0.476,-0.362 0.634,-0.484 l 0,0 c 0.035,-0.03 0.499,-0.348 0.499,-0.348 l 0,0 c 0.73,-0.396 1.459,-0.619 2.202,-0.767 l 0,0 c -1.323,-2.036 -2.244,-2.43 -2.58,-2.502 l 0,0 c -1.427,-0.294 -2.409,-1.539 -2.409,-3.011 l 0,0 c 0,-0.08 0.001,-0.163 0.009,-0.244 l 0,0 c 0.327,-4.616 1.458,-7.534 3.456,-9.222 l 0,0 c 1.732,-3.61 4.511,-4.104 5.679,-4.104 l 0,0 c 5.75,0 10.592,5.461 15.245,17.18 l 0,0 c 0.007,0.008 1.467,4.043 2.633,7.262 l 0,0 c 0.538,-0.739 1.195,-1.57 1.905,-2.295 l 0,0 c -0.098,0.109 0.877,-0.824 0.877,-0.824 l 0,0 c 0.012,-0.008 0.294,-0.254 0.294,-0.254 l 0,0 c 0.058,-0.041 0.474,-0.323 0.474,-0.323 l 0,0 c -0.044,0.016 0.648,-0.4 0.648,-0.4 l 0,0 c 1.603,-0.953 3.651,-1.476 5.973,-1.471 l 0,0 c 2.916,-0.005 5.926,0.881 8.929,2.635 l 0,0 c 2.194,1.267 4.02,2.967 5.643,4.871 l 0,0 c 0.102,-0.095 0.291,-0.259 0.291,-0.259 l 0,0 0.075,-0.063 c 0.994,-0.74 2.152,-1.139 3.444,-1.189 l 0,0 c 0.707,-0.028 1.498,0.13 2.306,0.332 l 0,0 c -0.026,-0.299 -0.144,-0.654 -0.144,-0.938 l 0,0 0,-0.088 c 0,-0.98 0.206,-1.92 0.609,-2.768 l 0,0 c 0.07,-0.203 1.325,-2.205 1.394,-2.29 l 0,0 c 2.568,-3.551 6.902,-3.85 8.473,-3.43 l 0,0 c 2.234,0.537 5.01,1.813 6.779,2.84 l 0,0 c 0.818,0.48 1.256,1.326 1.389,2.233 l 0,0 c 0.285,-0.251 0.566,-0.521 0.875,-0.725 l 0,0 c 0,0 -0.037,0.062 -0.039,0.068 l 0,0 c 0.033,-0.019 0.14,-0.082 0.25,-0.146 l 0,0 c 0.08,-0.055 0.092,-0.117 0.179,-0.17 l 0,0 c 0,0 0.028,0.053 0.032,0.058 l 0,0 c 0.199,-0.119 0.316,-0.187 0.404,-0.229 l 0,0 c 1.045,-0.515 2.178,-0.791 3.375,-0.791 l 0,0 c 2.505,-0.005 5.046,1.075 7.554,3.118 l 0,0 c 0.064,-0.082 0.246,-0.317 0.246,-0.317 l 0,0 c 1.768,-1.951 4.191,-2.816 5.723,-2.816 l 0,0 c 0.047,0 0.099,0.015 0.144,0.015 l 0,0 c -0.237,-0.806 -0.527,-1.786 -0.527,-1.786 l 0,0 c 0,0.007 -0.949,-4.129 -0.949,-4.129 l 0,0 -0.172,-2.122 c 0,-0.091 0.293,-2.533 0.293,-2.533 l 0,0 c 0,-0.002 0.867,-2.357 0.867,-2.357 l 0,0 c 0.242,-0.51 0.575,-1.067 1.01,-1.621 l 0,0 c -1.138,-0.437 -2.336,-0.901 -3.592,-1.389 l 0,0 c -1.921,1.033 -3.795,2.086 -5.611,3.11 l 0,0 c -3.471,1.953 -6.749,3.8 -9.912,5.239 l 0,0 c -6.819,3.105 -12.158,4.552 -16.806,4.552 l 0,0 c -3.858,0 -7.175,-1.008 -10.138,-3.085 l 0,0 -0.057,-0.046 c -0.19,-0.197 -0.251,-0.436 -0.165,-0.635 l 0,0 c 0.116,-0.273 0.468,-0.357 0.768,-0.166 l 0,0 c 2.722,1.722 5.288,2.49 8.324,2.49 l 0,0 c 6.413,0 15.262,-3.453 31.444,-12.298 l 0,0 c -6.475,-2.528 -13.45,-5.3 -19.485,-7.705 l 0,0 c -7.65,4.593 -13.294,7.929 -16.238,9.065 l 0,0 c -8.525,3.28 -13.956,4.5 -20.031,4.5 l 0,0 c -0.455,0 -0.912,-0.005 -1.377,-0.019 l 0,0 c -4.967,-0.138 -8.794,-0.972 -12.047,-2.615 l 0,0 c -2.975,-1.51 -6.734,-4.784 -7.538,-9.047 l 0,0 c -0.567,-3.012 0.416,-5.961 2.925,-8.764 l 0,0 c 2.405,-2.691 5.588,-4.757 9.463,-6.148 l 0,0 c 1.4,-6.307 8.3,-12.602 20.704,-12.602 l 0,0 c 0.387,0 0.78,0.004 1.179,0.02 l 0,0 c 11.102,0.349 24.802,6.55 38.052,12.544 l 0,0 c 0.804,0.364 1.607,0.729 2.41,1.09 l 0,0 c 4.857,-2.657 9.212,-4.853 13.318,-6.705 l 0,0 c 7.238,-3.271 13.953,-4.166 18.309,-4.338 l 0,0 c 0.406,-0.017 0.814,-0.025 1.212,-0.025 l 0,0 0.002,0 c 10.932,0 16.367,5.775 16.887,11.268 l 0,0 c 9.091,0.396 15.195,3.644 16.771,8.935 l 0,0 c 1.342,4.514 -1.037,9.723 -6.07,13.27 l 0,0 c -2.164,1.517 -4.621,2.619 -6.955,3.584 l 0,0 c -5.334,2.209 -10.991,3.326 -16.806,3.326 l 0,0 c -3.986,0 -8.204,-0.524 -12.537,-1.559 l 0,0 c -0.063,0.115 -0.125,0.24 -0.169,0.381 l 0,0 c -0.005,0.026 -0.005,0.053 -0.005,0.083 l 0,0 c 0,0.656 0.458,3.026 0.724,4.013 l 0,0 c 0.002,-0.002 0.807,2.748 0.807,2.748 l 0,0 c 0,0 0.219,0.764 0.435,1.516 l 0,0 0.018,0 c 4.996,-0.005 9.629,2.507 13.826,7.281 l 0,0 c 0.256,-0.402 0.488,-0.846 0.791,-1.2 l 0,0 c 0.014,-0.011 0.441,-0.417 0.723,-0.683 l 0,0 c 0.357,-0.674 0.723,-1.33 1.179,-1.859 l 0,0 c 2.158,-2.428 5.109,-3.649 8.796,-3.652 l 0,0 c 2.751,0.003 5.529,0.792 8.257,2.335 l 0,0 c 0,-0.004 0.241,0.15 0.539,0.344 l 0,0 c 0.096,-0.135 0.303,-0.404 0.303,-0.404 l 0,0 c 0.488,-0.672 1.223,-1.145 2.053,-1.312 l 0,0 c 3.115,-0.653 5.311,-0.97 6.706,-0.977 l 0,0 c 2.175,0 3.95,0.707 5.161,2.043 l 0,0 c 0.389,0.441 0.779,1.029 1.18,1.777 l 0,0 c 1.347,-2.412 3.499,-3.83 6.088,-3.83 l 0,0 c 2.771,-0.008 5.733,1.668 8.963,4.901 l 0,0 c 0.589,-0.764 1.273,-1.554 2.113,-2.385 l 0,0 c 0.029,-0.022 1.48,-1.037 1.662,-1.16 l 0,0 c 1.56,-0.91 3.408,-1.387 5.496,-1.391 l 0,0 c 5.15,-0.008 9.951,2.365 14.257,7.051 l 0,0 c 4.372,4.694 7.137,10.711 8.212,17.871 l 0,0 c 0.24,1.556 0.353,2.992 0.353,4.305 l 0,0 c 0,1.349 -0.137,2.559 -0.379,3.633 l 0,0 c -0.051,0.152 -0.599,2.008 -0.599,2.008 l 0,0 c 0,-0.004 0,-0.007 10e-4,-0.009 l 0,0 c -0.011,0.029 -0.15,0.347 -0.15,0.347 l 0,0 c -0.015,0.007 -0.599,1.118 -0.599,1.118 l 0,0 c -1.925,3.491 -4.003,4.952 -4.407,5.208 l 0,0 c -0.012,0.014 -0.244,0.11 -0.482,0.207 l 0,0 c 0.008,-10e-4 0.047,-0.014 0.047,-0.014 l 0,0 c -1.496,0.9 -3.195,1.397 -5.045,1.454 l 0,0 -0.432,0.014 c -4.746,0.011 -9.234,-2.111 -13.365,-6.143 l 0,0 c -0.078,0.202 -0.164,0.395 -0.164,0.395 l 0,0 c -0.004,0.006 -0.365,0.659 -0.365,0.659 l 0,0 c -1.724,2.803 -3.149,4.28 -4.59,4.79 l 0,0 c -0.024,0.014 -0.053,0.034 -0.08,0.043 l 0,0 c 0,0 -0.043,0.011 -0.053,0.017 l 0,0 c -0.043,0.021 -0.086,0.039 -0.086,0.039 l 0,0 -0.072,0.018 c -0.043,0.014 -0.096,0.034 -0.096,0.034 l 0,0 c 0,0 0.055,-0.023 0.078,-0.031 l 0,0 c -0.177,0.033 -2.201,0.443 -2.201,0.443 l 0,0 c -0.052,0 -0.203,0 -0.203,0 l 0,0 c -0.502,0 -1.008,-0.191 -1.51,-0.288 l 0,0 c 0.741,2.606 1.213,4.351 1.395,5.171 l 0,0 c 0.002,0.022 0.336,1.888 0.336,1.888 l 0,0 c 0,0 0.027,0.194 0.043,0.378 l 0,0 c 0.216,0.502 0.414,1.127 0.414,1.97 l 0,0 c 0,0.932 -0.239,2.067 -0.93,3.374 l 0,0 c 0.008,-0.036 -0.49,0.852 -0.52,0.903 l 0,0 c -1.414,2.432 -2.833,3.932 -4.234,4.49 l 0,0 c -0.605,0.281 -1.358,0.465 -2.156,0.493 l 0,0 -0.217,0.003 c -2.836,-0.003 -6.033,-1.397 -9.771,-4.264 m -89.458,-19.487 c -0.008,0.014 -0.038,0.068 -0.038,0.068 l 0,0 0.074,-0.125 c -0.011,0.018 -0.023,0.035 -0.036,0.057 m -36.117,-0.325 c -0.013,0.017 -0.015,0.042 -0.024,0.061 l 0,0 0.097,-0.187 c 0,0 -0.05,0.082 -0.073,0.126 m 151.038,-2.748 c -0.002,0.03 -10e-4,0.061 -0.002,0.092 l 0,0 c 0.003,-0.065 0.012,-0.128 0.012,-0.128 l 0,0 -0.01,0.036 z m -11.303,-11.971 c 0.265,-0.222 0.533,-0.524 0.804,-0.689 l 0,0 c -0.052,-0.082 -0.265,-0.361 -0.265,-0.361 l 0,0 c 0,-0.002 -0.121,-0.142 -0.287,-0.327 l 0,0 c -0.092,0.447 -0.178,0.905 -0.252,1.377 m -28.731,-1.874 c 0.078,-0.061 0.121,-0.134 0.198,-0.19 l 0,0 c 0.324,-0.277 0.679,-0.499 1.056,-0.652 l 0,0 c -0.857,-1.036 -1.642,-1.898 -2.348,-2.574 l 0,0 c 0.289,1.085 0.68,2.24 1.094,3.416 m 2.971,-1.121 0.131,0 -0.354,-0.01 c 0,0 0.114,0.007 0.223,0.01 m -71.361,-18.545 c -0.006,0.015 -0.041,0.074 -0.057,0.102 l 0,0 c 0.026,-0.028 0.057,-0.052 0.085,-0.073 l 0,0 c -0.004,-0.003 -0.024,-0.03 -0.028,-0.03 l 0,0 c 0,0 0,0 0,0.001 m 34.758,-16.451 c 0.29,0.284 0.541,0.554 0.759,0.806 l 0,0 c 7.799,2.412 14.053,3.562 19.221,3.562 l 0,0 c 5.812,0 10.507,-1.357 15.699,-4.531 l 0,0 c 4.397,-2.685 6.795,-7.306 5.836,-11.236 l 0,0 c -0.68,-2.787 -3.632,-7.566 -15.746,-8.512 l 0,0 c -0.184,4.731 -3.836,9.077 -9.855,11.682 l 0,0 c -2.961,1.284 -6.147,1.905 -9.738,1.905 l 0,0 c -3.725,0 -7.864,-0.684 -12.654,-2.093 l 0,0 c -1.405,0.815 -2.747,1.604 -4.007,2.346 l 0,0 c -1.06,0.621 -2.07,1.217 -3.008,1.762 l 0,0 c 0.946,0.383 1.664,0.672 2.272,0.906 l 0,0 c 0.37,0.143 0.736,0.284 1.099,0.422 l 0,0 c 0.104,-0.023 0.201,-0.045 0.307,-0.065 l 0,0 c 0.556,-0.07 1.094,-0.102 1.612,-0.102 l 0,0 c 3.7,0 6.454,1.654 8.203,3.148 m -89.478,-18.752 c -5.601,2.283 -8.652,6.23 -8.164,10.552 l 0,0 c 0.574,5.092 5.802,9.186 13.318,10.422 l 0,0 c 1.945,0.322 3.788,0.477 5.63,0.477 l 0,0 c 6.283,0 11.352,-1.834 17.227,-3.961 l 0,0 0.998,-0.362 c 5.032,-1.81 10.483,-4.726 17.064,-8.536 l 0,0 -3.282,-1.307 c -5.791,-2.313 -10.367,-4.141 -11.712,-4.631 l 0,0 c -5.05,-1.842 -10.025,-3.133 -15.659,-4.065 l 0,0 c -3.839,-0.638 -7.758,-0.576 -11.319,0.177 l 0,0 c -0.183,4.165 2.056,7.865 6.184,10.179 l 0,0 c 2.483,1.395 5.566,2.164 8.676,2.164 l 0,0 c 3.378,0 6.144,-0.998 6.293,-2.271 l 0,0 c 0.041,-0.354 -0.261,-0.711 -0.578,-1.092 l 0,0 c -0.503,-0.596 -1.263,-1.504 -0.21,-2.598 l 0,0 c 0.412,-0.428 0.953,-0.662 1.528,-0.662 l 0,0 c 0.744,0 1.443,0.399 1.828,1.037 l 0,0 c 0.55,0.916 0.651,1.936 0.292,2.944 l 0,0 c -0.556,1.549 -2.03,2.681 -3.245,3.115 l 0,0 c -1.365,0.488 -3.195,0.757 -5.151,0.757 l 0,0 c -4.352,0 -10.207,-1.357 -13.594,-5.167 l 0,0 c -2.113,-2.377 -3.239,-5.176 -3.275,-8.119 l 0,0 c -0.993,0.261 -1.95,0.579 -2.849,0.947 m 54.317,5.544 c 5.894,2.305 11.391,4.61 15.848,6.477 l 0,0 c 1.298,0.543 2.515,1.053 3.638,1.517 l 0,0 c 2.636,-1.459 4.881,-2.702 7.039,-3.878 l 0,0 c -6.428,-2.088 -13.233,-5.115 -19.835,-8.055 l 0,0 c -2.367,1.371 -4.675,2.738 -6.69,3.939 m 35.123,1.194 c 4.217,1.152 7.84,1.711 11.055,1.711 l 0,0 c 1.549,0 3.017,-0.133 4.373,-0.401 l 0,0 c 6.307,-1.232 9.146,-5.493 9.225,-9.29 l 0,0 c -0.028,-0.002 -0.055,-0.002 -0.084,-0.007 l 0,0 c -0.309,-0.015 -0.634,-0.023 -0.957,-0.023 l 0,0 c -5.852,0 -13.374,2.547 -23.612,8.01 m -9.984,-14.801 c -3.404,1.461 -7.436,3.491 -12.318,6.186 l 0,0 c 6.398,2.873 13.675,6.034 20.269,8.035 l 0,0 c 10.018,-5.187 18.285,-8.635 26.015,-8.635 l 0,0 0.212,0 c 0.132,0 0.262,0.004 0.39,0.011 l 0,0 c -0.494,-3.763 -3.697,-8.11 -11.34,-9.486 l 0,0 c -1.333,-0.24 -2.802,-0.363 -4.369,-0.363 l 0,0 c -5.631,0 -12.683,1.592 -18.859,4.252 m -60.997,2.868 c 8.38,1.15 19.512,4.431 34.029,10.027 l 0,0 c 2.066,-1.217 4.428,-2.606 6.826,-3.985 l 0,0 c -9.274,-4.134 -19.725,-8.746 -30.483,-11.58 l 0,0 c -3.857,-1.012 -7.002,-1.484 -9.894,-1.484 l 0,0 c -3.74,0 -6.961,0.803 -9.856,2.451 l 0,0 c -2.054,1.174 -3.649,3.196 -4.449,5.606 l 0,0 c 2.953,-0.879 6.199,-1.332 9.408,-1.332 l 0,0 c 1.492,0 2.976,0.098 4.419,0.297"
               style="fill:#aba4a1;fill-opacity:0.50694442;stroke:none"
               id="path4249"
               inkscape:connector-curvature="0" /></g></g></g></g><g
       id="g4251"><g
         id="g4253"
         clip-path="url(#clipPath4255)"><g
           id="g4259"
           transform="translate(313.5039,138.8623)"><path
             d="M 0,0 C -0.021,0.006 -0.035,0.029 -0.053,0.039 -0.078,0.053 -0.1,0.053 -0.129,0.064 -0.088,0.045 -0.043,0.023 0,0"
             style="fill:#0c0702;fill-opacity:1;fill-rule:nonzero;stroke:none"
             id="path4261"
             inkscape:connector-curvature="0" /></g><g
           id="g4263"
           transform="translate(153.7397,180.9512)"><path
             d="M 0,0 C -0.017,0.02 -0.027,0.041 -0.041,0.056 -0.052,0.079 -0.063,0.091 -0.073,0.115 -0.052,0.075 -0.027,0.033 0,0"
             style="fill:#0c0702;fill-opacity:1;fill-rule:nonzero;stroke:none"
             id="path4265"
             inkscape:connector-curvature="0" /></g><g
           id="g4267"
           transform="translate(264.9004,170.4141)"><path
             d="M 0,0 C 0.01,-0.028 0.01,-0.062 0.02,-0.085 0.023,-0.107 0.039,-0.131 0.047,-0.152 0.037,-0.101 0.02,-0.051 0,0"
             style="fill:#0c0702;fill-opacity:1;fill-rule:nonzero;stroke:none"
             id="path4269"
             inkscape:connector-curvature="0" /></g><g
           id="g4271"
           transform="translate(183.1392,145.167)"><path
             d="m 0,0 0,0.006 -0.002,0 C 0,0.006 0,0 0,0"
             style="fill:#0c0702;fill-opacity:1;fill-rule:nonzero;stroke:none"
             id="path4273"
             inkscape:connector-curvature="0" /></g><g
           id="g4275"
           transform="translate(209.27,138.4482)"><path
             d="M 0,0 C -0.021,0.006 -0.047,0.031 -0.066,0.037 -0.107,0.061 -0.16,0.066 -0.207,0.09 -0.133,0.049 -0.08,0.025 0,0"
             style="fill:#0c0702;fill-opacity:1;fill-rule:nonzero;stroke:none"
             id="path4277"
             inkscape:connector-curvature="0" /></g><g
           id="g4279"
           transform="translate(222.5215,138.6611)"><path
             d="M 0,0 C -0.01,0.004 -0.051,0.037 -0.068,0.053 -0.092,0.059 -0.105,0.064 -0.127,0.074 -0.078,0.043 -0.045,0.02 0,0"
             style="fill:#0c0702;fill-opacity:1;fill-rule:nonzero;stroke:none"
             id="path4281"
             inkscape:connector-curvature="0" /></g><g
           id="g4283"
           transform="translate(279.0547,157.8262)"><path
             d="m 0,0 c -0.035,-0.008 -0.053,-0.008 -0.084,-0.012 -0.033,0 -0.061,-0.011 -0.096,-0.011 C -0.117,-0.025 -0.064,-0.012 0,0"
             style="fill:#0c0702;fill-opacity:1;fill-rule:nonzero;stroke:none"
             id="path4285"
             inkscape:connector-curvature="0" /></g><g
           id="g4287"
           transform="translate(306.8555,156.4736)"
           style="fill:#aba4a1;fill-opacity:0.50694442"><path
             d="m 0,0 c -1.412,-1.738 -2.244,-2.624 -2.75,-3.105 -0.613,1.8 -1.1,3.897 -1.445,6.293 -0.078,0.546 0.119,1.122 0.609,1.767 0.322,0.407 0.59,0.508 0.818,0.529 0.143,-0.102 0.422,-0.334 0.916,-0.889 1.053,-1.192 2.053,-1.778 3.041,-1.779 0.379,0 0.748,0.088 1.112,0.235 C 1.662,2.131 0.934,1.146 0,0 m -26.988,-0.42 c -1.606,-2.074 -3.03,-3.642 -4.225,-4.667 -1.281,-1.112 -2.475,-1.817 -3.584,-2.112 0.027,0.335 0.057,0.676 0.111,1.06 0.442,2.949 1.446,6.369 2.979,10.165 0.045,0.11 0.08,0.195 0.123,0.294 0.397,-0.721 1.156,-1.903 2.07,-2.532 0.268,-0.25 0.598,-0.418 0.981,-0.463 0.162,-0.029 0.402,-0.016 0.629,0.04 -0.1,-0.028 -0.205,-0.038 -0.305,-0.04 0.025,-0.007 0.158,-0.004 0.324,0.015 1.031,0.075 2.031,0.325 2.992,0.723 -0.461,-0.452 -1.093,-1.198 -2.095,-2.483 m -42.764,8.576 c -0.025,-0.085 -0.172,-0.517 -0.371,-1.108 l -0.668,-1.972 c -0.006,-0.005 -0.01,-0.015 -0.018,-0.017 l -0.113,-0.104 c -0.092,-0.08 -0.156,-0.177 -0.223,-0.287 -0.371,-0.62 -0.732,-1.204 -1.099,-1.792 0.32,0.9 0.64,1.825 0.974,2.7 1.012,2.699 1.768,4.514 2.35,5.753 -0.23,-1.076 -0.5,-2.146 -0.832,-3.173 m -53.757,-19.635 c 0.018,-0.009 0.031,-0.027 0.052,-0.044 0.028,-0.018 0.053,-0.055 0.081,-0.069 -0.053,0.031 -0.086,0.078 -0.133,0.113 m -9.762,6.238 c -1.461,-1.177 -2.736,-1.84 -3.817,-2.042 0.024,0.35 0.055,0.715 0.113,1.115 0.07,0.464 0.212,0.954 0.335,1.436 1.763,0.003 3.499,0.392 5.202,1.15 -0.596,-0.595 -1.21,-1.162 -1.833,-1.659 m -25.155,13.156 c -0.003,0 -0.644,-2.033 -0.794,-2.506 -0.206,-0.209 -0.366,-0.433 -0.488,-0.632 -0.366,-0.63 -0.739,-1.217 -1.105,-1.807 0.325,0.906 0.644,1.826 0.972,2.705 1.02,2.716 1.775,4.509 2.348,5.737 -0.232,-1.044 -0.524,-2.18 -0.933,-3.497 m -16.612,-21.476 c 0.012,0 0.018,0.01 0.034,0.014 l 0,-0.004 c -0.016,-0.004 -0.022,-0.01 -0.034,-0.01 m -0.429,-0.162 c -0.178,-0.009 -0.36,0.022 -0.532,0.088 -0.005,0 -0.005,0.008 -0.005,0.012 0.194,-0.092 0.404,-0.123 0.61,-0.1 l -0.073,0 z m -43.995,-5.55 c 0.036,0.003 0.07,0 0.102,0.009 0,-0.006 0,-0.006 0.005,-0.009 -0.035,-0.008 -0.071,0.003 -0.107,0 m -0.555,-0.368 c 0.004,0.01 0.004,0.01 0.004,0.014 0.053,0.057 0.123,0.074 0.18,0.113 -0.061,-0.045 -0.132,-0.066 -0.184,-0.127 m 30.686,53.419 c 0.058,0.029 0.12,0.019 0.178,0.041 -0.061,-0.024 -0.129,-0.016 -0.185,-0.051 0.004,0.005 0.004,0.007 0.007,0.01 m 35.54,-6.599 c 0.017,0.032 0.022,0.077 0.044,0.108 0.019,0.018 0.04,0.032 0.057,0.054 -0.035,-0.051 -0.067,-0.106 -0.101,-0.162 m 10.399,11.095 c 0.032,0.021 0.083,0.015 0.12,0.031 -0.043,-0.02 -0.1,-0.026 -0.143,-0.054 0.01,0.006 0.01,0.018 0.023,0.023 m -73.353,-46.079 c -0.301,0.115 -0.672,0.115 -0.568,0.115 -1.148,0 -1.577,-1.258 -1.718,-1.677 -1.099,-3.274 -1.643,-6.102 -1.665,-8.649 -0.006,-1.103 0.13,-2.009 0.415,-2.9 0.014,-0.039 -0.005,-0.078 0.014,-0.125 0,0 0.029,-0.066 0.073,-0.18 0.053,-0.152 0.139,-0.324 0.215,-0.465 0.439,-0.925 1.372,-2.603 2.933,-4.013 0.167,-0.182 0.377,-0.405 0.662,-0.606 1.338,-0.879 3.455,-1.293 6.504,-1.287 4.396,-0.006 8.74,1.641 12.91,4.891 3.116,2.43 5.459,5.443 7.036,8.949 0.031,-0.039 0.061,-0.096 0.093,-0.143 0.957,-1.478 1.8,-2.562 2.473,-3.201 0.03,-0.033 0.147,-0.142 0.178,-0.172 -0.051,0.043 0.007,-0.005 0.007,-0.005 0.068,-0.065 0.154,-0.137 0.253,-0.211 0.052,-0.036 0.106,-0.069 0.163,-0.098 0.048,-0.029 0.111,-0.043 0.167,-0.053 0.84,-0.543 1.813,-0.857 2.94,-0.853 2.529,0 5.146,1.316 7.806,3.9 0.526,-0.832 1.293,-1.836 2.344,-2.683 0.154,-0.145 0.37,-0.286 0.546,-0.411 0.061,-0.041 0.151,-0.111 0.271,-0.185 0.009,-0.002 0.031,0.004 0.036,-0.008 0.759,-0.414 1.609,-0.627 2.529,-0.629 0.73,0.002 1.46,0.145 2.202,0.367 -0.619,-1.283 -1.202,-2.377 -1.741,-3.236 -1.251,-1.951 -2.517,-3.078 -3.747,-3.332 -0.623,-0.127 -1.054,-0.713 -1.003,-1.365 0.298,-4.285 1.294,-6.936 3.013,-8.092 1.082,-2.645 2.755,-3.244 4.002,-3.246 4.853,0 9.298,5.263 13.593,16.084 0.847,2.154 2.199,5.883 4.027,11.117 0.086,-0.25 0.584,-1.523 0.829,-1.941 0.336,-0.592 1.552,-2.454 2.834,-3.756 0.212,-0.242 0.488,-0.489 0.724,-0.686 0.014,-0.015 0.049,-0.041 0.081,-0.072 0.036,-0.027 0.132,-0.119 0.165,-0.141 0.085,-0.07 0.152,-0.109 0.194,-0.131 -0.062,0.034 -0.062,0.043 -0.118,0.088 0.091,-0.078 0.173,-0.134 0.236,-0.179 0.157,-0.11 0.317,-0.2 0.449,-0.268 1.368,-0.811 3.08,-1.236 5.035,-1.242 2.588,-0.002 5.281,0.801 8.007,2.394 2.675,1.549 4.903,3.616 6.625,6.137 0.317,-0.418 0.649,-0.85 0.966,-1.25 0.002,-0.004 0.007,-0.004 0.013,-0.012 -0.006,0.008 -0.006,0.008 -0.011,0.018 -0.006,0.01 -0.02,0.01 -0.027,0.023 0.007,-0.013 0.02,-0.013 0.027,-0.021 -0.091,0.125 -0.162,0.256 -0.205,0.406 0.043,-0.154 0.127,-0.295 0.222,-0.424 0.076,-0.091 0.166,-0.172 0.258,-0.242 -0.026,0.027 -0.053,0.047 -0.078,0.07 -0.014,0.014 -0.03,0.03 -0.045,0.045 -0.045,0.036 -0.096,0.075 -0.13,0.121 0,-0.005 0.003,-0.007 0.003,-0.017 0.025,-0.014 0.046,-0.035 0.063,-0.053 -0.015,0.018 -0.038,0.027 -0.058,0.047 0,-0.002 0.004,-0.008 0.007,-0.008 l 0,-0.006 c 0.013,-0.006 0.014,-0.015 0.024,-0.017 0.217,-0.274 0.453,-0.426 0.59,-0.502 -0.042,0.021 -0.076,0.045 -0.11,0.07 0.639,-0.482 1.411,-0.748 2.309,-0.783 1.398,-0.057 3.09,0.506 5.081,1.625 -0.012,-0.035 -0.02,-0.072 -0.03,-0.107 l -0.398,-1.493 c -0.299,-1.086 -0.446,-2.006 -0.44,-2.826 0,-0.715 0.146,-1.357 0.407,-1.906 0.005,-0.025 0.002,-0.045 0.014,-0.061 0.083,-0.177 0.227,-0.312 0.381,-0.433 -0.125,0.105 -0.251,0.193 -0.334,0.34 0.024,-0.039 0.059,-0.104 0.102,-0.18 0.176,-0.324 0.955,-1.516 0.96,-1.527 2.484,-3.42 6.671,-2.729 6.415,-2.627 1.916,0.435 4.526,1.593 6.271,2.615 0.541,0.314 0.777,0.996 0.551,1.599 -0.168,0.448 -0.293,1.374 0.07,3.282 0.049,0.244 0.156,0.541 0.221,0.804 0.433,-0.796 1.867,-3.228 3.474,-4.289 0.024,-0.015 0.116,-0.07 0.139,-0.082 -0.004,-0.004 0.068,-0.047 0.139,-0.088 -0.063,0.032 -0.12,0.079 -0.186,0.129 0.109,-0.095 0.274,-0.172 0.414,-0.224 0.76,-0.379 1.611,-0.592 2.557,-0.592 2.57,-0.006 5.234,1.344 7.923,4.006 0.381,-0.553 0.93,-1.309 1.498,-1.985 1.213,-1.343 3.059,-2.041 4.104,-2.041 1.049,-0.004 2.115,0.237 3.189,0.707 -0.57,-1.863 -1.088,-3.595 -1.515,-5.123 -0.436,-1.474 -0.731,-2.763 -0.905,-3.902 -0.097,-0.654 -0.14,-1.279 -0.148,-1.875 0,0 0.021,-1.088 0.24,-2.025 0.244,-1.012 0.691,-1.883 0.691,-1.883 0.868,-1.834 2.649,-3.436 5.932,-4.037 3.58,-0.448 6.41,1.054 8.291,2.66 1.406,1.375 1.559,2.228 1.559,2.228 -0.278,0.094 -1.606,0.95 -2.119,2.539 -0.327,1.024 0.589,4.838 0.687,5.211 0.006,0.014 0.01,0.024 0.01,0.024 0.439,1.508 1.213,4.148 1.617,5.539 l 0.205,-0.008 1.147,0 c 4.779,-0.002 9.281,2.561 13.359,7.607 0.357,0.456 0.687,0.936 1.029,1.42 0.365,-1.429 0.953,-2.683 1.83,-3.687 0.219,-0.252 0.471,-0.467 0.717,-0.676 0.318,-0.687 0.709,-1.322 1.188,-1.877 1.707,-1.924 4.121,-2.89 7.191,-2.892 2.428,0.002 4.902,0.713 7.361,2.095 0.67,0.373 1.334,0.801 1.965,1.264 l 1.471,-1.963 c 0.182,-0.25 0.455,-0.424 0.748,-0.48 2.965,-0.618 5.088,-0.926 6.326,-0.93 1.658,0 2.942,0.494 3.822,1.467 0.616,0.689 1.266,1.926 2.051,3.902 0.004,0.006 0.055,0.15 0.123,0.344 0.449,-0.944 1.039,-1.649 1.717,-2.174 0.035,-0.078 0.059,-0.154 0.103,-0.234 1.19,-2.735 3.167,-3.321 4.604,-3.321 2.707,-0.006 5.775,1.991 9.332,6.071 0.373,-0.823 1.225,-2.19 3.229,-4.18 0.351,-0.346 0.722,-0.592 1.119,-0.783 1.24,-0.746 2.771,-1.135 4.556,-1.145 4.616,-0.002 8.979,2.178 12.936,6.488 4.131,4.443 6.748,10.142 7.773,16.937 0.442,2.943 0.436,5.428 -0.007,7.287 -0.075,0.499 -0.227,1.01 -0.458,1.51 -0.005,0.015 -0.015,0.025 -0.027,0.037 -0.004,0.014 0,0.036 -0.012,0.058 0.034,-0.07 0.028,-0.058 0.028,-0.058 -0.016,0.044 -0.074,0.181 -0.096,0.227 -0.027,0.048 -0.041,0.083 -0.059,0.109 -0.117,0.258 -0.273,0.556 -0.459,0.87 -1.751,3.162 -3.513,4.365 -3.71,4.491 -0.127,0.075 -0.256,0.121 -0.383,0.156 -1.131,0.684 -2.457,1.103 -4.049,1.159 -0.123,0 -0.234,0.007 -0.356,0.004 C 17.699,20.568 13.34,18.42 9.316,14.168 8.564,13.386 7.871,12.56 7.219,11.702 c 0.15,1.04 0.16,1.929 0.049,2.722 C 7.258,14.709 7.209,15.008 7.115,15.33 7.104,15.371 7.08,15.408 7.061,15.449 6.98,15.694 6.91,15.879 6.828,16.039 6.74,16.205 6.672,16.356 6.57,16.506 5.129,18.844 3.971,20.11 3.07,20.406 3.105,20.391 3.143,20.4 3.174,20.381 3.105,20.415 3.018,20.432 2.945,20.459 2.918,20.47 2.891,20.493 2.865,20.499 2.857,20.5 2.852,20.498 2.846,20.498 c -0.5,0.189 -1.032,0.319 -1.61,0.33 -0.023,-0.002 -0.175,0.003 -0.175,0.003 -1.573,0.002 -3.18,-0.656 -4.801,-1.926 l 0.136,0.463 c 1.391,4.742 2.227,7.73 2.467,8.87 0.141,0.677 0.242,1.262 0.325,1.783 0.027,0.195 0.044,0.363 0.054,0.521 0.414,0.746 0.709,2.041 -0.301,3.934 -0.033,0.06 -0.07,0.137 -0.103,0.187 0.043,-0.065 0.064,-0.109 0.094,-0.187 -0.118,0.292 -0.266,0.525 -0.391,0.711 -1.582,2.768 -2.74,3.521 -3.285,3.712 -0.346,0.171 -0.861,0.286 -1.418,0.307 -0.018,0 -0.133,10e-4 -0.15,10e-4 -2.417,-10e-4 -5.249,-1.272 -8.676,-3.901 -0.446,-0.338 -0.623,-0.935 -0.438,-1.471 0.141,-0.404 0.209,-0.972 0.209,-1.682 -0.002,-0.686 -0.07,-1.498 -0.209,-2.41 -0.166,-1.084 -0.422,-2.359 -0.771,-3.798 -0.949,-3.843 -2.01,-7.711 -3.119,-11.565 -0.145,0.338 -0.299,0.677 -0.5,0.972 0.048,-0.07 0.07,-0.111 0.109,-0.199 -0.033,0.072 -0.074,0.141 -0.109,0.213 -0.977,1.542 -1.877,2.702 -2.68,3.461 0.109,-0.103 0.209,-0.236 0.279,-0.378 -0.113,0.238 -0.328,0.452 -0.56,0.587 0.097,-0.054 0.168,-0.108 0.24,-0.181 -0.465,0.442 -0.789,0.614 -0.899,0.67 -0.058,0.03 -0.132,0.03 -0.193,0.048 -1.096,0.633 -2.418,0.999 -4.09,1.054 -0.025,0.002 -0.418,0.002 -0.418,0.002 -4.381,0.015 -8.633,-2.252 -12.631,-6.746 -0.32,-0.353 -0.611,-0.738 -0.916,-1.113 -0.086,0.363 -0.138,0.76 -0.252,1.085 -0.105,0.401 -0.263,0.795 -0.494,1.202 -1.863,3.15 -3.412,4.148 -3.744,4.332 0,0.007 -0.002,0.007 -0.004,0.007 0,0.006 -0.006,0.006 -0.013,0.006 -0.012,0.008 -0.041,0.026 -0.049,0.027 0.004,-10e-4 0.004,-0.002 0.01,-0.009 -0.774,0.448 -1.674,0.705 -2.68,0.743 l -0.149,0 c -1.941,0.001 -3.81,-0.655 -5.601,-1.903 -0.977,1.788 -1.891,2.73 -2.483,3.203 -0.007,0.002 -0.023,0.012 -0.035,0.022 -0.021,0.018 -0.08,0.066 -0.097,0.084 -0.176,0.12 -0.284,0.191 -0.305,0.209 -0.024,0.007 -0.037,0.01 -0.057,0.02 -0.484,0.263 -1.019,0.429 -1.593,0.474 -0.071,0.002 -0.102,0.009 -0.131,0.01 -0.051,0.005 -0.119,0.009 -0.19,0.013 -2.295,0.072 -5.041,-1.045 -8.396,-3.403 -0.465,-0.323 -0.666,-0.92 -0.492,-1.468 0.072,-0.225 0.105,-0.547 0.134,-0.894 -0.386,0.512 -0.799,1.07 -1.064,1.434 -1.225,1.738 -3.026,2.658 -5.344,2.714 -0.058,0.009 -0.166,0.009 -0.264,0.009 -1.349,0.007 -2.519,-0.427 -3.49,-1.218 -0.894,0.751 -2.137,1.175 -3.765,1.217 -0.164,0.001 -0.215,0.008 -0.262,0.014 -2.959,0 -5.901,-1.335 -8.799,-3.948 l -1.712,2.28 c -0.188,0.251 -0.467,0.424 -0.774,0.484 -2.988,0.541 -5.08,0.843 -6.219,0.89 -0.021,0.004 -0.119,0.005 -0.175,0.004 -1.602,0.044 -2.817,-0.273 -3.698,-0.953 -0.736,-0.583 -1.421,-1.64 -2.147,-3.324 -0.215,-0.5 -0.4,-0.92 -0.611,-1.395 -0.069,0.349 -0.185,0.71 -0.366,1.094 -0.05,0.106 -0.08,0.17 -0.107,0.212 -0.022,0.037 -0.037,0.063 -0.054,0.091 -0.052,0.131 -0.117,0.255 -0.204,0.389 -1.334,2.546 -2.907,3.674 -3.081,3.793 -0.027,0.014 -0.056,0.01 -0.088,0.027 -0.775,0.51 -1.74,0.813 -2.871,0.852 -2.097,0.068 -4.391,-0.82 -7.076,-2.703 -0.784,-0.56 -1.58,-1.215 -2.373,-1.907 l -1.127,1.514 c -0.006,0.002 -0.006,0.009 -0.01,0.017 -0.145,0.196 -0.2,0.231 -0.062,0.054 -1.221,1.619 -3.316,2.488 -6.237,2.569 -0.03,0 -0.253,0.004 -0.253,0.004 l -0.244,0.005 c -4.226,0.002 -8.283,-2.412 -12.073,-7.117 -0.04,1.081 -0.256,2 -0.695,2.724 0.124,-0.204 0.19,-0.442 0.19,-0.686 0,0.288 -0.095,0.591 -0.265,0.826 l -1.819,2.378 c 0.042,-0.062 0.085,-0.12 0.117,-0.192 -0.185,0.356 -0.424,0.672 -0.731,0.976 -0.102,0.106 -0.251,0.165 -0.39,0.232 0.02,0.004 0.035,0.004 0.056,0.005 0.069,-0.052 0.151,-0.071 0.215,-0.129 -0.064,0.058 -0.136,0.092 -0.212,0.129 1.73,0.169 3.414,0.911 4.998,2.269 2.101,1.755 3.381,4.082 3.806,6.887 0.167,1.138 0.093,2.191 -0.16,3.172 0,0.096 -0.034,0.19 -0.056,0.285 -0.011,0.036 -0.005,0.078 -0.017,0.111 0,-0.01 -0.002,-0.012 0,-0.019 -0.024,0.071 -0.02,0.15 -0.055,0.221 -0.062,0.127 -0.073,0.146 -0.079,0.154 -0.178,0.501 -0.439,0.963 -0.749,1.368 -0.028,0.038 -0.056,0.087 -0.083,0.118 0.032,-0.04 0.055,-0.075 0.083,-0.113 -0.014,0.016 -0.02,0.033 -0.028,0.049 0.014,-0.021 0.03,-0.044 0.045,-0.074 -1.895,3.223 -3.411,3.917 -3.697,4.028 -0.025,0.007 -0.053,0 -0.079,0.01 -0.568,0.261 -1.192,0.431 -1.876,0.466 l -0.179,0 c -1.955,0.006 -3.88,-0.779 -5.732,-2.325 -2.14,-1.763 -3.443,-4.089 -3.864,-6.904 -0.07,-0.477 -0.106,-0.946 -0.106,-1.401 -0.01,-0.58 0.099,-1.127 0.222,-1.665 0,-0.006 -0.003,-0.014 -0.003,-0.022 0,-0.03 0.022,-0.059 0.025,-0.093 0.016,-0.087 0.007,-0.194 0.031,-0.287 -0.01,0.041 0,0.089 -0.001,0.132 0.006,-0.056 0.014,-0.103 0.028,-0.157 -0.002,0.014 -0.017,0.019 -0.022,0.031 0.008,-0.022 0.022,-0.051 0.032,-0.074 0.007,-0.033 0.02,-0.062 0.034,-0.089 0.163,-0.5 0.394,-0.972 0.715,-1.439 0.793,-1.389 1.671,-2.523 2.604,-3.355 0.165,-0.168 0.414,-0.338 0.658,-0.505 -2.04,-0.202 -4.259,-1.056 -6.688,-2.624 -0.361,-0.237 -0.533,-0.647 -0.543,-1.075 l -0.816,1.09 c -0.008,0.003 -0.016,0.01 -0.026,0.019 -1.229,1.722 -3.013,2.633 -5.312,2.7 l -0.269,0 c -1.339,0.006 -2.515,-0.425 -3.482,-1.212 -0.9,0.742 -2.137,1.168 -3.77,1.22 l -0.166,0.002 -0.129,0.003 c -4.189,0.003 -8.353,-2.66 -12.42,-7.913 -2.594,-3.353 -4.549,-7.031 -5.863,-10.949 -0.149,0.227 -0.259,0.5 -0.427,0.722 -0.292,0.357 -0.619,0.674 -0.951,0.978 -0.299,0.595 -0.606,1.12 -0.959,1.567 -0.003,0.009 -0.013,0.016 -0.016,0.017 5.364,2.797 8.572,7.351 9.509,13.572 0.544,3.608 0.216,6.628 -0.969,8.972 -0.076,0.161 -0.132,0.273 -0.206,0.402 -0.042,0.074 -0.08,0.133 -0.111,0.191 -0.024,0.032 -0.041,0.06 -0.051,0.079 -0.055,0.104 -0.111,0.183 -0.168,0.258 -2.195,3.685 -4.157,4.93 -4.374,5.063 -0.012,0.007 -0.029,0 -0.032,0.012 -1.716,1.148 -3.904,1.787 -6.519,1.863 -0.032,-0.004 -0.283,0.004 -0.283,0.004 l -0.275,0 c -3.03,0.004 -5.907,-0.942 -8.542,-2.821 -3.02,-2.146 -4.803,-4.927 -5.304,-8.262 -0.056,-0.346 -0.085,-0.71 -0.085,-1.081 0.005,-1.605 0.565,-3.343 1.655,-5.17 0.017,-0.038 0.012,-0.079 0.032,-0.12 0.053,-0.085 1.271,-2.21 2.592,-3.56 0.384,-0.515 0.906,-1.065 1.677,-1.041 1.15,0.023 1.636,1.339 1.87,1.974 1.104,2.871 2.892,6.239 5.193,6.656 0.004,-0.064 0.022,-0.128 0.022,-0.191 0,-0.445 -0.042,-0.929 -0.118,-1.441 -0.411,-2.724 -1.705,-4.897 -3.954,-6.652 -2.137,-1.663 -4.747,-2.463 -7.777,-2.361 0.021,-0.002 -0.228,0.007 -0.228,0.007 -0.108,0.003 -0.211,0.003 -0.302,0.01 -0.041,0.004 -0.128,0.013 -0.216,0.013 -0.819,0.029 -1.523,-0.356 -1.949,-1.08 -0.32,-0.538 -0.505,-1.332 -0.591,-2.477 -0.091,-0.942 -0.131,-1.871 -0.131,-2.743 0,-1.457 0.114,-2.798 0.343,-3.979 l 0,-0.005 0,-0.018 c 0.076,-0.383 0.139,-0.686 0.217,-0.957 0.042,-0.149 0.117,-0.307 0.215,-0.441 l 1.91,-2.562 c 0.361,-0.475 0.99,-0.642 1.525,-0.385 1.193,0.562 2.319,0.844 3.35,0.854 0.458,0 0.858,-0.1 1.235,-0.248 0.083,-0.377 0.178,-0.747 0.178,-1.163 0,-0.406 -0.034,-0.841 -0.106,-1.276 -0.384,-2.557 -1.356,-4.722 -2.887,-6.439 -1.481,-1.658 -3.221,-2.465 -5.316,-2.463 -0.057,0 -0.104,0.002 -0.161,0.002 -0.892,0.033 -1.727,0.392 -2.515,1.045 -0.165,0.379 -0.321,0.75 -0.401,1.09 -0.093,0.367 -0.242,0.671 -0.456,0.906 0.061,-0.067 0.101,-0.137 0.143,-0.215 -0.022,0.045 -0.044,0.102 -0.071,0.141 -0.018,0.023 -1.852,2.439 -1.852,2.439 0.05,-0.073 0.094,-0.146 0.134,-0.219 -0.092,0.181 -0.235,0.32 -0.377,0.453 0,0 -0.209,0.23 -0.487,0.34"
             style="fill:#aba4a1;fill-opacity:0.50694442;fill-rule:nonzero;stroke:none"
             id="path4289"
             inkscape:connector-curvature="0" /></g><g
           id="g4291"
           transform="translate(277.5293,158.1079)"><path
             d="M 0,0 C -0.068,0.042 -0.133,0.114 -0.187,0.153 -0.24,0.197 -0.287,0.216 -0.328,0.263 -0.23,0.153 -0.127,0.069 0,0"
             style="fill:#0c0702;fill-opacity:1;fill-rule:nonzero;stroke:none"
             id="path4293"
             inkscape:connector-curvature="0" /></g><g
           id="g4295"
           transform="translate(183.1196,145.21)"><path
             d="m 0,0 c -0.002,0.006 -0.012,0.006 -0.017,0.018 l 0,-0.002 c 0.007,-0.01 0.015,-0.018 0.022,-0.022 L 0,0 Z"
             style="fill:#0c0702;fill-opacity:1;fill-rule:nonzero;stroke:none"
             id="path4297"
             inkscape:connector-curvature="0" /></g><g
           id="g4299"
           transform="translate(314.1133,171.0273)"><path
             d="m 0,0 c 0.01,-0.042 0.006,-0.085 0.01,-0.129 0,-0.01 0.013,-0.031 0.013,-0.04 C 0.023,-0.111 0.014,-0.053 0,0"
             style="fill:#0c0702;fill-opacity:1;fill-rule:nonzero;stroke:none"
             id="path4301"
             inkscape:connector-curvature="0" /></g><g
           id="g4303"
           transform="translate(168.1543,190.8218)"><path
             d="M 0,0 0,-0.005 C 0.028,-0.042 0.064,-0.084 0.085,-0.128 0.064,-0.085 0.04,-0.056 0.017,-0.025 0.028,-0.039 0.04,-0.051 0.047,-0.073 0.032,-0.047 0.015,-0.025 0,0"
             style="fill:#0c0702;fill-opacity:1;fill-rule:nonzero;stroke:none"
             id="path4305"
             inkscape:connector-curvature="0" /></g><g
           id="g4307"
           transform="translate(305.7578,191.0278)"><path
             d="M 0,0 C 0.012,-0.029 0.02,-0.055 0.039,-0.078 0.045,-0.096 0.057,-0.104 0.059,-0.122 0.045,-0.078 0.02,-0.041 0,0"
             style="fill:#0c0702;fill-opacity:1;fill-rule:nonzero;stroke:none"
             id="path4309"
             inkscape:connector-curvature="0" /></g><g
           id="g4311"
           transform="translate(183.1133,145.208)"><path
             d="m 0,0 c 0.006,-0.008 0.015,-0.014 0.02,-0.027 0,0.006 0,0.006 -0.005,0.006 C 0.011,-0.01 0.004,-0.01 0,0"
             style="fill:#0c0702;fill-opacity:1;fill-rule:nonzero;stroke:none"
             id="path4313"
             inkscape:connector-curvature="0" /></g><g
           id="g4315"
           transform="translate(252.75,166.8218)"><path
             d="m 0,0 c -0.23,-1.527 -0.852,-3.644 -1.865,-6.355 -3.244,-8.719 -5.828,-13.351 -7.746,-13.894 -0.211,-0.05 -0.397,-0.08 -0.571,-0.08 -0.611,0.006 -0.748,0.575 -0.404,1.709 1.963,6.238 3.971,11.392 6.035,15.448 C -2.68,0.4 -1.324,2.19 -0.479,2.191 0.07,2.19 0.221,1.453 0,0 m -27.51,3.099 c -0.287,-1.953 -1.754,-5.91 -4.394,-11.892 -2.805,-6.416 -4.715,-9.69 -5.729,-9.621 -0.41,0.026 -0.535,0.555 -0.365,1.636 0.408,2.715 1.742,6.739 4,12.065 2.521,5.875 4.457,8.799 5.814,8.793 0.553,0.006 0.77,-0.329 0.674,-0.981 M 8.422,6.05 c -0.727,1.335 -1.85,1.981 -3.451,1.981 -3.02,0 -5.965,-1.99 -8.754,-5.913 L -4.52,2.47 c 0.077,0.268 0.243,0.841 0.512,1.714 0.246,0.806 0.432,1.553 0.543,2.208 0.213,1.455 0.08,2.498 -0.394,3.097 -0.307,0.387 -0.766,0.605 -1.401,0.662 -0.127,0.011 -0.256,0.017 -0.39,0.017 -1.84,0 -4.196,-0.991 -7.004,-2.936 0.236,-1.013 0.199,-2.503 -0.117,-4.534 -0.27,-1.834 -0.7,-3.685 -1.288,-5.515 -0.021,-0.066 -0.394,-1.159 -1.091,-3.227 l -0.01,-0.031 -0.016,-0.028 c -0.152,-0.297 -0.222,-0.364 -0.42,-0.541 l -0.041,-0.035 c -2.422,-4.114 -4.82,-7.511 -7.133,-10.092 -0.558,-0.623 -0.998,-1.066 -1.65,-1.102 -0.213,0 -0.408,0.087 -0.545,0.249 -0.281,0.326 -0.344,0.942 -0.195,1.936 0.109,0.74 0.308,1.584 0.59,2.507 1.181,3.859 2.504,7.737 3.922,11.525 1.734,4.616 2.968,7.323 3.853,8.434 -0.957,1.201 -2.295,1.786 -4.084,1.786 -1.359,0 -2.4,-0.531 -3.182,-1.627 l -0.402,-0.562 -0.307,0.62 c -0.515,1.045 -1.746,1.574 -3.689,1.574 -3.627,0 -7.35,-2.444 -11.07,-7.267 -3.769,-4.865 -6.138,-10.387 -7.049,-16.412 -0.629,-4.196 -0.322,-7.051 0.911,-8.488 0.65,-0.756 1.55,-1.121 2.763,-1.123 2.74,0 5.707,1.955 8.818,5.812 l 0.668,0.833 0.068,-1.067 c 0.237,-3.762 1.541,-5.592 3.983,-5.6 2.93,0.004 6.082,2.307 9.371,6.846 l 0.726,-0.374 c -2.044,-6.091 -3.701,-11.354 -4.916,-15.651 -0.416,-1.428 -0.697,-2.631 -0.855,-3.672 -0.146,-1.035 -0.186,-1.819 -0.123,-2.492 0.002,-0.11 0.119,-2.608 4,-2.709 0.127,-0.002 0.256,-0.002 0.381,-0.002 2.746,0 4.367,0.748 4.996,1.115 -0.359,0.678 -0.922,2.277 -0.438,5.125 0.129,1.15 0.395,2.449 0.827,3.971 0.933,3.25 1.671,5.822 2.214,7.615 l 0.09,0.295 0.313,0 c 0.338,-0.006 1.105,-0.008 2.295,-0.01 4.25,0 8.3,2.35 12.043,6.987 3.627,4.572 6.066,10.193 7.246,16.707 0.56,3.088 0.429,5.459 -0.381,7.042"
             style="fill:#ffffff;fill-opacity:1;fill-rule:nonzero;stroke:none"
             id="path4317"
             inkscape:connector-curvature="0" /></g><g
           id="g4319"
           transform="translate(74.433639,119.14215)"><path
             d="m 16.73403,27.146316 0.002,0 -0.002,0 z m 21.971,43.295 0,0 c -2.819,-0.039 -5.231,-0.837 -7.591,-2.515 -2.627,-1.865 -4.177,-4.258 -4.608,-7.113 -0.042,-0.262 -0.059,-0.528 -0.059,-0.801 0,-1.529 0.612,-3.212 1.823,-5.017 0,-0.002 0.423,-0.488 0.501,-0.58 0.015,0.085 0.14,0.294 0.338,0.828 2.01,5.203 4.442,7.844 7.234,7.85 1.257,-0.006 2.181,-0.68 2.673,-1.947 0.477,-1.163 0.585,-2.617 0.326,-4.314 -0.469,-3.127 -2.014,-5.734 -4.589,-7.747 -2.561,-2.004 -5.732,-2.906 -9.419,-2.687 -0.41,0.046 -0.544,-0.086 -0.629,-0.239 -0.125,-0.208 -0.281,-0.675 -0.365,-1.737 -0.084,-0.919 -0.124,-1.799 -0.124,-2.632 0,-1.498 0.155,-2.828 0.418,-4.028 1.278,0.534 2.456,0.837 3.549,0.835 1.801,-0.008 3.164,-0.717 4.05,-2.106 0.86,-1.361 1.141,-3.087 0.837,-5.128 -0.44,-2.891 -1.552,-5.352 -3.311,-7.324 -1.772,-1.981 -3.975,-2.998 -6.546,-3.018 -1.611,-0.02 -2.909,0.535 -4.212,1.781 -1.186,1.147 -1.978,2.541 -2.374,4.139 -0.08,-0.158 -0.166,-0.34 -0.166,-0.34 -1.025,-3.057 -1.556,-5.783 -1.578,-8.103 l 0,-0.137 c 0,-2 0.56,-3.401 1.668,-4.164 1.07,-0.709 2.836,-1.026 5.558,-0.998 4.108,0.052 8.108,1.578 11.895,4.539 4.666,3.646 7.498,8.59 8.414,14.698 0.524,3.508 0.012,6.271 -1.528,8.223 -1.35,1.696 -3.03,2.446 -5.13,2.292 l -0.512,-0.038 0.08,0.345 0.144,1.06 0.207,-0.066 c 7.203,2.201 11.389,6.873 12.442,13.887 0.624,4.132 0.021,7.308 -1.791,9.431 -1.694,1.958 -4.26,2.922 -7.625,2.871"
             style="fill:#ffffff;fill-opacity:1;fill-rule:nonzero;stroke:none"
             id="path4321"
             inkscape:connector-curvature="0" /></g><g
           id="g4323"
           transform="translate(157.6733,191.5869)"><path
             d="m 0,0 -0.005,-0.001 c -1.811,-1.497 -2.909,-3.464 -3.269,-5.846 -0.251,-1.674 0.015,-3.024 0.792,-4.007 0.664,-0.824 1.522,-1.228 2.623,-1.23 1.58,-0.006 3.154,0.645 4.672,1.93 C 6.587,-7.645 7.667,-5.675 8.03,-3.3 8.283,-1.606 8.023,-0.298 7.237,0.705 6.57,1.531 5.727,1.933 4.667,1.933 3.122,1.942 1.552,1.292 0,0"
             style="fill:#ffffff;fill-opacity:1;fill-rule:nonzero;stroke:none"
             id="path4325"
             inkscape:connector-curvature="0" /></g><g
           id="g4327"
           transform="translate(129.8066,162.3716)"><path
             d="M 0,0 C 3.48,8.107 5.206,9.052 6.203,9.052 6.663,9.052 6.92,8.864 7.056,8.706 7.277,8.45 7.351,8.074 7.28,7.595 6.981,5.604 5.494,1.567 2.852,-4.411 c -3.801,-8.691 -5.223,-9.858 -6.115,-9.851 -0.224,-0.003 -0.434,0.091 -0.58,0.263 -0.178,0.206 -0.268,0.514 -0.268,0.96 0,0.247 0.029,0.537 0.08,0.872 C -3.622,-9.433 -2.267,-5.338 0,0 M 10.316,11.488 9.917,10.926 9.61,11.545 c -0.531,1.052 -1.739,1.568 -3.69,1.572 -3.609,0.005 -7.338,-2.436 -11.074,-7.258 -3.768,-4.873 -6.139,-10.402 -7.051,-16.431 -0.629,-4.192 -0.324,-7.041 0.914,-8.478 0.649,-0.756 1.551,-1.125 2.761,-1.127 2.74,0.002 5.71,1.963 8.822,5.82 l 0.669,0.831 0.069,-1.064 c 0.233,-3.763 1.536,-5.595 3.983,-5.601 2.925,0 6.067,2.291 9.339,6.812 l 0.724,-0.375 -0.185,-0.541 c -2.296,-6.492 -4.348,-11.197 -6.095,-13.964 -1.406,-2.196 -2.905,-3.496 -4.459,-3.953 0.369,-4.539 1.505,-6.879 3.404,-6.891 4.028,0 8.081,5.057 12.037,15.025 l 4.817,13.395 c 2.441,7.035 4.051,11.871 4.917,14.784 l 0.993,4.248 c 0.288,1.901 0.111,3.24 -0.53,3.983 -0.431,0.504 -1.083,0.75 -1.994,0.75 -1.823,0.002 -3.989,-0.809 -6.412,-2.344 0.076,-0.586 0.133,-1.176 0.133,-1.779 0,-0.718 -0.055,-1.445 -0.162,-2.181 -0.225,-1.453 -0.67,-3.255 -1.324,-5.356 0,-0.002 -0.931,-2.951 -0.931,-2.951 l -0.226,-0.188 -0.286,-0.36 c -2.449,-4.153 -4.859,-7.57 -7.167,-10.147 -0.658,-0.743 -1.172,-1.095 -1.608,-1.105 -0.018,0 -0.59,0.264 -0.59,0.264 -0.179,0.208 -0.268,0.529 -0.268,0.999 0,0.259 0.026,0.57 0.08,0.931 l 0.581,2.508 c 1.193,3.876 2.514,7.751 3.93,11.526 1.705,4.533 2.953,7.221 3.835,8.35 -0.957,1.211 -2.268,1.858 -4.065,1.868 -1.365,-0.004 -2.407,-0.536 -3.185,-1.629"
             style="fill:#ffffff;fill-opacity:1;fill-rule:nonzero;stroke:none"
             id="path4329"
             inkscape:connector-curvature="0" /></g><g
           id="g4331"
           transform="translate(168.125,159.6284)"><path
             d="m 0,0 c 3.196,10.776 4.966,12.158 6.15,12.16 l 0.093,0 -0.088,0 0.687,-0.315 C 7.197,11.431 7.269,10.631 7.076,9.331 L 6.441,6.89 C 5.772,4.919 4.827,3.205 3.641,1.807 2.615,0.618 1.566,-0.161 0.528,-0.509 L -0.229,-0.764 0,0 Z m 19.204,13.853 0,0 c -1.412,-0.982 -2.829,-2.229 -4.335,-3.806 l -0.808,-0.848 0.095,1.168 c 0.136,1.655 -0.204,2.943 -1.013,3.821 -0.993,1.077 -2.738,1.623 -5.194,1.623 -3.951,0.011 -7.815,-2.472 -11.494,-7.374 -3.422,-4.52 -5.552,-9.458 -6.331,-14.678 -0.505,-3.31 -0.188,-6.011 0.94,-8.029 1.275,-2.147 3.429,-3.229 6.399,-3.207 2.363,0.018 4.712,0.727 7.181,2.168 2.466,1.432 4.521,3.34 6.105,5.665 0.609,0.858 1.033,1.656 1.231,2.318 l 0.93,4.5 c 10e-4,0.005 0.018,0.211 0.032,0.411 -1.964,-3.048 -4.133,-5.537 -6.441,-7.386 -2.376,-1.917 -4.467,-2.735 -6.205,-2.434 -1.911,0.302 -2.622,2.209 -2.108,5.66 l 0.673,2.931 0.352,-0.057 c 3.025,-0.27 6.075,0.821 9.067,3.238 l 1.799,1.729 c 0.058,0.051 1.277,1.416 1.277,1.416 1.54,1.748 4.111,4.677 5.579,6.019 1.192,1.081 1.63,1.221 1.924,1.211 0.192,-0.004 0.369,-0.088 0.491,-0.238 0.197,-0.243 0.234,-0.622 0.118,-1.228 L 19.234,7.458 C 18.966,6.569 18.156,4.484 16.518,0.481 c -1.232,-2.972 -2.067,-5.463 -2.474,-7.405 -0.381,-1.813 -0.302,-3.095 0.239,-3.804 0.348,-0.462 0.904,-0.71 1.696,-0.761 2.325,-0.151 6.06,2.07 11.099,6.589 l 0.665,-0.457 c -2.466,-6.408 -2.563,-6.775 -3.195,-9.149 L 24.095,-16.2 c -0.505,-1.824 -0.505,-3.097 -0.005,-3.785 0.299,-0.412 0.791,-0.627 1.501,-0.654 2.351,-0.11 4.94,0.664 7.682,2.228 -0.109,0.418 -0.214,0.85 -0.214,1.405 0,0.697 0.09,1.502 0.267,2.435 10e-4,0 0.878,3.253 0.878,3.253 -0.002,-0.007 0.302,0.926 0.302,0.926 1.821,5.569 2.012,6.153 4.787,13.428 1.975,5.172 3.59,9.057 4.838,11.663 -2.627,0.469 -4.488,0.74 -5.464,0.784 -1.268,0.047 -2.211,-0.159 -2.788,-0.624 -0.502,-0.384 -1.049,-1.274 -1.634,-2.648 -7.389,-17.134 -9.001,-17.056 -9.689,-17.025 -0.295,0.01 -0.544,0.129 -0.715,0.349 -0.279,0.348 -0.336,0.902 -0.175,1.752 l 0.5,1.815 c 0.011,0.027 2.339,5.793 2.339,5.793 0.941,2.318 1.571,4.289 1.87,5.845 0.391,2.047 0.231,3.533 -0.473,4.428 -0.543,0.682 -1.402,1.042 -2.632,1.095 -1.653,0.069 -3.693,-0.742 -6.066,-2.41"
             style="fill:#ffffff;fill-opacity:1;fill-rule:nonzero;stroke:none"
             id="path4333"
             inkscape:connector-curvature="0" /></g><g
           id="g4335"
           transform="translate(267.3281,169.1494)"><path
             d="m 0,0 0,0 c -3.895,-4.379 -6.346,-9.771 -7.285,-16.038 -0.594,-3.919 -0.061,-6.868 1.586,-8.765 1.377,-1.552 3.373,-2.33 5.933,-2.314 2.215,0.019 4.303,0.617 6.559,1.887 2.377,1.316 4.494,3.187 6.285,5.562 0.774,1.058 1.348,2.139 1.703,3.212 0,0.009 0.723,3.827 0.723,3.827 0,0 0.017,0.214 0.037,0.452 -0.324,-0.364 -0.85,-0.98 -1.691,-2.065 -1.745,-2.23 -3.202,-3.832 -4.459,-4.895 -2.039,-1.782 -3.991,-2.689 -5.793,-2.697 -0.729,0.008 -1.317,0.253 -1.737,0.745 -0.769,0.895 -0.959,2.541 -0.586,5.026 0.473,3.122 1.51,6.679 3.086,10.573 1.883,4.776 3.461,6.998 4.971,6.991 0.002,0 0.66,-0.309 0.66,-0.309 0.293,-0.34 0.578,-1.069 0.186,-3.679 0,0.009 -0.553,-2.523 -0.553,-2.523 L 9.174,-7.065 c -0.012,-0.058 0.347,-0.084 0.347,-0.084 1.573,0.1 3.057,0.649 4.432,1.637 1.764,1.275 2.813,2.958 3.121,4.996 0.34,2.266 0.035,3.973 -0.908,5.067 C 15.238,5.635 13.631,6.183 11.391,6.187 7.496,6.194 3.664,4.11 0,0"
             style="fill:#ffffff;fill-opacity:1;fill-rule:nonzero;stroke:none"
             id="path4337"
             inkscape:connector-curvature="0" /></g><g
           id="g4339"
           transform="translate(321.3223,161.8125)"><path
             d="M 0,0 C 3.248,8.045 4.523,9.135 5.338,9.135 L 6.092,8.795 C 6.463,8.362 6.543,7.546 6.346,6.229 5.881,3.368 4.533,-0.898 2.35,-6.449 c -3.192,-8.019 -4.53,-9.097 -5.418,-9.097 l -0.721,0.315 c -0.254,0.285 -0.377,0.744 -0.377,1.416 0,0.316 0.031,0.672 0.082,1.083 C -3.779,-10.224 -2.41,-5.942 0,0 m -28.266,28.655 c 0.147,-0.535 0.256,-1.118 0.256,-1.87 0,-0.777 -0.076,-1.679 -0.234,-2.708 l -0.795,-3.948 c -2.156,-8.679 -4.684,-17.36 -7.508,-25.817 -1.293,-3.89 -2.937,-8.377 -4.848,-13.303 2.575,-0.518 4.475,-0.803 5.51,-0.805 1.174,-0.004 2.028,0.301 2.606,0.924 0.314,0.355 0.873,1.232 1.724,3.375 l 2.461,6.929 0.801,-0.084 c 0.51,-4.361 1.092,-7.326 1.729,-8.81 0.693,-1.578 1.709,-2.351 3.099,-2.355 2.819,-0.006 6.514,3.062 10.975,9.121 l 0.822,1.116 -0.076,-1.384 c -0.174,-3.274 0.428,-5.67 1.787,-7.125 1.078,-1.148 2.668,-1.744 4.732,-1.767 4.09,-0.045 8.034,1.96 11.719,5.963 3.897,4.195 6.367,9.587 7.33,16.023 0.68,4.504 0.244,7.698 -1.299,9.492 -1.035,1.207 -2.623,1.816 -4.718,1.819 -4.104,0.006 -8.059,-1.968 -11.756,-5.864 -2.59,-2.705 -4.572,-5.899 -5.885,-9.495 -0.836,-1.373 -1.939,-2.875 -3.346,-4.581 -1.416,-1.749 -2.509,-2.958 -3.254,-3.592 -0.505,-0.441 -1,-0.667 -1.47,-0.667 -0.61,0 -1.127,0.424 -1.584,1.284 -1.272,2.445 -2.19,5.667 -2.744,9.574 -0.147,1.029 0.171,2.064 0.959,3.073 0.627,0.809 1.392,1.22 2.263,1.219 0.489,-0.012 1.09,-0.458 2.022,-1.495 0.746,-0.845 1.443,-1.084 1.894,-1.135 0.699,-0.087 1.385,0.488 2.365,1.974 0.961,1.445 1.583,3.183 1.905,5.319 0.277,1.849 0.095,3.158 -0.531,3.895 -0.444,0.511 -1.116,0.764 -2.051,0.764 -1.573,0.008 -3.274,-0.906 -5.069,-2.715 -1.47,-1.511 -3.664,-4.175 -6.509,-7.918 l -0.725,0.377 4.121,13.556 c 1.475,5.045 2.231,7.744 2.443,8.748 l 0.303,1.683 c 0.299,1.995 0.143,3.366 -0.463,4.071 -0.336,0.39 -0.814,0.578 -1.474,0.581 -1.944,0.006 -4.467,-1.163 -7.487,-3.442"
             style="fill:#ffffff;fill-opacity:1;fill-rule:nonzero;stroke:none"
             id="path4341"
             inkscape:connector-curvature="0" /></g></g></g></g></svg>