<?xml version="1.0" encoding="utf-8"?>
<!-- Generator: Adobe Illustrator 19.0.0, SVG Export Plug-In . SVG Version: 6.00 Build 0)  -->
<svg version="1.1" id="Layer_1" xmlns="http://www.w3.org/2000/svg" xmlns:xlink="http://www.w3.org/1999/xlink" x="0px" y="0px"
	 viewBox="0 0 318 168.7" style="enable-background:new 0 0 318 168.7;" xml:space="preserve">
<style type="text/css">
	.st0{fill:#EAE7E5;}
	.st1{fill:url(#SVGID_1_);}
	.st2{fill:url(#SVGID_2_);}
	.st3{fill:url(#SVGID_3_);}
	.st4{fill:none;stroke:#FFFFFF;stroke-width:2.8841;}
</style>
<g>
	<g>
		<g>
			<path class="st0" d="M118.1,44.9c-14.2-0.8-28.4,0.8-42.4,5c-21.9,6.3-34,20.3-36.6,41.3c-1.8,14-0.3,27.9,4.7,42.4
				c-1.3-8.4-1.6-15.3-1.3-21.1c0.5-9.2,2.9-16.6,7.1-22.6c3.9-6.1,10.5-11.1,19-15.3c11.6-5.5,27.9-7.6,49.5-6.3V44.9z"/>
			<path class="st0" d="M118.4,32V8.3c-37.4-3.4-63.7,7.4-79,32.1c-6.8,11.1-10.3,24-10.5,39c0,11.3,2.1,24,7.1,37.4
				c-10.3-30-2.1-54.2,25-72.7C75.7,34.1,94.7,30.2,118.4,32z"/>
			<path class="st0" d="M44.9,127.1c0,10.3,3.4,18.7,10.3,25.5c7.1,6.8,15.5,10.3,25.5,10.3c10,0,18.4-3.4,25.3-10.5
				c6.8-6.8,10.3-15,10.3-24.5c0-9.7-3.4-17.9-10.3-25c-7.1-7.1-15.5-10.8-25.5-10.8c-9.5,0-17.6,3.4-24.8,10.3
				C48.3,109.2,44.9,117.3,44.9,127.1z"/>
		</g>
	</g>
	<g>
		<g>
			
				<linearGradient id="SVGID_1_" gradientUnits="userSpaceOnUse" x1="-10397.4619" y1="157.6181" x2="-2674.6323" y2="157.6181" gradientTransform="matrix(1.190000e-002 -9.000000e-004 9.000000e-004 1.190000e-002 148.6062 78.7186)">
				<stop  offset="1.569000e-002" style="stop-color:#FFFBF9"/>
				<stop  offset="0.4667" style="stop-color:#EAE7E5"/>
				<stop  offset="1" style="stop-color:#EAE7E5"/>
			</linearGradient>
			<path class="st1" d="M114.4,42.2C100.2,41.4,86,43,72,47.2c-21.9,6.3-34,20.3-36.6,41.3c-1.8,14-0.3,27.9,4.7,42.4
				c-1.3-8.4-1.6-15.3-1.3-21.1c0.5-9.2,2.9-16.6,7.1-22.6c3.9-6.1,10.5-11.1,19-15.3c11.6-5.5,27.9-7.6,49.5-6.3V42.2z"/>
			
				<linearGradient id="SVGID_2_" gradientUnits="userSpaceOnUse" x1="1033.7792" y1="2306.5015" x2="8756.6084" y2="2306.5015" gradientTransform="matrix(-1.240000e-002 6.000000e-004 -6.000000e-004 -1.240000e-002 149.1561 84.123)">
				<stop  offset="1.569000e-002" style="stop-color:#FFFBF9"/>
				<stop  offset="0.4667" style="stop-color:#EAE7E5"/>
				<stop  offset="1" style="stop-color:#EAE7E5"/>
			</linearGradient>
			<path class="st2" d="M114.7,29.3V5.6c-37.4-3.4-63.7,7.4-79,32.1c-6.8,11.1-10.3,24-10.5,39c0,11.3,2.1,24,7.1,37.4
				c-10.3-30-2.1-54.2,25-72.7C72,31.4,91,27.4,114.7,29.3z"/>
			
				<radialGradient id="SVGID_3_" cx="-6893.1611" cy="2678.2891" r="3861.4146" gradientTransform="matrix(1.230000e-002 0 0 1.230000e-002 147.3024 85.4744)" gradientUnits="userSpaceOnUse">
				<stop  offset="1.569000e-002" style="stop-color:#FFFBF9"/>
				<stop  offset="0.3961" style="stop-color:#EAE7E5"/>
				<stop  offset="1" style="stop-color:#EAE7E5"/>
			</radialGradient>
			<path class="st3" d="M41.2,124.3c0,10.3,3.4,18.7,10.3,25.5c7.1,6.8,15.5,10.3,25.5,10.3c10,0,18.4-3.4,25.3-10.5
				c6.8-6.8,10.3-15,10.3-24.5c0-9.7-3.4-17.9-10.3-25C95.2,93,86.7,89.3,76.7,89.3c-9.5,0-17.6,3.4-24.8,10.3
				C44.6,106.4,41.2,114.6,41.2,124.3z"/>
		</g>
	</g>
	<g>
		<g>
			<path class="st4" d="M177,138.4c0,5.7-2.2,14.4-10.3,14.4c-8,0-11.1-6.6-11.1-13.7c0-7.6,2.2-15.3,10.8-15.3
				C174.3,123.7,177,130.8,177,138.4z M156.1,97.5h-12.5v64.4h12.3v-6h0.2c3.1,5.4,8.6,7.3,13.8,7.3c14.2,0,20.1-12.5,20.1-25.6
				c0-16.5-9.3-24.6-19.8-24.6c-8.1,0-11.8,4.4-13.8,7.4h-0.2V97.5z"/>
			<path class="st4" d="M225,144.7c0,5.8-5.6,9.4-11.2,9.4c-2.4,0-5.8-1.3-5.8-5.7c0-5.2,3.9-6.4,8.5-7.2c5.2-0.8,7.3-1.6,8.5-2.6
				V144.7z M237.3,126.7c0-11.7-12.3-13.8-19-13.8c-9.8,0-19.9,2.1-21.3,16.7h12.1c0.4-2.8,1.4-6.6,7.7-6.6c3.2,0,8.2,0.3,8.2,5.6
				c0,2.7-2.4,3.5-4.4,3.8l-11.3,1.7c-8,1.2-13.9,5.9-13.9,15.2c0,9.9,7.4,13.9,14.5,13.9c8.5,0,12.5-3.9,15.4-6.9
				c0.3,2.7,0.4,3.4,1.2,5.7h13.5V160c-1.5-0.5-2.8-1.8-2.8-7.4V126.7z"/>
			<path class="st4" d="M261.4,114.2v47.7h-12.5v-47.7H261.4z M261.4,108.5h-12.5V96.9h12.5V108.5z"/>
			<path class="st4" d="M287.5,114.2h7.8v9h-7.8V149c0,2.8,0.1,3.9,5.2,3.9c0.8,0,1.7-0.1,2.6-0.2v9.5c-2,0.1-3.9,0.2-5.9,0.2h-1.6
				c-10.8,0-12.8-4.1-12.8-10.3v-29h-6.5v-9h6.5v-12.9h12.6V114.2z"/>
		</g>
		<g>
			<path class="st0" d="M177,138.4c0,5.6-2.2,14.4-10.3,14.4c-8,0-11.1-6.6-11.1-13.7c0-7.6,2.2-15.3,10.8-15.3
				C174.3,123.7,177,130.8,177,138.4z M156.1,97.5h-12.5v64.4h12.3v-6h0.2c3.1,5.4,8.6,7.3,13.8,7.3c14.2,0,20.1-12.5,20.1-25.6
				c0-16.5-9.3-24.6-19.8-24.6c-8.1,0-11.8,4.4-13.8,7.4h-0.2V97.5z"/>
			<path class="st0" d="M225,144.7c0,5.8-5.6,9.4-11.2,9.4c-2.4,0-5.8-1.3-5.8-5.7c0-5.2,3.9-6.4,8.5-7.2c5.2-0.8,7.3-1.6,8.5-2.6
				V144.7z M237.3,126.7c0-11.7-12.3-13.8-19-13.8c-9.8,0-19.9,2.1-21.3,16.7h12.1c0.4-2.8,1.4-6.6,7.7-6.6c3.2,0,8.2,0.3,8.2,5.6
				c0,2.7-2.4,3.5-4.4,3.8l-11.3,1.7c-8,1.2-13.9,5.9-13.9,15.2c0,9.9,7.4,13.9,14.5,13.9c8.5,0,12.5-3.9,15.4-6.9
				c0.3,2.7,0.4,3.4,1.2,5.7h13.5V160c-1.5-0.5-2.8-1.8-2.8-7.4V126.7z"/>
			<path class="st0" d="M261.4,114.2v47.7h-12.5v-47.7H261.4z M261.4,108.5h-12.5V96.8h12.5V108.5z"/>
			<path class="st0" d="M287.5,114.2h7.8v9h-7.8V149c0,2.8,0.1,3.9,5.2,3.9c0.8,0,1.7-0.1,2.6-0.2v9.5c-2,0.1-3.9,0.2-5.9,0.2h-1.6
				c-10.8,0-12.8-4.1-12.8-10.3v-29h-6.5v-9h6.5v-12.9h12.6V114.2z"/>
		</g>
	</g>
</g>
</svg>
