<?xml version="1.0" encoding="utf-8"?>
<!-- Generator: Adobe Illustrator 19.0.0, SVG Export Plug-In . SVG Version: 6.00 Build 0)  -->
<svg version="1.1" id="Layer_1" xmlns="http://www.w3.org/2000/svg" xmlns:xlink="http://www.w3.org/1999/xlink" x="0px" y="0px"
	 viewBox="0 0 1895 615" style="enable-background:new 0 0 1895 615;" xml:space="preserve">
<g>
	<path style="fill:#E0D7D4;" d="M884.7,71.4v377.9h-44V30.1h122.1c26.7,0,48.3,1.9,64.6,5.6c16.3,3.7,31.2,9.9,44.5,18.6
		c18,11.7,32.3,27.3,42.8,46.9c10.5,19.6,15.8,40.3,15.8,62.2c0,32.4-10.5,60.4-31.4,83.7c-20.8,23.4-47.1,36.1-78.5,38.3
		l109.9,163.8h-53L942.7,247.2h43.1c28.7,0,51.9-7.8,69.9-23.3c18-15.5,27-35.5,27-59.9c0-14.8-2.7-28.2-8.2-40.2
		c-5.6-12.1-13.8-22.6-24.6-31.7c-9-7.4-19.7-12.8-32.3-15.9c-12.6-3.2-35-4.7-67.2-4.7H884.7z"/>
	<path style="fill:#E0D7D4;" d="M1697.9,19.8c-16.7-45.7-225.4-9.7-502,80.3c169.3-45.6,326.7-67.3,340.8-28.8
		c20.6,56.6-204.2,195.4-502.3,310c-298,114.6-381,159.6,4.2,11.5C1423.8,244.7,1719,77.7,1697.9,19.8z"/>
	<path style="fill:#E0D7D4;" d="M547.1,553.2C427.4,581,347.3,580.5,332.5,540c-15.2-41.8,99.9-117,279-204.5
		C344.7,454.4,220.3,534.4,236.9,580.2c12.4,34.1,132.1,22.7,307.2-22.8"/>
	<polygon style="fill:#E0D7D4;" points="571.2,218.1 762,218.1 762,259.5 571.2,259.5 571.2,408.6 762,408.6 762,449.2 526.2,449.2 
		526.2,30.1 762,30.1 762,71.4 571.2,71.4 	"/>
	<polygon style="fill:#E0D7D4;" points="1,449.2 1,30.1 66.8,30.1 224,394.5 380.7,30.1 446.4,30.1 446.4,449.2 403.7,449.2 
		403.7,79 244,449.2 203.7,449.2 44.1,79 44.1,449.2 	"/>
	<polygon style="fill:#E0D7D4;" points="1188.7,449.2 1143.6,449.2 1312.3,30.1 1363.7,30.1 1531.7,449.2 1486,449.2 1338,58.6 
		1240.6,317.7 	"/>
	<path style="fill-rule:evenodd;clip-rule:evenodd;fill:#E0D7D4;" d="M620.3,557.7c-3.6-4-10.3-7.7-20-11.1
		c-5.8-2.1-10.1-3.9-12.9-5.7c-2.8-1.7-4.8-3.6-6-5.6c-1.2-2.1-1.8-4.7-1.8-7.9c0-4.2,1.6-7.5,4.8-9.9c3.2-2.4,7.6-3.6,13.3-3.6
		c7.2,0,14.6,1.6,22.2,4.8l3.3-9.6c-7.7-3.5-16.2-5.3-25.3-5.3c-8.8,0-15.9,2.1-21.2,6.3c-5.3,4.2-8,9.9-8,17
		c0,6.8,1.8,12.3,5.5,16.5c3.7,4.2,9.8,7.9,18.4,10.9c6.1,2.2,10.7,4.2,13.7,5.9c3,1.7,5.2,3.6,6.4,5.7c1.3,2,1.9,4.7,1.9,7.9
		c0,4.7-1.8,8.3-5.4,10.9c-3.6,2.6-9,3.9-16.2,3.9c-4.4,0-8.8-0.4-13.2-1.4c-4.5-0.9-8.6-2.2-12.4-3.8v10.7c5.9,3,14.3,4.5,25.3,4.5
		c10.1,0,18.1-2.3,24-6.8c5.9-4.5,8.8-10.9,8.8-19C625.8,566.8,624,561.7,620.3,557.7z"/>
	<path style="fill-rule:evenodd;clip-rule:evenodd;fill:#E0D7D4;" d="M695,536.7c-5.8-6.5-13.6-9.7-23.3-9.7
		c-10.1,0-18.1,3.2-23.8,9.5c-5.7,6.3-8.5,15.1-8.5,26.5c0,7.3,1.3,13.7,4,19.1c2.6,5.5,6.4,9.6,11.2,12.5
		c4.8,2.9,10.4,4.4,16.7,4.4c10.1,0,18.1-3.2,23.8-9.5c5.8-6.4,8.6-15.2,8.6-26.5C703.7,551.9,700.8,543.2,695,536.7z M655.6,542.7
		c3.5-4.5,8.8-6.7,15.8-6.7c7,0,12.4,2.3,16,6.8c3.6,4.6,5.4,11.2,5.4,20c0,8.9-1.8,15.6-5.4,20.2c-3.6,4.6-8.9,6.9-15.8,6.9
		c-7,0-12.2-2.3-15.8-6.9c-3.6-4.6-5.4-11.3-5.4-20.2C650.3,554,652,547.2,655.6,542.7z"/>
	<path style="fill-rule:evenodd;clip-rule:evenodd;fill:#E0D7D4;" d="M753.5,528.4h-17.7v-4.3c0-5.6,1-9.7,2.9-12.2
		c1.9-2.5,4.8-3.8,8.8-3.8c2.9,0,6.4,0.7,10.4,2l2.7-8.7c-5-1.5-9.3-2.3-13-2.3c-14.9,0-22.4,8.4-22.4,25.2v3.8l-12.4,4v5h12.4v61
		h10.5v-61h17.7V528.4z"/>
	<path style="fill-rule:evenodd;clip-rule:evenodd;fill:#E0D7D4;" d="M780.5,586.6c-2-2.2-3-5.5-3-9.7v-41h20.2v-8h-20.2v-16h-6.1
		l-4.4,14.7l-10,4.3v5h10v41.6c0,14.3,6.7,21.4,20.2,21.4c1.8,0,3.8-0.2,6-0.5c2.2-0.4,3.9-0.8,5.1-1.4v-8.3c-1,0.3-2.4,0.6-4.1,0.9
		c-1.7,0.3-3.5,0.4-5.4,0.4C785.2,590,782.5,588.9,780.5,586.6z"/>
	<path style="fill-rule:evenodd;clip-rule:evenodd;fill:#E0D7D4;" d="M881.4,598l19.2-70h-10.9c-8.1,31.2-12.5,48.4-13.2,51.6
		c-0.8,3.2-1.2,5.6-1.4,7.1h-0.5c-0.8-5-2.4-11.1-4.8-18.5L857.4,528h-11.4l-12.8,40.2c-0.8,2.3-1.7,5.3-2.7,9.2
		c-1,3.9-1.8,7-2.2,9.4h-0.5c-0.3-3.2-1.7-9.4-4-18.6L813.5,528h-11l19,70h12.2l13.1-40.9c1.3-4,2.7-9.8,4.4-17.3h0.5
		c2.2,8.9,3.7,14.6,4.5,17.1l12.8,41.1H881.4z"/>
	<path style="fill-rule:evenodd;clip-rule:evenodd;fill:#E0D7D4;" d="M963.5,598v-47.7c0-8.2-2-14.1-6-17.8
		c-4-3.7-10.1-5.5-18.4-5.5c-4.1,0-8.2,0.5-12.2,1.6c-4.1,1.1-7.8,2.6-11.2,4.5l3.2,8.2c7.3-3.5,13.8-5.3,19.6-5.3
		c5.1,0,8.9,1.3,11.2,3.8c2.3,2.6,3.5,6.5,3.5,11.9v4.3l-11.8,0.4c-22.4,0.7-33.5,8-33.5,22.1c0,6.6,1.9,11.6,5.8,15.2
		c3.9,3.6,9.3,5.3,16.2,5.3c5.1,0,9.4-0.8,12.9-2.3c3.4-1.5,6.9-4.4,10.3-8.7h0.5l2.1,10H963.5z M922.4,587c-2.3-2-3.4-4.9-3.4-8.8
		c0-4.9,1.8-8.5,5.5-10.8c3.7-2.3,9.7-3.6,18-3.9l10.5-0.4v6.3c0,6.5-1.9,11.6-5.6,15.2c-3.7,3.6-8.8,5.4-15.3,5.4
		C927.9,590,924.7,589,922.4,587z"/>
	<path style="fill-rule:evenodd;clip-rule:evenodd;fill:#E0D7D4;" d="M1004.9,530.7c-3.6,2.5-6.7,6-9.3,10.5h-0.5l-1.2-13.2h-8.7v70
		h10.5v-37.2c0-6.8,2-12.4,6-17c4-4.6,8.8-6.8,14.4-6.8c2.2,0,4.7,0.3,7.6,1l1.5-10.2c-2.5-0.5-5.2-0.8-8.3-0.8
		C1012.5,527,1008.5,528.2,1004.9,530.7z"/>
	<path style="fill-rule:evenodd;clip-rule:evenodd;fill:#E0D7D4;" d="M1079.6,598c3.3-0.7,6.8-1.8,10.6-3.4v-9.3
		c-7.3,3.1-14.7,4.7-22.2,4.7c-7.1,0-12.6-2.1-16.6-6.4c-3.9-4.2-6-10.5-6.2-18.6h48v-6.7c0-9.4-2.5-17-7.6-22.7
		c-5.1-5.7-12-8.6-20.7-8.6c-9.3,0-16.8,3.3-22.3,9.9c-5.5,6.6-8.3,15.5-8.3,26.7c0,11.1,3,19.8,8.9,26c6,6.2,14.1,9.4,24.4,9.4
		C1072.3,599,1076.3,598.7,1079.6,598z M1077.5,541.2c3,3.4,4.5,8.4,4.5,14.8h-36.4c0.6-6.2,2.5-11.1,5.9-14.7
		c3.3-3.5,7.8-5.3,13.4-5.3C1070.2,536,1074.5,537.7,1077.5,541.2z"/>
	<path style="fill-rule:evenodd;clip-rule:evenodd;fill:#E0D7D4;" d="M1193.3,557.7c-3.6-4-10.3-7.7-20-11.1
		c-5.8-2.1-10.1-3.9-12.9-5.7c-2.8-1.7-4.8-3.6-5.9-5.6c-1.2-2.1-1.8-4.7-1.8-7.9c0-4.2,1.6-7.5,4.8-9.9c3.2-2.4,7.6-3.6,13.3-3.6
		c7.2,0,14.6,1.6,22.2,4.8l3.3-9.6c-7.7-3.5-16.2-5.3-25.3-5.3c-8.8,0-15.9,2.1-21.2,6.3c-5.3,4.2-8,9.9-8,17
		c0,6.8,1.8,12.3,5.5,16.5c3.7,4.2,9.8,7.9,18.4,10.9c6.1,2.2,10.7,4.2,13.7,5.9c3,1.7,5.2,3.6,6.4,5.7c1.3,2,1.9,4.7,1.9,7.9
		c0,4.7-1.8,8.3-5.4,10.9c-3.6,2.6-9,3.9-16.2,3.9c-4.4,0-8.8-0.4-13.3-1.4c-4.5-0.9-8.6-2.2-12.4-3.8v10.7c5.9,3,14.3,4.5,25.3,4.5
		c10.1,0,18.1-2.3,24-6.8c5.9-4.5,8.8-10.9,8.8-19C1198.8,566.8,1197,561.7,1193.3,557.7z"/>
	<path style="fill-rule:evenodd;clip-rule:evenodd;fill:#E0D7D4;" d="M1257.6,598c3.3-0.7,6.8-1.8,10.6-3.4v-9.3
		c-7.3,3.1-14.7,4.7-22.2,4.7c-7.1,0-12.6-2.1-16.6-6.4c-3.9-4.2-6-10.5-6.2-18.6h48v-6.7c0-9.4-2.5-17-7.6-22.7
		c-5.1-5.7-12-8.6-20.7-8.6c-9.3,0-16.7,3.3-22.3,9.9c-5.5,6.6-8.3,15.5-8.3,26.7c0,11.1,3,19.8,8.9,26c6,6.2,14.1,9.4,24.4,9.4
		C1250.3,599,1254.3,598.7,1257.6,598z M1255.4,541.2c3,3.4,4.5,8.4,4.5,14.8h-36.4c0.6-6.2,2.6-11.1,5.9-14.7
		c3.3-3.5,7.8-5.3,13.4-5.3C1248.3,536,1252.5,537.7,1255.4,541.2z"/>
	<path style="fill-rule:evenodd;clip-rule:evenodd;fill:#E0D7D4;" d="M1308.9,530.7c-3.6,2.5-6.7,6-9.3,10.5h-0.5l-1.2-13.2h-8.7v70
		h10.5v-37.2c0-6.8,2-12.4,6-17c4-4.6,8.8-6.8,14.4-6.8c2.2,0,4.7,0.3,7.6,1l1.5-10.2c-2.5-0.5-5.2-0.8-8.3-0.8
		C1316.5,527,1312.5,528.2,1308.9,530.7z"/>
	<path style="fill-rule:evenodd;clip-rule:evenodd;fill:#E0D7D4;" d="M1369.6,598l26.4-70h-11.3c-8.6,23.8-14.2,39.3-16.6,46.4
		c-2.5,7.1-3.9,11.8-4.4,14h-0.5c-0.6-2.9-2.6-9.2-6-18.9l-15-41.5H1331l26.4,70H1369.6z"/>
	<path style="fill-rule:evenodd;clip-rule:evenodd;fill:#E0D7D4;" d="M1417.8,528h-10.5v70h10.5V528z M1408.1,514.3
		c1.2,1.1,2.7,1.7,4.5,1.7c1.7,0,3.1-0.6,4.4-1.7c1.2-1.2,1.8-2.9,1.8-5.3c0-2.4-0.6-4.1-1.8-5.2c-1.2-1.1-2.7-1.7-4.4-1.7
		c-1.8,0-3.3,0.6-4.5,1.7c-1.2,1.1-1.8,2.9-1.8,5.3C1406.3,511.3,1406.9,513.1,1408.1,514.3z"/>
	<path style="fill-rule:evenodd;clip-rule:evenodd;fill:#E0D7D4;" d="M1485.7,595.5v-9.2c-6.1,2.5-12.1,3.8-17.9,3.8
		c-6.8,0-11.9-2.3-15.4-6.9c-3.5-4.6-5.2-11.2-5.2-19.8c0-18.2,7.1-27.3,21.3-27.3c2.1,0,4.6,0.3,7.3,0.9c2.8,0.6,5.3,1.4,7.6,2.3
		l3.3-8.8c-1.9-0.9-4.5-1.7-7.9-2.4c-3.3-0.7-6.7-1-10.1-1c-10.4,0-18.4,3.2-24,9.5c-5.6,6.3-8.4,15.3-8.4,26.9
		c0,11.3,2.8,20.1,8.3,26.3c5.5,6.2,13.3,9.3,23.4,9.3C1475.1,599,1481,597.8,1485.7,595.5z"/>
	<path style="fill-rule:evenodd;clip-rule:evenodd;fill:#E0D7D4;" d="M1543.6,598c3.3-0.7,6.8-1.8,10.6-3.4v-9.3
		c-7.3,3.1-14.7,4.7-22.2,4.7c-7.1,0-12.6-2.1-16.6-6.4c-3.9-4.2-6-10.5-6.2-18.6h48v-6.7c0-9.4-2.5-17-7.6-22.7
		c-5.1-5.7-12-8.6-20.7-8.6c-9.3,0-16.7,3.3-22.3,9.9c-5.5,6.6-8.3,15.5-8.3,26.7c0,11.1,3,19.8,8.9,26c6,6.2,14.1,9.4,24.4,9.4
		C1536.3,599,1540.3,598.7,1543.6,598z M1541.4,541.2c3,3.4,4.5,8.4,4.5,14.8h-36.4c0.6-6.2,2.5-11.1,5.9-14.7
		c3.3-3.5,7.8-5.3,13.4-5.3C1534.2,536,1538.5,537.7,1541.4,541.2z"/>
	<path style="fill-rule:evenodd;clip-rule:evenodd;fill:#E0D7D4;" d="M1615.7,567.3c-2.9-3-8.5-6.1-16.7-9.1
		c-6-2.2-10.1-3.9-12.2-5.1c-2.1-1.2-3.7-2.4-4.6-3.8c-1-1.3-1.4-2.9-1.4-4.8c0-2.7,1.3-4.8,3.8-6.3c2.5-1.5,6.3-2.3,11.3-2.3
		c5.7,0,12,1.4,19,4.3l3.8-8.6c-7.2-3.1-14.5-4.7-21.9-4.7c-8.1,0-14.4,1.6-19,4.9c-4.6,3.3-6.9,7.7-6.9,13.4c0,3.2,0.7,5.9,2,8.2
		c1.3,2.3,3.4,4.3,6.1,6.1c2.7,1.8,7.3,3.9,13.8,6.3c6.8,2.6,11.4,4.9,13.7,6.8c2.4,1.9,3.5,4.2,3.5,6.9c0,3.5-1.5,6.1-4.4,7.8
		c-3,1.7-7.2,2.5-12.7,2.5c-3.6,0-7.3-0.4-11.1-1.3c-3.8-0.9-7.4-2.1-10.7-3.7v9.7c5.2,2.9,12.3,4.3,21.6,4.3
		c8.7,0,15.5-1.7,20.3-5.2c4.8-3.5,7.2-8.5,7.2-15C1620,574.2,1618.6,570.4,1615.7,567.3z"/>
	<path style="fill-rule:evenodd;clip-rule:evenodd;fill:#E0D7D4;" d="M1636.7,583c-0.6,3.9-1.5,9.1-2.9,15.6
		c-1.4,6.5-2.6,12-3.8,16.4h8c2.2-4.8,4.4-10.1,6.5-15.7c2.1-5.6,3.7-10.6,4.8-14.8l-1-1.5H1636.7z"/>
	<rect x="1704.7" y="505" style="fill-rule:evenodd;clip-rule:evenodd;fill:#E0D7D4;" width="10.8" height="93"/>
	<path style="fill-rule:evenodd;clip-rule:evenodd;fill:#E0D7D4;" d="M1797.5,598v-45.5c0-8.9-2.1-15.4-6.4-19.4
		c-4.2-4-10.6-6.1-19-6.1c-4.8,0-9.2,1-13.1,2.8c-3.9,1.9-6.9,4.5-9.1,8h-0.5l-1.7-9.8h-8.6v70h10.5v-36.6c0-9.1,1.7-15.6,5.1-19.5
		c3.4-3.9,8.8-5.9,16.1-5.9c5.5,0,9.6,1.4,12.2,4.2c2.6,2.8,3.9,7,3.9,12.7V598H1797.5z"/>
	<path style="fill-rule:evenodd;clip-rule:evenodd;fill:#E0D7D4;" d="M1864.7,595.5v-9.2c-6.1,2.5-12.1,3.8-17.9,3.8
		c-6.8,0-11.9-2.3-15.4-6.9c-3.5-4.6-5.2-11.2-5.2-19.8c0-18.2,7.1-27.3,21.3-27.3c2.1,0,4.6,0.3,7.3,0.9c2.8,0.6,5.3,1.4,7.6,2.3
		l3.2-8.8c-1.9-0.9-4.5-1.7-7.9-2.4c-3.3-0.7-6.7-1-10.1-1c-10.4,0-18.4,3.2-24,9.5c-5.6,6.3-8.4,15.3-8.4,26.9
		c0,11.3,2.8,20.1,8.3,26.3s13.3,9.3,23.4,9.3C1854.1,599,1860,597.8,1864.7,595.5z"/>
	<path style="fill-rule:evenodd;clip-rule:evenodd;fill:#E0D7D4;" d="M1881.9,598c1.4,1.3,3.2,2,5.4,2c2.4,0,4.3-0.7,5.7-2.2
		c1.4-1.5,2.1-3.6,2.1-6.3c0-2.8-0.7-4.9-2.1-6.4c-1.4-1.4-3.3-2.2-5.7-2.2c-2.4,0-4.3,0.7-5.5,2.2c-1.3,1.4-1.9,3.6-1.9,6.4
		C1879.8,594.6,1880.5,596.7,1881.9,598z"/>
</g>
</svg>
