<?xml version="1.0" encoding="utf-8"?>
<!-- Generator: Adobe Illustrator 19.0.0, SVG Export Plug-In . SVG Version: 6.00 Build 0)  -->
<svg version="1.1" id="Layer_1" xmlns="http://www.w3.org/2000/svg" xmlns:xlink="http://www.w3.org/1999/xlink" x="0px" y="0px"
	 viewBox="0 0 345.1 55.3" style="enable-background:new 0 0 345.1 55.3;" xml:space="preserve">
<path style="fill:#E0D7D4;" d="M344.1,12.8v4.9h-14.8v7.4h14.8v4.9h-14.8v7.4h14.8v4.9h-19.7V12.8H344.1z M303.4,37.5
	c1.4,0,2.6-0.3,3.8-0.8c1.2-0.5,2.2-1.2,3.1-2.1c0.9-0.9,1.6-2,2.1-3.2c0.5-1.2,0.8-2.5,0.8-3.8c0-1.3-0.3-2.6-0.8-3.8
	c-0.5-1.2-1.2-2.3-2.1-3.2c-0.9-0.9-2-1.6-3.2-2.1c-1.2-0.5-2.5-0.8-3.8-0.8h-4.9v19.7H303.4z M293.6,12.8h9.8c2,0,3.9,0.4,5.7,1.2
	c1.8,0.8,3.4,1.8,4.7,3.2c1.3,1.3,2.4,2.9,3.2,4.7c0.8,1.8,1.2,3.7,1.2,5.7c0,2-0.4,3.9-1.2,5.7c-0.8,1.8-1.8,3.4-3.2,4.7
	c-1.3,1.3-2.9,2.4-4.7,3.2c-1.8,0.8-3.7,1.2-5.7,1.2h-9.8V12.8z M279.4,37.5h-13.6l-2.5,4.9h-5.5l14.8-29.6l14.8,29.6h-5.5
	L279.4,37.5z M268.3,32.6h8.7l-4.3-8.7L268.3,32.6z M245.9,42.4l-5.7-9.9h-8.3v9.9H227V12.8h14.8c2.7,0,5,1,6.9,2.9
	c1.9,1.9,2.9,4.2,2.9,6.9c0,2-0.6,3.9-1.7,5.6c-1.1,1.7-2.6,2.8-4.3,3.5l6.1,10.6H245.9z M241.8,17.8h-9.9v9.8l9.9,0
	c1.3,0,2.5-0.5,3.5-1.5c1-1,1.4-2.1,1.4-3.5c0-1.3-0.5-2.5-1.4-3.5C244.2,18.3,243.1,17.8,241.8,17.8 M196.1,12.8h24.7v4.9h-9.8
	v24.6H206V17.8h-9.9V12.8z M165.2,24.7v17.7h-4.9V12.8l14.8,14.8l14.8-14.8v29.6h-5V24.7l-9.8,9.9L165.2,24.7z M139.2,17.8
	c-2.7,0-5,1-7,2.9c-1.9,1.9-2.9,4.3-2.9,7c0,2.7,1,5,2.9,7c2,1.9,4.3,2.9,7,2.9c2.7,0,5-1,6.9-2.9c1.9-2,2.9-4.3,2.9-7
	c0-2.7-1-5-2.9-7C144.2,18.7,141.9,17.8,139.2,17.8 M139.2,12.8c4.1,0,7.6,1.5,10.4,4.3c2.9,2.9,4.4,6.4,4.4,10.4
	c0,4.1-1.5,7.6-4.4,10.4c-2.9,2.9-6.3,4.3-10.4,4.3c-4.1,0-7.6-1.4-10.4-4.3c-2.9-2.9-4.3-6.4-4.3-10.4c0-4.1,1.4-7.5,4.3-10.4
	C131.7,14.3,135.1,12.8,139.2,12.8 M111.8,12.8c2,0,4,0.4,5.7,1.1c1.8,0.8,3.3,1.8,4.7,3.2l-3.5,3.5c-1.9-1.9-4.2-2.9-6.9-2.9
	c-1.4,0-2.6,0.3-3.8,0.8c-1.2,0.5-2.2,1.2-3.1,2.1c-0.9,0.9-1.6,1.9-2.1,3.1c-0.5,1.2-0.8,2.5-0.8,3.8c0,1.4,0.3,2.6,0.8,3.8
	c0.5,1.2,1.2,2.2,2.1,3.1c0.9,0.9,1.9,1.6,3.1,2.1c1.2,0.5,2.5,0.8,3.9,0.8c2.7,0,5-1,6.9-2.9l3.5,3.4c-1.4,1.4-2.9,2.4-4.7,3.2
	c-1.8,0.8-3.7,1.1-5.7,1.1c-2,0-4-0.4-5.8-1.2c-1.8-0.8-3.4-1.8-4.7-3.2c-1.3-1.3-2.4-2.9-3.2-4.7c-0.8-1.8-1.2-3.7-1.2-5.8
	c0-2,0.4-3.9,1.2-5.7c0.8-1.8,1.8-3.4,3.2-4.7c1.3-1.3,2.9-2.4,4.7-3.2C107.8,13.2,109.7,12.8,111.8,12.8"/>
<g>
	<g>
		<g>
			<g>
				<defs>
					<path id="SVGID_1_" d="M14.4,7.7C6.6,11.7,1.5,16.7,1.5,23c25,2.6,26.2-4.6,36.5-11C30.4,8.6,22.4,7.6,14.4,7.7z"/>
				</defs>
				<use xlink:href="#SVGID_1_"  style="overflow:visible;fill:#E0D7D4;"/>
				<clipPath id="SVGID_2_">
					<use xlink:href="#SVGID_1_"  style="overflow:visible;"/>
				</clipPath>
				<polygon style="clip-path:url(#SVGID_2_);fill:#E0D7D4;" points="25.9,-9.6 -7,13.6 13.6,42.9 46.5,19.7 				"/>
			</g>
		</g>
	</g>
	<path style="fill:#E0D7D4;" d="M18.8,4.6c6-2.4,13.1-3.4,20.7-3.6C61.3,0.3,79,10.1,79,22.9C49.2,26,55.3,14.4,38.1,8
		C33,6.1,24.2,4.2,18.8,4.6"/>
	<g>
		<g>
			<g>
				<defs>
					<path id="SVGID_3_" d="M14.4,47.6c-7.8-4-12.9-9-12.9-15.3c25-2.6,26.2,4.6,36.5,11C30.4,46.7,22.4,47.7,14.4,47.6z"/>
				</defs>
				<use xlink:href="#SVGID_3_"  style="overflow:visible;fill:#E0D7D4;"/>
				<clipPath id="SVGID_4_">
					<use xlink:href="#SVGID_3_"  style="overflow:visible;"/>
				</clipPath>
				<polygon style="clip-path:url(#SVGID_4_);fill:#E0D7D4;" points="46.5,35.6 13.6,12.5 -7,41.7 25.9,64.8 				"/>
			</g>
		</g>
	</g>
	<path style="fill:#E0D7D4;" d="M18.8,50.6c6,2.4,13.1,3.4,20.7,3.6C61.3,54.9,79,45.1,79,32.4c-29.8-3.1-23.7,8.5-41,15
		C33,49.2,24.2,51.1,18.8,50.6"/>
</g>
</svg>
