<?xml version="1.0" encoding="utf-8"?>
<!-- Generator: Adobe Illustrator 19.0.0, SVG Export Plug-In . SVG Version: 6.00 Build 0)  -->
<svg version="1.1" id="Layer_1" xmlns="http://www.w3.org/2000/svg" xmlns:xlink="http://www.w3.org/1999/xlink" x="0px" y="0px"
	 viewBox="-28 134.6 553.2 525.4" style="enable-background:new -28 134.6 553.2 525.4;" xml:space="preserve">
<title>logo-levi9</title>
<path style="fill:#E0D7D4;" d="M184.8,420.2c0-0.8-0.3-1.5-0.8-2.1c-0.5-0.5-1.3-0.8-2-0.8c-1,0-2,0.6-2.4,1.5
	c-0.7,1.3-1,2.8-0.9,4.4c-0.1,1.5,0.2,2.9,0.9,4.2c0.5,0.9,1.6,1.5,2.6,1.4c0.7,0.1,1.5-0.2,2-0.8c0.5-0.7,0.8-1.5,0.8-2.3h5.4
	c0,2-0.9,3.8-2.4,5.1c-1.6,1.3-3.7,2-5.8,1.9c-2.5,0.1-4.9-0.8-6.6-2.5c-1.7-1.9-2.5-4.4-2.4-6.9c-0.1-2.6,0.7-5.1,2.4-7
	c1.6-1.8,3.9-2.8,6.2-2.7c2.1-0.1,4.2,0.5,6,1.7c1.5,1.1,2.4,2.9,2.4,4.7L184.8,420.2L184.8,420.2z M194.8,423.3
	c0-1.7-0.3-3.4-1-4.9c-0.6-1.6-1.6-3-2.8-4.2c-1.2-1.2-2.6-2.2-4.2-2.8c-1.6-0.6-3.2-1-4.9-0.9c-1.7,0-3.4,0.3-4.9,0.9
	c-1.5,0.6-2.9,1.6-4.1,2.8c-1.2,1.2-2.2,2.7-2.9,4.3c-1.3,3.1-1.3,6.7,0,9.8c0.7,1.6,1.6,3,2.8,4.2c1.2,1.2,2.6,2.2,4.2,2.8
	c1.6,0.7,3.2,1,4.9,1c1.7,0,3.4-0.3,4.9-1c1.6-0.7,3-1.6,4.3-2.9c1.2-1.2,2.1-2.6,2.8-4.1C194.5,426.7,194.8,425,194.8,423.3
	 M181.9,407.1c2.2,0,4.3,0.4,6.3,1.2c2,0.8,3.8,2,5.3,3.5c4.5,4.7,5.9,11.6,3.5,17.7c-0.8,1.9-2,3.6-3.5,5.1
	c-1.6,1.5-3.4,2.7-5.4,3.6c-2,0.8-4.1,1.3-6.2,1.3c-2.1,0-4.2-0.4-6.1-1.2c-2-0.8-3.7-2.1-5.3-3.6c-1.5-1.5-2.7-3.3-3.5-5.3
	c-0.8-1.9-1.2-4-1.2-6.1c0-2.1,0.4-4.3,1.3-6.2c0.8-2,2.1-3.8,3.6-5.4c1.4-1.5,3.2-2.7,5.1-3.4C177.7,407.4,179.8,407,181.9,407.1"
	/>
<path style="fill:#E0D7D4;" d="M-15.5,513.7c0,13.1,4.2,23.6,12.7,31.6s19.8,12.1,34,12.1h101.7v-80.1c0-14-3.1-24.7-9.2-32
	c-6.2-7.3-15.8-11.8-28.9-13.5c-2.6-0.4-5.3-0.6-7.9-0.6H26.6c-12.5,0-22.6,3.8-30.4,11.5c-7.8,7.7-11.6,17.7-11.7,30.2V513.7
	L-15.5,513.7L-15.5,513.7z M87.3,660H-28v-12H86.8c8.1,0,14.2-0.6,18.4-1.7c4.7-1.5,9.1-3.9,12.9-7.2c9.9-7.9,14.9-19.1,14.9-33.4
	v-36.3H31.7c-9.6,0-17.5-0.9-23.7-2.8c-6.5-2.1-12.5-5.4-17.7-9.8c-11.9-10.1-17.8-24.3-17.8-42.5v-42.1c0-15.3,5.2-28.2,15.6-38.6
	c9.4-9.7,22.1-14.6,38.1-14.6h61.4c18.2,0,32.3,5.2,42.3,15.5s15.1,24.5,15.1,42.6V605c0.1,8.9-1.8,17.8-5.6,25.9
	c-3.6,7.6-9,14.2-15.6,19.2c-4.8,3.5-10.2,6.1-16,7.6C101.1,659.3,94.2,660.1,87.3,660"/>
<path style="fill:#E0D7D4;" d="M388.7,368.7l-81.3-175.3h12.3L397,360.9l77.3-167.6h12.3l-81.6,175.3c-0.8,1.8-1.6,3.6-2.6,5.3
	c-1.9,3-5.8,3.8-8.8,1.9c-0.8-0.5-1.4-1.1-1.9-1.9c-0.4-0.6-0.8-1.2-1.1-1.8C390.2,371.7,389.6,370.5,388.7,368.7"/>
<path style="fill:#E0D7D4;" d="M10.5,372.6c-12.2-4.2-21-10.5-26.3-18.9s-8-19.9-7.9-34.5V134.6h12v184.5c0,10.4,1.8,18.8,5.3,25.3
	c3.6,6.5,9.4,11.3,17.5,14.4c8.1,3.1,18.9,4.6,32.3,4.6h88.8v12.1H43.8c-10,0-17.1-0.2-21.4-0.6C18.3,374.6,14.4,373.8,10.5,372.6"
	/>
<rect x="511" y="193.4" style="fill:#E0D7D4;" width="10.6" height="183.6"/>
<path style="fill:#E0D7D4;" d="M199.1,365.1c-21.8,0-39.5-17.7-39.5-39.5v-11.1l0.2-0.1l137.7-60.7v-2.1l0,0v-14.3
	c0-24-19.5-43.5-43.5-43.5h-61.8c-24,0-43.5,19.5-43.5,43.5v88.3c0,27.8,22.6,50.4,50.4,50.4h98.7v-10.9H199.1z M192.3,204.6H254
	c18,0,32.6,14.6,32.6,32.7v9.2l-127.1,56v-65.2C159.6,219.2,174.2,204.6,192.3,204.6z"/>
<circle style="fill:#E0D7D4;" cx="516.2" cy="165.8" r="9"/>
</svg>
