<?xml version="1.0" encoding="UTF-8" standalone="no"?>
<!-- Created with Inkscape (http://www.inkscape.org/) -->

<svg
   xmlns:dc="http://purl.org/dc/elements/1.1/"
   xmlns:cc="http://creativecommons.org/ns#"
   xmlns:rdf="http://www.w3.org/1999/02/22-rdf-syntax-ns#"
   xmlns:svg="http://www.w3.org/2000/svg"
   xmlns="http://www.w3.org/2000/svg"
   xmlns:sodipodi="http://sodipodi.sourceforge.net/DTD/sodipodi-0.dtd"
   xmlns:inkscape="http://www.inkscape.org/namespaces/inkscape"
   id="svg3355"
   version="1.1"
   inkscape:version="0.91 r"
   xml:space="preserve"
   width="1000"
   height="200"
   viewBox="0 0 1000 200"
   sodipodi:docname="logo-spicefactory.svg"><metadata
     id="metadata3361"><rdf:RDF><cc:Work
         rdf:about=""><dc:format>image/svg+xml</dc:format><dc:type
           rdf:resource="http://purl.org/dc/dcmitype/StillImage" /><dc:title></dc:title></cc:Work></rdf:RDF></metadata><defs
     id="defs3359"><clipPath
       clipPathUnits="userSpaceOnUse"
       id="clipPath3375"><path
         d="m 0,1000 1000,0 L 1000,0 0,0 0,1000 Z"
         id="path3377"
         inkscape:connector-curvature="0" /></clipPath></defs><sodipodi:namedview
     pagecolor="#ffffff"
     bordercolor="#666666"
     borderopacity="1"
     objecttolerance="10"
     gridtolerance="10"
     guidetolerance="10"
     inkscape:pageopacity="0"
     inkscape:pageshadow="2"
     inkscape:window-width="1366"
     inkscape:window-height="712"
     id="namedview3357"
     showgrid="false"
     inkscape:zoom="1"
     inkscape:cx="482.03537"
     inkscape:cy="125.077"
     inkscape:window-x="0"
     inkscape:window-y="30"
     inkscape:window-maximized="1"
     inkscape:current-layer="g3363" /><g
     id="g3363"
     inkscape:groupmode="layer"
     inkscape:label="spicefactory_logo"
     transform="matrix(1.25,0,0,-1.25,0,200)"><path
       d="m 41.738899,123.05863 24.028539,0 0,-24.02854 -24.028539,0 0,24.02854 z"
       style="fill:#bbb2a9;fill-opacity:1;fill-rule:nonzero;stroke:none"
       id="path3365"
       inkscape:connector-curvature="0" /><path
       d="m 17.71036,75.00062 24.028539,0 0,-24.02854 -24.028539,0 0,24.02854 z"
       style="fill:#999180;fill-opacity:1;fill-rule:nonzero;stroke:none"
       id="path3367"
       inkscape:connector-curvature="0" /><path
       d="m 65.642091,50.72232 24.028539,0 0,-24.02854 -24.028539,0 0,24.02854 z"
       style="fill:#c8c0a2;fill-opacity:1;fill-rule:nonzero;stroke:none"
       id="path3369"
       inkscape:connector-curvature="0" /><g
       id="g3371"
       transform="matrix(0.92849565,0,0,0.92849565,-63.956404,-388.78295)"><g
         id="g3373"
         clip-path="url(#clipPath3375)"
         style="fill:#c9c0b8;fill-opacity:1"><g
           id="g3379"
           transform="translate(256.3056,487.9086)"
           style="fill:#c9c0b8;fill-opacity:1"><path
             d="m 0,0 c 0,-4.448 -1.213,-8.087 -3.235,-11.322 -2.022,-3.235 -5.257,-6.066 -9.3,-7.683 -4.044,-1.618 -8.896,-2.831 -14.557,-2.831 -4.448,0 -8.492,0.405 -11.727,0.809 -3.235,0.405 -6.47,1.618 -9.705,3.235 l 0,16.579 c 3.64,-2.022 7.279,-3.235 11.323,-4.448 4.043,-1.213 7.278,-1.618 10.513,-1.618 2.831,0 4.852,0.405 6.066,1.618 1.213,1.213 2.021,2.022 2.021,3.639 0,0.809 -0.404,1.618 -0.808,2.426 -0.405,0.809 -1.213,1.618 -2.427,2.022 -1.213,0.405 -4.043,2.022 -9.3,4.448 -4.448,2.022 -8.087,4.044 -10.109,6.066 -2.022,2.021 -4.044,4.043 -4.852,6.469 -0.809,2.427 -1.618,5.257 -1.618,8.896 0,6.47 2.426,11.323 6.874,14.962 4.448,3.639 10.918,5.257 19.005,5.257 7.279,0 14.557,-1.618 21.836,-4.853 L -5.661,29.114 c -6.47,2.831 -12.131,4.448 -16.579,4.448 -2.426,0 -4.044,-0.404 -5.257,-1.213 -1.213,-0.809 -2.021,-1.213 -2.021,-2.426 0,-1.213 0.808,-2.426 2.021,-3.639 1.213,-1.214 5.257,-3.235 11.322,-6.066 6.066,-2.83 10.11,-5.661 12.536,-8.491 C -1.213,8.896 0,4.448 0,0"
             style="fill:#c9c0b8;fill-opacity:1;fill-rule:nonzero;stroke:none"
             id="path3381"
             inkscape:connector-curvature="0" /></g><g
           id="g3383"
           transform="translate(287.8459,504.757)"
           style="fill:#c9c0b8;fill-opacity:1"><path
             d="m 0,0 3.235,0 c 2.83,0 4.852,0.809 6.874,2.426 2.022,1.618 2.426,3.639 2.426,6.47 0,4.852 -2.426,6.874 -7.683,6.874 L 0,15.77 0,0 Z m 31.81,9.3 c 0,-7.683 -2.426,-13.748 -6.874,-17.792 -4.448,-4.043 -10.918,-6.469 -19.41,-6.469 l -5.256,0 0,-23.049 -18.601,0 0,69.011 23.857,0 c 8.896,0 15.366,-2.022 19.814,-5.661 4.448,-3.504 6.47,-9.165 6.47,-16.04"
             style="fill:#c9c0b8;fill-opacity:1;fill-rule:nonzero;stroke:none"
             id="path3385"
             inkscape:connector-curvature="0" /></g><path
           d="m 333,535.893 19.005,0 0,-69.011 -19.005,0 0,69.011 z"
           style="fill:#c9c0b8;fill-opacity:1;fill-rule:nonzero;stroke:none"
           id="path3387"
           inkscape:connector-curvature="0" /><g
           id="g3389"
           transform="translate(400.124,521.7403)"
           style="fill:#c9c0b8;fill-opacity:1"><path
             d="m 0,0 c -4.448,0 -8.087,-2.022 -10.513,-5.661 -2.427,-3.639 -3.64,-8.492 -3.64,-14.962 0,-13.343 5.257,-19.813 15.366,-19.813 3.235,0 6.066,0.404 8.896,1.213 2.831,0.808 5.661,2.022 8.492,3.235 l 0,-15.771 c -5.661,-2.426 -12.131,-3.639 -19.814,-3.639 -10.514,0 -18.601,3.235 -23.857,9.301 -5.257,6.065 -8.492,14.152 -8.492,25.474 0,7.279 1.213,13.344 4.044,19.005 2.83,5.662 6.469,9.705 11.726,12.536 5.257,2.83 10.918,4.448 17.792,4.448 7.683,0 14.557,-1.618 21.431,-4.853 L 15.77,-4.044 C 13.344,-2.831 10.513,-2.022 8.087,-0.809 5.661,0.404 2.831,0 0,0"
             style="fill:#c9c0b8;fill-opacity:1;fill-rule:nonzero;stroke:none"
             id="path3391"
             inkscape:connector-curvature="0" /></g><g
           id="g3393"
           transform="translate(475.6051,466.8817)"
           style="fill:#c9c0b8;fill-opacity:1"><path
             d="m 0,0 -41.245,0 0,69.011 41.245,0 0,-14.961 -22.24,0 0,-10.918 20.623,0 0,-14.961 -20.623,0 0,-12.94 22.24,0 L 0,0 Z"
             style="fill:#c9c0b8;fill-opacity:1;fill-rule:nonzero;stroke:none"
             id="path3395"
             inkscape:connector-curvature="0" /></g><g
           id="g3397"
           transform="translate(500.2712,466.8817)"
           style="fill:#c9c0b8;fill-opacity:1"><path
             d="m 0,0 -8.087,0 0,69.011 38.819,0 0,-7.278 -30.732,0 0,-25.475 28.71,0 0,-7.279 L 0,28.979 0,0 Z"
             style="fill:#c9c0b8;fill-opacity:1;fill-rule:nonzero;stroke:none"
             id="path3399"
             inkscape:connector-curvature="0" /></g><g
           id="g3401"
           transform="translate(576.9654,495.9958)"
           style="fill:#c9c0b8;fill-opacity:1"><path
             d="m 0,0 -8.087,21.431 c -1.213,2.831 -2.022,6.066 -3.235,10.109 -0.809,-3.235 -1.618,-6.47 -2.831,-10.109 L -22.24,0 0,0 Z m 10.918,-29.114 -8.492,21.835 -27.901,0 -8.491,-21.835 -8.088,0 27.497,69.416 6.874,0 27.092,-69.416 -8.491,0 z"
             style="fill:#c9c0b8;fill-opacity:1;fill-rule:nonzero;stroke:none"
             id="path3403"
             inkscape:connector-curvature="0" /></g><g
           id="g3405"
           transform="translate(637.8895,529.8276)"
           style="fill:#c9c0b8;fill-opacity:1"><path
             d="m 0,0 c -7.683,0 -13.748,-2.426 -18.196,-7.683 -4.448,-5.257 -6.47,-12.131 -6.47,-21.027 0,-8.896 2.022,-16.174 6.47,-21.027 4.448,-4.852 10.109,-7.278 18.196,-7.278 4.852,0 10.513,0.809 16.579,2.426 l 0,-6.874 c -4.852,-1.618 -10.918,-2.831 -17.792,-2.831 -10.109,0 -18.196,3.235 -23.453,9.301 -5.257,6.065 -8.492,14.961 -8.492,26.283 0,7.279 1.213,13.344 4.044,18.601 2.83,5.257 6.47,9.705 11.726,12.535 5.257,2.831 10.918,4.448 17.792,4.448 7.279,0 13.749,-1.213 19.005,-4.044 L 16.175,-4.044 C 10.513,-1.213 5.257,0 0,0"
             style="fill:#c9c0b8;fill-opacity:1;fill-rule:nonzero;stroke:none"
             id="path3407"
             inkscape:connector-curvature="0" /></g><g
           id="g3409"
           transform="translate(693.1524,466.8817)"
           style="fill:#c9c0b8;fill-opacity:1"><path
             d="m 0,0 -8.087,0 0,61.733 -21.836,0 0,7.278 51.624,0 0,-7.278 L 0,61.733 0,0 Z"
             style="fill:#c9c0b8;fill-opacity:1;fill-rule:nonzero;stroke:none"
             id="path3411"
             inkscape:connector-curvature="0" /></g><g
           id="g3413"
           transform="translate(732.78,501.5222)"
           style="fill:#c9c0b8;fill-opacity:1"><path
             d="m 0,0 c 0,-9.3 2.022,-16.579 6.065,-21.431 4.044,-4.853 9.705,-7.279 17.388,-7.279 7.683,0 13.344,2.426 17.388,7.279 4.043,4.852 6.065,12.131 6.065,21.431 0,9.3 -2.022,16.579 -5.661,21.027 -3.639,4.448 -9.705,7.278 -17.388,7.278 -7.683,0 -13.344,-2.426 -17.387,-7.278 C 2.426,16.174 0,9.3 0,0 m 55.263,0 c 0,-10.918 -2.831,-19.814 -8.492,-26.284 -5.661,-6.469 -13.344,-9.704 -23.453,-9.704 -10.109,0 -18.196,3.235 -23.453,9.3 -5.256,6.065 -8.491,14.961 -8.491,26.284 0,11.322 2.83,20.218 8.491,26.283 5.661,6.066 13.344,9.301 23.858,9.301 10.109,0 17.792,-3.235 23.453,-9.301 C 52.837,19.814 55.263,10.918 55.263,0"
             style="fill:#c9c0b8;fill-opacity:1;fill-rule:nonzero;stroke:none"
             id="path3415"
             inkscape:connector-curvature="0" /></g><g
           id="g3417"
           transform="translate(813.9221,502.3309)"
           style="fill:#c9c0b8;fill-opacity:1"><path
             d="m 0,0 10.918,0 c 5.661,0 9.704,1.213 12.535,3.235 2.831,2.022 4.044,5.661 4.044,10.109 0,4.448 -1.213,7.683 -4.044,9.705 -2.831,2.022 -6.874,3.235 -12.94,3.235 L 0,26.284 0,0 Z m 0,-6.739 0,-28.71 -8.087,0 0,69.011 19.005,0 c 8.491,0 14.961,-1.617 19.005,-4.852 4.043,-3.235 6.065,-8.087 6.065,-14.557 0,-9.301 -4.448,-15.366 -13.748,-18.601 l 19.005,-31.136 -9.705,0 -16.579,28.71 C 14.961,-6.739 0,-6.739 0,-6.739"
             style="fill:#c9c0b8;fill-opacity:1;fill-rule:nonzero;stroke:none"
             id="path3419"
             inkscape:connector-curvature="0" /></g><g
           id="g3421"
           transform="translate(885.764,501.1178)"
           style="fill:#c9c0b8;fill-opacity:1"><path
             d="m 0,0 18.601,34.775 8.896,0 -23.049,-42.458 0,-26.688 -8.087,0 0,26.688 -23.049,42.863 8.896,0 L 0,0 Z"
             style="fill:#c9c0b8;fill-opacity:1;fill-rule:nonzero;stroke:none"
             id="path3423"
             inkscape:connector-curvature="0" /></g></g></g></g></svg>