<?xml version="1.0" encoding="utf-8"?>
<!-- Generator: Adobe Illustrator 19.0.0, SVG Export Plug-In . SVG Version: 6.00 Build 0)  -->
<svg version="1.1" id="Layer_1" xmlns="http://www.w3.org/2000/svg" xmlns:xlink="http://www.w3.org/1999/xlink" x="0px" y="0px"
	 viewBox="0 0 510.2 425.2" style="enable-background:new 0 0 510.2 425.2;" xml:space="preserve">
<style type="text/css">
	.st0{fill:#AFAAA3;stroke:#AFAAA3;stroke-width:0.216;stroke-miterlimit:2.6131;}
	.st1{fill-rule:evenodd;clip-rule:evenodd;fill:#8C8A88;}
	.st2{fill-rule:evenodd;clip-rule:evenodd;fill:#AFAAA3;}
</style>
<g>
	<path class="st0" d="M455.2,241.9c0.7,0,3.9,0.1,3.9,3.4c0,1.7-1.3,2.6-2.7,2.9V248c0.6,0.1,1.1,0.7,1.4,1.4l2.1,4.9h-1.8l-2.1-4.6
		c-0.3-0.6-0.5-1-1.5-1h-1.4v5.6h-1.6v-12.4H455.2L455.2,241.9z M453.2,247.2L453.2,247.2h1.5c1.8,0,2.6-1,2.6-2c0-0.7-0.2-2-2.3-2
		h-1.9V247.2L453.2,247.2z M455.4,237.5L455.4,237.5c5.8,0,10.5,4.7,10.5,10.5c0,5.8-4.7,10.5-10.5,10.5c-5.8,0-10.5-4.7-10.5-10.5
		C444.9,242.2,449.6,237.5,455.4,237.5L455.4,237.5z M455.4,257.1L455.4,257.1c5.1,0,9.1-4,9.1-9.1c0-5.1-4-9.1-9.1-9.1
		c-5.1,0-9.1,4-9.1,9.1C446.3,253.1,450.3,257.1,455.4,257.1L455.4,257.1z"/>
	<path class="st1" d="M95.5,160.4c-1.7-1.5-2.6-3.3-3.2-4.8c-0.5-1.5-1.2-3.4-1.2-5c0-7.3,4.3-12.7,8.9-15.2
		c2.1-1.1,2.9-1.9,3.2-2.3c-0.2-0.1-0.3-0.1-0.5-0.1c-6.2,0-9.4-2.4-11-4.5c-1.5-1.9-2.2-4.4-2.2-7.1c0-1.3,0.2-2.7,0.6-4.1
		c1.8-2.9,3.4-2.1,4.4-0.6c0.7,0.9,5.1,4.1,10.6,4.6c4,0.4,6.2,2.3,7.3,3.9c1.3,1.8,1.8,4,1.8,5.9c0,0.8-0.1,1.5-0.2,2.1
		c-0.6,2.4-3.2,4.7-6.8,7.5l-2,1.7c-3,2.6-4.6,5.5-4.6,8c0,0.6,0.1,1.2,0.3,1.8c0.1,0.2,0.2,0.4,0.3,0.7c1.3,2.3,5.1,3.7,10.6,1.8
		c2.5-0.9,7.4-3.9,10.4-6.9c3.5-3.5,8.2-4.3,12.6-4.7c3.9-0.3,6.3-1.2,8-3.1c5-5.6,9.8-6.4,14.3-6.7c1.7-0.1,1.8-0.3,2-0.6
		c2.5-3.3,5-5,7.3-6.1c1.7-0.8,3.3-1.1,4.6-1.4l1.6-0.4l0.4-0.1c2.5-0.8,4.4-1.5,9.5-4.9l0.2-0.1l0,0l0.2-0.1l0,0l0.2-0.1l0,0
		l0.2-0.1l0,0l0.2-0.1l0,0l0.2-0.1l0,0l0.2-0.1l0,0l0.2-0.1l0,0l0.2-0.1l0,0l0.2-0.1l0,0l0.2-0.1l0,0l0.2-0.1l0.2-0.1l0,0l0.2-0.1
		l0,0l0.2-0.1l0,0l0.2-0.1l0,0l0.2-0.1l0,0l0.2,0l0,0l0.2,0l0,0l0.2,0l0,0l0.2,0l0,0l0.2,0l0,0l0.2,0l0,0l0.2,0l0,0l0.2,0l0,0l0.2,0
		l0,0l0.2,0l0,0l0.2,0l0.2,0h0l0.2,0h0.2h0l0.2,0l0,0h0c0.1,0,0.3,0,0.4,0l0.2,0l0,0l0.2,0l0,0l0.2,0l0,0l0.2,0l0,0l0.2,0l0,0l0.2,0
		l0,0l0.2,0l0,0l0.2,0l0,0l0.2,0l0,0l0.2,0l0,0c0.3,0.1,0.6,0.1,0.9,0.2l0.2,0l0,0c0.3,0.1,0.6,0.2,0.9,0.2l0.2,0.1l0,0
		c0.6,0.2,1.1,0.4,1.7,0.6l0.2,0.1l0.2,0.1c10.9-14.8,28.1-24.6,47.6-25.5v0c0.3,0,0.6,0,1,0c0.3,0,0.6,0,1,0c0.3,0,0.6,0,1,0
		c0.3,0,0.6,0,1,0c0.3,0,0.6,0,1,0c0.3,0,0.6,0,0.9,0h0c0.3,0,0.6,0,0.9,0l0,0c18.9,1.1,35.6,10.7,46.3,24.9c1.5-0.5,3.2-0.9,4.9-1
		l0,0l0.2,0l0.2,0l0,0l0,0l0.2,0l0,0l0.2,0l0,0l0.2,0h0l0.2,0h0l0.2,0l0.2,0l0,0l0.2,0l0,0l0.2,0l0,0l0.2,0l0,0l0.2,0l0,0
		c0.4,0,0.8,0.1,1.2,0.2l0.2,0l0,0l0.2,0l0,0l0.2,0l0,0l0.2,0l0,0l0.2,0.1l0,0l0.2,0.1l0,0l0.2,0.1l0,0l0.2,0.1l0.2,0.1l0,0l0.2,0.1
		l0,0l0.2,0.1l0,0c0.3,0.1,0.7,0.3,1,0.5l0,0l0.2,0.1l0,0l0.2,0.1l0,0l0.2,0.1l0,0l0.2,0.1v0l0.2,0.1c3.5,2.4,5.5,3.4,7.3,4.1
		c0.8,0.3,1.5,0.5,2.3,0.8l0.4,0.1l1.6,0.4c0.9,0.2,1.9,0.4,2.9,0.8c2.7,0.9,5.9,2.6,9,6.7c0.2,0.3,0.3,0.4,2.1,0.6
		c4.5,0.3,9.3,1.1,14.3,6.7c1.7,1.9,4.1,2.9,8,3.1c4.5,0.4,9.2,1.2,12.6,4.7c3,2.9,7.8,6,10.4,6.9c5.5,1.9,9.2,0.5,10.5-1.8
		c0.3-0.5,0.5-1,0.6-1.6c0-0.3,0.1-0.6,0.1-0.9c0-2.5-1.6-5.4-4.6-8l-0.4-0.3l-1.7-1.4c-3.6-2.8-6.2-5-6.8-7.5
		c-0.2-0.6-0.2-1.3-0.2-2.1c0-1.9,0.5-4,1.8-5.9c1.1-1.6,3.3-3.5,7.3-3.9c5.5-0.5,10-3.7,10.6-4.6c1-1.5,2.7-2.3,4.4,0.6
		c0.4,1.4,0.6,2.8,0.6,4.1c0,2.7-0.8,5.2-2.2,7.1c-1.6,2.1-4.8,4.5-11,4.5c-0.1,0-0.3,0.1-0.5,0.1c0.3,0.4,1.1,1.2,3.2,2.3
		c4.6,2.5,8.8,7.9,8.9,15.2c0,1.6-0.7,3.5-1.2,5c-0.5,1.3-1.3,2.9-2.6,4.3c-0.2,0.2-0.3,0.3-0.5,0.5c-2.6,2.4-6.9,4.3-14,3.9
		c-0.7,0-1.5-0.1-2.3-0.2c-0.2,3.6-1.2,7.9-2.6,10.1c-0.4,0.7-0.5,1.1-0.5,1.4c0,0.1,0,0.1,0,0.2c0,0,3.2,1.9,3.2,1.9l0.5,0.3
		c0,0,0.3,0.1,0.3,0.2c0,0,1.1-0.1,1.1-0.1l0.2,0l0,0c2-0.2,5-1.1,6.2,2.4c0.3,0.9,0.5,1.8,0.7,2.5c0.4,1.5,0.7,2.6,2,3.6
		c0,0,0.6-0.6,1.4-1.2c0.6-0.5,1.2-1.1,1.7-1.5c0.9-0.9,2.6-0.5,3.8,0c1.2,0.5,2.7,1.5,3.8,2.1c1.1,0.6,1.7,1.4,2,2.3
		c0.3,0.9,1.1,1.5,2.2,2.1c1.1,0.6,2.7,2.6,2.7,5.3c0,0.4,0,0.8,0.2,1.1c0.1,0.2,0.2,0.5,0.3,0.8c1.5,3.1,0.3,4.7-0.6,5.3
		c-1.2,0.9-3.3,1.3-5.3,0.9l0,0.5l-2.9-0.4c-1.1-0.1-2.6,0.1-3.5,0.3l-0.2,0.1c-2.1,0.4-4.8-0.3-6.3-2.8c-0.1-0.1-0.1-0.2-0.2-0.3
		c-0.8-1.4-2-2.6-2.6-3c-0.9,0.2-2.2,0.6-3.8,0.4c-1.5-0.1-3.2-0.7-4.9-2.2c-0.3-0.2-0.6-0.5-0.9-0.8c-2.6-2.6-5.9-3.1-8.1-2.8
		l-1.3,0.2c-2.6,0.5-5.9,1.1-8.9-0.8c-0.8-0.5-1.8-0.9-2.9-1.4c-2.7-1.2-5.6-2.4-6-5c-0.1-0.5-0.6-1.3-1-2c-0.4-0.6-0.8-1.2-1.1-1.9
		c-0.3-0.7-0.5-1.4-0.5-2.1c-0.9,0.2-1.8,0.3-2.7,0.3c-0.3,0-0.6,0-1-0.1l-1.2-0.2c-2-0.3-6.2-1-7.5-0.5c-2.7,1-11,1.4-13.3,0.9
		c0,0-0.8-0.2-1.6-0.4c-0.8,0.8-1.6,1.5-2.5,2.2c1.7,0.1,3.2-0.1,4.2,0.1l2.1,0.6c0.7-0.2,2.3-0.2,3.3-0.1l2.5,0.2l2.8,0.3
		c1.4,0.3,2.8,0.9,2.6,3.5c-0.1,0.8-0.6,2-1.2,2.7c-0.4,0.4-1.9,2.6-2.2,3.2l-0.1,0.2c-0.6,1.2-1.4,2.3-3.9,2.3c-0.3,0-0.7,0-0.9,0
		c-0.1,0.2-0.3,0.6-0.3,0.6c-0.6,1.3-1.4,3-2.9,4.1l-0.4,0.3c-1.2,0.9-3.3,2.3-6.4,1.2l-1.1-0.4c-2.7-1-6.9-2.5-9-3.6l-0.3-0.2
		c-2-1.1-2.4-1.3-3.1-1.2l-0.4,0.1c-1.5,0.2-4.3,0.6-6.3-2.6l-0.2-0.3c-9.3,12.7-23.2,21.8-39.2,24.8l-0.1,0
		c-0.5,0.1-1.1,0.2-1.7,0.3l-0.2,0l-0.8,0.1c-0.3,0-0.6,0.1-0.9,0.1l-0.5,0.1l-0.8,0.1l-0.6,0.1c-0.4,0-0.8,0.1-1.2,0.1l-0.4,0
		c-0.4,0-0.7,0-1.1,0.1l-0.4,0c-0.4,0-0.8,0-1.2,0l-0.4,0c-0.4,0-0.9,0-1.3,0c-0.4,0-0.9,0-1.3,0l-0.4,0c-0.4,0-0.8,0-1.2,0l-0.5,0
		c-0.3,0-0.7,0-1-0.1l-0.4,0c-0.4,0-0.8-0.1-1.2-0.1l-0.6-0.1l-0.8-0.1l-0.4,0c-0.4,0-0.8-0.1-1.2-0.2l-0.5-0.1l-0.9-0.1l-0.4-0.1
		c-0.3-0.1-0.7-0.1-1-0.2l-0.7-0.1l-0.4-0.1c-0.5-0.1-1-0.2-1.5-0.3l-0.1,0l-0.8-0.2l-0.4-0.1c-0.5-0.1-1-0.3-1.4-0.4l-0.2,0
		c-14.1-4.1-26.1-12.9-34.2-24.7l-1.1,1.6c-1.9,3.2-4.8,2.9-6.3,2.6l-0.4-0.1c-0.7-0.1-1.2,0.1-3.1,1.2l-0.3,0.2
		c-2.1,1.1-6.2,2.6-9,3.6l-1.1,0.4c-3.1,1.1-5.2-0.3-6.4-1.2l-0.4-0.3c-1.5-1-2.3-2.8-2.9-4.1c0,0-0.2-0.4-0.3-0.6
		c-0.2,0-0.6,0-0.9,0c-2.5,0-3.3-1.1-3.9-2.3l-0.1-0.2c-0.3-0.7-1.8-2.8-2.2-3.2c-0.7-0.7-1.2-1.8-1.2-2.7c-0.3-2.7,1.2-3.2,2.6-3.5
		l2.8-0.3l2.5-0.2c0.9-0.1,2.6-0.1,3.2,0.1l2.1-0.6c1-0.3,2.5-0.1,4.2-0.1c-0.9-0.7-1.7-1.4-2.5-2.2c-0.8,0.2-1.6,0.4-1.6,0.4
		c-2.3,0.5-10.7,0.1-13.3-0.9c-1.3-0.5-5.5,0.2-7.6,0.5l-1.2,0.2c-1.3,0.2-2.5,0.1-3.7-0.2c-0.1,1.5-0.9,2.9-1.6,4.1
		c-0.4,0.7-0.9,1.5-1,2c-0.4,2.6-3.2,3.8-6,5c-1.1,0.4-2.1,0.9-2.9,1.4c-3,1.8-6.3,1.2-8.9,0.8l-1.3-0.2c-2.1-0.3-5.5,0.2-8.1,2.8
		c-3.9,3.9-7.8,3.1-9.6,2.6c-0.6,0.3-1.8,1.6-2.6,3c-1.5,2.7-4.3,3.5-6.5,3l-0.2-0.1c-0.9-0.2-2.3-0.5-3.5-0.3l-2.9,0.4l0-0.5
		c-2,0.3-4.1,0-5.3-0.9c-0.9-0.7-2.1-2.2-0.6-5.3c0.4-0.7,0.5-1.3,0.5-2c0-2.7,1.6-4.7,2.7-5.3c1.2-0.6,1.9-1.2,2.2-2.1
		c0.3-0.9,0.9-1.7,2-2.3c1.1-0.6,2.6-1.7,3.8-2.1c1.2-0.5,2.9-0.9,3.8,0c0.9,0.9,3,2.7,3,2.7c1.9-1.5,1.8-3.2,2.8-6.1
		c1.3-3.6,4.3-2.6,6.2-2.4l0.2,0c0,0,1.1,0,1.1,0.1c0.1,0,0.3-0.2,0.3-0.2l0.5-0.3c0,0,3.1-1.8,3.2-1.9c0,0,0-0.1,0-0.2
		c0-0.2-0.1-0.7-0.5-1.4c-1.4-2.2-2.4-6.5-2.6-10.1c-0.5,0.1-1,0.1-1.5,0.1C102.7,164.8,98.2,162.9,95.5,160.4L95.5,160.4z
		 M383,177.9l-0.2,0L383,177.9L383,177.9z M306,117.8c-0.4-0.1-0.8-0.1-1.2-0.2L306,117.8L306,117.8z M309.2,118.9
		c-0.3-0.2-0.6-0.3-1-0.5L309.2,118.9L309.2,118.9z M255.1,218.4c0.3,0,0.6-0.1,0.9-0.1L255.1,218.4L255.1,218.4z M251.9,218.7
		c0.4,0,0.8-0.1,1.2-0.1L251.9,218.7L251.9,218.7z M250.5,218.8c0.4,0,0.7,0,1.1-0.1L250.5,218.8L250.5,218.8z M248.9,218.9
		c0.4,0,0.8,0,1.2,0L248.9,218.9L248.9,218.9z M245.8,218.9c0.4,0,0.9,0,1.3,0c0.4,0,0.9,0,1.3,0L245.8,218.9L245.8,218.9z
		 M244.3,218.8c0.4,0,0.8,0,1.2,0L244.3,218.8L244.3,218.8z M242.8,218.8c0.3,0,0.7,0,1,0.1L242.8,218.8L242.8,218.8z M241.2,218.6
		c0.4,0,0.8,0.1,1.2,0.1L241.2,218.6L241.2,218.6z M238.2,218.3c0.4,0.1,0.8,0.1,1.2,0.2L238.2,218.3L238.2,218.3z M235.3,217.8
		c0.3,0.1,0.7,0.1,1,0.2L235.3,217.8L235.3,217.8z"/>
	<path class="st2" d="M191.6,139.9c-0.4-0.8-0.3-1.6,0.2-2.4c1-1.5,1.9,0.1,1.9,0.1c3.5,4.8,0.9,12.1,0.9,12.1
		C194.3,143.1,191.6,139.9,191.6,139.9L191.6,139.9z M221.6,172c0.1-1.4,0.2-4.6-1.3-5.7c-0.5-0.4-2.6-2.7-2.6-2.7
		c-0.3-0.6-0.6-0.6-0.6-0.6c-0.4,0-1,1-1,1c-1.5,2.9-3,2.5-3,2.5c0-0.5,0.3-1.1,0.3-1.1c0.4-0.8,2.2-4.2,2.2-4.2
		c0.2-0.5,0.4-1.2,0.4-1.2c1.5-2.2,2.8-0.5,2.8-0.5c0.6,1.2,3.9,5.1,3.9,5.1c0.7,0.9,0.8,1.8,0.8,1.8
		C224.3,171.6,221.6,172,221.6,172L221.6,172L221.6,172z M213,185.5c-0.6,0-0.8-0.2-0.7-0.9c0.4-1.9,1.9-2.7,1.9-2.7
		c2.8-1.7,3.2,0,3.2,0c0.5,3-1.9,3.4-1.9,3.4C215.1,185.5,213,185.5,213,185.5L213,185.5L213,185.5z M89.5,194.3
		c0,0,0.6,0.5,0.3,1.4c0,0-1.6,4.3-1.5,5.8c0,0-3.5,0.6-4-1.1c0,0-0.1-0.7,0.5-1.6c0,0,0.6-0.9,0.7-2.6c0,0-0.1-4.2,2.6-3.1
		C88.7,193.4,89.1,193.9,89.5,194.3L89.5,194.3L89.5,194.3z M93.8,187.4c0.6-0.5,1.4-0.8,2.2-0.6c1.7,0.4,0.7,1.8,0.7,1.8
		c-0.7,1.3-2.9,3.5-2.9,3.5c-2,1.5-3.6-0.3-3.6-0.3c-1.5-1.5,0.4-2.2,0.4-2.2C91.7,189.2,93.8,187.4,93.8,187.4L93.8,187.4
		L93.8,187.4z M114.3,161.4c0,0-0.6,6.2,2.1,11.6c0,0,2.1,2.9-0.1,4.8l-4.2,2.5c0,0-0.6,0.4-2.5,0.3c0,0-2.6-0.6-3.5,0.5
		c0,0-0.8,2.2-1.7,4.1c0,0-1.9,4.4-5.1,5.9c0,0-2.5,0.6-3.3,2.8c0,0-0.8,1.6-2.5,1.6c0,0-1.2,0.4-2,3.1c0,0-0.4,1.8-0.4,3.1
		c0,0,2.1-0.3,3.5,0.2c0,0,3.4,1.1,4.9-1.6c0,0,2.9-5,5-4.2c0,0,4.3,1.4,7.4-1.7c0,0,4.2-4.6,10.1-3.6c0,0,6.7,1.3,8.7-0.2
		c0,0,4.2-2.2,5.8-2.7c0,0,1.9-0.6,2.1-2.7c0,0,1.2-3,2-4l-3.2,0c0,0-2.9,4.8-7.8,6.3c0,0-2.7,1.1-8,0.2c0,0-7.7-1.7-14.5,5.6
		c0,0-0.9,1.3-2.2,0.8c0,0,3.7-6.4,12-7.9c0,0,2.7-0.6,4.9-0.2c0,0,11.1,0.3,16.2-10.6c0,0-0.6-9.3,1.9-11.5c0,0,0.9-0.3,0.8,1.5
		c0,0-1.7,9.7,1.5,11.6c0,0,1.8,1.4,5.2,0.9c0,0,5.1-1.2,9.3-0.5c0,0,6.4,1.5,12,0.8c0,0-1.4-2.2-1.2-4.8c0,0,0.8-1.9,1.7-0.7
		c0,0,2.1,7,7.9,9.1c0,0,5.2,1.9,5.1,8.5c0,0-0.8,0.9-7.7,3.3c0,0-2.6,0.8-3.4-1.1c0,0-3.3-7.1-6.2-6.9l-5.4,0.4c0,0-1.9,0.5-0.5,2
		c0,0,1.9,2.5,2.6,3.9c0,0,0.2,1.3,2,1c0,0,2.4-1.2,3.8,3.3c0,0,1.2,2.3,3.4,3c0,0,2,0.7,3.8-0.4c0,0,9-3.3,10.5-4.5
		c0,0,1.9-1.1,3.5-0.6c0,0,2.7,0.6,3.8-1.5l2.8-4.3c0,0,0.6-1.1,0.5-2.4c0,0,0.3-1.3-0.9-2.7c0,0-1-1.1-1.2-1.9l-2-4.7
		c0,0-0.8-1.2-1.7-1.8l-2.6,0.2c0,0,1.8,4.6,3.2,6.5c0,0,1.8,2.8,1.7,4.5c0,0-0.1,1.2-0.6,1.7c0,0-0.6,1-0.9,1.5
		c0,0-0.8,1.7-1.5,2.1c0,0-1.1,0.7-1.4,0.7c0,0-0.5,0.1-0.1-0.7c0,0,1.5-3.1,1.4-4.8c0,0,0.3-1.7-0.9-2.8c0,0-2.9-4.5-3.3-5.9
		c0,0-0.9-1.8-1.4-2.1c0,0-1-1.3,0.6-1.9c0,0,4-0.9,4.8-1.4c0,0,1.9-0.6,3.2-4.6c0,0,1.7-4.7,1.7-7.6c0,0,3.4,6.6-2,13.3
		c0,0,4.3,1.3,6.1,0c0,0,5.4-0.8,6.4-1.1c0,0,1.3-0.3,0.6,0.6c0,0-1.6,2.3-1.8,3.8c0,0-0.1,1.2-1.1,1.9c0,0-3,2.1-3.3,4.2
		c0,0-0.7,2,0.7,1.5c0,0,1.8-0.8,2.5,0c0,0,0.2,0.1-0.5,0.9c0,0-1.8,1.6-2,3.7c0,0,0.3,2.5,1,3.3c0,0,0.8,1.1,2.1,0.8
		c0,0,0.3-0.3,1-0.1c0,0,0.6,0,2.3-0.6c0,0,2.6-0.7,3.4-1c0,0,3.2-1.2,4.9-1.1c0,0,1-0.1,2.4,0.2c0,0,4.1,0.5,6.8-2.5
		c0,0,2.1-1.6,2.8,0c0,0,4.9,6.6,12.9,4.9c0,0-6.4-2.6-8-6.2c0,0-0.2-3-3.6-7.2c0,0-1-1.4,0-1.8c0,0,0.6-0.4,1.8,0.8
		c0,0,3.2,3,4.3,5.8c0,0,3.9,5.9,9.6,3.9c0,0-4.5-1.7-6.5-4.9c0,0-1.3-4.3-5.6-7.6c0,0-0.2-4.9-2.2-7.6c0,0-1-4.6-1.3-5.6
		c0,0-1.1-4-1.1-5.1c0,0,0.4-5.2-3-9.3c0,0-2.3-4.4-5.8-7.4c0,0-2.7-3.3-4.7-5.3c0,0-2.6-3.1-8.3-7.1c0,0-2.6-1.9-4.5-3.9
		c0,0-10.1-7.3-17.4-1.4c0,0-5,3.4-9.2,4.5c0,0-8.6,1-12.3,7c0,0-0.3,1.1-3.8,1.5c0,0-7.7-0.9-13.3,6.6c0,0-2.6,2.6-7.8,3.2
		c0,0-8.5-0.9-14,5.6c0,0-13.9,12.1-22.2,4.3c0,0-4.3-4.1,0.6-11.4c0,0,3.1-3.8,8.4-7.7c0,0,4.3-3,2.3-7.7c0,0-1-4.6-7.5-4.7
		c0,0-8.1-1.6-11.4-5.7c0,0-3.7,12.9,10.7,12.7c0,0,3.7,0.6,2.4,3.5c0,0-1.8,2.5-4.3,3.5c0,0-4.3,1.9-6.3,8.2c0,0-4.4,11,6.3,15.3
		C105.3,162.6,110.1,162.2,114.3,161.4L114.3,161.4L114.3,161.4z"/>
	<path class="st2" d="M300.9,139.9c0.4-0.8,0.3-1.6-0.2-2.4c-1-1.5-1.9,0.1-1.9,0.1c-3.5,4.8-0.9,12.1-0.9,12.1
		C298.2,143.1,300.9,139.9,300.9,139.9L300.9,139.9z M270.9,172c-0.1-1.4-0.2-4.6,1.3-5.7c0.5-0.4,2.6-2.7,2.6-2.7
		c0.3-0.6,0.6-0.6,0.6-0.6c0.4,0,1,1,1,1c1.5,2.9,3,2.5,3,2.5c0-0.5-0.3-1.1-0.3-1.1c-0.4-0.8-2.2-4.2-2.2-4.2
		c-0.2-0.5-0.4-1.2-0.4-1.2c-1.5-2.2-2.8-0.5-2.8-0.5c-0.6,1.2-3.9,5.1-3.9,5.1c-0.7,0.9-0.8,1.8-0.8,1.8
		C268.3,171.6,270.9,172,270.9,172L270.9,172L270.9,172z M279.5,185.5c0.6,0,0.8-0.2,0.7-0.9c-0.4-1.9-1.9-2.7-1.9-2.7
		c-2.8-1.7-3.2,0-3.2,0c-0.5,3,1.9,3.4,1.9,3.4C277.4,185.5,279.5,185.5,279.5,185.5L279.5,185.5L279.5,185.5z M403,194.3
		c0,0-0.6,0.5-0.3,1.4c0,0,1.6,4.3,1.5,5.8c0,0,3.5,0.6,4-1.1c0,0,0.1-0.7-0.5-1.6c0,0-0.6-0.9-0.7-2.6c0,0,0.1-4.2-2.6-3.1
		C403.8,193.4,403.4,193.9,403,194.3L403,194.3L403,194.3z M398.7,187.4c-0.6-0.5-1.4-0.8-2.2-0.6c-1.7,0.4-0.7,1.8-0.7,1.8
		c0.7,1.3,2.9,3.5,2.9,3.5c2,1.5,3.6-0.3,3.6-0.3c1.5-1.5-0.4-2.2-0.4-2.2C400.8,189.2,398.7,187.4,398.7,187.4L398.7,187.4
		L398.7,187.4z M378.2,161.4c0,0,0.6,6.2-2.1,11.6c0,0-2.1,2.9,0.1,4.8l4.2,2.5c0,0,0.6,0.4,2.5,0.3c0,0,2.6-0.6,3.5,0.5
		c0,0,0.8,2.2,1.7,4.1c0,0,1.9,4.4,5.1,5.9c0,0,2.6,0.6,3.3,2.8c0,0,0.8,1.6,2.5,1.6c0,0,1.2,0.4,2,3.1c0,0,0.4,1.8,0.4,3.1
		c0,0-2.1-0.3-3.5,0.2c0,0-3.4,1.1-4.9-1.6c0,0-2.9-5-5-4.2c0,0-4.3,1.4-7.4-1.7c0,0-4.2-4.6-10.1-3.6c0,0-6.7,1.3-8.7-0.2
		c0,0-4.2-2.2-5.8-2.7c0,0-1.9-0.6-2.1-2.7c0,0-1.2-3-2-4l3.2,0c0,0,2.9,4.8,7.8,6.3c0,0,2.7,1.1,8,0.2c0,0,7.7-1.7,14.5,5.6
		c0,0,0.9,1.3,2.2,0.8c0,0-3.7-6.4-12-7.9c0,0-2.7-0.6-4.9-0.2c0,0-11.1,0.3-16.2-10.6c0,0,0.6-9.3-1.9-11.5c0,0-0.9-0.3-0.8,1.5
		c0,0,1.7,9.7-1.5,11.6c0,0-1.8,1.4-5.2,0.9c0,0-5.1-1.2-9.3-0.5c0,0-6.4,1.5-12,0.8c0,0,1.4-2.2,1.2-4.8c0,0-0.8-1.9-1.7-0.7
		c0,0-2.1,7-7.9,9.1c0,0-5.2,1.9-5.1,8.5c0,0,0.8,0.9,7.7,3.3c0,0,2.6,0.8,3.4-1.1c0,0,3.3-7.1,6.2-6.9l5.4,0.4c0,0,1.8,0.5,0.5,2
		c0,0-1.9,2.5-2.6,3.9c0,0-0.2,1.3-2,1c0,0-2.4-1.2-3.8,3.3c0,0-1.2,2.3-3.4,3c0,0-2,0.7-3.8-0.4c0,0-9-3.3-10.5-4.5
		c0,0-1.9-1.1-3.5-0.6c0,0-2.7,0.6-3.8-1.5l-2.8-4.3c0,0-0.6-1.1-0.5-2.4c0,0-0.3-1.3,0.9-2.7c0,0,1.1-1.1,1.2-1.9l2-4.7
		c0,0,0.8-1.2,1.7-1.8l2.6,0.2c0,0-1.8,4.6-3.2,6.5c0,0-1.8,2.8-1.7,4.5c0,0,0.1,1.2,0.6,1.7c0,0,0.6,1,0.9,1.5c0,0,0.8,1.7,1.4,2.1
		c0,0,1.1,0.7,1.4,0.7c0,0,0.5,0.1,0.1-0.7c0,0-1.5-3.1-1.4-4.8c0,0-0.3-1.7,0.9-2.8c0,0,2.9-4.5,3.3-5.9c0,0,0.9-1.8,1.4-2.1
		c0,0,1-1.3-0.6-1.9c0,0-4-0.9-4.8-1.4c0,0-1.9-0.6-3.2-4.6c0,0-1.7-4.7-1.7-7.6c0,0-3.4,6.6,2,13.3c0,0-4.3,1.3-6.1,0
		c0,0-5.4-0.8-6.4-1.1c0,0-1.3-0.3-0.6,0.6c0,0,1.6,2.3,1.8,3.8c0,0,0.1,1.2,1.1,1.9c0,0,3,2.1,3.3,4.2c0,0,0.7,2-0.7,1.5
		c0,0-1.8-0.8-2.5,0c0,0-0.2,0.1,0.5,0.9c0,0,1.8,1.6,2,3.7c0,0-0.3,2.5-1,3.3c0,0-0.8,1.1-2.1,0.8c0,0-0.3-0.3-1-0.1
		c0,0-0.6,0-2.3-0.6c0,0-2.6-0.7-3.4-1c0,0-3.2-1.2-4.9-1.1c0,0-1-0.1-2.4,0.2c0,0-4.1,0.5-6.8-2.5c0,0-2.1-1.6-2.8,0
		c0,0-4.9,6.6-12.9,4.9c0,0,6.4-2.6,8-6.2c0,0,0.2-3,3.6-7.2c0,0,1-1.4,0-1.8c0,0-0.6-0.4-1.8,0.8c0,0-3.2,3-4.3,5.8
		c0,0-3.9,5.9-9.6,3.9c0,0,4.4-1.7,6.5-4.9c0,0,1.3-4.3,5.6-7.6c0,0,0.2-4.9,2.2-7.6c0,0,1-4.6,1.3-5.6c0,0,1.1-4,1.1-5.1
		c0,0-0.4-5.2,3-9.3c0,0,2.3-4.4,5.8-7.4c0,0,2.7-3.3,4.7-5.3c0,0,2.6-3.1,8.3-7.1c0,0,2.6-1.9,4.5-3.9c0,0,10.1-7.3,17.4-1.4
		c0,0,5,3.4,9.2,4.5c0,0,8.6,1,12.3,7c0,0,0.3,1.1,3.8,1.5c0,0,7.7-0.9,13.3,6.6c0,0,2.6,2.6,7.8,3.2c0,0,8.5-0.9,14,5.6
		c0,0,13.9,12.1,22.2,4.3c0,0,4.3-4.1-0.6-11.4c0,0-3.1-3.8-8.4-7.7c0,0-4.3-3-2.3-7.7c0,0,1-4.6,7.5-4.7c0,0,8.1-1.6,11.4-5.7
		c0,0,3.7,12.9-10.7,12.7c0,0-3.7,0.6-2.4,3.5c0,0,1.8,2.5,4.3,3.5c0,0,4.3,1.9,6.3,8.2c0,0,4.4,11-6.3,15.3
		C387.2,162.6,382.4,162.2,378.2,161.4L378.2,161.4L378.2,161.4z"/>
	<path class="st2" d="M124.5,295.5h21.3c0,0-0.9-10.1-10.5-10.1S124.5,295.5,124.5,295.5L124.5,295.5L124.5,295.5z M135.6,273.3
		c28.7,0,27.6,28,27.6,28v4.4h-39c0,6.4,5.3,11.9,12.6,11.9c7.3,0,11-7,11-7l13.8,6.8c-6.4,9.6-15,13.5-24.6,13.5
		c-29.9,0-30.5-24.9-30.5-28C106.4,299.8,106.9,273.3,135.6,273.3L135.6,273.3L135.6,273.3z M199.6,315.2L199.6,315.2
		c-0.9,0-12,0.2-12-13.5c0-13.6,12.2-14.1,12.2-14.1s13.6,0.4,13.6,13.8C213.4,314.8,200.5,315.2,199.6,315.2L199.6,315.2
		L199.6,315.2z M212.7,238.5v41.1c0,0-8.3-6.4-17.8-6.4c-9.5,0-25.5,6.7-25.5,27.7c0,21,13.6,29,25.3,29c11.7,0,18.2-7.7,18.2-7.7
		v6.8h16.9v-90.6H212.7L212.7,238.5z M326.6,276.1h17.2v30.4c0,0,0.6,10.2,10.2,10.2c9.6,0,9.5-10.2,9.5-10.2v-30.2h17.3v31.3
		c0,0,2.2,24.5-26.4,24.5c-28.6,0-27.9-21.5-27.9-25.3C326.6,302.7,326.6,276.1,326.6,276.1L326.6,276.1L326.6,276.1z M390.9,238.5
		h17v90.6h-17V238.5L390.9,238.5z M419.7,238.5h16.7v90.6h-16.7V238.5L419.7,238.5z M292.2,314L292.2,314h-16.1v-56.7h8.6
		c0,0,11.7-0.9,11.7,9.3c0,10.2-9.3,9.3-9.3,9.3h-5.3v15.3c0,0,7.7,0,10.4,0c2.7,0,11.5,1.3,11.5,11.4
		C303.6,312.6,292.2,314,292.2,314L292.2,314L292.2,314z M306.6,281.9c0,0,7.9-6.1,7.9-17.7c0-11.6-8.4-22-26.3-22
		c-17.9,0-30,0-30,0l0,87h36.9c0,0,26.5-0.3,26.5-24.2C321.6,291,316.2,285.7,306.6,281.9L306.6,281.9L306.6,281.9z M44.5,240.3
		v88.9h17.9v-71.9h8.4c0,0,13.2-0.6,13.2,11.4c0,12-11.7,11.7-11.7,11.7H68v20.5L86,329.2h21l-25-36.3c0,0,20.6-1.8,20.6-24.2
		c0-22.4-15.6-28.4-36.3-28.4C45.5,240.3,44.5,240.3,44.5,240.3L44.5,240.3L44.5,240.3z"/>
</g>
</svg>
