<?xml version="1.0" encoding="utf-8"?>
<!-- Generator: Adobe Illustrator 19.0.0, SVG Export Plug-In . SVG Version: 6.00 Build 0)  -->
<svg version="1.1" id="Layer_1" xmlns:sketch="http://www.bohemiancoding.com/sketch/ns"
	 xmlns="http://www.w3.org/2000/svg" xmlns:xlink="http://www.w3.org/1999/xlink" x="0px" y="0px" viewBox="0 0 1202 455"
	 style="enable-background:new 0 0 1202 455;" xml:space="preserve">
<style type="text/css">
	.st0{fill:#EAE9E8;}
	.st1{fill:#FCF5F1;}
	.st2{fill:#C1BCB8;}
	.st3{fill:#E2DDDC;}
	.st4{fill:#FCF8F1;}
	.st5{fill:#B7B1AC;}
</style>
<title>wm_no_bg</title>
<desc>Created with Sketch.</desc>
<g>
	<path id="path14" class="st0" d="M899.7,146.4h-21.8l0.1,162.5h88.3v-20.1h-66.5L899.7,146.4L899.7,146.4z"/>
	<g id="g24" transform="translate(977.327440, 143.284396)" sketch:type="MSLayerGroup">
		<path id="path26" sketch:type="MSShapeGroup" class="st0" d="M73,137.1c-5.5,5.7-14.6,11.4-27,11.4c-16.6,0-23.3-8.2-23.3-18.9
			c0-16.1,11.2-23.8,35-23.8c4.5,0,11.7,0.5,15.4,1.2L73,137.1L73,137.1z M50.4,38.6c-17.6,0-33.8,6.2-46.4,16.7l7.7,13.4
			c8.9-5.2,19.8-10.4,35.5-10.4c17.9,0,25.8,9.2,25.8,24.6v7.9c-3.5-0.7-10.7-1.2-15.1-1.2C19.7,89.6,0.3,103,0.3,131
			c0,25.1,15.4,37.7,38.7,37.7c15.7,0,30.8-7.2,36-18.9l4,15.9h15.4V82.5C94.3,56.2,82.9,38.6,50.4,38.6L50.4,38.6z"/>
	</g>
	<g id="g28" transform="translate(1099.766904, 143.128930)" sketch:type="MSLayerGroup">
		<path id="path30" sketch:type="MSShapeGroup" class="st0" d="M42.3,149.4c-8.2,0-15.4-1-20.8-3.5V78.6v-7.8
			c7.4-6.2,16.6-10.7,28.3-10.7C70.9,60.1,79,75,79,99.1C79,133.3,65.9,149.4,42.3,149.4 M51.5,38.8c-19.5,0-30,13.3-30,13.3v-21
			L21.4,3.3h-9.8H0.1l0.1,158.5c10.7,4.5,25.3,6.9,41.2,6.9c40.7,0,60.3-26,60.3-70.9C101.6,62.3,83.5,38.8,51.5,38.8"/>
	</g>
	<g id="g32" transform="translate(584.042117, 143.630796)" sketch:type="MSLayerGroup">
		<path id="path34" sketch:type="MSShapeGroup" class="st0" d="M78.3,20.4c19.3,0,31.8,6.4,39.9,12.9l9.4-16.3
			C114.9,5.8,97.7-0.2,79.3-0.2C32.9-0.2,0.4,28.1,0.4,85.2c0,59.8,35.1,83.1,75.2,83.1c20.1,0,37.2-4.7,48.4-9.4L123.5,95v-7.5
			V74.9H64V95h38l0.5,48.5c-5,2.5-13.6,4.5-25.3,4.5c-32.2,0-53.8-20.3-53.8-63C23.3,41.5,45.6,20.4,78.3,20.4"/>
	</g>
	<g id="g36" transform="translate(793.569045, 142.577463)" sketch:type="MSLayerGroup">
		<path id="path38" sketch:type="MSShapeGroup" class="st0" d="M22.3,3.8H1l0.1,27.3v11.2v6.5v11.4v65v0.2
			c0,26.3,11.4,43.9,43.9,43.9c4.5,0,8.9-0.4,13.1-1.2V149c-3.1,0.5-6.4,0.7-9.9,0.7c-17.9,0-25.8-9.2-25.8-24.6v-65h35.7V42.3H22.4
			L22.3,3.8L22.3,3.8z"/>
	</g>
	<path id="path40" sketch:type="MSShapeGroup" class="st0" d="M740.4,308.9h21.3v-124h-21.3V308.9L740.4,308.9z"/>
	<path id="path42" sketch:type="MSShapeGroup" class="st0" d="M740.4,167.8h21.3v-21.3h-21.3V167.8L740.4,167.8z"/>
</g>
<g id="g52" transform="translate(247.197860, 1.160267)" sketch:type="MSLayerGroup">
	<g id="path54">
	</g>
</g>
<g id="g60" transform="translate(247.197860, 1.160800)" sketch:type="MSLayerGroup">
	<g id="path62">
	</g>
</g>
<g id="g68" transform="translate(247.197860, 1.160267)" sketch:type="MSLayerGroup">
	<g id="path70">
	</g>
</g>
<g id="g44" transform="translate(0.532000, 0.774933)" sketch:type="MSLayerGroup">
	<path id="path46" sketch:type="MSShapeGroup" class="st1" d="M491.7,259.5l-27.6-84.8L409.5,6.5c-2.8-8.6-15-8.6-17.9,0L337,174.6
		H155.6L101,6.5c-2.8-8.6-15-8.6-17.9,0L28.6,174.6L1,259.5c-2.5,7.7,0.2,16.2,6.8,21l238.5,173.3l238.5-173.3
		C491.4,275.7,494.2,267.2,491.7,259.5"/>
</g>
<g id="g48" transform="translate(155.197863, 1.160267)" sketch:type="MSLayerGroup">
	<path id="path50" sketch:type="MSShapeGroup" class="st2" d="M91.7,453.3L91.7,453.3l90.7-279.1H1L91.7,453.3L91.7,453.3z"/>
</g>
<g id="g56" transform="translate(28.531199, 1.160800)" sketch:type="MSLayerGroup">
	<path id="path58" sketch:type="MSShapeGroup" class="st3" d="M218.3,453.3l-90.7-279.1H0.6L218.3,453.3L218.3,453.3z"/>
</g>
<g id="g64" transform="translate(0.088533, 0.255867)" sketch:type="MSLayerGroup">
	<path id="path66" sketch:type="MSShapeGroup" class="st4" d="M29,175.2L29,175.2L1.4,260c-2.5,7.7,0.2,16.2,6.8,21l238.5,173.3
		L29,175.2L29,175.2z"/>
</g>
<g id="g72" transform="translate(29.421866, 280.255593)" sketch:type="MSLayerGroup">
	<path id="path74" sketch:type="MSShapeGroup" class="st5" d="M-0.3-104.8h127.1L72.1-272.9c-2.8-8.6-15-8.6-17.9,0L-0.3-104.8
		L-0.3-104.8z"/>
</g>
<g id="g76" transform="translate(247.197860, 1.160800)" sketch:type="MSLayerGroup">
	<path id="path78" sketch:type="MSShapeGroup" class="st3" d="M-0.3,453.3l90.7-279.1h127.1L-0.3,453.3L-0.3,453.3z"/>
</g>
<g id="g80" transform="translate(246.307061, 0.255867)" sketch:type="MSLayerGroup">
	<path id="path82" sketch:type="MSShapeGroup" class="st4" d="M218.3,175.2L218.3,175.2l27.6,84.8c2.5,7.7-0.2,16.2-6.8,21
		L0.6,454.2L218.3,175.2L218.3,175.2z"/>
</g>
<g id="g84" transform="translate(336.973725, 280.255593)" sketch:type="MSLayerGroup">
	<path id="path86" sketch:type="MSShapeGroup" class="st5" d="M127.7-104.8H0.6l54.6-168.1c2.8-8.6,15-8.6,17.9,0L127.7-104.8
		L127.7-104.8z"/>
</g>
</svg>
