<?xml version="1.0" encoding="utf-8"?>
<!-- Generator: Adobe Illustrator 19.2.1, SVG Export Plug-In . SVG Version: 6.00 Build 0)  -->
<svg version="1.1" id="Layer_1" xmlns="http://www.w3.org/2000/svg" xmlns:xlink="http://www.w3.org/1999/xlink" x="0px" y="0px"
	 viewBox="0 0 514.1 63.9" style="enable-background:new 0 0 514.1 63.9;" xml:space="preserve">
<style type="text/css">
	.st0{fill:#EAE9E8;}
	.st1{fill:#C1BCB8;}
</style>
<title>HOOLOOVOO_Logo</title>
<polygon class="st0" points="38.5,1.1 38.5,25.4 13.6,25.4 0,37.9 13.6,37.9 38.5,37.9 38.5,62.3 52.1,62.3 52.1,1.1 "/>
<path class="st0" d="M390.2,32v-0.2c0-17.5,13.8-31.9,32.8-31.9s32.7,14.2,32.7,31.7v0.2c0,17.5-13.8,31.9-32.8,31.9
	S390.2,49.5,390.2,32z M441.5,32v-0.2c0-10.6-7.8-19.4-18.7-19.4s-18.5,8.6-18.5,19.2v0.2c0,10.6,7.7,19.4,18.7,19.4
	S441.5,42.6,441.5,32L441.5,32z"/>
<path class="st0" d="M13.6,25.4H0V1.1h13.6V25.4z"/>
<path class="st1" d="M0,37.9h13.6v24.4H0V37.9z"/>
<path class="st0" d="M54.4,32.3v-0.2c0-17.5,13.8-31.9,32.8-31.9s32.7,14.2,32.7,31.7v0.2c0,17.5-13.8,31.9-32.8,31.9
	S54.4,49.8,54.4,32.3z M105.7,32.3v-0.2c0-10.6-7.7-19.4-18.7-19.4s-18.5,8.6-18.5,19.2v0.2c0,10.6,7.8,19.4,18.7,19.4
	C98.2,51.4,105.7,42.8,105.7,32.3z"/>
<path class="st0" d="M112.8,32v-0.2c0-17.5,13.8-31.9,32.8-31.9s32.6,14.2,32.6,31.7v0.2c0,17.5-13.8,31.9-32.8,31.9
	S112.8,49.5,112.8,32z M164.1,32v-0.2c0-10.6-7.8-19.4-18.7-19.4S127,21.1,127,31.7v0.2c0,10.6,7.7,19.4,18.7,19.4
	S164.1,42.6,164.1,32L164.1,32z"/>
<path class="st1" d="M112.8,32c0,5.1,1.2,10.2,3.5,14.7c2.3-4.5,3.6-9.6,3.5-14.7v-0.2c0-5.1-1.2-10.2-3.5-14.7
	c-2.3,4.5-3.6,9.6-3.5,14.7L112.8,32L112.8,32z"/>
<path class="st0" d="M180.9,1h13.5v61.3L180.9,50V1z"/>
<path class="st1" d="M194.4,50h30.7v12.3h-30.7V50z"/>
<path class="st0" d="M219.7,32v-0.2c0-17.5,13.8-31.9,32.8-31.9s32.7,14.2,32.7,31.7v0.2c0,17.5-13.8,31.9-32.8,31.9
	S219.7,49.5,219.7,32z M271,32v-0.2c0-10.6-7.8-19.4-18.7-19.4c-10.9,0-18.5,8.6-18.5,19.2v0.2c0,10.6,7.7,19.4,18.7,19.4
	C263.5,51.2,271,42.6,271,32z"/>
<path class="st0" d="M278.1,32v-0.2c0-17.5,13.8-31.9,32.8-31.9s32.7,14.2,32.7,31.7v0.2c0,17.5-13.8,31.9-32.8,31.9
	C291.8,63.7,278.1,49.5,278.1,32z M329.4,32v-0.2c0-10.6-7.8-19.4-18.7-19.4c-10.9,0-18.5,8.6-18.5,19.2v0.2
	c0,10.6,7.7,19.4,18.7,19.4C321.9,51.2,329.4,42.6,329.4,32L329.4,32z"/>
<path class="st1" d="M278.1,32c0,5.1,1.2,10.1,3.5,14.6c2.4-4.6,3.6-9.6,3.6-14.8v-0.2c0-5.1-1.2-10.1-3.5-14.6
	c-2.4,4.6-3.6,9.6-3.6,14.8V32L278.1,32z"/>
<path class="st0" d="M448.6,32v-0.2c0-17.5,13.8-31.9,32.8-31.9s32.6,14.2,32.6,31.7v0.2c0,17.5-13.8,31.9-32.8,31.9
	S448.6,49.5,448.6,32z M499.9,32v-0.2c0-10.6-7.8-19.4-18.7-19.4s-18.5,8.6-18.5,19.2v0.2c0,10.6,7.7,19.4,18.7,19.4
	S499.9,42.6,499.9,32z"/>
<path class="st1" d="M448.6,32c0,5.1,1.2,10.1,3.5,14.6c2.4-4.6,3.6-9.6,3.6-14.8v-0.2c0-5.1-1.2-10.1-3.5-14.6
	c-2.4,4.6-3.6,9.6-3.6,14.8L448.6,32L448.6,32z"/>
<polygon class="st1" points="383,1 367.2,43.7 373,62.3 397.6,1 "/>
<polygon class="st0" points="367.2,43.7 351.4,1 336.4,1 361,62.3 373,62.3 "/>
</svg>
