<?xml version="1.0" encoding="utf-8"?>
<!-- Generator: Adobe Illustrator 19.0.0, SVG Export Plug-In . SVG Version: 6.00 Build 0)  -->
<svg version="1.1" id="Layer_1" xmlns="http://www.w3.org/2000/svg" xmlns:xlink="http://www.w3.org/1999/xlink" x="0px" y="0px"
	 viewBox="0 0 409.7 159" style="enable-background:new 0 0 409.7 159;" xml:space="preserve">
<path style="fill:#E0D7D4;" d="M179.9,51c0.5-0.1,1.1-0.2,1.6-0.2c0.5,0,1-0.1,1.5-0.1c1.9,0,3.3,0.5,4,1.4c0.8,1,1.1,2.2,1.1,3.6
	c0,0.3,0,0.6,0,0.9c0,0.3-0.1,0.6-0.1,0.9l-7.1,43h-8.3l-13.2-32.7l-5.3,32.7H145l8.1-49.3c0.5-0.1,1.2-0.2,1.9-0.3
	c0.7-0.1,1.5-0.2,2.3-0.2c1.7,0,3,0.4,3.8,1.2c0.8,0.8,1.6,1.9,2.1,3.4l11.2,28.4L179.9,51z"/>
<path style="fill:#E0D7D4;" d="M214.6,89.5c2.5,1.3,3.8,2.8,3.8,4.7c0,1-0.3,1.9-0.9,2.7c-0.6,0.7-1.2,1.4-1.9,1.8
	c-1.1,0.7-2.5,1.4-4.2,2.1c-1.7,0.6-4,1-6.8,1c-2.7,0-5-0.4-6.8-1.2c-1.8-0.8-3.3-1.9-4.4-3.3c-1.1-1.4-1.9-2.9-2.4-4.7
	c-0.5-1.8-0.7-3.6-0.7-5.5c0-3,0.5-5.9,1.4-8.6c0.9-2.7,2.3-5.1,4-7.1c1.7-2,3.8-3.6,6.4-4.8c2.5-1.2,5.4-1.8,8.6-1.8
	c1.7,0,3.3,0.3,4.6,0.7c1.3,0.5,2.5,1.2,3.4,2c0.9,0.8,1.6,1.8,2.1,3c0.5,1.1,0.7,2.4,0.7,3.7c0,2.8-0.6,5-1.8,6.7
	c-1.2,1.7-2.8,3-4.7,4c-1.9,1-3.9,1.6-6.1,2c-2.2,0.3-4.3,0.5-6.3,0.5H201c-0.4,0-0.8,0-1.2-0.1v0.4c0,1.1,0.2,2.1,0.6,3
	c0.4,0.8,0.8,1.5,1.4,2.1c0.6,0.5,1.2,0.9,1.9,1.2c0.7,0.3,1.4,0.4,2.1,0.4c2,0,3.7-0.5,5.2-1.4C212.4,91.8,213.6,90.7,214.6,89.5
	 M202.7,81.2c1.1,0,2.3-0.1,3.4-0.4c1.1-0.2,2.2-0.6,3.1-1.1c0.9-0.5,1.7-1.2,2.3-1.9c0.6-0.8,0.9-1.7,0.9-2.7
	c0-0.8-0.2-1.6-0.7-2.2c-0.5-0.6-1.4-0.9-2.6-0.9c-2.1,0-3.9,0.8-5.4,2.5c-1.5,1.7-2.5,3.9-3.1,6.7c0.4,0,0.8,0.1,1.1,0.1H202.7z"/>
<path style="fill:#E0D7D4;" d="M245,99.2c-1.2,0.9-2.5,1.5-3.9,1.9c-1.4,0.4-3,0.6-4.8,0.6c-3.7,0-6.5-1-8.3-2.9
	c-1.8-1.9-2.7-4.6-2.7-8c0-0.6,0-1.2,0.1-1.8c0.1-0.6,0.2-1.3,0.3-2l5.4-32.4c0.6-0.1,1.2-0.2,1.8-0.2c0.6,0,1.1-0.1,1.6-0.1
	c2,0,3.5,0.5,4.3,1.4c0.9,1,1.3,2.2,1.3,3.6c0,0.3,0,0.6,0,0.9s-0.1,0.6-0.1,0.9l-0.7,4.3h9.5l-1.3,7.6H238l-2.4,14.4
	c-0.1,0.5-0.2,0.9-0.2,1.4c-0.1,0.4-0.1,0.8-0.1,1.2c0,2.6,1.1,3.8,3.4,3.8c1.1,0,2.1-0.3,3-1c0.8-0.7,1.6-1.5,2.3-2.4
	c1.3,0.5,2.2,1.2,2.7,2c0.5,0.8,0.8,1.6,0.8,2.4c0,0.7-0.2,1.5-0.6,2.3C246.6,97.8,245.9,98.5,245,99.2"/>
<path style="fill:#E0D7D4;" d="M286.4,87c1.1,0.8,2,1.7,2.6,2.6c0.6,0.9,0.9,1.7,0.9,2.5c0,1.4-0.4,2.6-1.1,3.5
	c-0.8,1-1.8,1.9-3.2,2.7c-1.5,0.9-3.3,1.8-5.5,2.4c-2.2,0.7-4.7,1-7.3,1c-3.2,0-5.9-0.5-8.2-1.6c-2.3-1-4.2-2.5-5.7-4.3
	s-2.6-4-3.3-6.5c-0.7-2.5-1.1-5.3-1.1-8.3c0-3.6,0.5-7.2,1.5-10.9c1-3.7,2.6-7,4.7-10c2.1-3,4.7-5.4,8-7.3c3.2-1.9,7.1-2.8,11.5-2.8
	c3.3,0,6,0.6,8.1,1.8c2.1,1.2,3.7,2.6,4.8,4.1c0.3,0.5,0.6,1.1,0.7,1.7c0.1,0.6,0.2,1.1,0.2,1.7c0,1.4-0.5,2.6-1.4,3.6
	c-0.9,1-2.2,1.6-4,2c-0.9-2.1-2-3.7-3.5-4.9c-1.4-1.2-3.4-1.8-6-1.8c-2,0-3.9,0.5-5.7,1.6c-1.7,1-3.3,2.6-4.5,4.6
	c-1.3,2-2.3,4.5-3.1,7.5c-0.8,3-1.1,6.4-1.1,10.3c0,1.6,0.2,3.1,0.6,4.4c0.4,1.4,1,2.6,1.7,3.6c0.8,1,1.7,1.8,2.8,2.4
	c1.1,0.6,2.4,0.9,3.8,0.9c1.4,0,2.8-0.2,4-0.6c1.2-0.4,2.4-0.9,3.4-1.5c1.1-0.6,2-1.3,2.9-2.1C284.9,88.6,285.7,87.8,286.4,87"/>
<path style="fill:#E0D7D4;" d="M314.4,96.7c-1.1,1.5-2.5,2.7-4,3.6c-1.6,0.9-3.4,1.4-5.6,1.4c-2,0-3.7-0.3-5-1
	c-1.3-0.7-2.3-1.6-3.1-2.7c-0.8-1.2-1.3-2.6-1.6-4.2c-0.3-1.6-0.5-3.4-0.5-5.3c0-3.1,0.5-6,1.4-8.9c1-2.9,2.3-5.4,4.1-7.6
	c1.8-2.2,4-4,6.5-5.4c2.5-1.4,5.3-2,8.4-2c2,0,4.1,0.3,6.5,0.9c2.4,0.6,4.6,1.6,6.7,2.8l-3.8,23.3c-0.1,0.7-0.2,1.6-0.2,2.4
	c0,1.1,0.1,2.2,0.3,3.3c0.2,1.1,0.4,2.1,0.8,2.9c-0.8,0.5-1.7,0.8-2.7,1c-0.9,0.2-1.9,0.3-2.8,0.3c-1.6,0-2.8-0.4-3.8-1.2
	C315.1,99.7,314.5,98.4,314.4,96.7 M314.6,71.9c-1.3,0-2.5,0.4-3.7,1.1c-1.2,0.8-2.2,1.8-3.2,3.2c-0.9,1.4-1.7,3.1-2.3,5.1
	c-0.6,2-0.8,4.3-0.8,6.8c0,3.9,1.3,5.8,4,5.8c0.9,0,1.7-0.2,2.4-0.6c0.7-0.4,1.4-1,2-1.7c0.6-0.7,1.1-1.5,1.5-2.4
	c0.4-0.9,0.7-1.9,0.8-2.9l2.3-13.6C316.7,72.2,315.7,71.9,314.6,71.9"/>
<path style="fill:#E0D7D4;" d="M342.9,101.7c-2.8,0-4.9-0.2-6.4-0.6c-1.5-0.4-2.9-1-4.1-1.8c-0.8-0.5-1.5-1.1-2-1.8
	c-0.5-0.6-0.7-1.3-0.7-2c0-1.2,0.3-2.2,0.9-3c0.6-0.8,1.4-1.6,2.4-2.3c1.4,1.4,2.8,2.4,4.1,3c1.3,0.6,2.6,0.9,4.1,0.9
	c1.7,0,2.8-0.3,3.5-1c0.7-0.7,1-1.5,1-2.5c0-1-0.5-2-1.6-2.9c-1.1-0.9-2.3-1.8-3.6-2.8c-0.8-0.5-1.6-1.1-2.3-1.7
	c-0.8-0.6-1.4-1.3-2-2c-0.6-0.7-1.1-1.6-1.4-2.6c-0.4-1-0.6-2.1-0.6-3.4c0-1.2,0.2-2.4,0.7-3.7c0.5-1.3,1.3-2.4,2.4-3.4
	c1.1-1,2.6-1.9,4.4-2.6c1.8-0.7,4-1,6.7-1c0.8,0,1.6,0.1,2.5,0.3c0.9,0.2,1.8,0.4,2.7,0.7c0.9,0.3,1.7,0.7,2.5,1.1
	c0.8,0.4,1.4,1,1.9,1.6c0.7,0.9,1.1,1.8,1.1,2.9c0,1-0.4,2-1.1,2.8c-0.8,0.8-1.7,1.5-2.9,1.8c-0.9-1.4-2-2.4-3.3-3.1
	c-1.3-0.7-2.6-1-3.7-1c-1.2,0-2.2,0.2-2.9,0.7c-0.7,0.4-1.1,1.2-1.1,2.4c0,0.6,0.2,1.1,0.6,1.7c0.4,0.5,0.9,1,1.6,1.6
	c0.7,0.5,1.4,1.1,2.3,1.7c0.9,0.6,1.8,1.3,2.7,2c1.7,1.4,3,2.9,3.7,4.3c0.7,1.4,1.1,3,1.1,4.7c0,1.4-0.2,2.7-0.7,4.1
	c-0.5,1.3-1.3,2.5-2.3,3.6c-1,1-2.4,1.9-4,2.5C347.2,101.3,345.2,101.7,342.9,101.7"/>
<path style="fill:#E0D7D4;" d="M381.6,99.2c-1.2,0.9-2.5,1.5-3.9,1.9c-1.4,0.4-3,0.6-4.8,0.6c-3.7,0-6.5-1-8.3-2.9
	c-1.8-1.9-2.7-4.6-2.7-8c0-0.6,0-1.2,0.1-1.8c0.1-0.6,0.2-1.3,0.3-2l5.4-32.4c0.6-0.1,1.2-0.2,1.8-0.2c0.6,0,1.1-0.1,1.6-0.1
	c2,0,3.5,0.5,4.3,1.4s1.3,2.2,1.3,3.6c0,0.3,0,0.6,0,0.9c0,0.3-0.1,0.6-0.1,0.9l-0.7,4.3h9.5L384,73h-9.5l-2.4,14.4
	c-0.1,0.5-0.2,0.9-0.2,1.4c-0.1,0.4-0.1,0.8-0.1,1.2c0,2.6,1.1,3.8,3.4,3.8c1.1,0,2.1-0.3,3-1c0.8-0.7,1.6-1.5,2.3-2.4
	c1.3,0.5,2.2,1.2,2.7,2c0.5,0.8,0.8,1.6,0.8,2.4c0,0.7-0.2,1.5-0.6,2.3C383.1,97.8,382.5,98.5,381.6,99.2"/>
<path style="fill:#E0D7D4;" d="M126.7,140.3H122l2.7-16.4c0.5-0.1,1.1-0.1,1.7-0.1c0.6,0,1.2,0.1,1.6,0.4c0.4,0.3,0.7,0.8,0.9,1.4
	c0.5-0.6,1.2-1.1,1.9-1.5c0.8-0.4,1.7-0.7,2.9-0.7c1.1,0,1.9,0.2,2.6,0.7c0.6,0.5,1.1,1.1,1.4,1.8c0.2,0.7,0.3,1.4,0.3,2.2
	c0,0.4,0,0.8-0.1,1.2c0,0.4-0.1,0.8-0.2,1.2l-1.6,9.8h-4.7l1.6-9.8c0-0.3,0.1-0.5,0.1-0.7c0-0.2,0-0.5,0-0.7c0-0.5-0.1-1-0.4-1.4
	c-0.2-0.4-0.7-0.6-1.5-0.6c-0.7,0-1.4,0.3-1.9,0.9c-0.6,0.6-0.9,1.4-1.1,2.4L126.7,140.3z"/>
<path style="fill:#E0D7D4;" d="M151.8,135.1c1.2,0.6,1.8,1.3,1.8,2.2c0,0.5-0.1,0.9-0.4,1.2c-0.3,0.3-0.6,0.6-0.9,0.9
	c-0.5,0.3-1.2,0.7-2,1c-0.8,0.3-1.9,0.5-3.2,0.5c-1.3,0-2.3-0.2-3.2-0.6c-0.9-0.4-1.5-0.9-2.1-1.5c-0.5-0.6-0.9-1.4-1.1-2.2
	c-0.2-0.8-0.3-1.7-0.3-2.6c0-1.4,0.2-2.8,0.7-4c0.4-1.3,1.1-2.4,1.9-3.3c0.8-0.9,1.8-1.7,3-2.3c1.2-0.6,2.5-0.8,4-0.8
	c0.8,0,1.5,0.1,2.2,0.3c0.6,0.2,1.1,0.5,1.6,0.9c0.4,0.4,0.8,0.9,1,1.4c0.2,0.5,0.3,1.1,0.3,1.7c0,1.3-0.3,2.3-0.9,3.1
	c-0.6,0.8-1.3,1.4-2.2,1.9s-1.8,0.8-2.9,0.9c-1,0.2-2,0.2-2.9,0.2h-0.6c-0.2,0-0.4,0-0.6,0v0.2c0,0.5,0.1,1,0.3,1.4
	c0.2,0.4,0.4,0.7,0.7,1c0.3,0.3,0.6,0.4,0.9,0.6c0.3,0.1,0.7,0.2,1,0.2c0.9,0,1.8-0.2,2.4-0.7C150.8,136.2,151.4,135.7,151.8,135.1
	 M146.2,131.3c0.5,0,1.1-0.1,1.6-0.2c0.5-0.1,1-0.3,1.5-0.5c0.4-0.2,0.8-0.5,1.1-0.9c0.3-0.4,0.4-0.8,0.4-1.3c0-0.4-0.1-0.7-0.3-1
	c-0.2-0.3-0.6-0.4-1.2-0.4c-1,0-1.8,0.4-2.5,1.2c-0.7,0.8-1.2,1.8-1.5,3.1c0.2,0,0.4,0,0.5,0H146.2z"/>
<path style="fill:#E0D7D4;" d="M166.1,139.7c-0.6,0.4-1.2,0.7-1.8,0.9c-0.7,0.2-1.4,0.3-2.3,0.3c-1.7,0-3-0.5-3.9-1.4
	c-0.9-0.9-1.3-2.2-1.3-3.7c0-0.3,0-0.6,0.1-0.9c0-0.3,0.1-0.6,0.1-0.9l2.5-15.2c0.3,0,0.6-0.1,0.8-0.1c0.3,0,0.5,0,0.8,0
	c0.9,0,1.6,0.2,2,0.7c0.4,0.5,0.6,1,0.6,1.7c0,0.1,0,0.3,0,0.4c0,0.1,0,0.3-0.1,0.4l-0.3,2h4.4l-0.6,3.6h-4.4l-1.1,6.8
	c0,0.2-0.1,0.4-0.1,0.6c0,0.2,0,0.4,0,0.6c0,1.2,0.5,1.8,1.6,1.8c0.5,0,1-0.2,1.4-0.5c0.4-0.3,0.8-0.7,1.1-1.1
	c0.6,0.3,1,0.6,1.3,0.9c0.3,0.4,0.4,0.7,0.4,1.1c0,0.4-0.1,0.7-0.3,1.1C166.8,139,166.5,139.4,166.1,139.7"/>
<path style="fill:#E0D7D4;" d="M184.1,140.3h-3.5l-1.2-6.9c-0.6,1.2-1.3,2.3-1.8,3.5c-0.6,1.1-1.2,2.3-1.8,3.5h-3.4l-2.7-16
	c0.9-0.3,1.6-0.5,2.3-0.5c0.7,0,1.2,0.2,1.7,0.4c0.4,0.3,0.7,0.8,0.8,1.5l1.2,9l2.9-5.6l-0.9-4.9c0.5-0.2,0.8-0.3,1.2-0.3
	c0.3-0.1,0.6-0.1,1-0.1c0.7,0,1.2,0.2,1.6,0.6c0.4,0.4,0.6,0.9,0.7,1.6l1.1,8.4l3.1-7.7c0.4-1,0.9-1.8,1.4-2.2
	c0.5-0.4,1.2-0.7,2.1-0.7c0.5,0,0.8,0,1.1,0.1c0.3,0.1,0.6,0.2,0.9,0.4L184.1,140.3z"/>
<path style="fill:#E0D7D4;" d="M198.3,140.8c-1.2,0-2.2-0.2-3.1-0.6c-0.8-0.4-1.5-0.9-2-1.5c-0.5-0.6-0.9-1.4-1.1-2.2
	c-0.2-0.8-0.3-1.7-0.3-2.6c0-1.4,0.2-2.8,0.6-4c0.4-1.3,1-2.4,1.7-3.3c0.8-0.9,1.7-1.7,2.8-2.3c1.1-0.6,2.4-0.8,3.9-0.8
	c1.2,0,2.2,0.2,3,0.6c0.8,0.4,1.5,0.9,2,1.5c0.5,0.6,0.9,1.4,1.1,2.2c0.2,0.8,0.3,1.7,0.3,2.6c0,1.4-0.2,2.7-0.5,4
	c-0.4,1.3-0.9,2.4-1.6,3.4c-0.7,1-1.7,1.7-2.8,2.3C201.2,140.6,199.8,140.8,198.3,140.8 M196.5,134.1c0,1.1,0.2,1.9,0.6,2.4
	c0.4,0.5,1,0.8,1.6,0.8c0.5,0,1-0.2,1.5-0.5c0.5-0.3,0.9-0.8,1.3-1.4c0.4-0.6,0.6-1.3,0.8-2.2c0.2-0.9,0.3-1.9,0.3-3.1
	c0-1.1-0.2-1.8-0.6-2.4c-0.4-0.5-1-0.8-1.6-0.8c-0.5,0-1,0.2-1.5,0.5c-0.5,0.3-0.9,0.8-1.3,1.4c-0.4,0.6-0.6,1.3-0.9,2.2
	C196.6,132,196.5,133,196.5,134.1"/>
<path style="fill:#E0D7D4;" d="M220.4,129.2c-0.3-1.2-1-1.8-2.2-1.8c-0.7,0-1.3,0.3-1.8,0.8c-0.6,0.6-0.9,1.4-1.1,2.5l-1.6,9.6H209
	l2.7-16.4c0.5-0.1,1.1-0.1,1.7-0.1c1.4,0,2.2,0.7,2.5,2c0.5-0.6,1.1-1.1,1.8-1.6c0.7-0.5,1.5-0.7,2.6-0.7c0.5,0,1,0.1,1.3,0.2
	c0.3,0.2,0.6,0.3,0.8,0.6c0.2,0.2,0.3,0.5,0.4,0.8c0.1,0.3,0.1,0.6,0.1,0.8c0,0.8-0.2,1.5-0.7,2
	C221.9,128.4,221.3,128.9,220.4,129.2"/>
<path style="fill:#E0D7D4;" d="M229.3,130.9c0.1-0.4,0.4-0.8,0.8-1.3c0.4-0.5,0.8-1,1.2-1.5l3-3.3c0.4-0.5,0.8-0.8,1.2-1
	c0.4-0.2,0.9-0.3,1.4-0.3c0.6,0,1.1,0.1,1.5,0.3c0.4,0.2,0.8,0.5,1.1,0.9l-5.9,6.6l2.7,5.2c0.2,0.4,0.5,0.9,0.9,1.5
	c0.4,0.6,0.9,1.1,1.5,1.5c-0.3,0.3-0.8,0.6-1.4,0.8c-0.6,0.2-1.2,0.4-1.9,0.4c-0.4,0-0.7,0-1.1-0.1c-0.3-0.1-0.6-0.2-0.9-0.4
	c-0.3-0.2-0.5-0.4-0.8-0.7c-0.3-0.3-0.5-0.7-0.8-1.2l-1.8-3.5c-0.1-0.3-0.3-0.6-0.6-1.1c-0.3-0.5-0.4-1-0.5-1.6l-1.4,8.3h-4.6
	l4.1-24.4c0.3,0,0.6-0.1,0.8-0.1c0.3,0,0.5,0,0.8,0c0.9,0,1.6,0.2,2,0.7c0.4,0.5,0.6,1,0.6,1.7c0,0.1,0,0.3,0,0.4
	c0,0.1,0,0.3-0.1,0.4L229.3,130.9z"/>
<path style="fill:#E0D7D4;" d="M249.5,123.9c0.3,0,0.6-0.1,0.8-0.1c0.3,0,0.5,0,0.8,0c0.9,0,1.6,0.2,2,0.7c0.4,0.5,0.6,1,0.6,1.7
	c0,0.1,0,0.3,0,0.4c0,0.1,0,0.3-0.1,0.4l-1.5,9.1c0,0.3-0.1,0.5-0.1,0.8c0,0.3,0,0.5,0,0.8c0,0.4,0,0.9,0.1,1.3
	c0.1,0.4,0.1,0.8,0.3,1.1c-0.4,0.2-0.8,0.4-1.2,0.5c-0.4,0.1-0.8,0.1-1.2,0.1c-0.9,0-1.6-0.2-2.1-0.6c-0.5-0.4-0.7-1.1-0.7-2
	c0-0.1,0-0.2,0-0.4c0-0.1,0-0.3,0.1-0.4L249.5,123.9z M252.4,121.1c-0.7,0-1.3-0.2-1.7-0.7c-0.4-0.5-0.6-1-0.6-1.5
	c0-1.1,0.3-1.8,0.8-2.4c0.6-0.5,1.2-0.8,2-0.8c0.7,0,1.3,0.2,1.7,0.7c0.4,0.5,0.6,1,0.6,1.5c0,1.1-0.3,1.8-0.8,2.4
	C253.8,120.8,253.1,121.1,252.4,121.1"/>
<path style="fill:#E0D7D4;" d="M259.9,140.3h-4.7l2.7-16.4c0.5-0.1,1.1-0.1,1.7-0.1c0.6,0,1.2,0.1,1.6,0.4c0.4,0.3,0.7,0.8,0.9,1.4
	c0.5-0.6,1.2-1.1,1.9-1.5c0.8-0.4,1.7-0.7,2.9-0.7c1.1,0,1.9,0.2,2.6,0.7c0.6,0.5,1.1,1.1,1.4,1.8c0.2,0.7,0.3,1.4,0.3,2.2
	c0,0.4,0,0.8-0.1,1.2c0,0.4-0.1,0.8-0.2,1.2l-1.6,9.8h-4.7l1.6-9.8c0-0.3,0.1-0.5,0.1-0.7c0-0.2,0-0.5,0-0.7c0-0.5-0.1-1-0.4-1.4
	c-0.2-0.4-0.7-0.6-1.5-0.6c-0.7,0-1.4,0.3-1.9,0.9c-0.6,0.6-0.9,1.4-1.1,2.4L259.9,140.3z"/>
<path style="fill:#E0D7D4;" d="M282.9,139.7c-0.6,0.4-1.2,0.7-1.8,0.9c-0.7,0.2-1.4,0.3-2.3,0.3c-1.7,0-3-0.5-3.9-1.4
	c-0.9-0.9-1.3-2.2-1.3-3.7c0-0.3,0-0.6,0.1-0.9c0-0.3,0.1-0.6,0.1-0.9l2.5-15.2c0.3,0,0.6-0.1,0.8-0.1c0.3,0,0.5,0,0.8,0
	c0.9,0,1.6,0.2,2,0.7c0.4,0.5,0.6,1,0.6,1.7c0,0.1,0,0.3,0,0.4c0,0.1,0,0.3-0.1,0.4l-0.3,2h4.4l-0.6,3.6h-4.4l-1.1,6.8
	c0,0.2-0.1,0.4-0.1,0.6c0,0.2,0,0.4,0,0.6c0,1.2,0.5,1.8,1.6,1.8c0.5,0,1-0.2,1.4-0.5c0.4-0.3,0.8-0.7,1.1-1.1
	c0.6,0.3,1,0.6,1.3,0.9c0.3,0.4,0.4,0.7,0.4,1.1c0,0.4-0.1,0.7-0.3,1.1C283.6,139,283.3,139.4,282.9,139.7"/>
<path style="fill:#E0D7D4;" d="M297,135.1c1.2,0.6,1.8,1.3,1.8,2.2c0,0.5-0.1,0.9-0.4,1.2c-0.3,0.3-0.6,0.6-0.9,0.9
	c-0.5,0.3-1.2,0.7-2,1c-0.8,0.3-1.9,0.5-3.2,0.5c-1.3,0-2.3-0.2-3.2-0.6c-0.9-0.4-1.5-0.9-2.1-1.5c-0.5-0.6-0.9-1.4-1.1-2.2
	c-0.2-0.8-0.3-1.7-0.3-2.6c0-1.4,0.2-2.8,0.7-4c0.4-1.3,1.1-2.4,1.9-3.3c0.8-0.9,1.8-1.7,3-2.3c1.2-0.6,2.5-0.8,4-0.8
	c0.8,0,1.5,0.1,2.2,0.3c0.6,0.2,1.1,0.5,1.6,0.9c0.4,0.4,0.8,0.9,1,1.4c0.2,0.5,0.3,1.1,0.3,1.7c0,1.3-0.3,2.3-0.9,3.1
	c-0.6,0.8-1.3,1.4-2.2,1.9c-0.9,0.5-1.8,0.8-2.9,0.9c-1,0.2-2,0.2-2.9,0.2h-0.6c-0.2,0-0.4,0-0.6,0v0.2c0,0.5,0.1,1,0.3,1.4
	c0.2,0.4,0.4,0.7,0.7,1c0.3,0.3,0.6,0.4,0.9,0.6c0.3,0.1,0.7,0.2,1,0.2c0.9,0,1.8-0.2,2.4-0.7C295.9,136.2,296.5,135.7,297,135.1
	 M291.4,131.3c0.5,0,1.1-0.1,1.6-0.2c0.5-0.1,1-0.3,1.5-0.5c0.4-0.2,0.8-0.5,1.1-0.9c0.3-0.4,0.4-0.8,0.4-1.3c0-0.4-0.1-0.7-0.3-1
	c-0.2-0.3-0.6-0.4-1.2-0.4c-1,0-1.8,0.4-2.5,1.2c-0.7,0.8-1.2,1.8-1.5,3.1c0.2,0,0.4,0,0.5,0H291.4z"/>
<path style="fill:#E0D7D4;" d="M305.6,115.9c0.3,0,0.6-0.1,0.8-0.1c0.3,0,0.5,0,0.8,0c0.9,0,1.6,0.2,2,0.7c0.4,0.5,0.6,1,0.6,1.7
	c0,0.1,0,0.3,0,0.4c0,0.1,0,0.3-0.1,0.4l-2.8,17.2c0,0.3-0.1,0.5-0.1,0.8c0,0.3,0,0.5,0,0.8c0,0.4,0,0.9,0.1,1.3
	c0.1,0.4,0.1,0.8,0.3,1.1c-0.4,0.2-0.8,0.4-1.2,0.5c-0.4,0.1-0.8,0.1-1.2,0.1c-0.9,0-1.6-0.2-2.1-0.6c-0.5-0.4-0.7-1.1-0.7-2
	c0-0.1,0-0.2,0-0.4c0-0.1,0-0.3,0.1-0.4L305.6,115.9z"/>
<path style="fill:#E0D7D4;" d="M314.2,115.9c0.3,0,0.6-0.1,0.8-0.1c0.3,0,0.5,0,0.8,0c0.9,0,1.6,0.2,2,0.7c0.4,0.5,0.6,1,0.6,1.7
	c0,0.1,0,0.3,0,0.4c0,0.1,0,0.3-0.1,0.4l-2.8,17.2c0,0.3-0.1,0.5-0.1,0.8c0,0.3,0,0.5,0,0.8c0,0.4,0,0.9,0.1,1.3
	c0.1,0.4,0.1,0.8,0.3,1.1c-0.4,0.2-0.8,0.4-1.2,0.5c-0.4,0.1-0.8,0.1-1.2,0.1c-0.9,0-1.6-0.2-2.1-0.6c-0.5-0.4-0.7-1.1-0.7-2
	c0-0.1,0-0.2,0-0.4c0-0.1,0-0.3,0.1-0.4L314.2,115.9z"/>
<path style="fill:#E0D7D4;" d="M321.4,123.9c0.3,0,0.6-0.1,0.8-0.1c0.3,0,0.5,0,0.8,0c0.9,0,1.6,0.2,2,0.7c0.4,0.5,0.6,1,0.6,1.7
	c0,0.1,0,0.3,0,0.4c0,0.1,0,0.3-0.1,0.4l-1.5,9.1c0,0.3-0.1,0.5-0.1,0.8c0,0.3,0,0.5,0,0.8c0,0.4,0,0.9,0.1,1.3
	c0.1,0.4,0.1,0.8,0.3,1.1c-0.4,0.2-0.8,0.4-1.2,0.5c-0.4,0.1-0.8,0.1-1.2,0.1c-1,0-1.6-0.2-2.1-0.6c-0.5-0.4-0.7-1.1-0.7-2
	c0-0.1,0-0.2,0-0.4c0-0.1,0-0.3,0.1-0.4L321.4,123.9z M324.3,121.1c-0.7,0-1.3-0.2-1.7-0.7c-0.4-0.5-0.6-1-0.6-1.5
	c0-1.1,0.3-1.8,0.8-2.4c0.6-0.5,1.2-0.8,2-0.8c0.7,0,1.3,0.2,1.7,0.7c0.4,0.5,0.6,1,0.6,1.5c0,1.1-0.3,1.8-0.8,2.4
	C325.8,120.8,325.1,121.1,324.3,121.1"/>
<path style="fill:#E0D7D4;" d="M332.8,148.2c-1.1,0-2.1-0.1-2.9-0.3c-0.8-0.2-1.5-0.6-2.1-1.1c-0.3-0.3-0.6-0.5-0.7-0.8
	c-0.1-0.3-0.2-0.6-0.3-0.9c0-0.5,0.1-1,0.4-1.5s0.7-0.9,1.2-1.2c0.4,0.6,1,1.1,1.7,1.5c0.7,0.4,1.6,0.6,2.6,0.6
	c1.2,0,2.1-0.4,2.8-1.1c0.7-0.8,1.2-1.9,1.4-3.3l0.2-1.4c-0.5,0.6-1.2,1-1.9,1.4c-0.8,0.3-1.5,0.5-2.4,0.5c-0.9,0-1.7-0.2-2.4-0.5
	c-0.6-0.3-1.1-0.7-1.5-1.3c-0.4-0.5-0.7-1.2-0.8-2c-0.2-0.8-0.3-1.6-0.3-2.5c0-1.4,0.2-2.8,0.7-4.1c0.5-1.3,1.1-2.5,2-3.5
	c0.9-1,1.9-1.8,3.1-2.4c1.2-0.6,2.5-0.9,3.9-0.9c1,0,2.1,0.1,3.2,0.4c1.1,0.3,2.1,0.7,3.1,1.3l-2.3,13.8c-0.5,3.2-1.5,5.5-3,7
	C337.1,147.5,335.2,148.2,332.8,148.2 M339,127.3c-0.5-0.3-1-0.4-1.6-0.4c-0.6,0-1.1,0.2-1.7,0.5c-0.6,0.3-1.1,0.8-1.5,1.5
	c-0.4,0.6-0.8,1.4-1.1,2.3c-0.3,0.9-0.4,2-0.4,3.1c0,1.8,0.7,2.7,2,2.7c0.4,0,0.8-0.1,1.2-0.3c0.4-0.2,0.7-0.5,1-0.8
	c0.3-0.3,0.5-0.7,0.7-1.1c0.2-0.4,0.3-0.9,0.4-1.4L339,127.3z"/>
<path style="fill:#E0D7D4;" d="M357.1,135.1c1.2,0.6,1.8,1.3,1.8,2.2c0,0.5-0.1,0.9-0.4,1.2c-0.3,0.3-0.6,0.6-0.9,0.9
	c-0.5,0.3-1.2,0.7-2,1c-0.8,0.3-1.9,0.5-3.2,0.5c-1.3,0-2.3-0.2-3.2-0.6c-0.9-0.4-1.5-0.9-2.1-1.5c-0.5-0.6-0.9-1.4-1.1-2.2
	c-0.2-0.8-0.3-1.7-0.3-2.6c0-1.4,0.2-2.8,0.7-4c0.4-1.3,1.1-2.4,1.9-3.3c0.8-0.9,1.8-1.7,3-2.3c1.2-0.6,2.5-0.8,4-0.8
	c0.8,0,1.5,0.1,2.2,0.3c0.6,0.2,1.1,0.5,1.6,0.9c0.4,0.4,0.8,0.9,1,1.4c0.2,0.5,0.3,1.1,0.3,1.7c0,1.3-0.3,2.3-0.9,3.1
	c-0.6,0.8-1.3,1.4-2.2,1.9c-0.9,0.5-1.8,0.8-2.9,0.9c-1,0.2-2,0.2-2.9,0.2h-0.6c-0.2,0-0.4,0-0.6,0v0.2c0,0.5,0.1,1,0.3,1.4
	c0.2,0.4,0.4,0.7,0.7,1c0.3,0.3,0.6,0.4,0.9,0.6c0.3,0.1,0.7,0.2,1,0.2c0.9,0,1.8-0.2,2.4-0.7C356.1,136.2,356.7,135.7,357.1,135.1
	 M351.5,131.3c0.5,0,1.1-0.1,1.6-0.2c0.5-0.1,1-0.3,1.5-0.5c0.4-0.2,0.8-0.5,1.1-0.9c0.3-0.4,0.4-0.8,0.4-1.3c0-0.4-0.1-0.7-0.3-1
	c-0.2-0.3-0.6-0.4-1.2-0.4c-1,0-1.8,0.4-2.5,1.2c-0.7,0.8-1.2,1.8-1.5,3.1c0.2,0,0.4,0,0.5,0H351.5z"/>
<path style="fill:#E0D7D4;" d="M366.4,140.3h-4.7l2.7-16.4c0.5-0.1,1.1-0.1,1.7-0.1c0.6,0,1.2,0.1,1.6,0.4c0.4,0.3,0.7,0.8,0.9,1.4
	c0.5-0.6,1.2-1.1,1.9-1.5c0.8-0.4,1.7-0.7,2.9-0.7c1.1,0,1.9,0.2,2.6,0.7c0.6,0.5,1.1,1.1,1.4,1.8c0.2,0.7,0.3,1.4,0.3,2.2
	c0,0.4,0,0.8-0.1,1.2c0,0.4-0.1,0.8-0.2,1.2l-1.6,9.8h-4.7l1.6-9.8c0-0.3,0.1-0.5,0.1-0.7c0-0.2,0-0.5,0-0.7c0-0.5-0.1-1-0.4-1.4
	c-0.2-0.4-0.7-0.6-1.5-0.6c-0.7,0-1.4,0.3-1.9,0.9c-0.6,0.6-0.9,1.4-1.1,2.4L366.4,140.3z"/>
<path style="fill:#E0D7D4;" d="M391.9,129.1c-0.3-0.8-0.7-1.3-1.1-1.6c-0.4-0.3-1.1-0.5-1.8-0.5c-0.6,0-1.2,0.2-1.8,0.6
	c-0.5,0.4-1,0.9-1.3,1.6c-0.4,0.7-0.6,1.4-0.8,2.3c-0.2,0.9-0.3,1.8-0.3,2.8c0,1.1,0.3,1.8,0.8,2.3c0.5,0.5,1.1,0.7,1.8,0.7
	c0.7,0,1.4-0.2,2-0.6c0.6-0.4,1.1-0.9,1.5-1.5c0.6,0.3,1.1,0.6,1.4,0.9c0.3,0.4,0.5,0.8,0.5,1.2c0,0.7-0.4,1.4-1.2,2.1
	c-0.4,0.3-1,0.7-1.8,1c-0.8,0.3-1.8,0.5-3,0.5c-1.2,0-2.3-0.2-3.1-0.6c-0.8-0.4-1.5-0.9-2-1.5c-0.5-0.6-0.9-1.4-1.1-2.2
	c-0.2-0.8-0.3-1.7-0.3-2.6c0-1.4,0.2-2.8,0.6-4c0.4-1.3,1-2.4,1.8-3.3c0.8-0.9,1.7-1.7,2.9-2.3c1.1-0.6,2.4-0.8,3.8-0.8
	c1.2,0,2.1,0.2,2.9,0.6c0.7,0.4,1.3,0.9,1.6,1.4c0.3,0.5,0.4,0.9,0.4,1.2c0,0.6-0.2,1.1-0.6,1.5
	C393.1,128.6,392.5,128.9,391.9,129.1"/>
<path style="fill:#E0D7D4;" d="M406.5,135.1c1.2,0.6,1.8,1.3,1.8,2.2c0,0.5-0.1,0.9-0.4,1.2c-0.3,0.3-0.6,0.6-0.9,0.9
	c-0.5,0.3-1.2,0.7-2,1c-0.8,0.3-1.9,0.5-3.2,0.5c-1.3,0-2.3-0.2-3.2-0.6c-0.9-0.4-1.5-0.9-2.1-1.5c-0.5-0.6-0.9-1.4-1.1-2.2
	c-0.2-0.8-0.3-1.7-0.3-2.6c0-1.4,0.2-2.8,0.7-4c0.4-1.3,1.1-2.4,1.9-3.3c0.8-0.9,1.8-1.7,3-2.3c1.2-0.6,2.5-0.8,4-0.8
	c0.8,0,1.5,0.1,2.2,0.3c0.6,0.2,1.1,0.5,1.6,0.9c0.4,0.4,0.8,0.9,1,1.4c0.2,0.5,0.3,1.1,0.3,1.7c0,1.3-0.3,2.3-0.9,3.1
	c-0.6,0.8-1.3,1.4-2.2,1.9c-0.9,0.5-1.8,0.8-2.9,0.9c-1,0.2-2,0.2-2.9,0.2h-0.6c-0.2,0-0.4,0-0.6,0v0.2c0,0.5,0.1,1,0.3,1.4
	c0.2,0.4,0.4,0.7,0.7,1c0.3,0.3,0.6,0.4,0.9,0.6c0.3,0.1,0.7,0.2,1,0.2c0.9,0,1.8-0.2,2.4-0.7C405.5,136.2,406.1,135.7,406.5,135.1
	 M401,131.3c0.5,0,1.1-0.1,1.6-0.2c0.5-0.1,1-0.3,1.5-0.5c0.4-0.2,0.8-0.5,1.1-0.9c0.3-0.4,0.4-0.8,0.4-1.3c0-0.4-0.1-0.7-0.3-1
	c-0.2-0.3-0.6-0.4-1.2-0.4c-1,0-1.8,0.4-2.5,1.2c-0.7,0.8-1.2,1.8-1.5,3.1c0.2,0,0.4,0,0.5,0H401z"/>
<path style="fill:#E0D7D4;" d="M42.9,159.4c-2.6,0-5.1-0.6-7.1-1.8L7.1,141C3,138.7,0,133.5,0,128.8V95.6c0-4.7,3-9.9,7.1-12.3
	l28.7-16.6c3.9-2.3,10.2-2.3,14.2,0l28.7,16.6c4.1,2.4,7.1,7.5,7.1,12.3v33.2c0,4.7-3,9.9-7.1,12.3L50,157.6
	C48,158.8,45.5,159.4,42.9,159.4 M42.9,76.2c-0.8,0-1.3,0.2-1.4,0.3L12.7,93.1c-0.6,0.3-1.4,1.8-1.4,2.5v33.2c0,0.7,0.8,2.1,1.4,2.5
	l28.7,16.6c0.1,0.1,0.6,0.3,1.4,0.3c0.8,0,1.3-0.2,1.4-0.3l28.7-16.6c0.6-0.3,1.4-1.8,1.4-2.5V95.6c0-0.7-0.9-2.2-1.4-2.5L44.4,76.5
	C44.2,76.4,43.7,76.2,42.9,76.2"/>
<path style="fill:#E0D7D4;" d="M80.2,94.8c-2.6,0-5.1-0.6-7.1-1.8L44.4,76.5c-4.1-2.4-7.1-7.5-7.1-12.3V31c0-4.7,3-9.9,7.1-12.3
	L73.1,2.2c4-2.3,10.2-2.3,14.2,0L116,18.8c4.1,2.4,7.1,7.5,7.1,12.3v33.2c0,4.7-3,9.9-7.1,12.3L87.3,93.1
	C85.3,94.2,82.8,94.8,80.2,94.8 M80.2,11.7c-0.8,0-1.3,0.2-1.4,0.3L50,28.5c-0.6,0.3-1.4,1.8-1.4,2.5v33.2c0,0.7,0.9,2.2,1.4,2.5
	l28.7,16.6c0.1,0.1,0.6,0.3,1.4,0.3c0.8,0,1.3-0.2,1.4-0.3l28.7-16.6c0.6-0.3,1.4-1.8,1.4-2.5V31c0-0.7-0.8-2.2-1.4-2.5L81.6,11.9
	C81.5,11.9,81,11.7,80.2,11.7"/>
<path style="fill:#E0D7D4;" d="M58,126.1c-3.1,0-5.6-2.5-5.6-5.6v-14.2l-9.4-5.5l-9.5,5.5v14.2c0,3.1-2.5,5.6-5.6,5.6
	s-5.6-2.5-5.6-5.6V105c0-3.1,1.9-6.3,4.6-7.9l11.6-6.7c2.7-1.6,6.4-1.6,9.1,0l11.6,6.7c2.7,1.5,4.5,4.8,4.5,7.9v15.4
	C63.6,123.5,61.1,126.1,58,126.1"/>
<path style="fill:#E0D7D4;" d="M80.1,70.1c-1.6,0-3.2-0.4-4.6-1.2l-11.6-6.7c-2.7-1.6-4.5-4.8-4.5-7.9V40.9c0-3.1,1.9-6.3,4.5-7.9
	l11.7-6.7c2.7-1.5,6.4-1.5,9.1,0l11.2,6.4c2.7,1.6,3.6,5,2.1,7.7c-1.6,2.7-5,3.6-7.7,2.1l-10.1-5.8l-9.4,5.4v10.9l9.4,5.5l10.4-6
	c2.7-1.6,6.2-0.6,7.7,2.1c1.6,2.7,0.6,6.2-2.1,7.7l-11.5,6.7C83.3,69.7,81.7,70.1,80.1,70.1"/>
</svg>
