<svg id="Layer_1" data-name="Layer 1" xmlns="http://www.w3.org/2000/svg" viewBox="0 0 553.18 525.41"><defs><style>.cls-1{fill:#baa393;}</style></defs><title>logo-levi9</title><path class="cls-1" d="M212.84,285.63a3.08,3.08,0,0,0-.82-2.12,2.66,2.66,0,0,0-2-.77,2.72,2.72,0,0,0-2.44,1.55,8.62,8.62,0,0,0-.91,4.35,7.94,7.94,0,0,0,.9,4.24,2.87,2.87,0,0,0,2.63,1.41,2.53,2.53,0,0,0,2-.77,3.62,3.62,0,0,0,.75-2.29h5.36a6.76,6.76,0,0,1-2.36,5.11,8.61,8.61,0,0,1-5.84,1.89,8.74,8.74,0,0,1-6.63-2.51,9.56,9.56,0,0,1-2.41-6.89,9.89,9.89,0,0,1,2.41-7,8,8,0,0,1,6.23-2.68,9.58,9.58,0,0,1,6,1.71,6.12,6.12,0,0,1,2.39,4.74h-5.23Zm10,3.07a12.67,12.67,0,0,0-1-4.93,12.85,12.85,0,0,0-2.78-4.17,12.65,12.65,0,0,0-4.2-2.84,12.8,12.8,0,0,0-4.94-.94,13.12,13.12,0,0,0-4.94.92,12,12,0,0,0-4.11,2.78,13.34,13.34,0,0,0-2.85,4.25,12.7,12.7,0,0,0,0,9.84,13.38,13.38,0,0,0,2.8,4.16A13,13,0,0,0,205,300.6a12.33,12.33,0,0,0,4.91,1,12.47,12.47,0,0,0,4.92-1,13.6,13.6,0,0,0,4.26-2.86,11.79,11.79,0,0,0,2.77-4.1,12.88,12.88,0,0,0,.94-4.94m-12.88-16.2a16.48,16.48,0,0,1,6.3,1.22,15.74,15.74,0,0,1,5.28,3.51A16.56,16.56,0,0,1,225,294.92a15.48,15.48,0,0,1-3.46,5.08,17.24,17.24,0,0,1-5.39,3.59,15.8,15.8,0,0,1-6.19,1.26,15.62,15.62,0,0,1-6.12-1.24,16.71,16.71,0,0,1-5.25-3.57,16.18,16.18,0,0,1-3.55-5.25,15.55,15.55,0,0,1-1.24-6.12,15.94,15.94,0,0,1,1.25-6.24,16.56,16.56,0,0,1,3.59-5.37,15,15,0,0,1,5.12-3.44,16.58,16.58,0,0,1,6.2-1.19"/><path class="cls-1" d="M12.52,379.09q0,19.59,12.68,31.65t34,12.06H160.95V342.66q0-21-9.23-32t-28.94-13.45a70,70,0,0,0-7.92-.63H54.58q-18.76,0-30.39,11.5T12.52,338.3v40.78h0ZM115.28,525.41H0v-12H114.8q12.15,0,18.39-1.7a35.31,35.31,0,0,0,12.87-7.17Q161,492.63,161,471.17v-36.3H59.75q-14.4,0-23.71-2.82a51.46,51.46,0,0,1-17.73-9.8Q0.52,407.11.52,379.76V337.64q0-23,15.55-38.56,14.1-14.58,38.11-14.58h61.44q27.23,0,42.3,15.53T173,342.59V470.42a59.1,59.1,0,0,1-5.59,25.87,51.93,51.93,0,0,1-15.64,19.21,49,49,0,0,1-16,7.6,80.58,80.58,0,0,1-20.49,2.27"/><path class="cls-1" d="M416.66,234.09L335.32,58.77h12.34L425,226.32l77.3-167.55h12.26L432.88,234.09a54.85,54.85,0,0,1-2.59,5.34,6.36,6.36,0,0,1-10.7,0c-0.43-.65-0.77-1.22-1.07-1.76s-0.87-1.75-1.85-3.58"/><path class="cls-1" d="M38.52,238q-18.34-6.31-26.31-18.85T4.29,184.61V0h12V184.5q0,15.56,5.35,25.33t17.51,14.38q12.18,4.64,32.3,4.62h88.76V240.9H71.78q-14.94,0-21.41-.55A52.12,52.12,0,0,1,38.52,238"/><rect class="cls-1" x="539" y="58.77" width="10.59" height="183.58"/><path class="cls-1" d="M227.12,230.5A39.56,39.56,0,0,1,187.6,191V179.9l0.19-.1,137.73-60.73V117h0V102.68A43.56,43.56,0,0,0,282,59.17H220.26a43.56,43.56,0,0,0-43.51,43.51V191a50.43,50.43,0,0,0,50.37,50.4h98.67V230.5H227.12ZM220.26,70H282a32.69,32.69,0,0,1,32.65,32.66v9.24l-127.06,56V102.68A32.69,32.69,0,0,1,220.26,70Z"/><circle class="cls-1" cx="544.15" cy="31.23" r="9.03"/></svg>