<?xml version="1.0" encoding="utf-8"?>
<!-- Generator: Adobe Illustrator 19.0.0, SVG Export Plug-In . SVG Version: 6.00 Build 0)  -->
<svg version="1.1" id="Layer_1" xmlns="http://www.w3.org/2000/svg" xmlns:xlink="http://www.w3.org/1999/xlink" x="0px" y="0px"
	 viewBox="0 0 188.4 36.5" style="enable-background:new 0 0 188.4 36.5;" xml:space="preserve">
<style type="text/css">
	.st0{fill:#E1D9D6;}
</style>
<g id="XMLID_1_">
	<path id="XMLID_89_" class="st0" d="M3.1,27C1,25,0,22.3,0,19s1-6,3.1-8.1c2.1-2,4.9-3,8.4-3c3.5,0,6.3,1,8.4,3
		c2.1,2,3.1,4.6,3.1,7.7v1.2c0,0.7-0.3,1-1,1H5.6c0.1,1.5,0.8,2.7,1.9,3.7c1.1,1,2.4,1.5,4,1.5c2.3,0,4-0.8,5-2.4
		c0.5-0.7,0.9-1,1.4-1h3c0.3,0,0.5,0.1,0.7,0.3c0.2,0.2,0.3,0.4,0.3,0.7c-0.3,1.8-1.4,3.3-3.2,4.6c-1.8,1.3-4.2,1.9-7.3,1.9
		C8,30.1,5.2,29.1,3.1,27z M7.7,13.4c-1.1,1-1.7,2-1.8,3.2h11.3c-0.1-1.2-0.7-2.2-1.8-3.2c-1.1-1-2.4-1.5-3.8-1.5
		C10,11.9,8.8,12.4,7.7,13.4z"/>
	<path id="XMLID_87_" class="st0" d="M44.2,16.5c0-1.3-0.4-2.4-1.3-3.3c-0.9-0.9-2-1.3-3.3-1.3c-1.1,0-2.3,0.3-3.4,0.8
		s-1.9,1-2.5,1.5l-0.8,0.8v13.3c0,0.7-0.3,1-1,1h-3.4c-0.7,0-1-0.3-1-1V9.7c0-0.7,0.3-1,1-1h3.4c0.7,0,1,0.3,1,1v1.2h0.2l0.3-0.3
		c0.1-0.1,0.4-0.4,0.9-0.7c0.5-0.3,1-0.7,1.5-0.9s1.2-0.5,2-0.7c0.8-0.2,1.7-0.3,2.5-0.3c2.8,0,5,0.8,6.7,2.4
		c1.7,1.6,2.5,3.7,2.5,6.3v11.7c0,0.2-0.1,0.5-0.3,0.7c-0.2,0.2-0.4,0.3-0.7,0.3h-3.4c-0.7,0-1-0.3-1-1V16.5z"/>
	<path id="XMLID_84_" class="st0" d="M49,33.3c0-0.7,0.3-1,1-1h0.6c0.3,0,0.7,0.1,1.2,0.2c0.5,0.1,0.9,0.2,1.2,0.2
		c0.9,0,1.7-0.3,2.3-1s0.9-1.6,0.9-2.8V9.7c0-0.7,0.3-1,1-1h3.4c0.7,0,1,0.3,1,1v19.2c0,2.4-0.8,4.4-2.3,5.9
		c-1.5,1.5-3.7,2.2-6.4,2.2c-0.5,0-1,0-1.5-0.1c-0.5-0.1-0.9-0.1-1.2-0.2l-0.4-0.1c-0.7-0.2-1-0.6-1-1.2V33.3z M60.1,0
		c1.1,0,1.6,0.5,1.6,1.6v2.6c0,1.1-0.5,1.6-1.6,1.6h-2.2c-1.1,0-1.6-0.5-1.6-1.6V1.6c0-1.1,0.5-1.6,1.6-1.6H60.1z"/>
	<path id="XMLID_81_" class="st0" d="M87,27c-2.1,2-5,3-8.7,3s-6.6-1-8.7-3s-3.2-4.7-3.2-8.1s1.1-6.1,3.2-8.1c2.1-2,5-3,8.7-3
		s6.6,1,8.7,3c2.1,2,3.2,4.7,3.2,8.1S89.2,25,87,27z M83,13.8c-1.2-1.3-2.7-1.9-4.7-1.9c-1.9,0-3.5,0.6-4.7,1.9
		c-1.2,1.3-1.8,3-1.8,5.2c0,2.2,0.6,3.9,1.8,5.2c1.2,1.3,2.7,1.9,4.7,1.9c1.9,0,3.5-0.6,4.7-1.9s1.8-3,1.8-5.2
		C84.8,16.8,84.2,15.1,83,13.8z"/>
	<path id="XMLID_79_" class="st0" d="M99.5,27c-1.3-1.2-2.4-3.2-3.4-6L92.3,9.7c-0.1-0.3-0.1-0.5,0-0.7c0.1-0.2,0.3-0.3,0.6-0.3h3.8
		c0.6,0,1,0.3,1.2,1l3.6,11.3c0.3,1,0.8,1.8,1.4,2.5c0.6,0.7,1.2,1.1,1.9,1.1h1.2l4.2-14.9c0.2-0.7,0.6-1,1.2-1h3.4
		c0.3,0,0.5,0.1,0.7,0.3c0.1,0.2,0.2,0.4,0.1,0.7l-5.4,19.2c-0.6,2.3-1.7,4.1-3.3,5.5s-3.4,2.1-5.6,2.1h-3.2c-0.7,0-1-0.3-1-1v-2.6
		c0-0.7,0.3-1,1-1h1c0.4,0,0.7,0.1,1.2,0.2c0.4,0.1,0.8,0.2,1,0.2c1.6,0,2.8-1.1,3.4-3.4C102.6,28.9,100.8,28.2,99.5,27z"/>
	<path id="XMLID_77_" class="st0" d="M117.4,25.4c0-0.4,0.1-0.7,0.4-1c0.3-0.3,0.6-0.4,1-0.4h2.6c0.4,0,0.7,0.1,1,0.4
		c0.3,0.3,0.4,0.6,0.4,1v2.4c0,0.4-0.1,0.7-0.4,1c-0.3,0.3-0.6,0.4-1,0.4h-2.6c-0.4,0-0.7-0.1-1-0.4c-0.3-0.3-0.4-0.6-0.4-1V25.4z"
		/>
	<path id="XMLID_74_" class="st0" d="M131.7,0c1.1,0,1.6,0.5,1.6,1.6v2.6c0,1.1-0.5,1.6-1.6,1.6h-2.2c-1.1,0-1.6-0.5-1.6-1.6V1.6
		c0-1.1,0.5-1.6,1.6-1.6H131.7z M133.3,28.3c0,0.7-0.3,1-1,1h-3.4c-0.7,0-1-0.3-1-1V9.7c0-0.7,0.3-1,1-1h3.4c0.7,0,1,0.3,1,1V28.3z"
		/>
	<path id="XMLID_72_" class="st0" d="M155.9,16.5c0-1.3-0.4-2.4-1.3-3.3c-0.9-0.9-2-1.3-3.3-1.3c-1.1,0-2.3,0.3-3.4,0.8
		c-1.1,0.5-1.9,1-2.5,1.5l-0.8,0.8v13.3c0,0.7-0.3,1-1,1h-3.4c-0.7,0-1-0.3-1-1V9.7c0-0.7,0.3-1,1-1h3.4c0.7,0,1,0.3,1,1v1.2h0.2
		l0.3-0.3c0.1-0.1,0.4-0.4,0.9-0.7c0.5-0.3,1-0.7,1.5-0.9c0.5-0.3,1.2-0.5,2-0.7c0.8-0.2,1.7-0.3,2.5-0.3c2.8,0,5,0.8,6.7,2.4
		c1.7,1.6,2.5,3.7,2.5,6.3v11.7c0,0.2-0.1,0.5-0.3,0.7c-0.2,0.2-0.4,0.3-0.7,0.3h-3.4c-0.7,0-1-0.3-1-1V16.5z"/>
	<path id="XMLID_69_" class="st0" d="M188.4,27.4c0,2.7-1,5-3.1,6.8c-2.1,1.8-4.9,2.7-8.4,2.7c-3.1,0-5.5-0.6-7.4-1.8
		s-2.8-2.6-2.8-4.2c0-0.7,0.3-1,1-1h2.8c0.6,0,1.1,0.3,1.6,1c1,1.3,2.6,2,4.8,2c1.8,0,3.2-0.5,4.4-1.6c1.1-1,1.7-2.3,1.7-3.9v-0.6
		h-0.2c-0.2,0.1-0.5,0.3-0.8,0.4c-0.3,0.2-1,0.4-2.1,0.7c-1.1,0.3-2.2,0.4-3.3,0.4c-3.2,0-5.8-1-7.8-2.9c-2-1.9-3.1-4.3-3.1-7.2
		c0-3.1,1.1-5.7,3.3-7.6c2.2-1.9,5.3-2.9,9.2-2.9c1.4,0,2.9,0.2,4.4,0.5c1.6,0.3,2.7,0.7,3.5,0.9c0.7,0.3,1.2,0.5,1.4,0.6
		c0.7,0.2,1,0.7,1,1.4V27.4z M183,12.9c-1.5-0.7-3.1-1-4.8-1c-2.2,0-3.9,0.6-5.2,1.8s-1.9,2.7-1.9,4.7c0,1.7,0.6,3.2,1.8,4.3
		c1.2,1.2,2.7,1.7,4.5,1.7c0.9,0,1.8-0.1,2.7-0.4c0.9-0.3,1.7-0.6,2.2-0.9l0.7-0.4V12.9z"/>
</g>
</svg>
