<svg id="Capa_1" data-name="Capa 1" xmlns="http://www.w3.org/2000/svg" viewBox="0 0 335.34 477.8"><defs><style>.cls-1{fill:#ffda44;}.cls-2{fill:#fff;stroke:#ffda44;stroke-miterlimit:10;stroke-width:5px;}</style></defs><title>map-pin-vdb</title><path class="cls-1" d="M256,17.1A167.68,167.68,0,0,0,88.33,184.77a165.32,165.32,0,0,0,1.44,20.85c14.33,131,155.35,281.93,155.35,281.93a26.11,26.11,0,0,0,7.27,5.8l0.12,0.06,4.7,1.5,4.7-1.5,0.12-.06a27.9,27.9,0,0,0,7.27-5.8s139-151.22,153-282.22A166.6,166.6,0,0,0,256,17.1Z" transform="translate(-88.33 -17.1)"/><path class="cls-2" d="M138,126c1.31,1.68,3.55,4.57,4.95,6.35,10.08,13,42.46,53.66,42.74,53.66s4.2-4.76,8.77-10.64l8.4-10.55-2.52-3.55c-1.49-1.87-8.49-11.29-15.68-20.81l-13.06-17.36h-18l-18-.09Z" transform="translate(-88.33 -17.1)"/><path class="cls-2" d="M222.5,143.64c-9,11.39-17,21.46-17.73,22.3s-3.08,3.92-5.13,6.53-4.67,6-5.69,7.37c-1.77,2.15-15.12,19-48.15,60.94l-10.08,12.88,17.92-.09h18l11.67-15c6.44-8.21,12.13-15.4,12.6-16.05s7.93-9.89,16.33-20.62,16-20.25,16.52-21,7-8.68,14.09-17.64,13.25-16.42,13.72-16.52,6.16,6.44,12.6,14.74,12.13,15.49,12.6,16.05,2.15,2.61,3.64,4.48,3,3.55,3.45,3.55c0.75,0,16-18.85,16.52-20.53,0.19-.47-6.72-10.08-15.3-21.46L274.48,123H238.83Z" transform="translate(-88.33 -17.1)"/><path class="cls-2" d="M338.22,127.4c-2.8,3.83-13.72,17.64-17.08,21.74-0.56.75-3.45,4.39-6.25,7.93s-5.79,7.37-6.72,8.4-6.44,8.21-12.6,16-17.26,22-25,31.82l-14,17.73-6-7.56c-3.27-4.2-10.55-13.34-16.14-20.44l-10.17-12.78L216,200.85a139.53,139.53,0,0,0-8.4,11.29c0,0.28,7,9.8,15.58,21l15.58,20.53h35.65l29.86-37.89c16.33-20.81,30.24-38.35,30.8-38.91s8.87-11.2,18.57-23.52,19-24.17,20.81-26.41L377.6,123h-18l-18.1.09Z" transform="translate(-88.33 -17.1)"/><path class="cls-2" d="M318.8,201c-4.95,6.16-8.31,11.2-7.93,11.85s5.41,7.37,11.29,15.12,12.6,16.61,15,19.78l4.29,5.79,18,0.09h18l-7.19-9.15c-7.65-9.52-16.24-20.44-32.66-41.25-5.51-6.91-10-12.69-10.08-12.78S323.47,195.06,318.8,201Z" transform="translate(-88.33 -17.1)"/></svg>