<?xml version="1.0" encoding="utf-8"?>
<!-- Generator: Adobe Illustrator 19.0.0, SVG Export Plug-In . SVG Version: 6.00 Build 0)  -->
<svg version="1.1" id="Layer_1" xmlns="http://www.w3.org/2000/svg" xmlns:xlink="http://www.w3.org/1999/xlink" x="0px" y="0px"
	 viewBox="0 0 5291.1 1673.7" style="enable-background:new 0 0 5291.1 1673.7;" xml:space="preserve">
<g>
	<g>
		<path style="fill:#E0D7D4;" d="M1537.9,1487.5l-31,93.8h-39.8l101.7-298.2h46l101.8,298.2h-41.1l-31.9-93.8H1537.9z
			 M1636.1,1457.4l-29.7-85.8c-6.6-19.5-11.1-37.2-15.5-54.4h-0.9c-4.4,17.2-8.8,35.8-15,54l-29.2,86.2H1636.1z"/>
		<path style="fill:#E0D7D4;" d="M1906.4,1573.8c-10.2,4.9-32.7,12.4-61.5,12.4c-64.6,0-106.6-43.8-106.6-109.3
			c0-65.9,45.1-114.1,115-114.1c23,0,43.4,5.8,54,11.5l-8.8,29.7c-9.3-4.9-23.9-10.2-45.1-10.2c-49.1,0-75.7,36.7-75.7,81
			c0,49.5,31.9,80,74.3,80c22.1,0,36.7-5.3,47.8-10.2L1906.4,1573.8z"/>
		<path style="fill:#E0D7D4;" d="M2101.9,1573.8c-10.2,4.9-32.7,12.4-61.5,12.4c-64.6,0-106.6-43.8-106.6-109.3
			c0-65.9,45.1-114.1,115-114.1c23,0,43.3,5.8,54,11.5l-8.8,29.7c-9.3-4.9-23.9-10.2-45.1-10.2c-49.1,0-75.7,36.7-75.7,81
			c0,49.5,31.8,80,74.3,80c22.1,0,36.7-5.3,47.8-10.2L2101.9,1573.8z"/>
		<path style="fill:#E0D7D4;" d="M2166.5,1481.3c0.9,52.7,34.1,74.3,73.4,74.3c27.9,0,45.1-4.8,59.3-11.1l7.1,27.9
			c-13.7,6.2-37.6,13.7-71.7,13.7c-65.9,0-105.3-43.8-105.3-108.4c0-64.6,38-115,100.4-115c70.3,0,88.5,61.1,88.5,100.4
			c0,8-0.5,13.7-1.3,18.1H2166.5z M2280.7,1453.4c0.4-24.3-10.2-62.8-54-62.8c-39.8,0-56.6,35.8-59.7,62.8H2280.7z"/>
		<path style="fill:#E0D7D4;" d="M2366.5,1267.2h38.9v314.1h-38.9V1267.2z"/>
		<path style="fill:#E0D7D4;" d="M2492.6,1481.3c0.9,52.7,34.1,74.3,73.4,74.3c27.9,0,45.1-4.8,59.3-11.1l7.1,27.9
			c-13.7,6.2-37.6,13.7-71.7,13.7c-65.9,0-105.3-43.8-105.3-108.4c0-64.6,38.1-115,100.4-115c70.3,0,88.5,61.1,88.5,100.4
			c0,8-0.4,13.7-1.3,18.1H2492.6z M2606.7,1453.4c0.4-24.3-10.2-62.8-54-62.8c-39.8,0-56.6,35.8-59.7,62.8H2606.7z"/>
		<path style="fill:#E0D7D4;" d="M2692.5,1434c0-25.2-0.4-46.9-1.8-66.8h34.1l1.8,42.5h1.3c9.7-28.7,33.6-46.9,59.7-46.9
			c4,0,7.1,0.5,10.6,0.9v36.7c-4-0.9-7.9-0.9-13.2-0.9c-27.4,0-46.9,20.3-52.2,49.5c-0.9,5.3-1.3,11.9-1.3,18.1v114.1h-38.9V1434z"
			/>
		<path style="fill:#E0D7D4;" d="M2985.4,1530c0,18.6,0.9,36.7,3.1,51.3h-34.9l-3.1-27h-1.3c-12,16.8-35,31.9-65.5,31.9
			c-43.3,0-65.5-30.6-65.5-61.5c0-51.8,46-80.1,128.7-79.6v-4.4c0-17.2-4.9-49.5-48.7-49.1c-20.3,0-41.1,5.7-56.2,16l-8.8-26.1
			c17.7-11.1,43.8-18.6,70.8-18.6c65.5,0,81.4,44.7,81.4,87.2V1530z M2947.7,1472c-42.5-0.9-90.7,6.6-90.7,48.2
			c0,25.7,16.8,37.2,36.3,37.2c28.3,0,46.5-17.7,52.6-35.8c1.3-4.4,1.8-8.9,1.8-12.4V1472z"/>
		<path style="fill:#E0D7D4;" d="M3093.3,1315.8v51.3h55.7v29.7h-55.7v115.4c0,26.5,7.5,41.6,29.2,41.6c10.6,0,16.8-0.9,22.5-2.6
			l1.8,29.6c-7.5,2.6-19.5,5.3-34.5,5.3c-18.2,0-32.7-6.2-42-16.4c-10.6-11.9-15-31-15-56.2v-116.8h-33.2v-29.7h33.2v-39.8
			L3093.3,1315.8z"/>
		<path style="fill:#E0D7D4;" d="M3211.8,1481.3c0.8,52.7,34.1,74.3,73.4,74.3c27.8,0,45.1-4.8,59.3-11.1l7.1,27.9
			c-13.7,6.2-37.6,13.7-71.7,13.7c-65.9,0-105.3-43.8-105.3-108.4c0-64.6,38-115,100.4-115c70.4,0,88.5,61.1,88.5,100.4
			c0,8-0.5,13.7-1.3,18.1H3211.8z M3326,1453.4c0.4-24.3-10.2-62.8-54-62.8c-39.8,0-56.6,35.8-59.7,62.8H3326z"/>
		<path style="fill:#E0D7D4;" d="M3506.9,1287.1c19.5-3.5,47.8-6.2,73.9-6.2c41.1,0,68.1,8,86.3,24.3c14.6,13.3,23.4,33.6,23.4,57.1
			c0,38.9-24.8,65-55.7,75.6v1.4c22.5,8,36.3,29.2,43.3,60.2c9.7,41.6,16.8,70.3,23,81.8h-39.8c-4.9-8.8-11.5-34-19.5-71.2
			c-8.8-41.1-25.2-56.6-60.2-58h-36.3v129.2h-38.5V1287.1z M3545.4,1422.9h39.4c41.1,0,67.2-22.5,67.2-56.6
			c0-38.5-27.9-55.3-68.6-55.3c-18.6,0-31.4,1.3-38,3.1V1422.9z"/>
		<path style="fill:#E0D7D4;" d="M3767,1481.3c0.9,52.7,34.1,74.3,73.4,74.3c27.9,0,45.1-4.8,59.3-11.1l7.1,27.9
			c-13.7,6.2-37.6,13.7-71.7,13.7c-66,0-105.3-43.8-105.3-108.4c0-64.6,38-115,100.4-115c70.3,0,88.4,61.1,88.4,100.4
			c0,8-0.4,13.7-1.3,18.1H3767z M3881.1,1453.4c0.5-24.3-10.2-62.8-54-62.8c-39.8,0-56.6,35.8-59.7,62.8H3881.1z"/>
		<path style="fill:#E0D7D4;" d="M3967,1437c0-27.4-0.9-49.5-1.8-69.9h34.5l2.2,36.7h0.9c15.5-26.1,41.1-41.2,76-41.2
			c52.2,0,91.2,43.8,91.2,108.4c0,77-47.4,115-97.8,115c-28.3,0-53.1-12.4-65.9-33.6h-0.9v116.4H3967V1437z M4005.4,1494.1
			c0,5.7,0.5,11,1.8,15.9c7.1,26.9,30.5,45.5,58.4,45.5c41.2,0,65-33.6,65-82.7c0-42.5-22.6-79.2-63.7-79.2
			c-26.6,0-51.8,18.6-58.8,47.8c-1.3,4.9-2.6,10.6-2.6,15.5V1494.1z"/>
		<path style="fill:#E0D7D4;" d="M4412.4,1472.4c0,79.2-55.3,113.7-106.6,113.7c-57.5,0-102.7-42.5-102.7-110.2
			c0-71.2,47.4-113.2,106.2-113.2C4370.8,1362.7,4412.4,1407.4,4412.4,1472.4z M4243,1474.7c0,46.9,26.5,82.3,64.6,82.3
			c37.2,0,65-35,65-83.2c0-36.3-18.1-81.8-64.1-81.8C4262.9,1391.9,4243,1434.4,4243,1474.7z"/>
		<path style="fill:#E0D7D4;" d="M4461.5,1434c0-25.2-0.4-46.9-1.7-66.8h34l1.8,42.5h1.3c9.7-28.7,33.6-46.9,59.7-46.9
			c4,0,7.1,0.5,10.7,0.9v36.7c-4-0.9-8-0.9-13.3-0.9c-27.4,0-46.9,20.3-52.2,49.5c-0.9,5.3-1.3,11.9-1.3,18.1v114.1h-38.9V1434z"/>
		<path style="fill:#E0D7D4;" d="M4663.6,1315.8v51.3h55.7v29.7h-55.7v115.4c0,26.5,7.5,41.6,29.2,41.6c10.6,0,16.8-0.9,22.6-2.6
			l1.7,29.6c-7.5,2.6-19.4,5.3-34.5,5.3c-18.2,0-32.7-6.2-42-16.4c-10.6-11.9-15-31-15-56.2v-116.8h-33.2v-29.7h33.2v-39.8
			L4663.6,1315.8z"/>
		<path style="fill:#E0D7D4;" d="M4806.5,1307c0,13.3-9.3,23.9-24.8,23.9c-14.2,0-23.5-10.6-23.5-23.9c0-13.3,9.8-24.3,24.3-24.3
			C4796.8,1282.7,4806.5,1293.3,4806.5,1307z M4763.2,1581.3v-214.1h38.9v214.1H4763.2z"/>
		<path style="fill:#E0D7D4;" d="M4866.7,1425.1c0-22.6-0.4-40.3-1.8-58h34.5l2.2,35.4h0.8c10.6-19.9,35.4-39.8,70.8-39.8
			c29.6,0,75.7,17.7,75.7,91.2v127.4H5010v-123.4c0-34.5-12.8-63.3-49.6-63.3c-25.2,0-45.1,18.2-52.2,39.8
			c-1.8,4.9-2.6,11.5-2.6,18.2v128.7h-38.9V1425.1z"/>
		<path style="fill:#E0D7D4;" d="M5295.3,1549.9c0,49.5-10.2,79.2-30.5,98.2c-21.2,19-51.3,25.7-78.3,25.7c-25.7,0-54-6.2-71.2-17.7
			l9.8-30.1c14.2,9.3,36.3,17.3,62.8,17.3c39.8,0,69-20.8,69-75.2v-23.5h-0.9c-11.5,19.9-34.9,35.8-68.1,35.8
			c-53.1,0-91.1-45.1-91.1-104.4c0-72.5,47.3-113.2,96.9-113.2c37.2,0,57.1,19.1,66.8,36.8h0.9l1.3-32.3h34.5
			c-1.3,15-1.8,32.7-1.8,58.4V1549.9z M5256.4,1451.6c0-6.6-0.5-12.4-2.2-17.3c-7.1-23-25.7-41.6-54.4-41.6
			c-37.2,0-63.7,31.4-63.7,81c0,42,21.7,77,63.3,77c24.3,0,46-15,53.9-39.8c2.2-6.7,3.1-14.2,3.1-20.8V1451.6z"/>
	</g>
	<g>
		<g>
			<g>
				<path style="fill:#E0D7D4;" d="M640.9,770c-10.7,0-21.5-2.6-31.4-8.2L45.9,448.2C14.6,430.8,3.4,391.3,20.8,360
					c17.3-31.4,56.8-42.6,88.1-25.2l563.5,313.6c31.3,17.4,42.6,56.9,25.1,88.2C685.7,758,663.7,770,640.9,770z"/>
			</g>
			<g>
				<path style="fill:#E0D7D4;" d="M638.9,770c-22.9,0-45-12-56.9-33.5c-17.5-31.5-6.2-71.2,25.3-88.7l565.6-315.5
					c31.5-17.5,71-6.2,88.4,25.3c17.5,31.5,6.2,71.2-25.2,88.7L670.4,761.8C660.4,767.4,649.6,770,638.9,770z"/>
			</g>
			<g>
				<path style="fill:#E0D7D4;" d="M639.8,1398.9c-36.4,0-66-29.2-66-65.2V703.2c0-36,29.6-65.2,66-65.2c36.4,0,65.9,29.2,65.9,65.2
					v630.5C705.7,1369.7,676.2,1398.9,639.8,1398.9z"/>
			</g>
			<g>
				<path style="fill:#E0D7D4;" d="M639.8,1408.1c-11.1,0-22.1-2.8-32.1-8.3l-573.8-319C13,1069,0,1047,0,1023V385
					c0-24,13-46,33.9-57.6L607.7,8.3c19.9-11.1,44.2-11.1,64.1,0l573.8,319c20.9,11.6,33.9,33.7,33.9,57.7v638c0,24-13,46-33.9,57.7
					l-573.8,319C661.9,1405.3,650.8,1408.1,639.8,1408.1z M131.9,984.3l507.9,282.3l507.8-282.3V423.8L639.8,141.5L131.9,423.8
					V984.3z"/>
			</g>
		</g>
		<g>
			<path style="fill:#E0D7D4;" d="M1470,836V473.6c0-96.3,25.3-166.7,76-211.1c50.6-44.4,118.3-66.6,203-66.6
				c84.7,0,152.6,22.2,203.6,66.6c51.1,44.4,76.6,114.8,76.6,211.1V836c0,87.2-21.2,153.2-63.5,198c-42.3,44.9-99.6,70.6-171.9,77.2
				v87.2c0,13.3-4.4,23.9-13.1,31.8c-8.7,7.8-19.3,11.8-31.8,11.8c-11.6,0-21.8-4-30.5-11.8c-8.7-7.9-13.1-18.5-13.1-31.8v-87.2
				c-72.2-6.6-129.5-32.2-171.9-76.6C1491.2,990.3,1470,924.1,1470,836z M1602,836c0,88,34.5,139.1,103.4,153.2v-76
				c0-28.2,14.5-42.3,43.6-42.3c12.5,0,23,3.5,31.8,10.6c8.7,7.1,13.1,17.7,13.1,31.7V988c68.9-14.9,103.4-65.6,103.4-152V473.6
				c0-54-12.9-94.2-38.6-120.8c-25.8-26.6-62.3-39.9-109.6-39.9c-98,0-147,53.6-147,160.7V836z"/>
			<path style="fill:#E0D7D4;" d="M2119.3,1051.6c0-5,0.4-8.7,1.2-11.2l247.3-807.2c10.5-29.8,40.1-44.8,88.5-44.8
				c49.3,0,79.3,13.9,89.9,41.7l246.6,807.1c1.6,5.2,2.5,9.1,2.5,11.7c0,15.6-9.7,29.1-29,40.4c-19.4,11.3-39.9,16.9-61.6,16.9
				c-26.2,0-42.5-9-48.8-27.1l-51.6-178.4h-306.1l-51,177.9c-5.8,18.4-21.1,27.6-46,27.6c-19.9,0-38.5-5.4-55.9-16.2
				C2128,1079.4,2119.3,1066.6,2119.3,1051.6z M2328.2,796.2h247.2l-124.9-427.5L2328.2,796.2z"/>
			<path style="fill:#E0D7D4;" d="M2874.9,836V473.6c0-95.5,25.5-165.7,76.6-210.5c51.1-44.8,117.7-67.3,199.9-67.3
				c84.7,0,153,21,204.9,62.9c51.9,41.9,77.8,96.1,77.8,162.5c0,26.6-5,44.6-15,54.2c-9.9,9.6-27,14.3-51.1,14.3
				c-43.2,0-65.2-14.5-66-43.6c-5-88.9-53.5-133.3-145.7-133.3c-99.6,0-149.4,53.6-149.4,160.7V836c0,107.1,50.6,160.7,151.9,160.7
				c29.9,0,54.8-4.4,74.8-13.1c19.9-8.7,34.2-21.3,42.9-38c8.7-16.6,14.8-31.1,18.1-43.6c3.3-12.4,5.8-27.8,7.5-46.1
				c2.5-29,24.1-43.6,64.8-43.6c24,0,41.3,4.8,51.7,14.3c10.4,9.6,15.6,27.6,15.6,54.2c0,68.9-26.2,125-78.5,168.2
				c-52.3,43.2-120.8,64.7-205.5,64.7c-82.2,0-148.6-22.4-199.3-67.3C2900.2,1001.7,2874.9,931.5,2874.9,836z"/>
			<path style="fill:#E0D7D4;" d="M3538.7,870.9V559.6c0-11.6,6.6-21.8,19.9-30.5c13.3-8.7,28.7-13.1,46.1-13.1
				c17.4,0,32.6,4.4,45.4,13.1c12.9,8.7,19.3,18.8,19.3,30.4V870c0,33.2,12.7,63,38,89.5c25.3,26.5,55,39.7,89,39.7
				c34.9,0,64.7-13,89.7-39.1c24.9-26.1,37.4-56.1,37.4-90.1V558.2c0-11.6,6.4-21.5,19.3-29.8c12.8-8.3,28.5-12.5,46.7-12.5
				c18.2,0,33.4,4.2,45.4,12.5c12,8.3,18.1,18.3,18.1,29.9v312.6c0,65.6-25.3,122.9-76,171.9c-50.7,49-110.8,73.5-180.6,73.5
				c-69.8,0-130.2-24.5-181.2-73.5C3564.3,993.8,3538.7,936.5,3538.7,870.9z"/>
			<path style="fill:#E0D7D4;" d="M4186.4,1062.8V208.3c0-12.4,5.8-22.6,17.4-30.5c11.6-7.8,27-11.8,46.1-11.8s35.1,3.9,48,11.8
				c12.8,7.9,19.3,18,19.3,30.5v395.8c14.1-26.9,35.3-49.5,63.5-68c28.2-18.5,60.6-27.7,97.2-27.7c61.4,0,114,24.1,157.6,72.2
				c43.6,48.2,65.4,105.9,65.4,173.1v114.6c0,64.8-22,122.3-66,172.5c-44,50.2-95.1,75.3-153.2,75.3c-37.4,0-71.8-9.6-103.4-28.9
				c-31.5-19.3-54.3-42.4-68.5-69.3v44.1c0,10.9-6,21-18.1,30.3c-12,9.2-26,13.8-41.7,13.8c-18.2,0-33.4-4.5-45.4-13.7
				C4192.4,1083.6,4186.4,1073.6,4186.4,1062.8z M4317.1,896.5c0,18.2,13.1,39.8,39.2,65c26.2,25.2,55.4,37.7,87.8,37.7
				c34,0,63.5-13.4,88.4-40.2c24.9-26.8,37.4-57.1,37.4-90.9V754.2c0-33-12.7-62.7-38-89.1c-25.3-26.4-55-39.6-89-39.6
				c-32.4,0-61.4,12-87.2,35.9c-25.7,23.9-38.6,54.8-38.6,92.8V896.5z"/>
			<path style="fill:#E0D7D4;" d="M4792.9,868.4V750.1c0-65.6,25.3-122.3,76-170c50.6-47.8,111.7-71.6,183.1-71.6
				c68.1,0,126.4,21.6,175,64.8c48.6,43.2,72.9,97.7,72.9,163.5c0,25.4-2.9,45.9-8.7,61.6c-5.8,15.6-15,26.7-27.4,33
				c-12.5,6.3-24.1,10.4-34.9,12.1c-10.8,1.7-24.9,2.5-42.3,2.5h-262.8v28.9c0,41.8,14.9,75.1,44.8,99.8c29.9,24.6,68.9,37,117.1,37
				c34,0,66.2-7.9,96.5-23.8c30.3-15.9,48.8-23.8,55.4-23.8c14.1,0,26.2,6.6,36.1,20c10,13.3,14.9,26.2,14.9,38.7
				c0,20.5-19.9,41.2-59.8,62.2c-39.8,21-88.9,31.4-147,31.4c-84.7,0-154-22.8-207.9-68.5C4819.9,1002.1,4792.9,942.3,4792.9,868.4z
				 M4923.7,762.6h206.7c18.3,0,30.5-2.4,36.8-7.4c6.2-4.9,9.3-14.7,9.3-29.4c0-32.7-12-60.4-36.1-83.3
				c-24.1-22.9-54-34.3-89.7-34.3c-34.8,0-64.7,10.8-89.7,32.5c-24.9,21.7-37.4,49.3-37.4,82.7V762.6z"/>
		</g>
	</g>
</g>
</svg>
