<?xml version="1.0" encoding="utf-8"?>
<!-- Generator: Adobe Illustrator 19.0.0, SVG Export Plug-In . SVG Version: 6.00 Build 0)  -->
<svg version="1.1" id="Layer_1" xmlns="http://www.w3.org/2000/svg" xmlns:xlink="http://www.w3.org/1999/xlink" x="0px" y="0px"
	 viewBox="0 0 226.4 226.4" style="enable-background:new 0 0 226.4 226.4;" xml:space="preserve">
<g id="XMLID_1_">
	<radialGradient id="XMLID_64_" cx="63.5962" cy="50.1194" r="210.8086" gradientUnits="userSpaceOnUse">
		<stop  offset="0.1056" style="stop-color:#BE9B52"/>
		<stop  offset="0.2712" style="stop-color:#B5914B"/>
		<stop  offset="0.546" style="stop-color:#9F783A"/>
		<stop  offset="0.8943" style="stop-color:#7D5523"/>
		<stop  offset="1" style="stop-color:#734A1D"/>
	</radialGradient>
	<path id="XMLID_12_" style="fill:url(#XMLID_64_);" d="M217.8,112c3.4-0.6,6.4-1.7,8.6-3.1c-0.1-1.2-0.1-2.4-0.2-3.6
		c-0.2-2.5-0.4-4.9-0.8-7.3c-2.4-1-5.5-1.6-9-1.7c-0.5-3.1-1.2-6.2-2-9.2c3.2-1.4,5.8-3.2,7.6-5.1c-0.3-1.1-0.7-2.3-1.1-3.4
		c-0.8-2.4-1.6-4.7-2.5-7c-2.6-0.4-5.8-0.2-9.2,0.5c-0.7-1.6-1.4-3.1-2.2-4.7c-0.6-1.3-1.3-2.5-2-3.8c2.8-2.2,5-4.6,6.3-6.9
		c-0.6-1-1.2-2-1.9-3.1c-1.3-2.1-2.7-4.1-4.1-6.2c-2.7,0.2-5.8,1.2-9,2.8c-1.9-2.5-3.9-4.9-6-7.2c2.2-2.8,3.8-5.7,4.6-8.3
		c-0.8-0.8-1.7-1.7-2.5-2.5c-1.8-1.7-3.6-3.4-5.4-5c-2.6,0.9-5.4,2.6-8.1,5c-2.4-1.9-4.9-3.8-7.5-5.5c1.5-3.3,2.4-6.6,2.5-9.3
		c-1-0.6-2-1.2-3.1-1.8c-2.1-1.2-4.3-2.4-6.5-3.5c-2.3,1.5-4.7,3.9-6.8,6.9c-2.8-1.3-5.6-2.5-8.5-3.5c0.7-3.7,0.8-7.1,0.3-9.8
		c-1.1-0.4-2.3-0.7-3.4-1.1c-2.4-0.7-4.8-1.3-7.1-1.9c-1.9,2-3.7,5-5,8.5c-3-0.6-6-1-9-1.4c-0.1-3.8-0.9-7.2-2.1-9.7
		c-1.2-0.1-2.4-0.2-3.6-0.2C116.5,0,114,0,111.6,0c-1.4,2.5-2.4,5.8-2.9,9.6c-3,0.1-6,0.4-9,0.8c-1-3.7-2.6-6.9-4.4-9.1
		c-1.2,0.2-2.3,0.4-3.5,0.7c-2.4,0.5-4.8,1-7.2,1.6c-0.8,2.8-1,6.3-0.5,10.2c-2.8,0.9-5.7,1.8-8.4,2.9c-1.9-3.4-4.2-6.2-6.5-7.9
		c-1.1,0.5-2.2,1-3.3,1.5c-2.2,1.1-4.4,2.2-6.6,3.3c-0.1,2.9,0.6,6.5,2,10.2c-2.6,1.5-5.1,3.1-7.5,4.9c-2.7-2.9-5.6-5.1-8.3-6.2
		c-0.9,0.7-1.9,1.5-2.8,2.2c-1.9,1.6-3.8,3.2-5.6,4.8c0.6,2.9,2.1,6.2,4.4,9.4c-2.1,2.1-4.2,4.2-6.1,6.5c-3.3-2.2-6.7-3.6-9.6-4.1
		c-0.7,0.9-1.5,1.9-2.2,2.8c-1.5,2-2.9,4-4.3,6c1.3,2.7,3.6,5.5,6.6,8.2c-1.6,2.5-3,5.1-4.4,7.7c-3.8-1.4-7.5-1.9-10.4-1.7
		c-0.5,1.1-1,2.2-1.5,3.3c-1,2.3-1.9,4.6-2.7,6.9c1.9,2.3,4.8,4.5,8.4,6.3c-0.9,2.8-1.7,5.7-2.4,8.6c-4-0.4-7.7-0.1-10.5,0.9
		c-0.2,1.2-0.4,2.3-0.6,3.5c-0.4,2.4-0.7,4.9-1,7.3c2.4,1.8,5.7,3.2,9.7,4.1c-0.2,3-0.3,5.9-0.3,8.9c-4,0.6-7.5,1.8-9.9,3.3
		c0.1,1.2,0.1,2.4,0.2,3.6c0.2,2.5,0.4,4.9,0.8,7.3c2.7,1.1,6.3,1.8,10.3,1.7c0.5,2.9,1.1,5.8,1.8,8.8c-3.7,1.5-6.8,3.5-8.8,5.6
		c0.3,1.1,0.7,2.3,1.1,3.4c0.8,2.4,1.6,4.7,2.5,7c2.9,0.5,6.5,0.2,10.3-0.8c0.8,1.8,1.6,3.6,2.5,5.4c0.4,0.9,0.9,1.8,1.4,2.7
		c-3.2,2.3-5.7,5-7.1,7.5c0.6,1,1.2,2,1.9,3.1c1.3,2.1,2.7,4.1,4.1,6.2c2.9-0.2,6.3-1.3,9.7-3.2c1.8,2.4,3.7,4.8,5.7,7
		c-2.5,3-4.2,6.1-5,8.8c0.8,0.8,1.7,1.7,2.5,2.5c1.8,1.7,3.6,3.4,5.4,5c2.7-0.9,5.7-2.7,8.5-5.3c2.4,1.9,4.8,3.8,7.3,5.5
		c-1.7,3.4-2.6,6.8-2.7,9.6c1,0.6,2,1.2,3.1,1.8c2.1,1.2,4.3,2.4,6.5,3.5c2.4-1.5,4.8-4,6.9-7c2.8,1.3,5.6,2.5,8.4,3.6
		c-0.8,3.7-0.8,7.1-0.3,9.8c1.1,0.4,2.3,0.7,3.4,1.1c2.4,0.7,4.8,1.3,7.1,1.9c1.9-2,3.7-4.9,5-8.3c3,0.6,6.1,1.1,9.1,1.5
		c0.2,3.7,0.9,7,2.1,9.4c1.2,0.1,2.4,0.2,3.6,0.2c2.5,0.1,4.9,0.1,7.4,0.1c1.3-2.3,2.3-5.5,2.8-9.1c3.1-0.1,6.2-0.4,9.3-0.8
		c1,3.5,2.5,6.4,4.2,8.5c1.2-0.2,2.3-0.4,3.5-0.7c2.4-0.5,4.8-1,7.2-1.6c0.7-2.6,0.9-5.8,0.6-9.4c3-0.9,5.9-1.9,8.9-3
		c1.8,3.1,3.9,5.5,6.1,7.1c1.1-0.5,2.2-1,3.3-1.5c2.2-1.1,4.4-2.2,6.6-3.3c0.1-2.6-0.5-5.8-1.6-9.1c2.8-1.6,5.4-3.3,8-5
		c2.5,2.5,5.1,4.3,7.5,5.4c0.9-0.7,1.9-1.5,2.8-2.2c1.9-1.6,3.8-3.2,5.6-4.8c-0.5-2.6-1.8-5.5-3.7-8.3c2.3-2.2,4.5-4.5,6.5-6.9
		c3,1.8,5.9,2.9,8.5,3.4c0.7-0.9,1.5-1.9,2.2-2.8c1.5-2,2.9-4,4.3-6c-1.1-2.3-3-4.8-5.6-7.2c1.7-2.7,3.3-5.4,4.7-8.2
		c3.3,1,6.4,1.4,9,1.2c0.5-1.1,1-2.2,1.5-3.3c1-2.3,1.9-4.6,2.7-6.9c-1.7-2-4.1-4-7.1-5.6c1-3,1.9-6.1,2.6-9.1c3.4,0.2,6.6-0.2,9-1
		c0.2-1.2,0.4-2.3,0.6-3.5c0.4-2.4,0.7-4.9,1-7.3c-2.1-1.5-4.9-2.9-8.3-3.8C217.7,118.3,217.8,115.2,217.8,112z M112.8,195.8
		c-46,0-83.4-37.3-83.4-83.4c0-46,37.3-83.4,83.4-83.4c46,0,83.4,37.3,83.4,83.4C196.1,158.5,158.8,195.8,112.8,195.8z"/>
	<linearGradient id="XMLID_65_" gradientUnits="userSpaceOnUse" x1="204.1914" y1="240.5259" x2="-52.75" y2="-119.3883">
		<stop  offset="0" style="stop-color:#2B1C11"/>
		<stop  offset="1.154179e-002" style="stop-color:#2E2013"/>
		<stop  offset="0.1375" style="stop-color:#503C26"/>
		<stop  offset="0.2547" style="stop-color:#6E5330"/>
		<stop  offset="0.3598" style="stop-color:#866536"/>
		<stop  offset="0.449" style="stop-color:#957038"/>
		<stop  offset="0.5116" style="stop-color:#9B7439"/>
		<stop  offset="0.7269" style="stop-color:#BE9B52"/>
		<stop  offset="0.8631" style="stop-color:#A78242"/>
		<stop  offset="1" style="stop-color:#734A1D"/>
	</linearGradient>
	<path id="XMLID_9_" style="fill:url(#XMLID_65_);" d="M112.8,21.3c-50.4,0-91.2,40.8-91.2,91.2c0,50.4,40.8,91.2,91.2,91.2
		c50.4,0,91.2-40.8,91.2-91.2C204,62.1,163.2,21.3,112.8,21.3z M112.8,195.8c-46,0-83.4-37.3-83.4-83.4c0-46,37.3-83.4,83.4-83.4
		c46,0,83.4,37.3,83.4,83.4C196.1,158.5,158.8,195.8,112.8,195.8z"/>
	<linearGradient id="XMLID_66_" gradientUnits="userSpaceOnUse" x1="153.8648" y1="220.4097" x2="38.1433" y2="-83.6042">
		<stop  offset="0" style="stop-color:#734A1D"/>
		<stop  offset="0.2665" style="stop-color:#BE9B52"/>
		<stop  offset="0.5714" style="stop-color:#BE9B52"/>
		<stop  offset="0.5889" style="stop-color:#B7944D"/>
		<stop  offset="0.7108" style="stop-color:#936B31"/>
		<stop  offset="0.8063" style="stop-color:#7D5523"/>
		<stop  offset="0.8632" style="stop-color:#754D1E"/>
	</linearGradient>
	<path id="XMLID_6_" style="fill:url(#XMLID_66_);" d="M112.8,24.2c-48.7,0-88.3,39.5-88.3,88.3c0,48.7,39.5,88.3,88.3,88.3
		s88.3-39.5,88.3-88.3C201,63.7,161.5,24.2,112.8,24.2z M112.8,195.8c-46,0-83.4-37.3-83.4-83.4c0-46,37.3-83.4,83.4-83.4
		c46,0,83.4,37.3,83.4,83.4C196.1,158.5,158.8,195.8,112.8,195.8z"/>
</g>
</svg>
