<?xml version="1.0" encoding="utf-8"?>
<!-- Generator: Adobe Illustrator 19.0.0, SVG Export Plug-In . SVG Version: 6.00 Build 0)  -->
<svg version="1.1" xmlns="http://www.w3.org/2000/svg" xmlns:xlink="http://www.w3.org/1999/xlink" x="0px" y="0px"
	 viewBox="0 0 259.1 128.2" style="enable-background:new 0 0 259.1 128.2;" xml:space="preserve">
<path style="fill-rule:evenodd;clip-rule:evenodd;fill:#E0D7D4;" d="M259.1,114"/>
<g>
	<path style="fill:#E0D7D4;" d="M45.9,70.3v7.4H0l32.1-39.8H5.3v-7.3h41.9L15.3,70.3H45.9z"/>
	<g>
		<path style="fill:#E0D7D4;" d="M61.6,56.9c0,7.9,0.9,14.7,10.6,14.7c9.7,0,10.6-6.8,10.6-14.7V30.6h8v27.2
			c0,12.5-4.7,21.3-18.7,21.3c-13.9,0-18.7-8.7-18.7-21.3V30.6h8V56.9z"/>
		<path style="fill:#E0D7D4;" d="M69.2,5.4c0,3-2.4,5.4-5.4,5.4c-3,0-5.4-2.4-5.4-5.4c0-3,2.4-5.4,5.4-5.4C66.8,0,69.2,2.4,69.2,5.4
			z"/>
		<path style="fill:#E0D7D4;" d="M86.2,5.4c0,3-2.4,5.4-5.4,5.4c-3,0-5.4-2.4-5.4-5.4c0-3,2.4-5.4,5.4-5.4C83.8,0,86.2,2.4,86.2,5.4
			z"/>
	</g>
	<path style="fill:#E0D7D4;" d="M110.6,0.3v35.9l0.2,0.2c3.3-4.5,7.6-7,13.4-7c13,0,16,9.4,16,20.5v28h-8V51.2
		c0-7.6-0.6-14.4-9.9-14.4c-11,0-11.7,10.2-11.7,18.7v22.4h-8V0.3H110.6z"/>
	<path style="fill:#E0D7D4;" d="M160.1,77.7h-8V0.3h8V77.7z"/>
	<path style="fill:#E0D7D4;" d="M181.3,48.1l17.2-17.5h10.7l-20.2,20.1l24,27.1h-10.6l-21.1-23.9v23.9h-8V0.3h8V48.1z"/>
	<path style="fill:#E0D7D4;" d="M250.4,62.7c-3,5.2-7.2,8.9-13.6,8.9c-8.9,0-15-7-15.1-15.7h36.3c0.8-14-7.1-26.6-21.9-26.6
		c-14.4,0-22.4,11.5-22.4,25.5c0,13.5,8.8,24.3,22.6,24.3c9.1,0,16.2-4.6,20.7-12.5L250.4,62.7z M236.1,36.7
		c6.9,0,12.5,5.5,13.6,12.3h-27.6C223,42.2,229.3,36.7,236.1,36.7z"/>
</g>
<g>
	<path style="fill:#E0D7D4;" d="M15,116c-1.3,2.6-3.5,4.1-6.5,4.1c-5.5,0-7.7-4.8-7.7-9.7c0-5.1,2.3-9.7,8-9.7c2.9,0,5.1,1.4,6.2,4
		c0.3,0.7,0.5,1.5,0.5,2.3c0,0.7-0.4,1-1,1.1l-10.9,1.6c0.2,3.2,1.6,7.3,5.5,7.3c2.4,0,3.9-1.5,5.1-3.5c0.3-0.4,0.3-0.8,0.9-0.8
		c0.5,0,0.7,0.4,0.7,0.9C15.6,114.4,15.2,115.5,15,116z M12,106.8c-0.2-2-1.6-4-3.8-4c-3.1,0-4.4,2.6-4.7,5.4L12,106.8z"/>
	<path style="fill:#E0D7D4;" d="M42.1,119c0,0.5-0.1,0.7-0.6,0.7h-1.9c-0.5,0-0.6-0.1-0.6-0.7v-11.6c0-2.4-0.4-4.6-3.4-4.6
		c-1.4,0-2.7,0.6-3.3,2c-0.1,0.4-0.2,1.2-0.2,1.7V119c0,0.4,0,0.7-0.6,0.7h-2c-0.4,0-0.6-0.2-0.6-0.6v-12.3c0-2.3-0.9-4.1-3.5-4.1
		c-1.4,0-2.7,0.6-3.2,2c-0.2,0.5-0.2,1.3-0.2,1.9V119c0,0.5-0.1,0.7-0.7,0.7h-1.8c-0.5,0-0.6-0.1-0.6-0.7v-14.3c0-1,0-1.5,0.7-2.3
		c1-1.1,4.5-1.6,5.9-1.6c2.1,0,4,0.4,5.3,2.2c1.6-1.7,3.3-2.2,5.6-2.2c3.7,0,5.8,1.6,5.8,5.3V119z"/>
	<path style="fill:#E0D7D4;" d="M53.3,120.1c-1.5,0-2.6-0.4-3.9-1.3v8.6c0,0.4-0.2,0.6-0.6,0.6H47c-0.5,0-0.7-0.1-0.7-0.6v-21.6
		c0-0.9-0.1-2,0.4-2.8c1.1-1.6,4.8-2.3,6.6-2.3c5.5,0,8.3,3.6,8.3,8.8C61.6,114.4,58.9,120.1,53.3,120.1z M52.6,102.7
		c-2.4,0-3.1,0.9-3.1,3.1v10.9c1.1,0.7,2.3,1.2,3.6,1.2c3.9,0,5.3-4.5,5.3-7.7C58.4,106.6,56.8,102.7,52.6,102.7z"/>
	<path style="fill:#E0D7D4;" d="M72.1,120.1c-5.4,0-8.2-4.8-8.2-9.7c0-4.7,3-9.6,8.2-9.6c5.3,0,8.1,5.1,8.1,9.8
		C80.2,115.3,77.3,120.1,72.1,120.1z M76.8,110.1c0-2.8-1.5-7.3-5-7.3c-3.6,0-4.6,4.3-4.6,7.2c0,3,1.2,8,5,8c3.5,0,4.6-4.4,4.6-7.2
		V110.1z"/>
	<path style="fill:#E0D7D4;" d="M104.2,102.2L99,119.1c-0.1,0.3-0.1,0.5-0.5,0.5h-1.2c-0.5,0-0.6,0-0.7-0.5l-3.5-11.5l-3.5,11.5
		c-0.1,0.5-0.2,0.5-0.7,0.5h-1c-0.5,0-0.6-0.1-0.7-0.5l-5.4-16.9c-0.1-0.3-0.1-0.4-0.1-0.6c0-0.3,0.2-0.4,0.5-0.4h2
		c0.6,0,0.7,0.1,0.9,0.7l3.9,13.2l3.9-13.2c0.2-0.7,0.1-0.7,1-0.7c0.4,0,0.4,0.3,0.5,0.6l4.1,13.4l3.7-13.3c0.1-0.5,0.2-0.7,0.8-0.7
		h1.3c0.2,0,0.6,0,0.6,0.4C104.4,101.8,104.3,102,104.2,102.2z"/>
	<path style="fill:#E0D7D4;" d="M119.8,116c-1.3,2.6-3.5,4.1-6.5,4.1c-5.5,0-7.7-4.8-7.7-9.7c0-5.1,2.3-9.7,8-9.7
		c2.9,0,5.1,1.4,6.2,4c0.3,0.7,0.5,1.5,0.5,2.3c0,0.7-0.4,1-1,1.1l-10.9,1.6c0.2,3.2,1.6,7.3,5.5,7.3c2.4,0,3.9-1.5,5.1-3.5
		c0.3-0.4,0.3-0.8,0.9-0.8c0.5,0,0.7,0.4,0.7,0.9C120.4,114.4,120,115.5,119.8,116z M116.8,106.8c-0.2-2-1.6-4-3.8-4
		c-3.1,0-4.4,2.6-4.7,5.4L116.8,106.8z"/>
	<path style="fill:#E0D7D4;" d="M132.5,104.3c-1.4,0-1.4-1.9-3.6-1.9c-1.7,0-2.1,1.1-2.1,2.5v14c0,0.4-0.1,0.6-0.5,0.6h-1.9
		c-0.5,0-0.7,0-0.7-0.6v-14.9c0-0.7,0-1.3,0.5-1.9c1-1,4.7-1.5,6.1-1.5c1.4,0,3.7,0.2,3.7,2.1C133.9,103.6,133.3,104.3,132.5,104.3z
		"/>
	<path style="fill:#E0D7D4;" d="M137.8,98c-1.1,0-1.9-0.7-1.9-1.9c0-1.1,0.8-1.9,1.9-1.9c1.2,0,1.9,0.8,1.9,2
		C139.7,97.2,138.9,98,137.8,98z M139.4,119c0,0.5-0.1,0.7-0.6,0.7h-2.1c-0.4,0-0.5-0.1-0.5-0.5v-17.4c0-0.5,0.1-0.6,0.6-0.6h1.9
		c0.6,0,0.7,0.1,0.7,0.7V119z"/>
	<path style="fill:#E0D7D4;" d="M157.9,118.9c0,0.4-0.1,0.7-0.6,0.7h-1.9c-0.5,0-0.7-0.1-0.7-0.6V107c0-0.8,0-1.7-0.3-2.5
		c-0.7-1.5-2.3-1.9-3.9-1.9c-1.2,0-2.7,0.3-3.5,1.4c-0.3,0.5-0.4,1.2-0.4,1.8v13.2c0,0.5-0.1,0.7-0.6,0.7h-2c-0.5,0-0.6-0.3-0.6-0.7
		v-14.4c0-0.9,0-1.5,0.7-2.1c1.4-1.3,5.1-1.7,6.9-1.7c2.6,0,5.3,0.5,6.4,3.1c0.3,0.8,0.4,2,0.4,2.8V118.9z"/>
	<path style="fill:#E0D7D4;" d="M161.6,125.4c0.1-0.1,0.2-0.2,0.3-0.3c0.1-0.1,0.2-0.1,0.4-0.2c1.4,0.1,2.5,0.9,4.1,0.9
		c3.7,0,6-1.9,6-5.9v-1.5c-1.8,0.8-2.9,1.9-4.9,1.9c-4.7,0-6.8-4.4-6.8-8.8c0-5.4,3.1-10.8,8.7-10.8c1.6,0,6.1,0.8,6.1,3.3v16.6
		c0,4.9-4.5,7.7-8.7,7.7c-0.7,0-2.1-0.2-3.2-0.7c-1.1-0.5-1.9-0.9-1.9-1.7V125.4z M168.6,117.7c0.7,0,3.8-0.6,3.8-1.5v-11.5
		c0-1.6-2.1-2.1-3.3-2.1c-3.9,0-5.2,4.7-5.2,8.1C163.9,114,165,117.7,168.6,117.7z"/>
	<path style="fill:#E0D7D4;" d="M189.2,98c-1.1,0-1.9-0.7-1.9-1.9c0-1.1,0.8-1.9,1.9-1.9c1.2,0,1.9,0.8,1.9,2
		C191.1,97.2,190.2,98,189.2,98z M190.8,119c0,0.5-0.1,0.7-0.6,0.7H188c-0.4,0-0.5-0.1-0.5-0.5v-17.4c0-0.5,0.1-0.6,0.6-0.6h1.9
		c0.6,0,0.7,0.1,0.7,0.7V119z"/>
	<path style="fill:#E0D7D4;" d="M209.5,116.1c0,0.7-0.1,1.2-0.5,1.8c-1.2,1.6-4.6,2.2-6.6,2.2c-5.6,0-8.4-3.7-8.4-9.1
		c0-5,2.9-10.2,8.5-10.2c1.4,0,2.6,0.4,3.8,1.2V93c0-0.5,0.2-0.7,0.7-0.7h1.8c0.5,0,0.7,0.1,0.7,0.6V116.1z M206.3,103.9
		c-1-0.9-2-1.3-3.4-1.3c-3.9,0-5.6,4.2-5.6,7.5c0,3.7,1.6,7.8,5.9,7.8c2.1,0,3.2-0.7,3.2-2.8V103.9z"/>
	<path style="fill:#E0D7D4;" d="M226.8,116c-1.3,2.6-3.5,4.1-6.5,4.1c-5.5,0-7.7-4.8-7.7-9.7c0-5.1,2.3-9.7,8-9.7
		c2.9,0,5.1,1.4,6.2,4c0.3,0.7,0.5,1.5,0.5,2.3c0,0.7-0.4,1-1,1.1l-10.9,1.6c0.2,3.2,1.6,7.3,5.5,7.3c2.4,0,3.9-1.5,5.1-3.5
		c0.3-0.4,0.3-0.8,0.9-0.8c0.5,0,0.7,0.4,0.7,0.9C227.5,114.4,227.1,115.5,226.8,116z M223.9,106.8c-0.2-2-1.6-4-3.8-4
		c-3.1,0-4.4,2.6-4.7,5.4L223.9,106.8z"/>
	<path style="fill:#E0D7D4;" d="M242.3,116c0,0.7-0.1,1.6-0.5,2.2c-1.1,1.5-4.4,1.8-6.1,1.8c-3.2,0-6.2-1.2-6.2-4.9
		c0-4.7,6.2-5.9,9.7-7v-1.8c0-1.9-0.3-3.8-2.7-3.8c-1.5,0-2.5,0.9-3,2.3c-0.1,0.1-0.1,0.3-0.2,0.5c-0.3,0.7-0.7,1.1-1.4,1.1
		c-0.9,0-1.4-0.7-1.4-1.5c0-3,4.1-4.2,6.5-4.2c3.9,0,5.3,2,5.3,5.7V116z M239.2,109.9c-2.4,0.7-6.5,1.6-6.5,4.8
		c0,2.2,1.5,3.4,3.6,3.4c1.8,0,2.9-0.6,2.9-2.6V109.9z"/>
	<path style="fill:#E0D7D4;" d="M251.6,120.1c-2,0-3.6-0.5-5-1.9c-0.6-0.6-1.1-1.4-1.1-2.2c0-0.9,0.7-1.6,1.5-1.6
		c1.8,0,1.6,3.6,4.9,3.6c1.6,0,2.8-1,2.8-2.7c0-4.6-8.8-3.5-8.8-9.6c0-3.2,2.6-5,5.6-5c1.8,0,3.8,0.5,4.9,2c0.4,0.5,0.7,1,0.7,1.6
		c0,0.8-0.6,1.4-1.4,1.4c-1.9,0-1.4-3.1-4.2-3.1c-1.5,0-2.7,1-2.7,2.6c0,4.4,8.9,3.2,8.9,9.6C257.6,118.3,255,120.1,251.6,120.1z"/>
</g>
</svg>
