<?xml version="1.0" encoding="utf-8"?>
<!-- Generator: Adobe Illustrator 19.0.0, SVG Export Plug-In . SVG Version: 6.00 Build 0)  -->
<svg version="1.1" id="Layer_1" xmlns="http://www.w3.org/2000/svg" xmlns:xlink="http://www.w3.org/1999/xlink" x="0px" y="0px"
	 viewBox="0 0 283.5 85" style="enable-background:new 0 0 283.5 85;" xml:space="preserve">
<style type="text/css">
	.st0{fill:#F58220;}
	.st1{fill:#124782;}
</style>
<polygon class="st0" points="50.8,30 40.5,30 35.8,51.8 24.1,51.8 28.8,30 18.4,30 20.4,20.9 52.7,20.9 "/>
<path class="st1" d="M56.6,43c-0.4,2.9,2.1,3.5,5.3,3.5c3,0,5.8-0.5,7.8-1.5l-1.3,6c-3.1,0.9-6.7,1.3-10.6,1.3
	c-9.2,0-13.2-4.5-11.5-12.5C48,32.1,53.8,28.2,63,28.2c8.8,0,10.7,5.6,9.1,13.3L71.8,43H56.6z M63.3,38.1c0.4-1.8,0.7-4.6-1.8-4.6
	c-2.5,0-3.7,2.7-3.9,4.6H63.3z"/>
<polygon class="st1" points="90.1,18.6 83,51.8 71.9,51.8 79,18.6 "/>
<path class="st1" d="M97.8,43c-0.4,2.9,2.1,3.5,5.3,3.5c3,0,5.8-0.5,7.8-1.5l-1.3,6c-3.1,0.9-6.7,1.3-10.6,1.3
	c-9.2,0-13.2-4.5-11.5-12.5c1.7-7.7,7.4-11.6,16.6-11.6c8.8,0,10.7,5.6,9.1,13.3L113,43H97.8z M104.5,38.1c0.4-1.8,0.7-4.6-1.8-4.6
	c-2.5,0-3.7,2.7-3.9,4.6H104.5z"/>
<path class="st0" d="M143.8,50.6c-4.3,1.2-8.2,1.7-13,1.7c-10.1,0-17.1-5.4-14.8-16.4c2.2-10.3,11.8-15.5,21.6-15.5
	c5.7,0,8.4,0.4,11.2,1.2l-1.8,8.3c-1.5-1-4.4-1.8-7.7-1.8c-5.8,0-10.3,3-11.5,8.6c-0.9,4.2,0,8,4.7,8c0.8,0,1.8,0,2.6-0.3l1.8-8.2
	h10.1L143.8,50.6z"/>
<path class="st1" d="M162.4,28.8l-1.1,5.2h0.1c2-3.3,4.7-5.7,8.2-5.7c0.7,0,1.3,0.1,1.7,0.2l-2,9.2c-0.5-0.2-1.4-0.4-2.4-0.4
	c-3.1,0-6.2,2.7-6.9,6.1l-1.8,8.4h-11l4.9-23H162.4z"/>
<path class="st1" d="M186.9,28.2c9.2,0,13.3,3.9,11.7,11.6c-1.7,8-7.7,12.5-16.8,12.5c-9.2,0-13.2-4.5-11.5-12.5
	C171.9,32.1,177.6,28.2,186.9,28.2 M183.1,45.7c2.1,0,3-2.5,3.7-5.8c0.6-2.7,0.8-5-1.4-5c-2.1,0-2.9,2.3-3.5,5
	C181.2,43.2,181,45.7,183.1,45.7"/>
<path class="st1" d="M223.9,51.8h-10.4l0.9-4h-0.1c-2,3.2-5.3,4.5-8.4,4.5c-5.9,0-7.3-3.1-6.4-7.6l3.4-16h11L211.1,42
	c-0.3,1.3-0.7,3.1,1.3,3.1c2,0,2.4-1.8,2.6-3.1l2.8-13.3h11L223.9,51.8z"/>
<path class="st1" d="M232.1,28.8h10.2l-0.9,4.2h0.1c2.3-3.4,4.8-4.7,8.4-4.7c7.3,0,8.8,5.7,7.3,12.4c-1.3,6.2-5.3,11.7-12.2,11.7
	c-2.9,0-4.9-1-6.1-3.5h-0.1l-2.6,12.2h-11L232.1,28.8z M242.1,45.4c2.3,0,3.2-2.3,3.7-4.8c0.5-2.4,0.7-5-1.7-5
	c-2.4,0-3.3,2.6-3.7,4.7C239.8,43.1,239.6,45.4,242.1,45.4"/>
</svg>
