<?xml version="1.0" encoding="utf-8"?>
<!-- Generator: Adobe Illustrator 19.0.0, SVG Export Plug-In . SVG Version: 6.00 Build 0)  -->
<svg version="1.1" id="svg1936" xmlns:svg="http://www.w3.org/2000/svg"
	 xmlns="http://www.w3.org/2000/svg" xmlns:xlink="http://www.w3.org/1999/xlink" x="0px" y="0px"
	 viewBox="187.1 306.4 957.5 181.5" style="enable-background:new 187.1 306.4 957.5 181.5;" xml:space="preserve">
<style type="text/css">
	.st0{fill:#F2F2F2;}
	.st1{fill:#FCFCFC;}
</style>
<g>
	<path id="path8" class="st0" d="M560.7,448.4c-35,25.8-85.7,39.6-129.4,39.6c-61.2,0-116.4-22.7-158.1-60.3c-3.3-3-0.3-7,3.6-4.7
		c45,26.2,100.7,41.9,158.2,41.9c38.8,0,81.4-8,120.6-24.7C561.6,437.7,566.5,444.1,560.7,448.4"/>
	<path id="path10" class="st0" d="M575.3,431.7c-4.5-5.7-29.6-2.7-40.8-1.4c-3.4,0.4-4-2.6-0.9-4.7c20-14.1,52.8-10,56.7-5.3
		c3.8,4.7-1,37.6-19.8,53.4c-2.9,2.4-5.6,1.1-4.4-2.1C570.3,461.1,579.8,437.5,575.3,431.7"/>
	<path id="path12" class="st1" d="M535.2,326.2v-13.7c0-2.1,1.6-3.5,3.5-3.5h61.3c2,0,3.5,1.4,3.5,3.5v11.7c0,2-1.7,4.5-4.6,8.6
		l-31.7,45.3c11.8-0.3,24.3,1.5,34.9,7.5c2.4,1.4,3.1,3.4,3.3,5.3v14.6c0,2-2.2,4.3-4.5,3.1c-18.8-9.9-43.9-11-64.7,0.1
		c-2.1,1.2-4.4-1.2-4.4-3.1v-13.9c0-2.2,0-6,2.3-9.4l36.8-52.7h-32C536.8,329.7,535.2,328.3,535.2,326.2"/>
	<path id="path14" class="st1" d="M311.7,411.6h-18.6c-1.8-0.1-3.2-1.5-3.3-3.2v-95.7c0-1.9,1.6-3.4,3.6-3.4h17.4
		c1.8,0.1,3.3,1.5,3.4,3.2v12.5h0.3c4.5-12.1,13.1-17.7,24.5-17.7c11.7,0,19,5.6,24.2,17.7c4.5-12.1,14.8-17.7,25.7-17.7
		c7.8,0,16.4,3.2,21.6,10.5c5.9,8,4.7,19.7,4.7,30l0,60.4c0,1.9-1.6,3.5-3.6,3.5H393c-1.9-0.1-3.4-1.6-3.4-3.5v-50.7
		c0-4,0.4-14.1-0.5-17.9c-1.4-6.4-5.6-8.2-11-8.2c-4.5,0-9.2,3-11.1,7.8s-1.7,12.9-1.7,18.3v50.7c0,1.9-1.6,3.5-3.6,3.5H343
		c-1.9-0.1-3.4-1.6-3.4-3.5l0-50.7c0-10.7,1.8-26.4-11.5-26.4c-13.4,0-12.9,15.3-12.9,26.4v50.7
		C315.3,410.1,313.7,411.6,311.7,411.6"/>
	<path id="path16" class="st1" d="M656.2,307.3c27.7,0,42.6,23.8,42.6,54c0,29.2-16.5,52.3-42.6,52.3c-27.2,0-41.9-23.8-41.9-53.4
		C614.3,330.5,629.3,307.3,656.2,307.3 M656.4,326.9c-13.7,0-14.6,18.7-14.6,30.4c0,11.7-0.2,36.7,14.4,36.7
		c14.4,0,15.1-20.1,15.1-32.4c0-8.1-0.3-17.7-2.8-25.4C666.5,329.5,662.3,326.9,656.4,326.9"/>
	<path id="path18" class="st1" d="M734.7,411.6h-18.6c-1.9-0.1-3.4-1.6-3.4-3.5l0-95.7c0.2-1.8,1.7-3.1,3.6-3.1h17.3
		c1.6,0.1,3,1.2,3.3,2.7v14.6h0.3c5.2-13.1,12.5-19.3,25.4-19.3c8.4,0,16.5,3,21.8,11.3c4.9,7.7,4.9,20.5,4.9,29.8v60.2
		c-0.2,1.7-1.8,3-3.6,3h-18.7c-1.7-0.1-3.1-1.4-3.3-3v-52c0-10.5,1.2-25.8-11.7-25.8c-4.5,0-8.7,3-10.8,7.7c-2.6,5.8-3,11.7-3,18.1
		v51.5C738.3,410.1,736.7,411.6,734.7,411.6"/>
	<path id="path20" class="st1" d="M801,404c0-4.8,4.1-8.7,9.2-8.7c5.1,0,9.2,3.9,9.2,8.7c0,4.8-4.1,8.7-9.2,8.7
		C805.1,412.8,801,408.8,801,404"/>
	<path id="path22" class="st1" d="M998.5,411.7c-1.9-0.1-3.5-1.6-3.5-3.5v-95.7c0.1-1.7,1.5-3,3.3-3.1h6.8c1.9,0,3.4,1.4,3.6,3.1
		v13.9c4.9-11.1,13.9-19.7,25.4-19.7h0.7h0.7c12.2,0,21.1,9,24.4,22c5.2-12.9,14.9-22,27.7-22h0.7h0.8c9,0,17.7,5.8,22.3,14.7
		c4.4,8.5,4.2,19.7,4.2,29.2l0,57.5c0,1.8-1.5,3.3-3.3,3.5h-8.2c-1.8-0.1-3.2-1.3-3.5-3v-58c0-6.8,0.3-14.1-2.4-20.3
		c-2.8-6.4-8.3-10.4-14.1-10.6c-6.5,0.3-12.5,5.1-16.4,11.5c-5,8.3-4.9,15.7-4.9,25.4v52.3c-0.2,1.6-1.6,2.8-3.3,2.9h-8.1
		c-1.9-0.1-3.5-1.6-3.5-3.5l-0.1-61.4c0-5.6-0.3-12.3-2.9-17.3c-3-5.8-8.4-9.5-14.1-9.8c-5.9,0.3-11.8,4.8-15.3,10
		c-4.5,6.7-5.4,14.9-5.4,23.4v55.1c0,1.8-1.5,3.3-3.4,3.5H998.5"/>
	<path id="path24" class="st1" d="M942.4,413.6c-26.5,0-38.3-27-38.3-54c0-28.4,13.9-52.9,40.6-52.9h0.7h0.7
		c25.9,0,38.8,26.2,38.8,53.1c0,28.6-14.3,53.7-41.1,53.7h-0.7L942.4,413.6 M944.3,400.6c8.7-0.3,15.6-5.7,19.6-14.7
		c3.6-8.1,4.4-17.3,4.4-26.2c0-9.6-1-19.7-5.6-28c-4.1-7.2-11-11.8-18.4-12.1c-8.2,0.3-15.6,5.9-19.3,14.5
		c-3.3,7.4-4.4,17.3-4.4,25.6c0,9.3,1.2,20,5,28C929.4,395.3,936.5,400.3,944.3,400.6"/>
	<path id="path26" class="st1" d="M859.7,400.1c11.9-0.4,18.1-9.9,20.7-22.2c0.5-1.5,1.7-2.7,3.4-2.7l7.8,0c1.9,0.1,3.6,1.5,3.4,3.2
		c-3.6,21-16.3,35.2-34.3,35.2H860h-0.7c-26.3,0-37.6-26.4-37.6-53.1c0-26.6,11.5-53.7,37.8-53.7h0.7h0.7
		c18.2,0,31.3,14.1,34.1,35.1c0,1.6-1.5,2.9-3.2,3.1l-8.2-0.1c-1.7-0.2-2.9-1.7-3.1-3.4c-2-11.7-8.7-21.1-19.9-21.4
		c-17.9,0.6-22.9,22.5-22.9,39.5C837.6,375.8,841.8,399.6,859.7,400.1"/>
	<path class="st1" d="M519.6,394.1c-3.4-4.7-7-8.5-7-17.3v-29c0-12.3,0.9-23.6-8.2-32.1c-7.2-6.9-19-9.3-28.1-9.3
		c-17.7,0-37.5,6.6-41.7,28.5c-0.4,2.3,1.3,3.6,2.8,3.9l18.1,1.9c1.7-0.1,2.9-1.7,3.3-3.4c1.5-7.6,7.9-11.2,15-11.2
		c3.9,0,8.2,1.4,10.5,4.9c2.6,3.8,2.3,9.1,2.3,13.5v2.4c-10.8,1.2-24.9,2-35.1,6.5c-11.7,5-19.9,15.3-19.9,30.5
		c0,19.4,12.2,29,27.9,29c13.2,0,20.5-3.1,30.7-13.6c3.4,4.9,4.5,7.3,10.7,12.4c1.4,0.7,3.2,0.7,4.4-0.4l0,0.1
		c3.7-3.3,10.5-9.2,14.3-12.4C521,397.8,520.7,395.8,519.6,394.1z M482.9,385.7c-3,5.2-7.7,8.5-12.9,8.5c-7.2,0-11.4-5.5-11.4-13.5
		c0-15.9,14.2-18.8,27.7-18.8v4C486.4,373.2,486.6,379.3,482.9,385.7z"/>
	<path class="st1" d="M275.2,394.1c-3.4-4.7-7-8.5-7-17.3v-29c0-12.3,0.9-23.6-8.2-32.1c-7.2-6.9-19-9.3-28.1-9.3
		c-17.7,0-37.5,6.6-41.7,28.5c-0.4,2.3,1.3,3.6,2.8,3.9l18.1,1.9c1.7-0.1,2.9-1.7,3.2-3.4c1.5-7.6,7.9-11.2,15-11.2
		c3.8,0,8.2,1.4,10.5,4.9c2.6,3.8,2.3,9.1,2.3,13.5v2.4c-10.8,1.2-24.9,2-35.1,6.5c-11.7,5-19.9,15.3-19.9,30.5
		c0,19.4,12.2,29,27.9,29c13.3,0,20.5-3.1,30.7-13.6c3.4,4.9,4.5,7.3,10.7,12.4c1.4,0.7,3.2,0.7,4.4-0.4l0.1,0.1
		c3.7-3.3,10.5-9.2,14.3-12.4C276.7,397.8,276.4,395.8,275.2,394.1z M238.5,385.7c-3,5.2-7.7,8.5-12.9,8.5
		c-7.2,0-11.3-5.5-11.3-13.5c0-15.9,14.2-18.8,27.7-18.8v4l0,0C242,373.2,242.2,379.3,238.5,385.7z"/>
	<path id="path32" class="st1" d="M1134.8,310.4c4.5,0,8.2,3.6,8.2,8.2c0,4.5-3.7,8.2-8.2,8.2c-4.5,0-8.2-3.7-8.2-8.2
		C1126.6,314,1130.4,310.4,1134.8,310.4 M1134.8,308.8c-5.2,0-9.8,4.2-9.8,9.8c0,5.4,4.5,9.8,9.8,9.8c5.3,0,9.8-4.4,9.8-9.8
		C1144.6,313.1,1140.1,308.8,1134.8,308.8 M1131.2,324.1h2.1v-4.4h1.9c0.8,0,1,0.3,1.1,0.9c0,0.2,0.4,2.9,0.4,3.5h2.3
		c-0.3-0.5-0.4-2-0.6-2.9c-0.2-1.4-0.3-2.4-1.8-2.5c0.8-0.3,2.1-0.7,2.1-2.7c0-2.9-2.5-2.9-3.9-2.9h-3.7V324.1 M1133.2,314.9h1.8
		c0.6,0,1.6,0,1.6,1.5c0,0.6-0.3,1.5-1.7,1.5h-1.7V314.9"/>
</g>
</svg>
