<?xml version="1.0" encoding="utf-8"?>
<!-- Generator: Adobe Illustrator 19.0.0, SVG Export Plug-In . SVG Version: 6.00 Build 0)  -->
<svg version="1.1" id="Layer_1" xmlns="http://www.w3.org/2000/svg" xmlns:xlink="http://www.w3.org/1999/xlink" x="0px" y="0px"
	 viewBox="-248 385 242 52.3" style="enable-background:new -248 385 242 52.3;" xml:space="preserve">
<style type="text/css">
	.st0{fill:#FCFCFC;}
	.st1{fill:#FAFAFA;}
</style>
<g id="atlassian-logo" transform="translate(2.000000, 0.000000)">
	<g id="charlie">
		<path id="earth" class="st0" d="M-194,385.6c-0.2-0.3-0.6-0.5-1-0.5c-0.2,0-0.4,0.1-0.6,0.2c-7.7,4.3-16.6,6.6-25.7,6.6
			c-9.2,0-18-2.3-25.7-6.6c-0.2-0.1-0.4-0.2-0.6-0.2c-0.4,0-0.8,0.2-1,0.5c-0.4,0.5-0.4,1.3,0.2,1.8c3.8,2.9,8.1,5.2,12.6,6.8
			c4.7,1.6,9.6,2.5,14.5,2.5h0c5,0,9.9-0.8,14.5-2.5c4.5-1.6,8.7-3.9,12.6-6.8C-193.6,386.9-193.6,386.1-194,385.6"/>
		<path id="charlie-head" class="st0" d="M-221.4,401c2,0,3.1-0.1,3.5-0.1c0.5,0,0.9,0.4,0.9,1c0,0.2,0,0.3-0.1,0.4
			c-0.3,0.7-1.4,3.3-3.7,5.5c-0.2,0.2-0.5,0.3-0.7,0.3h0c-0.2,0-0.5,0-0.7-0.3c-2.2-2.2-3.4-4.8-3.7-5.5c0-0.1-0.1-0.2-0.1-0.4
			c0-0.6,0.5-1,0.9-1C-224.5,400.9-223.3,401-221.4,401L-221.4,401"/>
		<path id="charlie-body" class="st0" d="M-202.8,397.8c-0.2-0.1-0.4-0.2-0.6-0.2c-0.1,0-0.2,0-0.4,0.1c-2.2,0.9-4.5,1.5-6.5,2
			c-0.4,0.1-0.8,0.4-0.9,0.8c-1.5,4.2-5.3,8.2-9.4,12.5c-0.2,0.2-0.4,0.4-0.8,0.4c-0.4,0-0.6-0.2-0.8-0.4c-4-4.2-7.9-8.2-9.4-12.4
			c-0.1-0.4-0.5-0.7-0.9-0.8c-2.1-0.5-4.3-1.2-6.5-2c-0.1,0-0.2-0.1-0.4-0.1c-0.2,0-0.4,0.1-0.6,0.2c-0.3,0.2-0.4,0.6-0.4,0.9
			c0.3,3.5,1.7,6.9,4.1,10.5c2.3,3.4,5.3,6.5,8.2,9.5c5.3,5.6,10.4,10.8,10.8,17c0,0.6,0.5,1,1,1h6.3c0.3,0,0.6-0.1,0.7-0.3
			c0.2-0.2,0.3-0.5,0.3-0.8c-0.2-4.1-1.7-8.2-4.6-12.5c-0.6-0.9-1.3-1.8-1.9-2.7c-0.3-0.4-0.2-0.8,0.1-1c0.2-0.2,0.4-0.4,0.6-0.7
			c2.9-3,5.9-6.2,8.2-9.5c2.4-3.6,3.8-7,4.1-10.5C-202.4,398.4-202.6,398.1-202.8,397.8"/>
		<path id="charlie-leg" class="st0" d="M-228.1,423.6c-0.1-0.2-0.4-0.3-0.7-0.3c-0.5,0-0.7,0.3-0.8,0.5c-2.6,4.1-4,8-4.2,11.9
			c0,0.3,0.1,0.6,0.3,0.8c0.2,0.2,0.5,0.3,0.7,0.3h6.2c0.5,0,1-0.4,1-1c0.1-1.9,0.7-3.8,1.7-5.7c0.4-0.7,0.1-1.3-0.1-1.6
			C-225,427.1-226.2,425.6-228.1,423.6"/>
	</g>
	<g id="lettering">
		<path id="a-1" class="st1" d="M-179,399.1c-0.1-0.4-0.5-0.7-0.9-0.7h-8.9c-0.4,0-0.8,0.3-0.9,0.7l-11.2,36.4
			c-0.1,0.3,0,0.6,0.1,0.9c0.2,0.3,0.5,0.4,0.8,0.4h6.1c0.4,0,0.8-0.3,0.9-0.7l7.7-26.8c0,0,0.2-0.7,0.9-0.7c0.7,0,0.9,0.7,0.9,0.7
			l3.6,12.7h-4.8c-0.4,0-0.8,0.3-0.9,0.7l-1.4,5c-0.1,0.3,0,0.6,0.2,0.9c0.2,0.2,0.5,0.4,0.8,0.4h8.2l2.2,7.1
			c0.1,0.4,0.5,0.7,0.9,0.7h6.1c0.3,0,0.6-0.1,0.8-0.4c0.2-0.3,0.2-0.6,0.1-0.9L-179,399.1"/>
		<path id="t" class="st1" d="M-152.4,431.2c0-0.3-0.2-0.5-0.4-0.7c-0.2-0.2-0.5-0.2-0.8-0.1c-1,0.3-1.9,0.4-2.7,0.4
			c-1.4,0-2-0.6-2-2v-14h5.5c0.5,0,1-0.4,1-1v-4.4c0-0.5-0.4-1-1-1h-5.5v-6.7c0-0.3-0.1-0.6-0.3-0.7c-0.2-0.2-0.5-0.3-0.8-0.2
			l-5.6,0.8c-0.5,0.1-0.8,0.5-0.8,1v5.9h-3.1c-0.5,0-1,0.4-1,1v4.4c0,0.5,0.4,1,1,1h3.1v14.9c0,5.1,2.6,7.7,7.8,7.7
			c1.5,0,4-0.3,5.6-0.9c0.4-0.2,0.7-0.6,0.6-1.1L-152.4,431.2"/>
		<path id="l" class="st1" d="M-142,397.7h-5.6c-0.5,0-1,0.4-1,1v37.1c0,0.5,0.4,1,1,1h5.6c0.5,0,1-0.4,1-1v-37.1
			C-141.1,398.1-141.5,397.7-142,397.7"/>
		<path id="a-2" class="st1" d="M-123.8,426.4v3.4c-0.9,0.5-2.6,1.2-4.6,1.2c-1.8,0-2.3-0.5-2.3-2.3c0-1.7,0.3-2.3,2.4-2.3H-123.8
			L-123.8,426.4z M-127.6,407.9c-2.8,0-6.3,0.5-8.8,1.2c-0.5,0.1-0.8,0.6-0.7,1.1l0.7,4.2c0,0.3,0.2,0.5,0.4,0.6
			c0.2,0.2,0.5,0.2,0.7,0.2c2.3-0.5,4.7-0.7,6.8-0.7c4.1,0,4.7,0.9,4.7,3.7v2.5h-6c-5.8,0-8.2,2.4-8.2,8.1c0,5.5,2.7,8.6,7.4,8.6
			c2.7,0,5.4-0.8,7.7-2.2l0.2,0.9c0.1,0.4,0.5,0.7,0.9,0.7h4.5c0.5,0,1-0.4,1-1v-17.5C-116.3,410.7-119.4,407.9-127.6,407.9
			L-127.6,407.9z"/>
		<path id="s-1" class="st1" d="M-102.2,419.3c-3.5-0.9-3.5-1-3.5-2.9c0-1.3,0.1-2,3-2c2,0,4.9,0.4,6.7,0.7c0.3,0,0.5,0,0.7-0.2
			c0.2-0.2,0.3-0.4,0.4-0.7l0.5-4.4c0.1-0.5-0.3-1-0.7-1.1c-2.2-0.5-5.2-0.8-7.6-0.8c-8.6,0-10.4,3.3-10.4,8.4c0,5.5,1,7.4,7.6,9
			c4.4,1.1,4.4,1.9,4.4,3.2c0,1.7-0.1,2.3-3,2.3c-2.3,0-5-0.4-7.3-1c-0.3-0.1-0.5,0-0.8,0.1c-0.2,0.1-0.4,0.4-0.4,0.6l-0.7,4.2
			c-0.1,0.5,0.2,1,0.6,1.1c2.6,0.8,6.2,1.4,8.9,1.4c8.4,0,10.1-3.6,10.1-9C-93.7,422.4-94.8,421.3-102.2,419.3"/>
		<path id="s-2" class="st1" d="M-80.5,419.3c-3.5-0.9-3.5-1-3.5-2.9c0-1.3,0.1-2,3-2c2,0,4.9,0.4,6.7,0.7c0.3,0,0.5,0,0.7-0.2
			c0.2-0.2,0.3-0.4,0.4-0.7l0.5-4.4c0.1-0.5-0.3-1-0.7-1.1c-2.2-0.5-5.2-0.8-7.6-0.8c-8.6,0-10.4,3.3-10.4,8.4c0,5.5,1,7.4,7.6,9
			c4.4,1.1,4.4,1.9,4.4,3.2c0,1.7-0.1,2.3-3,2.3c-2.3,0-5-0.4-7.3-1c-0.3-0.1-0.5,0-0.8,0.1c-0.2,0.1-0.4,0.4-0.4,0.6l-0.7,4.2
			c-0.1,0.5,0.2,1,0.6,1.1c2.6,0.8,6.2,1.4,8.9,1.4c8.4,0,10.1-3.6,10.1-9C-72,422.4-73.1,421.3-80.5,419.3"/>
		<path id="i-dot" class="st1" d="M-62.3,397.7H-68c-0.5,0-1,0.4-1,1v5.1c0,0.5,0.4,1,1,1h5.6c0.5,0,1-0.4,1-1v-5.1
			C-61.4,398.1-61.8,397.7-62.3,397.7"/>
		<path id="i-base" class="st1" d="M-62.3,408.5H-68c-0.5,0-1,0.4-1,1v26.3c0,0.5,0.4,1,1,1h5.6c0.5,0,1-0.4,1-1v-26.3
			C-61.4,408.9-61.8,408.5-62.3,408.5"/>
		<path id="a-3" class="st1" d="M-44,426.4v3.4c-0.9,0.5-2.6,1.2-4.6,1.2c-1.8,0-2.3-0.5-2.3-2.3c0-1.7,0.3-2.3,2.4-2.3H-44
			L-44,426.4z M-47.8,407.9c-2.8,0-6.3,0.5-8.8,1.2c-0.5,0.1-0.8,0.6-0.7,1.1l0.7,4.2c0,0.3,0.2,0.5,0.4,0.6
			c0.2,0.2,0.5,0.2,0.7,0.2c2.3-0.5,4.7-0.7,6.8-0.7c4.1,0,4.7,0.9,4.7,3.7v2.5h-6c-5.8,0-8.2,2.4-8.2,8.1c0,5.5,2.7,8.6,7.4,8.6
			c2.7,0,5.4-0.8,7.7-2.2l0.2,0.9c0.1,0.4,0.5,0.7,0.9,0.7h4.5c0.5,0,1-0.4,1-1v-17.5C-36.5,410.7-39.5,407.9-47.8,407.9
			L-47.8,407.9z"/>
		<path id="n" class="st1" d="M-15.7,407.9c-3,0-7,1.1-10.5,2.7l-0.4-1.4c-0.1-0.4-0.5-0.7-0.9-0.7h-4.2c-0.5,0-1,0.4-1,1v26.3
			c0,0.5,0.4,1,1,1h5.6c0.5,0,1-0.4,1-1v-18.2c2-1.1,4.9-2.1,6.6-2.1c1.3,0,1.7,0.5,1.7,1.8v18.6c0,0.5,0.4,1,1,1h5.6
			c0.5,0,1-0.4,1-1v-19.3C-9.3,410.8-11.4,407.9-15.7,407.9"/>
	</g>
</g>
</svg>
