<?xml version="1.0" encoding="utf-8"?>
<!-- Generator: Adobe Illustrator 19.0.0, SVG Export Plug-In . SVG Version: 6.00 Build 0)  -->
<svg version="1.1" id="Layer_1" xmlns:sketch="http://www.bohemiancoding.com/sketch/ns"
	 xmlns="http://www.w3.org/2000/svg" xmlns:xlink="http://www.w3.org/1999/xlink" x="0px" y="0px" viewBox="8 263 627 267"
	 style="enable-background:new 8 263 627 267;" xml:space="preserve">
<style type="text/css">
	.st0{fill:#EAEAEA;}
	.st1{fill:#FFFFFF;}
</style>
<title>logo</title>
<desc>Created with Sketch.</desc>
<path id="Shape" class="st0" d="M296.3,277.2c13.5-10.9,31.6-15,48.6-12.7c16,1.8,31.2,8,45,16.2c-10.5-1.4-22.1,0.6-30,8.1
	c-11.4,10.4-14.4,26.5-15.2,41.1c-0.2,15.9,0,31.7-0.1,47.6c-12.9,7.5-25.7,15.2-38.8,22.2c-13-7-25.7-14.8-38.5-22.1
	c-0.4-15.8-1-31.6,0.5-47.3C270.7,310.2,280.1,290.2,296.3,277.2L296.3,277.2z"/>
<path id="Shape_1_" class="st0" d="M189.6,343c-0.4-22.8,17.3-45.4,40.4-48.1c14.6-1.4,29.6,2.6,41.9,10.7
	c-5.9-0.7-12.3-0.6-17.2,3.2c-7.8,5.8-10.3,16-11.1,25.2c-0.6,11.3-0.1,22.7-0.3,34c-9.1,5.1-17.9,10.6-27.1,15.4
	c-8.7-5.3-17.6-10.3-26.4-15.4C189.6,359.6,189.7,351.3,189.6,343L189.6,343z"/>
<path id="Shape_2_" class="st0" d="M389.4,302.4c7.9-5.7,17.8-8.4,27.5-7.7c11.7,0.7,23.4,4.2,33.1,10.8c-6.8-1.4-14.5-0.2-19.4,5.1
	c-7.1,7.6-8.3,18.6-8.7,28.5c-0.1,9.6,0,19.3,0,28.9c-8.9,5.3-17.8,10.4-26.8,15.5c-8.9-5.3-17.9-10.3-26.8-15.6
	c0.1-7.9,0-15.8,0-23.8C367.7,327.8,376.3,311.8,389.4,302.4L389.4,302.4z"/>
<path id="Shape_3_" class="st0" d="M457,325c10.3-7.3,25.2-5.7,34.7,2.1c-4.6-0.3-9.5,1.6-11.6,6c-4.9,9.6-2.4,20.7-3.4,31
	c-3.6,3-8.3,4.8-12.3,7.4c-1.7,0.7-3.5,2.9-5.4,1.6c-5.2-3-10.3-5.9-15.4-9c0.1-4.7,0-9.4,0-14.1C443.7,340.2,449,330.6,457,325
	L457,325z"/>
<path id="Shape_4_" class="st0" d="M142.3,339.3c3.6-8.1,11.7-14.3,20.7-14.6c6.3,0,12.8,1.2,18.1,4.7c-3.7,0.3-7.8,1.4-9.8,4.9
	c-5.1,8-2.4,17.8-3.3,26.7c-4.4,3.2-9.4,5.5-14,8.3c-4.6-2.9-9.7-5.1-14-8.5C139.9,353.7,138.9,346,142.3,339.3L142.3,339.3z"/>
<path id="Shape_5_" class="st0" d="M499.3,342.3c3.9-6.8,14-8,20-3.5c-2.3,1.1-4.9,2.1-5.8,4.6c-2,4.6-0.6,9.8-1.2,14.6
	c-2.5,1.4-5,2.9-7.4,4.5c-2.6-1.4-5.2-2.9-7.7-4.5C497.4,352.7,496,346.8,499.3,342.3L499.3,342.3z"/>
<path id="Shape_6_" class="st1" d="M43,427.3c11.5-2.2,23.6-1.2,34.7,2.4c-0.9,5.5-2.5,10.9-3.6,16.4c-7.9-2.5-16.5-3.5-24.7-2.1
	c-9,1.7-16,9.4-18.1,18.1c-2.6,10.2-2.7,21.3,0.4,31.5c2.5,8.4,9.4,15.6,18.1,17.5c8.6,1.6,17.7,0.6,25.4-3.7
	c1.4,5.3,2.7,10.5,3.9,15.8c-3.9,2.6-8.5,4.2-13.2,4.9c-12.1,2.2-25.4,1.6-36.3-4.7c-11.4-6.7-17.8-19.5-19.7-32.2
	c-0.5-4.4-1.1-8.8-1.3-13.2c0.6-9.7,1.3-19.7,5.9-28.4C19.9,438.2,30.6,429.6,43,427.3L43,427.3z"/>
<path id="Shape_7_" class="st1" d="M361.2,428.6c11.8-1.4,23.8-2.5,35.7-1.8c8.9,0.7,18.8,2.3,25.2,9.1c5.7,5.7,6.4,14.6,4.8,22.1
	c-1.5,6.8-6.6,12.6-13.1,14.9c-1.4,0.5-2.6,1.1-3.9,1.9c7.4,1.3,15,5,18.2,12.1c4.6,9.8,3.4,22.9-4.5,30.8
	c-7.4,7.6-18.4,10.4-28.7,10.8c-11.3,0.2-22.6,0-33.7-1.8C361.1,494,361.1,461.3,361.2,428.6L361.2,428.6z M380.2,443.4
	c-0.1,8.8-0.2,17.6,0,26.3c6.4-0.4,13.3,0.9,19.2-2.4c3.8-2,7.7-4.9,8.6-9.3c1.5-5.4-1.4-11.7-6.8-13.6
	C394.5,442.1,387.1,443.4,380.2,443.4L380.2,443.4z M380,484.6c0.2,9-0.1,18,0.2,27.1c8.2,0.5,17.4,2.1,24.6-2.8
	c7.3-4.6,7.7-17.2-0.1-21.5C397.2,483.2,388.3,484.8,380,484.6L380,484.6z"/>
<path id="Shape_8_" class="st1" d="M91.3,428.2c6.1-0.1,12.3-0.1,18.4,0c-0.1,25.3,0,50.5,0,75.8c0.2,2.9,0.2,6.6,3,8.3
	c3.2,1.1,6.7,0.1,9.8-1c0.6,4.9,1.5,9.8,1.9,14.8c-8.2,2.6-17.5,4.8-25.8,1.3c-4.8-2-7.2-7.4-7.2-12.4
	C91.3,486.1,91.5,457.1,91.3,428.2L91.3,428.2z"/>
<path id="Shape_9_" class="st1" d="M326.1,428.2c6.1-0.1,12.2,0.1,18.3-0.1c0.3,28.2-0.1,56.4,0.2,84.5c0,5,0.9,9.8,1.2,14.8
	c-4.3,0-8.7,0-13,0c-0.9-3.1-1.7-6.2-2.6-9.3c-8.8,14.4-31.9,14.9-42.1,1.9c-6-7.6-6.8-17.7-7.1-27c0.1-11.4,2.5-23.9,11.6-31.7
	c9.3-7.7,22.6-8,33.8-4.9C326.1,447,326.2,437.6,326.1,428.2L326.1,428.2z M311.5,470.7c-6.8,1.2-10.4,8.1-11,14.5
	c-0.6,7.6-1.3,15.9,2.6,22.8c4.2,7.8,17.4,7.3,21.3-0.5c2.1-3.4,1.7-7.6,1.7-11.5c-0.1-7.3,0.2-14.7-0.1-22
	C322.7,469.7,316.3,470.1,311.5,470.7L311.5,470.7z"/>
<path id="Shape_10_" class="st1" d="M154.9,455c9.2-1.4,19.4-0.6,27.2,4.9c7.3,4.9,11.3,13.5,12.6,22c1.4,9,1.1,18.5-1.8,27.2
	c-3.1,9.4-11.2,17.1-21,19.1c-9.7,2.1-20.5,1.4-29-4.1c-7.6-4.8-11.9-13.4-13.2-22.1c-1.6-10.3-1.2-21.3,3.2-30.8
	C137,462.4,145.6,456.3,154.9,455L154.9,455z M158.3,470.5c-4.5,1.2-7.8,5.2-9,9.6c-2.1,7.7-2.1,16,0.4,23.6
	c1.2,3.7,3.6,7.2,7.2,8.8c5.5,2.3,12.9,1,16.2-4.3c3.2-5.1,3.4-11.4,3.5-17.2c-0.1-5.9-0.9-12.2-4.6-17
	C168.7,470,163,469.6,158.3,470.5L158.3,470.5z"/>
<path id="Shape_11_" class="st1" d="M450.7,462.7c8-7.6,19.8-9.3,30.3-7.8c7.4,1,14.8,4.9,18.4,11.7c5.1,9,4.2,19.8,2.4,29.5
	c-1.5,0.7-3.2,0.3-4.7,0.4c-12.6-0.1-25.1,0-37.7,0c0.4,6.1,2.2,13.2,8.3,16c9,4,19.2,1.4,27.4-3.3c1.9,4,3.9,8,5.9,11.9
	c-9.6,6.8-21.9,9-33.4,7.7c-7.3-0.8-14.7-4-19.2-10.1c-6.4-8.4-7.9-19.4-7.5-29.7C441.1,479.5,443.5,469.4,450.7,462.7L450.7,462.7z
	 M469.5,469.8c-6.4,1.9-9.2,9-9.6,15c8.7-0.1,17.3,0,26-0.1c0-4.3,0.1-9.3-3.2-12.5C479.4,468.6,473.9,468.8,469.5,469.8
	L469.5,469.8z"/>
<path id="Shape_12_" class="st1" d="M521.8,462.8c8.2-7.9,20.5-9.5,31.3-7.7c7.6,1.1,14.9,5.8,18.2,13c4.4,8.8,3,19,1.8,28.4
	c-14.2,0.3-28.4-0.1-42.7,0.2c0.5,6,2.3,13,8.2,15.8c8.9,4,19.2,1.6,27.2-3.2c2.4,3.8,4.1,8,6.2,11.9c-10.3,7.1-23.5,9.4-35.7,7.3
	c-6.8-1.1-13.4-4.6-17.4-10.4c-6.2-8.7-7.3-19.7-6.9-30.1C512.5,478.8,514.9,469.2,521.8,462.8L521.8,462.8z M540.5,469.8
	c-6.3,1.9-9,8.9-9.5,15c8.7,0,17.4,0,26.1,0c0.1-4.4-0.2-9.3-3.3-12.7C550.4,468.6,545,468.8,540.5,469.8L540.5,469.8z"/>
<path id="Shape_13_" class="st1" d="M585.2,468.1c2-7.6,9.3-12.4,16.8-13.3c10.6-1.3,21.7,0.2,31.2,5.1c-1.3,4.4-2.7,8.7-3.9,13.1
	c-7.5-1.8-15-5.2-22.8-3.2c-3.9,1.2-5.5,7.1-1.9,9.5c7.1,4.8,16.4,5.4,23,11c11.8,9.1,8.7,30.7-5.1,36.3
	c-12.9,5.1-27.8,2.7-39.9-3.5c1.5-4.7,3.4-9.2,4.9-13.8c6.2,2.6,12.6,5.3,19.5,5.3c2.6,0,5.3-0.4,7.4-1.9c2.8-2.3,2.8-7.4-0.5-9.4
	c-7.8-5.2-18.5-5.6-24.9-13.2C583.7,484.1,583.3,475.4,585.2,468.1L585.2,468.1z"/>
<path id="Shape_14_" class="st1" d="M207.4,456.6c6.1-0.4,12.3,0,18.4-0.2c0.3,15.2-0.4,30.5,0.5,45.7c0,4.6,2.2,10.3,7.5,10.6
	c7.1,1.5,14-4,15.8-10.7c0.4-15.2-0.3-30.4,0.3-45.6c6.1,0.3,12.3-0.1,18.4,0.3c-0.2,15.1,0,30.3-0.1,45.4c-0.2,8.5,0.5,17,2.1,25.3
	c-4.6,0-9.1,0-13.7,0c-1.3-3.4-2.3-6.9-3.3-10.5c-3.2,3-5.8,6.8-9.8,8.9c-8.1,4.7-18.5,4.9-26.8,0.5c-7.1-4.4-8.9-13.5-9.4-21.2
	C207.3,488.8,207.7,472.7,207.4,456.6L207.4,456.6z"/>
</svg>
