<?xml version="1.0" encoding="utf-8"?>
<!-- Generator: Adobe Illustrator 19.0.0, SVG Export Plug-In . SVG Version: 6.00 Build 0)  -->
<svg version="1.1" id="Layer_1" xmlns="http://www.w3.org/2000/svg" xmlns:xlink="http://www.w3.org/1999/xlink" x="0px" y="0px"
	 viewBox="-8 338.6 593.4 117.4" style="enable-background:new -8 338.6 593.4 117.4;" xml:space="preserve">
<style type="text/css">
	.st0{clip-path:url(#SVGID_2_);fill:url(#SVGID_3_);}
	.st1{fill:#E7E7E7;}
	.st2{clip-path:url(#SVGID_5_);fill:url(#SVGID_6_);}
	.st3{fill:#FFFFFF;}
</style>
<g>
	<g>
		<defs>
			<path id="SVGID_1_" d="M21,354.2c-16.9,8.5-28,19.4-28,33.1c54.2,5.7,56.7-9.9,79.1-23.7C55.6,356,38.4,354,21,354.2z"/>
		</defs>
		<clipPath id="SVGID_2_">
			<use xlink:href="#SVGID_1_"  style="overflow:visible;"/>
		</clipPath>
		
			<linearGradient id="SVGID_3_" gradientUnits="userSpaceOnUse" x1="-14.5794" y1="679.3602" x2="-14.1794" y2="679.3602" gradientTransform="matrix(-135.3815 95.2694 89.0716 126.5742 -62413.6523 -84254.7031)">
			<stop  offset="0" style="stop-color:#DEDEDE"/>
			<stop  offset="1" style="stop-color:#E7E7E7"/>
		</linearGradient>
		<polygon class="st0" points="45.9,316.7 -25.3,366.9 19.2,430.2 90.4,380 		"/>
	</g>
</g>
<path class="st1" d="M30.5,347.5c13-5.1,28.3-7.3,44.7-7.8c47.2-1.5,85.6,19.7,85.6,47.3c-64.6,6.8-51.4-18.4-88.6-32.3
	C61.3,350.6,42.2,346.5,30.5,347.5"/>
<g>
	<g>
		<defs>
			<path id="SVGID_4_" d="M21,440.4C4.1,431.8-7,421-7,407.3c54.2-5.7,56.7,9.9,79.1,23.7C55.6,438.6,38.4,440.6,21,440.4z"/>
		</defs>
		<clipPath id="SVGID_5_">
			<use xlink:href="#SVGID_4_"  style="overflow:visible;"/>
		</clipPath>
		
			<linearGradient id="SVGID_6_" gradientUnits="userSpaceOnUse" x1="-16.9117" y1="679.6681" x2="-16.5117" y2="679.6681" gradientTransform="matrix(-135.3817 -95.2696 -89.0716 126.5742 58321.4414 -87190.8594)">
			<stop  offset="0" style="stop-color:#DEDEDE"/>
			<stop  offset="1" style="stop-color:#E7E7E7"/>
		</linearGradient>
		<polygon class="st2" points="90.4,414.5 19.2,364.4 -25.3,427.7 45.9,477.8 		"/>
	</g>
</g>
<path class="st1" d="M30.5,447c13,5.1,28.3,7.3,44.7,7.8c47.2,1.5,85.6-19.7,85.6-47.3c-64.6-6.8-51.4,18.4-88.7,32.4
	C61.2,444,42.2,448.1,30.5,447"/>
<path class="st3" d="M584.8,373.6v7.9h-23.6v11.9h23.6v7.8h-23.6v11.9h23.6v7.9h-31.4v-47.4H584.8z M519.9,412.9
	c2.2,0,4.2-0.4,6.1-1.2c1.9-0.8,3.6-2,5-3.4c1.4-1.5,2.5-3.1,3.4-5.1c0.8-1.9,1.2-3.9,1.2-6.1c0-2.1-0.4-4.2-1.2-6.1
	c-0.8-1.9-1.9-3.6-3.4-5.1c-1.4-1.4-3.1-2.6-5-3.4s-3.9-1.2-6-1.2h-7.9v31.5h7.8V412.9z M504.2,373.6h15.7c3.2,0,6.3,0.6,9.1,1.9
	c2.9,1.3,5.4,2.9,7.5,5.1c2.2,2.2,3.8,4.7,5.1,7.5c1.3,2.9,1.9,5.9,1.9,9.1c0,3.2-0.6,6.3-1.9,9.1c-1.2,2.9-2.9,5.4-5.1,7.5
	c-2.1,2.2-4.6,3.8-7.5,5.1c-2.9,1.3-5.9,1.9-9.1,1.9h-15.7V373.6z M481.6,412.9h-21.7l-4,7.9h-8.8l23.6-47.2l23.6,47.2h-8.8
	L481.6,412.9z M463.7,405.2h13.9l-6.9-13.9L463.7,405.2z M428,420.8l-9.1-15.7h-13.3v15.7h-7.8v-47.2h23.6c4.3,0,8,1.5,11.1,4.6
	s4.6,6.8,4.6,11.1c0,3.3-0.9,6.3-2.8,8.9c-1.8,2.6-4.1,4.5-6.9,5.6l9.7,17H428z M421.4,381.5h-15.8v15.7l15.8,0.1
	c2.1,0,4-0.8,5.5-2.3s2.3-3.4,2.3-5.6c0-2.1-0.8-4-2.3-5.5C425.3,382.2,423.5,381.5,421.4,381.5z M348.5,373.6h39.4v7.9h-15.7v39.4
	h-7.9v-39.4h-15.8V373.6z M299.1,392.6v28.2h-7.8v-47.2l23.6,23.6l23.6-23.6v47.2h-8v-28.2l-15.7,15.8L299.1,392.6z M257.7,381.5
	c-4.3,0-8,1.5-11.1,4.6c-3,3.1-4.6,6.8-4.6,11.1c0,4.3,1.5,8,4.6,11.2c3.1,3.1,6.8,4.6,11.1,4.6c4.3,0,8-1.5,11.1-4.6
	c3.1-3.1,4.6-6.9,4.6-11.2c0-4.3-1.5-8-4.6-11.1S262,381.5,257.7,381.5z M257.7,373.6c6.5,0,12.1,2.3,16.6,6.9
	c4.7,4.6,7,10.2,7,16.7c0,6.6-2.3,12.1-7,16.7c-4.6,4.6-10.1,6.9-16.6,6.9s-12.1-2.3-16.7-6.9c-4.6-4.6-6.9-10.1-6.9-16.7
	c0-6.5,2.3-12,6.9-16.7C245.6,375.9,251.1,373.6,257.7,373.6z M213.8,373.6c3.3,0,6.3,0.6,9.2,1.8c2.8,1.2,5.3,2.9,7.5,5.1l-5.6,5.6
	c-3.1-3.1-6.8-4.6-11.1-4.6c-2.2,0-4.2,0.4-6.1,1.2c-1.9,0.8-3.6,1.9-5,3.4c-1.4,1.4-2.6,3.1-3.4,5c-0.8,1.9-1.3,3.9-1.3,6.1
	c0,2.2,0.4,4.2,1.3,6.1c0.8,1.9,2,3.6,3.4,5c1.4,1.4,3.1,2.6,5,3.4c1.9,0.8,4,1.2,6.2,1.2c4.3,0,8-1.5,11.1-4.6l5.6,5.5
	c-2.2,2.2-4.7,3.9-7.5,5.1c-2.8,1.2-5.9,1.8-9.2,1.8s-6.3-0.6-9.2-1.9c-2.9-1.3-5.4-2.9-7.5-5.1c-2.2-2.1-3.8-4.6-5.1-7.5
	s-1.9-5.9-1.9-9.2c0-3.2,0.6-6.2,1.9-9.1c1.2-2.9,2.9-5.4,5.1-7.6c2.2-2.2,4.7-3.8,7.5-5.1C207.5,373.9,210.5,373.6,213.8,373.6z"/>
</svg>
