<?xml version="1.0" encoding="utf-8"?>
<!-- Generator: Adobe Illustrator 19.0.0, SVG Export Plug-In . SVG Version: 6.00 Build 0)  -->
<svg version="1.1" id="Layer_1" xmlns="http://www.w3.org/2000/svg" xmlns:xlink="http://www.w3.org/1999/xlink" x="0px" y="0px"
	 viewBox="-169 351 272 92" style="enable-background:new -169 351 272 92;" xml:space="preserve">
<style type="text/css">
	.st0{fill:#EAEAEA;}
	.st1{fill:#FBFBFB;}
	.st2{fill:#F4F4F4;}
	.st3{fill:#A8A8A8;}
</style>
<path class="st0" d="M-53.3,398.2c0,12.8-10,22.2-22.3,22.2s-22.3-9.4-22.3-22.2c0-12.9,10-22.2,22.3-22.2S-53.3,385.3-53.3,398.2z
	 M-63,398.2c0-8-5.8-13.4-12.5-13.4S-88,390.2-88,398.2c0,7.9,5.8,13.4,12.5,13.4S-63,406.1-63,398.2z"/>
<path class="st1" d="M-5.3,398.2c0,12.8-10,22.2-22.3,22.2s-22.3-9.4-22.3-22.2c0-12.8,10-22.2,22.3-22.2S-5.3,385.3-5.3,398.2z
	 M-15,398.2c0-8-5.8-13.4-12.5-13.4S-40,390.2-40,398.2c0,7.9,5.8,13.4,12.5,13.4S-15,406.1-15,398.2z"/>
<path class="st2" d="M40.8,377.3v39.8c0,16.4-9.7,23.1-21.1,23.1C8.9,440.2,2.4,433,0,427.2l8.5-3.5c1.5,3.6,5.2,7.9,11.2,7.9
	c7.3,0,11.8-4.5,11.8-13v-3.2h-0.3c-2.2,2.7-6.4,5-11.7,5c-11.1,0-21.3-9.7-21.3-22.1c0-12.5,10.2-22.3,21.3-22.3
	c5.3,0,9.5,2.4,11.7,5h0.3v-3.6L40.8,377.3L40.8,377.3z M32.2,398.3c0-7.8-5.2-13.5-11.8-13.5c-6.7,0-12.4,5.7-12.4,13.5
	c0,7.7,5.6,13.4,12.4,13.4C27,411.6,32.2,406,32.2,398.3z"/>
<path class="st3" d="M56,354v65h-9.5v-65H56z"/>
<path class="st0" d="M93,405.5l7.6,5c-2.4,3.6-8.3,9.8-18.5,9.8c-12.6,0-22-9.7-22-22.2C60.1,385,69.6,376,81,376
	c11.5,0,17.1,9.2,19,14.1l1,2.5l-29.6,12.3c2.3,4.5,5.8,6.7,10.8,6.7C87.1,411.6,90.5,409.2,93,405.5L93,405.5z M69.7,397.5
	l19.8-8.2c-1.1-2.8-4.4-4.7-8.2-4.7C76.4,384.6,69.5,388.9,69.7,397.5z"/>
<path class="st2" d="M-133.7,392.4V383h31.7c0.3,1.6,0.5,3.6,0.5,5.7c0,7.1-1.9,15.8-8.2,22c-6,6.3-13.8,9.7-24,9.7
	c-19,0-34.9-15.5-34.9-34.4s16-34.4,34.9-34.4c10.5,0,18,4.1,23.6,9.5l-6.6,6.6c-4-3.8-9.5-6.7-17-6.7c-13.9,0-24.7,11.2-24.7,25
	s10.8,25,24.7,25c9,0,14.1-3.6,17.4-6.9c2.7-2.7,4.4-6.5,5.1-11.6L-133.7,392.4z"/>
</svg>
