<?xml version="1.0" encoding="utf-8"?>
<!-- Generator: Adobe Illustrator 19.0.0, SVG Export Plug-In . SVG Version: 6.00 Build 0)  -->
<svg version="1.1" id="Layer_1" xmlns="http://www.w3.org/2000/svg" xmlns:xlink="http://www.w3.org/1999/xlink" x="0px" y="0px"
	 viewBox="-169 351 272 92" style="enable-background:new -169 351 272 92;" xml:space="preserve">
<style type="text/css">
	.st0{fill:#F4F4F4;}
</style>
<path class="st0" d="M-52.5,399.3c0,12.8-10,22.2-22.3,22.2s-22.3-9.4-22.3-22.2c0-12.9,10-22.2,22.3-22.2S-52.5,386.4-52.5,399.3z
	 M-62.2,399.3c0-8-5.8-13.4-12.5-13.4s-12.5,5.4-12.5,13.4c0,7.9,5.8,13.4,12.5,13.4S-62.2,407.2-62.2,399.3z"/>
<path class="st0" d="M-4.5,399.3c0,12.8-10,22.2-22.3,22.2s-22.3-9.4-22.3-22.2c0-12.8,10-22.2,22.3-22.2S-4.5,386.4-4.5,399.3z
	 M-14.2,399.3c0-8-5.8-13.4-12.5-13.4s-12.5,5.4-12.5,13.4c0,7.9,5.8,13.4,12.5,13.4S-14.2,407.2-14.2,399.3z"/>
<path class="st0" d="M41.6,378.4v39.8c0,16.4-9.7,23.1-21.1,23.1c-10.8,0-17.3-7.2-19.7-13l8.5-3.5c1.5,3.6,5.2,7.9,11.2,7.9
	c7.3,0,11.8-4.5,11.8-13v-3.2H32c-2.2,2.7-6.4,5-11.7,5C9.2,421.5-1,411.8-1,399.4c0-12.5,10.2-22.3,21.3-22.3c5.3,0,9.5,2.4,11.7,5
	h0.3v-3.6L41.6,378.4L41.6,378.4z M33,399.4c0-7.8-5.2-13.5-11.8-13.5c-6.7,0-12.4,5.7-12.4,13.5c0,7.7,5.6,13.4,12.4,13.4
	C27.8,412.7,33,407.1,33,399.4z"/>
<path class="st0" d="M56.8,355.1v65h-9.5v-65H56.8z"/>
<path class="st0" d="M93.8,406.6l7.6,5c-2.4,3.6-8.3,9.8-18.5,9.8c-12.6,0-22-9.7-22-22.2c0-13.1,9.5-22.1,20.9-22.1
	c11.5,0,17.1,9.2,19,14.1l1,2.5L72.2,406c2.3,4.5,5.8,6.7,10.8,6.7C87.9,412.7,91.3,410.3,93.8,406.6L93.8,406.6z M70.5,398.6
	l19.8-8.2c-1.1-2.8-4.4-4.7-8.2-4.7C77.2,385.7,70.3,390,70.5,398.6z"/>
<path class="st0" d="M-132.9,393.5v-9.4h31.7c0.3,1.6,0.5,3.6,0.5,5.7c0,7.1-1.9,15.8-8.2,22c-6,6.3-13.8,9.7-24,9.7
	c-19,0-34.9-15.5-34.9-34.4s16-34.4,34.9-34.4c10.5,0,18,4.1,23.6,9.5l-6.6,6.6c-4-3.8-9.5-6.7-17-6.7c-13.9,0-24.7,11.2-24.7,25
	s10.8,25,24.7,25c9,0,14.1-3.6,17.4-6.9c2.7-2.7,4.4-6.5,5.1-11.6L-132.9,393.5z"/>
</svg>
