<?xml version="1.0" encoding="utf-8"?>
<!-- Generator: Adobe Illustrator 19.0.0, SVG Export Plug-In . SVG Version: 6.00 Build 0)  -->
<svg version="1.1" id="Layer_1" xmlns="http://www.w3.org/2000/svg" xmlns:xlink="http://www.w3.org/1999/xlink" x="0px" y="0px"
	 viewBox="0 0 421.2 220.2" style="enable-background:new 0 0 421.2 220.2;" xml:space="preserve">
<g>
	<g>
		<polygon style="fill:#FFFFFF;" points="0,220.2 220.2,220.2 220.2,192.4 206.3,192.4 206.3,206.3 13.9,206.3 13.9,13.9 
			206.3,13.9 206.3,126.8 220.2,126.8 220.2,0 0,0 		"/>
		<rect x="48.4" y="133.6" style="fill:#FFFFFF;" width="13.9" height="52"/>
		<polygon style="fill:#FFFFFF;" points="97.8,157.7 83.7,133.6 69.2,133.6 69.2,185.6 82.3,185.6 82.3,158.6 82.5,158.6 
			98.5,185.6 111.2,185.6 111.2,133.6 98,133.6 98,157.7 		"/>
		<path style="fill:#FFFFFF;" d="M118.2,133.6v52h17.5c16.5,0,24.3-4.1,24.3-26c0-21.5-7.9-25.9-24.5-25.9H118.2z M145.8,159.7
			c0,13.1-3.7,14-8.9,14H132v-27.3h4.3C142.2,146.3,145.8,146.6,145.8,159.7z"/>
		<rect x="164.9" y="133.6" style="fill:#FFFFFF;" width="13.9" height="52"/>
		<path style="fill:#FFFFFF;" d="M293.5,133c-19.4,0-22.8,12.7-22.8,26.6c0,13.9,3.4,26.6,22.8,26.6c19.3,0,22.7-12.7,22.7-26.6
			C316.2,145.7,312.8,133,293.5,133z M293.5,174c-7.6,0-8.7-5.3-8.7-13.8c0-8.5,1.1-13.7,8.7-13.7c7.6,0,8.6,5.3,8.6,13.7
			C302.1,168.7,301,174,293.5,174z"/>
		<path style="fill:#FFFFFF;" d="M390.8,133c-19.4,0-22.8,12.7-22.8,26.6c0,13.9,3.4,26.6,22.8,26.6c19.3,0,22.7-12.7,22.7-26.6
			C413.5,145.7,410.2,133,390.8,133z M390.8,174c-7.6,0-8.7-5.3-8.7-13.8c0-8.5,1.1-13.7,8.7-13.7c7.6,0,8.6,5.3,8.6,13.7
			C399.4,168.7,398.4,174,390.8,174z"/>
		<path style="fill:#FFFFFF;" d="M418,177.4c-2.5,0-3.2,1.7-3.2,4c0,2.2,0.6,3.9,3.2,3.9c2.5,0,3.2-1.7,3.2-3.9
			C421.2,179.1,420.5,177.4,418,177.4z M418,184.7c-2.1,0-2.6-1.5-2.6-3.4c0-1.9,0.5-3.4,2.6-3.4c2.1,0,2.6,1.5,2.6,3.4
			C420.6,183.3,420.1,184.7,418,184.7z"/>
		<path style="fill:#FFFFFF;" d="M419.7,180.4c0-0.9-0.3-1.5-1.5-1.5h-1.8v4.7h1V182h0.6l0.7,1.7h1l-0.8-1.8
			C419.6,181.7,419.7,181.2,419.7,180.4z M418.2,181.2h-0.8v-1.4h0.8c0.5,0,0.6,0.2,0.6,0.7C418.8,181,418.6,181.2,418.2,181.2z"/>
		<path style="fill:#FFFFFF;" d="M244.1,165.6h9v0.9c0,5.7,0.2,8.3-6.7,8.3c-6.4,0-8.6-2.9-8.6-14.7c0-12.2,3.6-13.7,9.1-13.7
			c4.1,0,6.9,1.1,9.3,2.4l7.4-11.6c-3.9-2.5-9.7-4.2-16.1-4.2c-18,0-23.7,8.6-23.7,26.6c0,15.7,4.2,26.6,21.2,26.6
			c3,0,5.6-0.2,7.8-0.6h12.8v-21.7v-9.6h-20.1L244.1,165.6z"/>
		<path style="fill:#FFFFFF;" d="M341.4,165.6h9v0.9c0,5.7,0.2,8.3-6.7,8.3c-6.4,0-8.6-2.9-8.6-14.7c0-12.2,3.6-13.7,9.1-13.7
			c4.1,0,6.9,1.1,9.3,2.4l7.4-11.6c-3.9-2.5-9.7-4.2-16.1-4.2c-18,0-23.7,8.6-23.7,26.6c0,15.7,4.2,26.6,21.2,26.6
			c3,0,5.6-0.2,7.8-0.6H363v-21.7v-9.6h-20.1L341.4,165.6z"/>
		<polygon style="fill:#FFFFFF;" points="220.2,146.3 220.2,133.6 185.7,133.6 185.7,185.6 220.2,185.6 220.2,173.3 199.3,173.3 
			199.3,165.5 213,165.5 214.7,153.1 199.3,153.1 199.3,146.3 		"/>
	</g>
</g>
</svg>
