<?xml version="1.0" encoding="utf-8"?>
<!-- Generator: Adobe Illustrator 19.0.0, SVG Export Plug-In . SVG Version: 6.00 Build 0)  -->
<svg version="1.1" id="Layer_1" xmlns="http://www.w3.org/2000/svg" xmlns:xlink="http://www.w3.org/1999/xlink" x="0px" y="0px"
	 viewBox="-206.2 376.6 42.2 24.7" style="enable-background:new -206.2 376.6 42.2 24.7;" xml:space="preserve">
<style type="text/css">
	.st0{fill:#FFFFFF;}
</style>
<title>logo_JetBrains_4</title>
<g>
	<rect id="_Path_6" x="-206" y="398.1" class="st0" width="19.1" height="3.2"/>
	<path id="_Compound_Path_" class="st0" d="M-206.2,383.6l1.5-1.4c0.3,0.5,0.8,0.7,1.3,0.8c0.6,0,1-0.5,1-1c0,0,0-0.1,0-0.1v-5.3
		h2.3v5.3c0.1,0.9-0.2,1.7-0.8,2.3c-0.6,0.6-1.4,0.9-2.3,0.8C-204.4,385.1-205.5,384.6-206.2,383.6z"/>
	<path id="_Compound_Path_2" class="st0" d="M-199.6,376.6h6.7v2h-4.4v1.3h4v1.8h-4v1.3h4.5v2h-6.7L-199.6,376.6L-199.6,376.6z"/>
	<path id="_Compound_Path_3" class="st0" d="M-189.9,378.6h-2.5v-2h7.3v2h-2.5v6.3h-2.3V378.6z"/>
	<path id="_Compound_Path_4" class="st0" d="M-206,386.8h4.3c0.8-0.1,1.6,0.2,2.3,0.7c0.4,0.4,0.6,0.8,0.6,1.3l0,0
		c0,0.8-0.5,1.6-1.3,1.8c1,0.2,1.7,1,1.6,2l0,0c0,1.4-1.2,2.3-3.1,2.3h-4.3L-206,386.8L-206,386.8z M-201.2,389.4
		c0-0.4-0.4-0.8-0.9-0.7c0,0-0.1,0-0.1,0h-1.5v1.5h1.5C-201.5,390.2-201.1,389.9-201.2,389.4L-201.2,389.4L-201.2,389.4z
		 M-202,391.8h-1.8v1.5h1.8c0.7,0,1.1-0.3,1.1-0.8l0,0c-0.1-0.5-0.5-0.9-1-0.8C-201.9,391.7-201.9,391.8-202,391.8
		C-202,391.8-202,391.8-202,391.8z"/>
	<path id="_Compound_Path_5" class="st0" d="M-198.2,386.8h3.9c1-0.1,2,0.2,2.7,0.9c0.5,0.5,0.8,1.2,0.7,1.9l0,0
		c0,1.1-0.6,2.2-1.7,2.6l2,2.9h-2.6l-1.7-2.5h-1v2.5h-2.3L-198.2,386.8C-198.2,386.8-198.2,386.8-198.2,386.8z M-194.4,390.8
		c0.5,0.1,1.1-0.2,1.2-0.7c0-0.1,0-0.2,0-0.3l0,0c0-0.6-0.4-1-1-1c-0.1,0-0.2,0-0.3,0h-1.5v2H-194.4z"/>
	<path id="_Compound_Path_6" class="st0" d="M-188.1,386.8h2.3l3.5,8.4h-2.5l-0.6-1.5h-3.2l-0.6,1.5h-2.4L-188.1,386.8z
		 M-186.1,391.9l-0.9-2.4l-0.9,2.4H-186.1z"/>
	<path id="_Compound_Path_7" class="st0" d="M-182.1,386.8h2.3v8.3h-2.3V386.8z"/>
	<path id="_Compound_Path_8" class="st0" d="M-179.2,386.8h2.2l3.4,4.4v-4.4h2.3v8.3h-2l-3.6-4.6v4.6h-2.3L-179.2,386.8
		L-179.2,386.8z"/>
	<path id="_Compound_Path_9" class="st0" d="M-171.2,393.9l1.3-1.5c0.8,0.6,1.7,1,2.7,1c0.6,0,1-0.2,1-0.6l0,0
		c0-0.4-0.3-0.5-1.4-0.8c-1.8-0.4-3.1-0.9-3.1-2.6l0,0c0-1.5,1.2-2.7,3.2-2.7c1.2,0,2.4,0.3,3.4,1.1l-1.1,1.6
		c-0.7-0.5-1.5-0.8-2.3-0.8c-0.6,0-0.8,0.2-0.8,0.5l0,0c0,0.4,0.3,0.5,1.4,0.8c1.9,0.4,3.1,1,3.1,2.6l0,0c0,1.7-1.3,2.7-3.4,2.7
		C-168.7,395.3-170.1,394.9-171.2,393.9z"/>
</g>
</svg>
