<?xml version="1.0" encoding="utf-8"?>
<!-- Generator: Adobe Illustrator 19.0.0, SVG Export Plug-In . SVG Version: 6.00 Build 0)  -->
<svg version="1.1" id="Layer_1" xmlns="http://www.w3.org/2000/svg" xmlns:xlink="http://www.w3.org/1999/xlink" x="0px" y="0px"
	 viewBox="-30.2 340.8 525.5 111.4" style="enable-background:new -30.2 340.8 525.5 111.4;" xml:space="preserve">
<style type="text/css">
	.st0{fill:#F7F7F7;}
	.st1{fill:#D6D6D6;}
</style>
<g>
	<path class="st0" d="M300.6,396.5c0,19.6-11.4,34.4-32.3,34.4h-30.9v-68.5h29.5C287.4,362.4,300.6,372.5,300.6,396.5z M282.2,396.6
		c0-16.8-9.2-19.3-16.9-19.3h-9.6v38.5h8.9C276.5,415.9,282.2,407.8,282.2,396.6z"/>
	<path class="st0" d="M433.1,407.5c0,17.1-13.6,24.4-29.4,24.4c-18.8,0-29.6-7.7-29.6-24.4v-45.1h18.8v45.5c0,6.4,4,9.2,10.9,9.2
		c6.8,0,10.6-2.8,10.6-9.4v-45.3h18.8L433.1,407.5L433.1,407.5z"/>
	<path class="st0" d="M469.5,431.8c-18.5,0-25.5-4.2-25.5-4.2l5-15.7c0,0,8,4.2,20.3,4.2c5.3,0,6.4-3.6,6.4-5.7
		c0-9.2-31.2-6.3-31.2-29.1c0-12.9,8.2-20.4,19.5-20.4c18.7,0,27.8,0.7,27.8,0.7l-3.7,14.9c0,0-10.4-0.7-18.9-0.7
		c-4.2,0-5.2,2.4-5.2,4.8c0,9,31.3,4.3,31.3,28.9C495.3,423.3,485.2,431.8,469.5,431.8z"/>
	<polygon class="st0" points="-30.2,362.4 -12.4,362.4 16.7,404.3 16.9,404.3 16.9,362.4 34.7,362.4 34.7,430.9 16.9,430.9 
		-12.2,388.9 -12.4,388.9 -12.4,430.9 -30.2,430.9 	"/>
	<polygon class="st0" points="328.8,377.5 328.8,389 355.9,389 355.9,404 328.8,404 328.8,416 360.5,416 361.6,431 311,431 
		311,362.5 361.6,362.5 360.5,377.5 	"/>
	<path class="st1" d="M102,340.9c-30.8-1.2-56.7,22.8-57.8,53.5C43,425.1,67,451,97.8,452.1c30.8,1.2,56.7-22.8,57.8-53.5
		C156.7,368,132.8,342,102,340.9z M98.4,435.5C76.9,434.6,60.2,416.5,61,395s18.9-38.2,40.4-37.4c21.5,0.8,38.2,18.9,37.4,40.4
		C137.9,419.5,119.8,436.4,98.4,435.5z"/>
	<path class="st1" d="M120.6,386.9c-0.3,7.1-6.2,12.6-13.3,12.3S94.7,393,95,385.9s6.2-12.6,13.3-12.3
		C115.4,373.8,120.9,379.8,120.6,386.9z"/>
	<path class="st0" d="M218.5,412.3c-2.6-5.7-4.1-8.4-6.7-10c2.5-1.2,4.5-2.9,6.1-5.1c2.6-3.7,3.9-9,3.9-13.7
		c0-7.3-2.3-12.5-6.8-15.8c-4.5-3.4-10.2-4.9-17-4.9h-33v67.6h18.5v-24.5h-0.1l4.7-0.1l0,0c1.7,0,8.2,0.4,11.1,6.7
		c3.4,7.4,8.4,17.9,8.4,17.9h19.3C227,430.4,221.1,417.9,218.5,412.3z M183.5,394.1v-18.6h7.3h3.2h0.8c2.7,0,4,0.8,5.3,2.1
		c1.5,1.4,3,3.5,3,6.9c0,3.3-1.1,6.2-3,7.8c-1.3,1.1-2.7,1.9-5.4,1.9h-0.8c-0.3,0-2.9,0-3.2,0h-7.2V394.1z"/>
</g>
</svg>
