<?xml version="1.0" encoding="utf-8"?>
<!-- Generator: Adobe Illustrator 19.0.0, SVG Export Plug-In . SVG Version: 6.00 Build 0)  -->
<svg version="1.1" id="Layer_1" xmlns="http://www.w3.org/2000/svg" xmlns:xlink="http://www.w3.org/1999/xlink" x="0px" y="0px"
	 viewBox="39 317.6 690.3 158.4" style="enable-background:new 39 317.6 690.3 158.4;" xml:space="preserve">
<style type="text/css">
	.st0{fill:#FFFFFF;}
	.st1{enable-background:new    ;}
</style>
<g>
	<g>
		<path class="st0" d="M620.6,439.4V450h-1v-10.6h-4.4v-1h9.8v1H620.6z M637.9,450l-0.6-10.2h-0.1l-3.9,10.2H632l-3.6-10.2h-0.1
			l-0.6,10.2h-1l0.7-11.6h1.6l3.7,10.5h0.1l4-10.5h1.5L639,450H637.9z"/>
	</g>
	<g>
		<g class="st1">
			<g>
				<g>
					<path class="st0" d="M265.1,358.1h-16.6v-16.1h16.6V358.1z M265.1,449.7h-16.6v-79.8h16.6V449.7z"/>
				</g>
				<g>
					<g>
						<path class="st0" d="M361.2,369.9l-23.2,69c-4,11.3-11.1,12.7-16.9,12.7c-8.5,0-13.7-3.9-16.7-12.7l-19.3-57.3h-7.7v-11.7
							h19.9l19.9,64.1c0.9,2.8,1.4,4.4,3.8,4.4c2.5,0,3-1.7,3.8-4.4l20.3-64.1L361.2,369.9L361.2,369.9z"/>
						<path class="st0" d="M402.2,369.9c21.5,0,36.6,14.2,36.6,34.6V417c0,20.3-15,34.6-36.6,34.6c-21.5,0-36.6-14.3-36.6-34.6
							v-12.5C365.6,384.1,380.7,369.9,402.2,369.9 M402.2,438.5c12.9,0,20.9-9.8,20.9-21.4v-12.5c0-11.7-7.9-21.4-20.9-21.4
							c-13.6,0-20.9,9.8-20.9,21.4V417C381.4,428.7,388.9,438.5,402.2,438.5"/>
						<path class="st0" d="M571.7,372.4c-8.3-2.1-21.2-3.7-30.9-3.7c-21.9,0-35.4,13.8-35.4,36v8.7c0,22.2,13.6,36.2,35.4,36.2
							c0.5,0,4.4,0,6.2-0.1v-13.4c-0.7,0-5.7,0.1-6.2,0.1c-11.9,0-19.9-9.2-19.9-22.8v-8.8c0-13.6,8-22.8,19.9-22.8
							c5.4,0,13.5,0.4,16.3,1l0.9,0.2v66.6h16.6v-74.5C574.8,373.8,574.8,373.2,571.7,372.4"/>
						<rect x="590.8" y="342" class="st0" width="16.7" height="107.7"/>
						<path class="st0" d="M190.5,342h-29.2v107.7h17.3V357h10.2c2.1,0,4,0.1,5.8,0.1c15,0.3,22.3,6.2,22.3,17.9c0,0.5,0,0.8,0,1.2
							c0,10.8-6,17.9-22.3,17.9c-1.6,0-3.2-0.1-4.8,0c0,4.2,0,11.8,0,14.5c1.7,0.1,3.3,0.1,4.9,0.1c23.5,0,40.1-9.2,40.1-32.4
							c0-0.5,0-1,0-1.4C234.8,351.1,216.8,342,190.5,342"/>
						<path class="st0" d="M468.3,352.7v17.2h27.1v12.9h-27.1v46.5c0,7.3,4.7,7.5,11.4,7.5h15.7v12.9h-21.2
							c-15.7,0-22.7-6.3-22.7-20.4V355L468.3,352.7z"/>
					</g>
				</g>
			</g>
		</g>
	</g>
</g>
</svg>
