<?xml version="1.0" encoding="utf-8"?>
<!-- Generator: Adobe Illustrator 19.0.0, SVG Export Plug-In . SVG Version: 6.00 Build 0)  -->
<svg version="1.1"
	 id="svg3363" xmlns:dc="http://purl.org/dc/elements/1.1/" xmlns:inkscape="http://www.inkscape.org/namespaces/inkscape" xmlns:rdf="http://www.w3.org/1999/02/22-rdf-syntax-ns#" xmlns:sodipodi="http://sodipodi.sourceforge.net/DTD/sodipodi-0.dtd" xmlns:svg="http://www.w3.org/2000/svg" xmlns:cc="http://creativecommons.org/ns#" inkscape:version="0.46" inkscape:output_extension="org.inkscape.output.svg.inkscape" sodipodi:version="0.32" sodipodi:docname="pixar_logo.svg"
	 xmlns="http://www.w3.org/2000/svg" xmlns:xlink="http://www.w3.org/1999/xlink" x="0px" y="0px" viewBox="78 159.2 667 108"
	 style="enable-background:new 78 159.2 667 108;" xml:space="preserve">
<style type="text/css">
	.st0{fill:#FFFFFF;}
</style>
<defs>
	
	
		<inkscape:perspective  inkscape:vp_z="744.09448 : 526.18109 : 1" inkscape:vp_x="0 : 526.18109 : 1" id="perspective3370" sodipodi:type="inkscape:persp3d" inkscape:vp_y="0 : 1000 : 0" inkscape:persp3d-origin="372.04724 : 350.78739 : 1">
		</inkscape:perspective>
</defs>
<sodipodi:namedview  inkscape:cx="398.35167" inkscape:cy="103.52286" inkscape:zoom="0.80809595" pagecolor="#ffffff" bordercolor="#666666" objecttolerance="10.0" showgrid="false" gridtolerance="10.0" guidetolerance="10.0" id="base" borderopacity="1.0" inkscape:current-layer="svg3363" inkscape:window-y="25" inkscape:window-x="0" inkscape:pageopacity="0.0" inkscape:pageshadow="2" inkscape:window-width="1280" inkscape:window-height="725">
	</sodipodi:namedview>
<path id="path3422" sodipodi:nodetypes="cccccccsssssssssssscccsssscccsc" class="st0" d="M179.5,220.7c0.1-1.4,0.2-1.5,4.9-2
	l4.5-0.5l0.2-1.1c0.2-1.3,0.2-26.7,0-41.9l-0.2-10.7l-1.2-0.4c-0.7-0.2-2.7-0.5-4.5-0.6c-3.3-0.2-3.7-0.4-3.7-1.5
	c0-0.4,0.8-0.5,12.6-0.5c18.7,0,24.1,0.6,29.2,3.2c3.8,1.9,6.3,5.3,6.6,8.8c0.3,3.1-1.1,7.8-3.2,10.9c-3.1,4.5-9.6,8.7-16.3,10.4
	c-3.9,1-4.5,1.1-4.5,0.5c0-1.4,0.3-1.6,2.9-2.7c3.2-1.3,5.4-2.7,7.1-4.5c2.8-3.1,3.9-6.5,3.7-11.5c-0.1-2.9-0.2-3.3-1-5
	c-2.2-4.6-6.7-7-14-7.5l-3-0.2l-0.2,1.2c-0.3,1.4-0.2,43.7,0.1,49.2c0.2,3.4,0.2,3.6,0.8,3.8c0.3,0.1,2.7,0.4,5.2,0.6
	c2.6,0.2,4.8,0.5,5,0.5s0.3,0.4,0.3,0.8v0.7h-12.3c-6.8,0-13.8,0.1-15.6,0.2C180.1,221.1,179.5,221.1,179.5,220.7z"/>
<path id="path3424" sodipodi:nodetypes="csssssssccccccssscccsscccsc" class="st0" d="M281.3,220.4c0-0.3,0.1-0.7,0.2-0.9
	s1.6-0.4,3.4-0.6c1.7-0.2,3.8-0.5,4.5-0.7c1.3-0.3,1.3-0.3,1.5-1.7c0.4-2.9,0.1-50.9-0.3-51.6c-0.1-0.2-2.1-0.5-4.5-0.9
	c-2.4-0.3-4.4-0.6-4.4-0.6c0,0-0.1-0.4-0.2-0.8l-0.2-0.7h12.7c7,0,13.6-0.1,14.8-0.2l2.1-0.2l-0.2,0.8c-0.1,0.4-0.3,0.9-0.4,1
	c-0.1,0.1-2.1,0.4-4.5,0.7c-2.4,0.3-4.4,0.6-4.5,0.7c-0.3,0.3-0.4,37.9-0.1,46.3l0.2,6.8l1.4,0.3c0.7,0.2,2.8,0.5,4.5,0.6
	c1.7,0.1,3.1,0.3,3.2,0.3s0.2,0.4,0.2,0.8l0.2,0.7l-14.1,0.1c-7.8,0-14.4,0.1-14.7,0.2C281.4,221,281.3,220.9,281.3,220.4z"/>
<path id="path3985" class="st0" d="M418,221.7c-4.7-3.8-13.1-12.8-23.8-25.5c-1.2-1.4-2.2-2.5-2.4-2.5c-0.9,0-11.9,16.8-15,22.8
	l-0.8,1.7l2.7,0.4c1.5,0.2,3,0.5,3.5,0.6c0.8,0.1,1.2,0.5,1.2,1.3c0,0.2-2.8,0.3-11.1,0.4l-11.1,0l0.2-0.6c0.3-0.9,0.7-1.2,2.8-1.5
	c2.8-0.4,3.6-0.9,5.9-3.4c2.8-3,16.4-20.2,19.3-24.3c0.2-0.3-0.3-1-1.7-2.6c-1.1-1.3-4.8-6.1-8.3-10.9c-3.5-4.7-7.3-9.6-8.3-10.8
	c-1.8-2.1-2-2.2-3.7-2.6c-1-0.3-2.2-0.5-2.8-0.5c-0.9,0-1-0.1-1-0.7c0-0.4,0-0.7-0.1-0.8c0-0.1,5.9-0.2,13.2-0.3
	c12.4-0.1,13.3-0.1,13.3,0.3c0,0.9-0.4,1.1-3.3,1.5c-1.6,0.2-3.2,0.5-3.6,0.6l-0.8,0.2l1.9,2.9c3.7,5.7,11.2,16.1,11.6,16.1
	c0.6,0,10.2-13.6,12.5-17.7c0.8-1.5,0.8-1.5-2.8-2.1c-2.5-0.4-2.6-0.5-2.8-1.2c-0.1-0.4-0.1-0.7-0.1-0.7c0,0,4.6-0.1,10.1-0.1
	l10-0.1l-0.2,0.8c-0.1,0.5-0.2,0.8-0.2,0.9c0,0-1.3,0.3-2.7,0.6c-2.6,0.5-2.7,0.6-4.2,2c-1.7,1.7-8.9,9.8-14.2,16l-3.6,4.2l2.1,2.7
	c2.1,2.7,3,4,12.9,17.9c4.2,5.9,10.5,14.5,11.7,16c0.2,0.3-0.3,0.3-2.3,0.3h-2.6L418,221.7z"/>
<path id="path4036" sodipodi:nodetypes="ccccssssscccssssscccsscccscccsccsssscccc" class="st0" d="M637.6,221.1
	c-4.6-3.4-14.3-13.1-24-23.9l-3.9-4.3l-3.9,0.2c-2.2,0.1-4,0.3-4.2,0.4c-0.3,0.2,0.1,23.5,0.4,23.9c0.3,0.4,1.8,0.7,5.6,1.1
	c3.2,0.3,3.3,0.4,3.5,1c0.1,0.4,0.1,0.7,0.1,0.8s-6.6,0.1-14.5,0.2l-14.5,0.1c0-0.5,0-1,0.3-1.4c0.2-0.1,2.2-0.5,4.5-0.7
	c2.3-0.3,4.3-0.6,4.4-0.8c0.1-0.2,0.3-1.4,0.4-2.6c0.2-2.6-0.1-48.5-0.3-49.8c-0.2-1-1.1-1.3-4.6-1.5c-4.6-0.3-4.8-0.3-4.8-1.2v-0.8
	l9.8,0c27.4,0,33.5,1,37.8,5.7c2.7,3,3,6.9,0.8,11.3c-1.6,3.3-5.8,7.7-9.2,9.7l-1.4,0.8l1,1.7c1.4,2.4,9.2,14,12.4,18.5
	c3.2,4.5,4.9,6.7,8,10.2l2.3,2.6l-1.7,0.3c-0.9,0.2-1.8,0.3-1.9,0.3C639.8,222.7,638.8,222,637.6,221.1z M608.8,189.8
	c3.8-0.8,6.3-2,8.7-4.4c2.2-2.2,3.2-4,3.8-7c1.3-6.3-2.8-11.5-10.7-13.5c-3-0.8-8.4-1.3-8.9-0.8c-0.2,0.2-0.4,3.6-0.4,13.5
	l-0.1,13.2l2.4-0.2C605.1,190.4,607.3,190.1,608.8,189.8z"/>
<path id="path4038" sodipodi:nodetypes="ccccssscccssssscccscccscccsscccsssscccccccsssssccc" class="st0" d="M465.7,220
	c0.1-1-0.1-0.9,4.4-1.6l3.1-0.5l1-1.9c1.9-3.7,6-13.7,14.3-35.2c3.4-8.8,6.1-16.3,6-16.4c-0.1-0.1-1.3-0.3-2.8-0.5
	c-4.1-0.6-3.9-0.6-3.9-1.4l0-0.7l13-0.1c12-0.1,13-0.1,12.8,0.4c-0.1,0.2-0.2,0.6-0.2,0.8c0,0.2-1.1,0.5-3.1,0.8
	c-1.7,0.3-3.2,0.6-3.3,0.7c-0.1,0.1,1.3,4.4,3.1,9.5c6.5,18.5,12.1,32.7,15.8,40.6l1.6,3.3l1.3,0.3c1.3,0.3,4.9,0.8,5.9,0.8
	c0.3,0,0.5,0.3,0.6,0.8l0.1,0.8l-14.3,0.1c-7.9,0.1-14.4,0.1-14.4,0.1s0-0.4,0.1-0.9l0.1-0.8l3.7-0.5c4.7-0.6,5-0.7,4.8-1.2
	c-0.3-0.7-2.7-7.4-4.4-12.3c-0.8-2.5-2.2-6.1-2.9-8.1l-1.4-3.6h-1.5c-4.3,0-18.2,0.9-18.5,1.2c-0.6,0.6-4.4,14.4-5.4,19.6
	c-0.4,2-0.7,3.6-0.7,3.7c0,0.2,1.3,0.5,4.4,0.9c3.1,0.5,3.1,0.5,3.2,1.2l0.1,0.7l-10,0c-5.5,0-10.7,0.1-11.4,0.2l-1.4,0.2L465.7,220
	z M505.9,190.1c-0.1-0.4-0.4-1-0.7-1.5c-0.4-0.8-3.9-10.9-6.6-19.1c-0.7-2-1.3-3.7-1.3-3.8c-0.3-0.3-9.2,23.3-9.2,24.5
	c0,0.1,3.1,0.3,6.9,0.3s7.8,0.1,9,0.1l2.1,0.1L505.9,190.1z"/>
<path id="path4092" class="st0" d="M79.4,264c0-0.1,0.1-0.2,0.9-0.3c1.3-0.2,1.2-0.1,1.5-1c0.5-1.1,1.2-3,2.3-5.8
	c1.1-2.9,3.3-8.8,3.3-8.9c0-0.1-0.2-0.1-0.9-0.2c-0.5-0.1-0.9-0.2-0.9-0.2s0-0.1,0-0.2l0-0.2h3.2H92l0,0.2c0,0.1-0.1,0.2-0.9,0.3
	c-0.5,0.1-0.9,0.2-0.9,0.2c0,0,0.2,0.8,0.5,1.6c1.5,4.7,3.7,10.6,5,13.3l0.3,0.6l0.3,0.1c0.2,0,0.7,0.1,1,0.2
	c0.6,0.1,0.7,0.1,0.7,0.3l0,0.2l-3.5,0c-1.9,0-3.5,0-3.5-0.1c0-0.2,0.1-0.3,0.6-0.3c0.6-0.1,1.7-0.2,1.8-0.3c0.1,0-0.1-0.5-0.5-1.7
	c-0.7-1.9-1.5-4.3-1.8-5.1l-0.2-0.5l-1.4,0c-1.4,0-3.1,0.1-3.9,0.2l-0.5,0l-0.3,1c-0.9,2.9-1.7,5.8-1.5,6c0.1,0.1,1.3,0.3,1.5,0.3
	c0.1,0,0.2,0,0.2,0.2c0,0.1,0.1,0.2,0.1,0.2c0,0-1.3,0-2.9,0h-2.9L79.4,264z M90.8,255.7c0-0.1-1.6-4.8-2.2-6.3l-0.4-1.1l-0.1,0.2
	c-0.2,0.3-0.7,1.8-1.5,3.8c-0.9,2.5-1.1,3.1-1.1,3.2c0,0,0.9,0.1,2,0.1s2.3,0,2.6,0C90.6,255.7,90.8,255.7,90.8,255.7z"/>
<path id="path4145" sodipodi:nodetypes="ccccssscccssssssssccccccscccsssscccsssssssc" class="st0" d="M135.5,261.3
	c-3.5-4.3-9.2-11.3-9.4-11.6l-0.1-0.1l0,3.2c0.1,6.7,0.2,10.7,0.3,10.8c0.1,0,0.8,0.1,1.9,0.2c0.4,0,0.8,0.1,0.8,0.1
	c0,0,0,0.1,0,0.2l0,0.1h-3.2c-2.6,0-3.2,0-3.2-0.1c0,0,0-0.1,0-0.2c0,0,0.3-0.1,0.8-0.2c1-0.1,1.2-0.2,1.3-0.3
	c0.1-0.4,0.3-5.2,0.5-11.9c0-2,0-2.7,0-2.8c-0.1,0-0.4-0.1-1.6-0.2c-0.5,0-0.9-0.1-0.9-0.1s0-0.1-0.1-0.2l0-0.2l1.4,0
	c0.7,0,1.8-0.1,2.3-0.1l1,0l0.4,0.6c1.1,1.6,3.9,5.1,7.5,9.6c1.4,1.7,2.6,3.2,2.7,3.4l0.3,0.3l0-1.4c0-3-0.1-10.9-0.3-11.7
	c0-0.2,0-0.2-0.4-0.3c-0.2,0-0.8-0.1-1.3-0.2c-0.5-0.1-0.9-0.1-0.9-0.1s0-0.1,0-0.2l0-0.1h3.1c3,0,3.1,0,3,0.1
	c0,0.1-0.1,0.1-0.1,0.2c0,0-0.4,0.1-0.9,0.2c-0.5,0.1-0.9,0.2-0.9,0.2c0,0-0.2,1.5-0.2,2.6c-0.1,1.3-0.2,4.3-0.2,9.7
	c0,2.3-0.1,4.2-0.1,4.4C138.9,265.5,138.8,265.4,135.5,261.3z"/>
<path id="path4210" sodipodi:nodetypes="ccccssscccssssssssccccccscccsssscccsssssssc" class="st0" d="M422.5,261.3
	c-3.5-4.4-9.3-11.5-9.6-11.8l-0.2-0.2l0,3.2c0.1,6.8,0.2,10.8,0.3,10.9c0.1,0.1,0.8,0.1,1.9,0.2c0.4,0,0.8,0.1,0.8,0.1
	c0,0,0,0.1,0,0.2l0,0.2h-3.2c-2.7,0-3.2,0-3.2-0.1c0,0,0-0.1,0-0.2c0,0,0.3-0.1,0.8-0.2c1-0.1,1.2-0.2,1.3-0.3
	c0.1-0.4,0.3-5.3,0.5-12c0-2.1,0-2.8,0-2.8c-0.1,0-0.4-0.1-1.6-0.2c-0.5,0-0.9-0.1-0.9-0.1c0,0,0-0.1-0.1-0.2l0-0.2l1.4,0
	c0.8,0,1.8-0.1,2.3-0.1l1,0l0.5,0.6c1.2,1.6,3.9,5.1,7.6,9.7c1.4,1.7,2.6,3.3,2.8,3.5l0.3,0.3l0-1.4c0-3-0.1-11.1-0.3-11.8
	c0-0.2,0-0.2-0.4-0.3c-0.2,0-0.8-0.1-1.3-0.2c-0.5-0.1-0.9-0.1-0.9-0.1c0,0,0-0.1,0-0.2l0-0.2h3.1c3.1,0,3.1,0,3.1,0.1
	c0,0.1-0.1,0.1-0.1,0.2c0,0-0.4,0.1-0.9,0.2c-0.5,0.1-0.9,0.2-0.9,0.2c0,0-0.2,1.5-0.2,2.7c-0.1,1.4-0.2,4.4-0.2,9.8
	c0,2.3-0.1,4.3-0.1,4.4C425.9,265.6,425.8,265.5,422.5,261.3z"/>
<path id="path4147" sodipodi:nodetypes="cssssscccsscccssssc" class="st0" d="M167.9,264.2c0,0,0-0.1,0.1-0.2c0-0.1,0.1-0.2,0.3-0.2
	c0.3,0,2.1-0.3,2.1-0.3c0.2-0.2,0.2-14.7,0-14.8c0,0-0.5-0.1-2.1-0.3c-0.3,0-0.3-0.1-0.4-0.2l0-0.1h3.5c3.5,0,3.5,0,3.4,0.1
	c0,0.1-0.1,0.1-0.1,0.2c0,0-0.6,0.1-1.2,0.2l-1.2,0.2l0,0.3c-0.1,0.4-0.1,13.5,0,14.1c0.1,0.5-0.1,0.5,1.4,0.7
	c1.1,0.1,1.1,0.2,1.2,0.4c0,0-1.6,0-3.5,0S167.9,264.2,167.9,264.2z"/>
<path id="path4265" sodipodi:nodetypes="csssssscccsssssssssssssscccssscccssscccscccsssssscccc" class="st0" d="M201.8,264.2
	c0,0,0-0.1,0-0.2c0-0.1,0.2-0.1,0.7-0.2c1.1-0.2,1.1-0.2,1.2-0.4c0.3-1.1,1-14.4,1-14.7c0-0.1-0.4-0.1-1.3-0.3
	c-0.4-0.1-0.7-0.1-0.7-0.1c0,0,0-0.1,0-0.2l0-0.2h3c2.5,0,3,0,2.9,0.1c0,0,0,0.1,0,0.2c0,0-0.3,0.1-0.7,0.2
	c-0.4,0.1-0.8,0.2-0.8,0.2c-0.1,0,0,0.3,0.2,0.9c0.9,2.6,4.8,11,5,11.1c0,0,0,0,0.1,0c0.1-0.1,5.8-11.9,5.8-12c0,0-0.5-0.1-1-0.2
	c-0.6-0.1-0.7-0.1-0.7-0.3c0-0.1,0.3-0.1,2.8-0.1c2.3,0,2.8,0,2.7,0.1c0,0,0,0.1,0,0.2c0,0.1-0.2,0.1-0.7,0.2
	c-0.4,0.1-0.8,0.1-0.9,0.2l-0.2,0.1l0.1,0.5c0.4,1.9,0.3,13.2,0.6,14.3c0.1,0.3,0.1,0.3,1.1,0.4c0.6,0.1,0.8,0.2,0.8,0.4
	c0,0-1,0.1-3.2,0.1l-3.2,0l0-0.2c0-0.2,0-0.2,0.5-0.2c0.7-0.1,2-0.2,2-0.3c0.1-0.1,0-1.1-0.1-4.2c-0.1-2.4,0-9,0-9.3l-0.1-0.2
	l-0.2,0.4c-0.3,0.6-1.9,3.3-3.8,7.3c-1.9,4.1-2.6,5.9-2.8,6.2l-0.1,0.2l-0.1-0.1c-0.1-0.2-2.1-5.4-4.1-10.4c-0.9-2.1-2-3.8-2-3.9
	c-0.1-0.1,0.1,0,0.1,3.1c0,3.3-0.2,5.2-0.2,7.5c0,1.4-0.2,3.2-0.1,3.3c0,0,0.6,0.1,1.3,0.2c1.2,0.1,1.2,0.2,1.2,0.3l0,0.2l-3,0
	C202.3,264.3,201.7,264.3,201.8,264.2z"/>
<path id="path4316" sodipodi:nodetypes="ccccccsssssssssssscccssssssssssssssssssc" class="st0" d="M485.6,266.2
	c0.2-1.5,0.3-3,0.4-5.2l0-1.9l0.2,0.1l0.2,0.1l0,0.8c0.1,1.3,0.1,1.5,0.3,1.9c0.3,0.5,1,1.2,1.5,1.5c0.7,0.4,1.2,0.5,2,0.5
	c0.8,0,1.2-0.1,1.9-0.4c1.3-0.7,2-2.2,1.6-3.7c-0.3-1.1-0.8-1.7-2.8-3c-1.8-1.2-2.4-1.7-3-2.3c-1.2-1.3-1.5-2.9-0.8-4.4
	c0.4-0.8,1-1.4,1.8-1.8c0.8-0.4,1.3-0.5,2.4-0.5c1.1,0,1.9,0.1,2.6,0.4c0.2,0.1,0.4,0.2,0.5,0.2c0.1,0,0.1-0.1,0.3-1l0.2-1l0.2,0
	c0.1,0,0.2,0,0.2,0c0,0,0,0.4-0.1,0.9c-0.2,1.5-0.4,3.2-0.4,4.2c0,0.9,0,1-0.1,0.9c-0.4-0.1-0.3,0-0.4-1c0-1.1-0.1-1.4-0.8-2
	c-0.5-0.5-1-0.8-1.6-0.9c-0.5-0.1-1.6-0.1-2,0.1c-1.3,0.4-2,1.4-1.9,2.6c0.1,1.1,0.6,1.7,3.3,3.4c1.4,0.9,2,1.4,2.6,2
	c0.7,0.8,1.1,1.5,1.3,2.4c0.1,0.6,0,1.7-0.1,2.3c-0.6,1.8-2.1,3-4.2,3.4c-1.1,0.2-2.8,0-3.9-0.3c-0.3-0.1-0.5-0.1-0.5-0.1
	s-0.1,0.5-0.2,1.1c-0.3,1.4-0.3,1.3-0.4,1.3C485.6,266.5,485.5,266.5,485.6,266.2z"/>
<path id="path4328" sodipodi:nodetypes="csssssssssccssssssc" class="st0" d="M372.7,264.6c-2.2-0.3-3.8-1-5.2-2.4
	c-1.2-1.2-1.9-2.5-2.2-4c-0.2-0.9-0.1-2.5,0-3.3c0.4-1.8,1.1-3.2,2.4-4.4c2.2-2.2,4.9-3.1,8.4-2.8c1.4,0.1,2.5,0.4,3.6,1
	c2.3,1.1,3.7,3,4.2,5.4c0.1,0.6,0.1,2,0,2.8c-0.6,4.4-3.9,7.4-8.4,7.9C374.8,264.7,373.5,264.7,372.7,264.6z M376.7,263.6
	c2.9-0.5,4.9-2.4,5.5-5.4c0.2-0.8,0.2-2.4,0-3.2c-0.7-3.3-3.2-5.8-6.5-6.6c-0.8-0.2-2.5-0.2-3.4,0c-3.5,0.8-5.6,3.3-5.6,6.9
	c0,3,1.9,6,4.7,7.4C373.1,263.7,374.8,263.9,376.7,263.6z"/>
<path id="path4378" class="st0" d="M608.4,264.3c0,0,0-0.1,0.1-0.2c0.1-0.1,0.1-0.1,0.6-0.2c0.8-0.1,1.7-0.2,1.8-0.3
	c0.2-0.2,0.3-14.6,0-14.8c-0.1-0.1-1.2-0.2-2-0.3c-0.4,0-0.5-0.1-0.5-0.3c0-0.1,0.6-0.1,5.3-0.1c5.5,0,5.6,0,7.2,0.3
	c2,0.3,3.3,0.9,4.5,2.1c0.6,0.6,0.9,1,1.3,1.7c0.5,1,0.6,2,0.5,3.3c-0.3,3.3-2.2,5.9-5.3,7.4c-1.7,0.8-3.4,1.2-5.7,1.4
	C615.3,264.3,608.4,264.3,608.4,264.3z M617.3,263.5c2.3-0.2,4.5-1.2,6-2.7c0.9-0.9,1.5-2,1.9-3.2c0.1-0.5,0.2-0.7,0.2-1.8
	c0-1.1,0-1.2-0.2-1.8c-0.2-0.7-0.6-1.6-1-2.2c-1.6-2.1-4.4-3.1-8.8-3.1c-0.8,0-1.6,0-1.9,0l-0.5,0l0,0.2c0,0.1-0.1,1.8-0.1,3.8
	c-0.1,2.7-0.1,4.3,0,6.7c0,1.7,0.1,3.3,0.1,3.4c0,0.3,0.1,0.3,1,0.4C615,263.6,616.1,263.6,617.3,263.5z"/>
<path id="path4432" class="st0" d="M292.9,263.7c0-0.1,0-0.1,0-0.1c0,0,0.6-0.1,1.4-0.2c0.8-0.1,1.4-0.2,1.4-0.2
	c0,0,0.1-0.7,0.1-1.6c0-2,0-10.6,0-11.8l0-0.9l-1.3,0c-1.8,0-3.2,0.1-4.2,0.4c-0.6,0.2-0.8,0.3-0.8,0.4c0,0.1-0.1,0.4-0.2,0.8
	c-0.2,1.3-0.2,1.3-0.4,1.4c-0.1,0-0.2,0.1-0.2,0c0,0,0-0.5,0.1-1.2c0.1-1.5,0.2-3,0.2-3.7v-0.6l0.2,0l0.2,0l0,0.5
	c0,0.3,0.1,0.6,0.1,0.7l0,0.2l0.5,0c3,0.2,11.8,0.2,14.1,0l0.4,0l0.1-0.5c0.1-0.3,0.1-0.6,0.1-0.7c0-0.1,0-0.2,0.1-0.2
	c0.2-0.1,0.3,0,0.3,0.1c-0.1,0.2-0.3,1.8-0.5,3.6c-0.1,1-0.2,1.8-0.2,1.8c0,0-0.1,0-0.2,0l-0.2,0l0-1.3l0-1.3l-0.4-0.1
	c-0.8-0.3-2.9-0.5-4.8-0.6l-1.2,0l0,1c-0.1,1.3-0.1,9.2,0,11.6l0,1.8l0.2,0c0.1,0,0.7,0.1,1.4,0.2s1.3,0.1,1.3,0.1c0,0,0,0.1,0,0.2
	l0,0.1h-3.9h-3.9L292.9,263.7z"/>
<path id="path4482" class="st0" d="M572.3,263.9c-2.3-0.4-3.9-1.7-4.7-3.9c-0.4-1.1-0.4-1.1-0.4-6.2c0-2.6-0.1-4.8-0.1-4.9
	c0-0.2-0.1-0.2-1.1-0.4c-0.6-0.1-0.7-0.1-0.7-0.3c0-0.1,0.4-0.1,3-0.1s3,0,3,0.1c0,0,0,0.1,0,0.1c0,0-0.6,0.1-1.2,0.2
	c-0.6,0.1-1.2,0.2-1.2,0.2c-0.1,0.1-0.1,4.1-0.1,6.3c0,2.6,0.1,3.1,0.4,4.2c0.6,2.4,2.1,3.7,4.2,3.9c1.2,0.1,2.3-0.1,3.2-0.5
	c1-0.5,1.8-1.5,2.1-2.9c0.2-0.7,0.2-1.2,0.2-2.8c0-1.5-0.1-8.2-0.1-8.2c0,0-1.4-0.2-2-0.3c-0.4,0-0.4-0.1-0.5-0.2l-0.1-0.2h2.9h2.9
	l-0.1,0.2c0,0.1-0.1,0.2-0.8,0.3c-0.4,0.1-0.8,0.2-0.8,0.2c-0.1,0.1-0.1,3-0.1,5.4c0,2.6,0,3.5-0.2,4.5c-0.6,3-2.5,4.8-5.4,5.1
	C574,264,572.9,264,572.3,263.9z"/>
<path id="path4485" class="st0" d="M248.3,264c0-0.1,0.1-0.2,0.9-0.3c1.3-0.2,1.2-0.1,1.5-1c0.5-1.1,1.2-3,2.3-5.8
	c1.1-2.9,3.3-8.8,3.3-8.9c0-0.1-0.2-0.1-0.9-0.2c-0.5-0.1-0.9-0.2-0.9-0.2c0,0,0-0.1,0-0.2l0-0.2h3.2h3.2l0,0.2
	c0,0.1-0.1,0.2-0.9,0.3c-0.5,0.1-0.9,0.2-0.9,0.2c0,0,0.2,0.8,0.5,1.6c1.5,4.7,3.7,10.6,5,13.3l0.3,0.6l0.3,0.1c0.2,0,0.7,0.1,1,0.2
	c0.6,0.1,0.7,0.1,0.7,0.3l0,0.2l-3.5,0c-1.9,0-3.5,0-3.5-0.1c0-0.2,0.1-0.3,0.6-0.3c0.6-0.1,1.7-0.2,1.8-0.3c0.1,0-0.1-0.5-0.5-1.7
	c-0.7-1.9-1.5-4.3-1.8-5.1l-0.2-0.5l-1.4,0c-1.4,0-3.1,0.1-3.9,0.2l-0.5,0l-0.3,1c-0.9,2.9-1.7,5.8-1.5,6c0.1,0.1,1.3,0.3,1.5,0.3
	c0.1,0,0.2,0,0.2,0.2c0,0.1,0.1,0.2,0.1,0.2c0,0-1.3,0-2.9,0h-2.9L248.3,264z M259.7,255.7c0-0.1-1.6-4.8-2.2-6.3l-0.4-1.1l-0.1,0.2
	c-0.2,0.3-0.7,1.8-1.5,3.8c-0.9,2.5-1.1,3.1-1.1,3.2c0,0,0.9,0.1,2,0.1c1.1,0,2.3,0,2.6,0C259.4,255.7,259.7,255.7,259.7,255.7z"/>
<path id="path4487" sodipodi:nodetypes="cssssscccsscccssssc" class="st0" d="M331.5,264.2c0,0,0-0.1,0.1-0.2c0-0.1,0.1-0.2,0.3-0.2
	c0.3,0,2.1-0.3,2.1-0.3c0.2-0.2,0.2-14.7,0-14.8c0,0-0.5-0.1-2.1-0.3c-0.3,0-0.3-0.1-0.4-0.2l0-0.1h3.5c3.5,0,3.5,0,3.4,0.1
	c0,0.1-0.1,0.1-0.1,0.2c0,0-0.6,0.1-1.2,0.2l-1.2,0.2l0,0.3c-0.1,0.4-0.1,13.5,0,14.1c0.1,0.5-0.1,0.5,1.4,0.7
	c1.1,0.1,1.1,0.2,1.2,0.4c0,0-1.6,0-3.5,0C333.1,264.2,331.5,264.2,331.5,264.2z"/>
<path id="path4489" class="st0" d="M526.9,263.7c0-0.1,0-0.1,0-0.1s0.6-0.1,1.4-0.2c0.8-0.1,1.4-0.2,1.4-0.2c0,0,0.1-0.7,0.1-1.6
	c0-2,0-10.6,0-11.8l0-0.9l-1.3,0c-1.8,0-3.2,0.1-4.2,0.4c-0.6,0.2-0.8,0.3-0.8,0.4c0,0.1-0.1,0.4-0.2,0.8c-0.2,1.3-0.2,1.3-0.4,1.4
	c-0.1,0-0.2,0.1-0.2,0c0,0,0-0.5,0.1-1.2c0.1-1.5,0.2-3,0.2-3.7v-0.6l0.2,0l0.2,0l0,0.5c0,0.3,0.1,0.6,0.1,0.7l0,0.2l0.5,0
	c3,0.2,11.8,0.2,14.1,0l0.4,0l0.1-0.5c0.1-0.3,0.1-0.6,0.1-0.7c0-0.1,0-0.2,0.1-0.2c0.2-0.1,0.3,0,0.3,0.1c-0.1,0.2-0.3,1.8-0.5,3.6
	c-0.1,1-0.2,1.8-0.2,1.8c0,0-0.1,0-0.2,0l-0.2,0l0-1.3l0-1.3l-0.4-0.1c-0.8-0.3-2.9-0.5-4.8-0.6l-1.2,0l0,1c-0.1,1.3-0.1,9.2,0,11.6
	l0,1.8l0.2,0c0.1,0,0.7,0.1,1.4,0.2s1.3,0.1,1.3,0.1c0,0,0,0.1,0,0.2l0,0.1h-3.9h-3.9L526.9,263.7z"/>
<path id="path4491" sodipodi:nodetypes="csssssssssccssssssc" class="st0" d="M694.7,264.6c-2.2-0.3-3.8-1-5.2-2.4
	c-1.2-1.2-1.9-2.5-2.2-4c-0.2-0.9-0.1-2.5,0-3.3c0.4-1.8,1.1-3.2,2.4-4.4c2.2-2.2,4.9-3.1,8.4-2.8c1.4,0.1,2.5,0.4,3.6,1
	c2.3,1.1,3.7,3,4.2,5.4c0.1,0.6,0.1,2,0,2.8c-0.6,4.4-3.9,7.4-8.4,7.9C696.8,264.7,695.5,264.7,694.7,264.6z M698.7,263.6
	c2.9-0.5,4.9-2.4,5.5-5.4c0.2-0.8,0.2-2.4,0-3.2c-0.7-3.3-3.2-5.8-6.5-6.6c-0.8-0.2-2.5-0.2-3.4,0c-3.5,0.8-5.6,3.3-5.6,6.9
	c0,3,1.9,6,4.7,7.4C695.1,263.7,696.8,263.9,698.7,263.6z"/>
<path id="path4493" sodipodi:nodetypes="cssssscccsscccssssc" class="st0" d="M653.5,264.2c0,0,0-0.1,0.1-0.2c0-0.1,0.1-0.2,0.3-0.2
	c0.3,0,2.1-0.3,2.1-0.3c0.2-0.2,0.2-14.7,0-14.8c0,0-0.5-0.1-2.1-0.3c-0.3,0-0.3-0.1-0.4-0.2l0-0.1h3.5c3.5,0,3.5,0,3.4,0.1
	c0,0.1-0.1,0.1-0.1,0.2c0,0-0.6,0.1-1.2,0.2l-1.2,0.2l0,0.3c-0.1,0.4-0.1,13.5,0,14.1c0.1,0.5-0.1,0.5,1.4,0.7
	c1.1,0.1,1.1,0.2,1.2,0.4c0,0-1.6,0-3.5,0C655.1,264.2,653.5,264.2,653.5,264.2z"/>
<path id="path4495" sodipodi:nodetypes="ccccccsssssssssssscccssssssssssssssssssc" class="st0" d="M732.6,266.2
	c0.2-1.5,0.3-3,0.4-5.2l0-1.9l0.2,0.1l0.2,0.1l0,0.8c0.1,1.3,0.1,1.5,0.3,1.9c0.3,0.5,1,1.2,1.5,1.5c0.7,0.4,1.2,0.5,2,0.5
	c0.8,0,1.2-0.1,1.9-0.4c1.3-0.7,2-2.2,1.6-3.7c-0.3-1.1-0.8-1.7-2.8-3c-1.8-1.2-2.4-1.7-3-2.3c-1.2-1.3-1.5-2.9-0.8-4.4
	c0.4-0.8,1-1.4,1.8-1.8c0.8-0.4,1.3-0.5,2.4-0.5c1.1,0,1.9,0.1,2.6,0.4c0.2,0.1,0.4,0.2,0.5,0.2c0.1,0,0.1-0.1,0.3-1l0.2-1l0.2,0
	c0.1,0,0.2,0,0.2,0c0,0,0,0.4-0.1,0.9c-0.2,1.5-0.4,3.2-0.4,4.2c0,0.9,0,1-0.1,0.9c-0.4-0.1-0.3,0-0.4-1c0-1.1-0.1-1.4-0.8-2
	c-0.5-0.5-1-0.8-1.6-0.9c-0.5-0.1-1.6-0.1-2,0.1c-1.3,0.4-2,1.4-1.9,2.6c0.1,1.1,0.6,1.7,3.3,3.4c1.4,0.9,2,1.4,2.6,2
	c0.7,0.8,1.1,1.5,1.3,2.4c0.1,0.6,0,1.7-0.1,2.3c-0.6,1.8-2.1,3-4.2,3.4c-1.1,0.2-2.8,0-3.9-0.3c-0.3-0.1-0.5-0.1-0.5-0.1
	c0,0-0.1,0.5-0.2,1.1c-0.3,1.4-0.3,1.3-0.4,1.3C732.6,266.5,732.6,266.5,732.6,266.2z"/>
</svg>
