<?xml version="1.0" encoding="utf-8"?>
<!-- Generator: Adobe Illustrator 19.0.0, SVG Export Plug-In . SVG Version: 6.00 Build 0)  -->
<svg version="1.1" id="svg5220" xmlns:svg="http://www.w3.org/2000/svg"
	 xmlns="http://www.w3.org/2000/svg" xmlns:xlink="http://www.w3.org/1999/xlink" x="0px" y="0px" viewBox="191 151 994.5 492"
	 style="enable-background:new 191 151 994.5 492;" xml:space="preserve">
<style type="text/css">
	.st0{fill:#D8D8D8;}
	.st1{fill:#FCFCFC;}
</style>
<path id="path5384" class="st0" d="M827.6,592.6v36.7h5.5v-15.9h6.2l10,15.9h6.2l-10.7-15.9c5.4-0.7,9.7-3.8,9.7-10.4
	c0-7.2-4.4-10.4-13.2-10.4L827.6,592.6L827.6,592.6z M833.1,597.4h7.6c3.7,0,8,0.6,8,5.2c0,5.7-4.3,6.2-9,6.2h-6.6V597.4z
	 M840.1,579.1c-17.6,0-32.5,13.5-32.5,31.8c0,18.4,15,32.2,32.5,32.2c17.3,0,31.8-13.7,31.8-32.2
	C871.9,592.6,857.4,579.1,840.1,579.1z M840.1,584.3c14.3,0,25.6,11.6,25.6,26.7c0,15.3-11.3,26.7-25.6,26.7
	c-14.6,0-26.3-11.3-26.3-26.7C813.7,595.9,825.5,584.3,840.1,584.3z"/>
<g>
	<path class="st1" d="M554.5,339.2l-31,97.9c9.3,3.5,20,5.6,31.4,5.6c11.2,0,21.6-2,30.7-5.3l-30.4-98.2H554.5z"/>
	<path class="st1" d="M786.9,307.5h-21.6v78.8h21.6c28.8,0,51.7-9.5,51.7-39.9C838.6,317,815.7,307.5,786.9,307.5z"/>
	<path class="st1" d="M191,150.9v492h502.6L1185.5,151L191,150.9z M796.8,453.9h-31.6v94h-145l-14.4-45c-15.4,5-32.7,7.8-51.1,7.8
		c-18.8,0-36.6-3-52.2-8.3l-14.9,45.4h-88.9l9.8-26.3l-3.6,3.1c-22.1,17.8-49.9,27.6-84.2,28.3h-5.1c-39.5,0-78.1-10.9-110.8-29.5
		l30.2-60.1c32.8,19.3,53.4,23.7,81.1,23.1c14.4-0.4,24.8-3,31.6-10c4.1-4.2,6.2-9.5,6.4-15.2c0.3-15.6-21.9-22.9-49.1-31.3
		c-22.1-6.9-47-16.2-66.6-30.5c-23.1-17-34.2-38.3-33.6-68.3c0.3-21.9,8.4-41.5,23.4-57.1c21.5-22.2,56.2-35.8,97.9-35.8h0.2
		c35.7,0.1,79.4,10.2,110.9,26.3l-34,59.2c-34.5-16.7-51.9-18.3-71.6-19.3c-29.2-1.5-44.1,8.9-44.3,20.2
		c-0.3,13.8,27.8,26.2,54.1,34.7c40,12.7,90.8,29.7,98.5,78.7L513,243.4h84.8l85.5,232.8V243.4h97.9
		c93.6,0.1,137.5,33.5,137.3,106.3C918.5,415,873.2,453.9,796.8,453.9z"/>
</g>
</svg>
