<?xml version="1.0" encoding="utf-8"?>
<!-- Generator: Adobe Illustrator 19.0.0, SVG Export Plug-In . SVG Version: 6.00 Build 0)  -->
<svg version="1.1" id="svg6365" xmlns:svg="http://www.w3.org/2000/svg"
	 xmlns="http://www.w3.org/2000/svg" xmlns:xlink="http://www.w3.org/1999/xlink" x="0px" y="0px"
	 viewBox="206.7 298.9 1012.9 185.5" style="enable-background:new 206.7 298.9 1012.9 185.5;" xml:space="preserve">
<style type="text/css">
	.st0{fill:#FFFFFF;}
	.st1{fill:url(#path6315_1_);}
	.st2{fill:url(#path6315-1_1_);}
	.st3{fill:url(#path6339_1_);}
</style>
<g>
	<path id="path6289" class="st0" d="M626.2,348.2c-7.7-4.2-19.1-6.3-34.9-6.3c-21.6,0-41.7,4.5-49.3,7.3c-1.7,0.6-3.6,2-3.6,4.6
		l0,0.6l2.1,10.8l0.1,0.2c0.7,2.2,2.5,3.2,4.2,3.2h0c0.5,0,1-0.1,1.3-0.2l3.6-0.8c9.4-2.4,23.7-5.9,39.6-5.9
		c9.6,0,16.1,0.8,20.5,2.7c7.1,2.7,7.1,7.2,7.2,14.8v11.3c-0.8,0-2.2,0-4.3,0c-7.8,0-23.1,0.4-38.2,2.8c-23,3.5-42,9-41.9,40.7
		c0,40.2,37.3,40.3,55.2,40.3h0c12.2,0,23.4-1.8,30.7-3.3c16.7-3.9,21-9.2,20.8-25.8V378C639.3,367.8,639.4,355.1,626.2,348.2
		 M617.1,451.4c-8.9,2.9-18.6,4.4-29,4.4v0.9l0-0.9c-16.5-0.1-32.6-2-32.6-23c0.1-16.7,9-18.7,20.3-21.2l0.8-0.2
		c10-2.1,35.3-2.5,40.5-2.6L617.1,451.4L617.1,451.4z M825.7,378v66.8c0.2,16.6-4,21.9-20.8,25.8c-7.3,1.5-18.5,3.3-30.7,3.3h0
		c-17.9,0-55.2-0.1-55.2-40.3c-0.1-31.7,18.9-37.2,41.9-40.7c15.1-2.4,30.4-2.8,38.2-2.8c2.1,0,3.5,0,4.3,0v-11.3
		c-0.1-7.5-0.1-12.1-7.2-14.8c-4.3-1.8-10.8-2.7-20.5-2.7c-15.9,0-30.1,3.6-39.6,5.9l-3.6,0.8c-0.4,0.1-0.8,0.2-1.3,0.2h0
		c-1.7,0-3.5-1-4.2-3.2l-0.1-0.2l-2.1-10.8l0-0.6c0-2.5,1.9-4,3.6-4.6c7.6-2.8,27.7-7.3,49.3-7.3c15.8,0,27.2,2.1,34.9,6.3
		C825.7,355.1,825.7,367.8,825.7,378 M803.4,408.7c-5.2,0.1-30.4,0.5-40.5,2.6l-0.8,0.2c-11.3,2.5-20.2,4.5-20.3,21.2
		c0,21,16.1,22.9,32.6,23l0,0.9v-0.9c10.3,0,20.1-1.5,29-4.4L803.4,408.7L803.4,408.7z M1163.2,341.9c-51.9,0.1-56.3,34.2-56.4,66.1
		c0,31.9,4.5,65.8,56.4,65.9h0c51.9-0.1,56.3-34,56.4-65.9C1219.5,374.6,1215.1,342,1163.2,341.9 M1163.2,455.3
		c-31.5-0.1-33.1-16.3-33.3-47.2c0.2-31.1,1.8-47.4,33.3-47.5c31.5,0.1,33.1,16.4,33.3,47.5C1196.3,439,1194.7,455.2,1163.2,455.3
		 M1070,469.3l-1.4,0.3c-7.3,1.8-17.2,4.4-34.6,4.4h0h0c-48-0.1-57.5-24.3-57.5-66.1c0.1-48,15.3-65.9,56.1-65.9
		c14.4,0,24.3,1.9,31.5,3.6l0-38.7c-0.1-1.7,0.7-3.9,4.7-4.7l12.8-3.3h0.7c2.9,0.1,4,2.7,4,4.9V449
		C1086.4,458.2,1085.3,466.1,1070,469.3 M1064,364.1c-4.3-1.1-16.2-3.8-29.5-3.8c-24.6,0.2-34.9,6.9-35.2,47.7
		c0.3,44.8,13.6,47.2,35.4,47.5l0,0.9v-0.9c13.5,0,25.2-2.8,29.3-4L1064,364.1L1064,364.1z M949.4,470.9H938c-3.1,0-5.4-2.3-5.4-5.4
		v-86.2c-0.2-14.6-4.6-18.6-20.3-18.8c-17.8,0-35.7,4.5-41.7,6.1v98.9c0,3.1-2.2,5.4-5.1,5.4h-11.6c-3.1,0-5.4-2.3-5.4-5.4v-96.6
		c-0.2-8.9,0.7-15.1,13.4-19.2c12.2-4.2,35.5-7.8,50.9-7.8c29.3,0,41.9,10.6,41.9,35.4v88.3C954.7,468.6,952.4,470.9,949.4,470.9
		 M690.9,473.3L690.9,473.3c6.6-0.1,11.4-1.4,13.3-3.6c0.7-0.8,1-1.6,0.9-2.5c0-0.7,0-0.7-1.8-9.1l0-0.2c-0.4-2.2-2-3.2-3.3-3.2
		c-0.1,0-0.2,0-0.2,0c0,0-1.6-0.1-3.3-0.1h0c-4.7-0.1-8.5-0.8-8.6-7.7V303.8c0-2.4-1.4-4.8-4.2-4.9l-0.8,0l-12.8,3.3
		c-2.2,0.2-4.4,1.8-4.3,4.6v140.6C665.7,464.1,674.7,473.2,690.9,473.3L690.9,473.3L690.9,473.3z M510.3,470.9h-91.6
		c-3.1,0-5.4-2.3-5.4-5.4v-11.2c-0.1-2.7,0.8-4,2.5-6.1l72.9-84.7h-71.4c-3.1,0-5.4-2.3-5.4-5.4v-7.9c0-3.1,2.3-5.4,5.4-5.4h92.5
		c3.1,0,5.4,2.3,5.4,5.4v11.4c0,2.1-0.7,3.8-2.3,5.6l-73.1,84.9h70.5c3.1,0,5.4,2.3,5.4,5.4v7.9
		C515.7,468.6,513.4,470.9,510.3,470.9"/>
	
		<linearGradient id="path6315_1_" gradientUnits="userSpaceOnUse" x1="411.2628" y1="791.3863" x2="412.2628" y2="791.3863" gradientTransform="matrix(-104.5993 -181.1712 181.1712 -104.5993 -100032.6406 157790.9063)">
		<stop  offset="0" style="stop-color:#F4F4F4"/>
		<stop  offset="0.3753" style="stop-color:#F4F4F4"/>
		<stop  offset="0.9492" style="stop-color:#FBFBFB"/>
		<stop  offset="0.9492" style="stop-color:#FBFBFB"/>
		<stop  offset="1" style="stop-color:#FBFBFB"/>
	</linearGradient>
	<path id="path6315" class="st1" d="M229.9,330.8c-15.8,0-24,43.2-23.1,83.8c0,0,0,0-0.1,0c0.8,35.6,8.7,69.7,24.3,69.7
		c59.9,0,128.2-56.5,128.2-76.8c0-5.1-5.2-14.8-12.1-22.5c0,0,0,0,0,0c-0.5-0.5-1-1.1-1.5-1.6C324.3,359.6,280,330.8,229.9,330.8z"
		/>
	
		<linearGradient id="path6315-1_1_" gradientUnits="userSpaceOnUse" x1="411.2628" y1="791.431" x2="412.2628" y2="791.431" gradientTransform="matrix(-104.5993 -181.1712 181.1712 -104.5993 -100032.6406 157790.9063)">
		<stop  offset="0" style="stop-color:#F4F4F4"/>
		<stop  offset="0.3753" style="stop-color:#F4F4F4"/>
		<stop  offset="0.9492" style="stop-color:#FBFBFB"/>
		<stop  offset="0.9492" style="stop-color:#FBFBFB"/>
		<stop  offset="1" style="stop-color:#FBFBFB"/>
	</linearGradient>
	<path id="path6315-1" class="st2" d="M206.8,414.6c45,10.6,93.1-1.3,139.6-29.1l0,0c0.2-0.1,0.5-0.3,0.7-0.4l0,0
		c-0.5-0.5-1-1.1-1.4-1.6l0,0c-21.3-23.8-65.6-52.6-115.8-52.6l0,0C214.1,330.8,205.9,374,206.8,414.6 M347.1,385.1
		C347.1,385.1,347.1,385.1,347.1,385.1L347.1,385.1L347.1,385.1z"/>
	
		<linearGradient id="path6339_1_" gradientUnits="userSpaceOnUse" x1="410.6492" y1="795.273" x2="411.6492" y2="795.273" gradientTransform="matrix(152.4999 0 0 152.4999 -62417.2617 -120844.3594)">
		<stop  offset="0" style="stop-color:#F5F5F5"/>
		<stop  offset="0.5338" style="stop-color:#F4F4F4"/>
		<stop  offset="0.5338" style="stop-color:#F4F4F4"/>
		<stop  offset="1" style="stop-color:#F4F4F4"/>
	</linearGradient>
	<path id="path6339" class="st3" d="M206.7,414.6c0.8,35.6,8.7,69.8,24.3,69.8l0,0c59.9,0,128.2-56.5,128.2-76.7l0,0
		c0-5.1-5.2-14.8-12.1-22.5l0,0C300.3,413.2,252,425.2,206.7,414.6"/>
</g>
</svg>
